<svg xmlns="http://www.w3.org/2000/svg" xmlns:xlink="http://www.w3.org/1999/xlink" style="display: none">
  <symbol id="action_repeat" viewBox="0 0 20 20" fill-rule="evenodd">
    <path
      d="M10 3.02h2.64L10.6.99l1-1 3.7 3.72-3.7 3.7-.99-.99 2.02-2H9.99a7.1 7.1 0 1 0 7.1 7.09h1.4A8.5 8.5 0 1 1 9.99 3Z"
    />
  </symbol>
  <symbol id="action_voice-keyboard" viewBox="0 0 20 20" fill-rule="evenodd">
    <path
      d="M10 12.5a2.99 2.99 0 0 0 2.99-3l.01-6a3 3 0 1 0-6 0v6a3 3 0 0 0 3 3Zm5.3-3c0 3-2.54 5.1-5.3 5.1s-5.3-2.1-5.3-5.1H3c0 3.42 2.72 6.23 6 6.72v3.28h2v-3.28c3.28-.48 6-3.3 6-6.72h-1.7Z"
    />
  </symbol>
  <symbol id="action_share" viewBox="0 0 20 20" fill-rule="evenodd">
    <path
      d="M15.3 4.97 9.8 0 4.27 4.97l1.05 1.16L9 2.82v13.2h1.57V2.82l3.68 3.31 1.05-1.16Z M18.71 20H1V7.54h5.22v1.57H2.57v9.32h14.57V9.11H13.5V7.54h5.21V20Z"
    />
  </symbol>
  <symbol id="action_share-android" viewBox="0 0 20 20" fill-rule="evenodd">
    <path
      d="M15.7 18.63a1.57 1.57 0 1 1 0-3.14 1.57 1.57 0 0 1 0 3.14ZM4.33 11.58a1.57 1.57 0 1 1 0-3.14 1.57 1.57 0 0 1 0 3.14ZM15.65 1.37a1.57 1.57 0 1 1 0 3.14 1.57 1.57 0 0 1 0-3.14Zm.04 12.76c-.82 0-1.57.34-2.1.9L7.1 10.93c.1-.3.16-.6.16-.93 0-.33-.06-.65-.17-.95L13.56 5a2.93 2.93 0 0 0 5.03-2.06 2.94 2.94 0 0 0-5.88 0c0 .3.07.6.16.88L6.37 7.9A2.92 2.92 0 0 0 1.4 10a2.94 2.94 0 0 0 4.99 2.1l6.5 4.1a2.94 2.94 0 1 0 2.8-2.08Z"
    />
  </symbol>
  <symbol id="action_search" viewBox="0 0 20 20" fill-rule="evenodd">
    <path
      d="m19.09 18.543-5.526-5.527a7.758 7.758 0 0 0 2.017-5.226C15.58 3.495 12.086 0 7.79 0 3.494 0 0 3.495 0 7.79c0 4.296 3.495 7.79 7.79 7.79a7.754 7.754 0 0 0 4.196-1.23l5.65 5.65 1.457-1.457h-.003ZM2.058 7.79c0-3.159 2.57-5.73 5.73-5.73 3.159 0 5.729 2.571 5.729 5.73 0 3.16-2.57 5.73-5.73 5.73-3.159 0-5.729-2.57-5.729-5.73Z"
    />
  </symbol>
  <symbol id="action_edit" viewBox="0 0 20 20" fill-rule="evenodd">
    <path
      d="M15.27 2.35 17.62 0 20 2.36l-2.36 2.36-2.36-2.37Zm1.32 3.41L14.23 3.4 3.94 13.7l-1.18 3.54 3.54-1.18 10.3-10.3ZM0 20h20v-1.38H0V20Z"
    />
  </symbol>
  <symbol id="action_external-link" viewBox="0 0 20 20" fill-rule="evenodd">
    <path
      d="M10.22 0v1.46h7.28l-8 8 1.03 1.04 8-8v7.28H20V0h-9.78Z M20 20H0V0h7.98v1.46H1.46v17.08h17.08v-6.5H20V20Z"
    />
  </symbol>
  <symbol id="action_calendar" viewBox="0 0 20 20" fill-rule="evenodd">
    <path
      d="M16.56 2.06V0h-1.45v2.06h-2.44V0h-1.45v2.06H8.78V0H7.33v2.06H4.89V0H3.44v2.06H0v17.82h20V2.06h-3.43Zm1.98 1.46v2.12H1.46V3.52h17.08ZM1.46 18.42V7.1h17.08v11.32H1.46Z M4.92 9.47H3.46v2.35h1.46V9.47ZM8.8 9.47H7.36v2.35H8.8V9.47ZM16.59 9.47h-1.46v2.35h1.46V9.47ZM12.7 9.47h-1.46v2.35h1.46V9.47ZM4.92 13.73H3.46v2.35h1.46v-2.35ZM8.8 13.73H7.36v2.35H8.8v-2.35ZM12.7 13.73h-1.46v2.35h1.46v-2.35Z"
    />
  </symbol>
  <symbol id="action_draw" viewBox="0 0 20 20" fill-rule="evenodd">
    <path
      d="M0 0v8.96h5.51v-3.8h1.8l1.66 1.67v6.33L7.3 14.83H5.51v-3.8H0V20h5.51v-3.8h2.36l2.47-2.47v-2.7h4.15v3.45H20V5.52h-5.51v4.14h-4.15v-3.4L7.87 3.8H5.51V0H0Zm1.37 7.59h2.77V1.37H1.37V7.6Zm14.5 5.52h2.76V6.89h-2.77v6.22Zm-14.5 5.52h2.77V12.4H1.37v6.22Z"
    />
  </symbol>
  <symbol id="action_table" viewBox="0 0 20 20" fill-rule="evenodd">
    <path
      d="M2.5 4.54a.04.04 0 0 1-.05-.04V1.1c0-.1-.04-.2-.1-.26L1.61.1a.38.38 0 0 0-.27-.1H.04C.02 0 0 0 0 .03v.87c0 .02.02.04.04.04h1.28c.1 0 .19.08.19.19V4.5c0 .02-.02.04-.04.04H.04a.04.04 0 0 0-.04.03v.87c0 .03.02.04.04.04h3.88c.03 0 .04-.01.04-.04v-.87c0-.02-.01-.03-.04-.03H2.5Zm3.7-1.11H20V2.05H6.2v1.38ZM20 10.69H6.2V9.3H20v1.38Zm0 7.26H6.2v-1.38H20v1.38ZM2.86 14.52c.1 0 .2.04.27.1l.72.74c.07.07.11.16.11.26v1.15l-.01.03-.43.43a.04.04 0 0 0 0 .05l.43.44.01.02v1.16c0 .1-.04.2-.1.26l-.73.73a.37.37 0 0 1-.27.11H.04a.04.04 0 0 1-.04-.04v-.87c0-.01.02-.04.04-.04h2.79c.1 0 .19-.08.19-.19v-1.41c0-.03-.04-.05-.07-.03l-.3.3H.6c-.01 0-.04 0-.04-.02v-.87c0-.03.03-.04.04-.04h2.23c.1 0 .19-.09.19-.19v-.96c-.01-.1-.09-.18-.19-.18H.04c-.02 0-.04-.01-.04-.03v-.87c0-.03.02-.04.04-.04h2.82Zm0-7.2c.1 0 .2.04.27.1l.72.73c.07.08.11.17.11.27v1.06c0 .07-.03.12-.09.16l-2.9 1.9c-.02 0-.02.02-.02.03v.24c0 .03.01.04.03.04h2.94c.03 0 .04.02.04.04v.87c0 .02-.01.04-.04.04H.04c-.02 0-.04-.02-.04-.04V11.1s0-.02.02-.03L3 9.14c.01 0 .02-.01.02-.03v-.66c0-.1-.09-.19-.19-.19H.04c-.02 0-.04-.01-.04-.03v-.87c0-.03.02-.04.04-.04h2.82Z"
    />
  </symbol>
</svg>
