<svg xmlns="http://www.w3.org/2000/svg" xmlns:xlink="http://www.w3.org/1999/xlink" style="display: none">
  <symbol id="action-state_favorite" viewBox="0 0 20 20" fill-rule="evenodd">
    <path
      d="m9.35 0-2.1 6.85L.4 6.83 0 8.14l5.54 4.21-2.13 6.84 1.06.81L10 15.76 15.53 20l1.05-.8-2.12-6.85L20 8.15l-.4-1.32-6.85.02L10.65 0h-1.3ZM8.4 7.8 10 2.57l1.6 5.21.66.5h5.2l-4.22 3.2-.25.81 1.63 5.21-4.22-3.23h-.8l-4.22 3.23 1.63-5.2-.26-.82-4.22-3.2h5.21l.66-.5Z"
    />
  </symbol>
  <symbol id="action-state_favorite-active" viewBox="0 0 20 20" fill-rule="evenodd">
    <path d="m10 15.19-6.18 3.83 1.74-7.06L0 7.26l7.25-.53L10 0l2.75 6.73 7.25.54-5.56 4.69 1.74 7.06L10 15.19Z" />
  </symbol>
  <symbol id="action-state_user" viewBox="0 0 20 20" fill-rule="evenodd">
    <path
      d="M9.772 9.193a4.602 4.602 0 0 1-4.597-4.597A4.602 4.602 0 0 1 9.772 0a4.602 4.602 0 0 1 4.596 4.596 4.602 4.602 0 0 1-4.596 4.597Zm0-7.619a3.026 3.026 0 0 0-3.023 3.022A3.026 3.026 0 0 0 9.772 7.62a3.026 3.026 0 0 0 3.022-3.023 3.026 3.026 0 0 0-3.022-3.022ZM17.543 20H2v-2.071c0-4.758 2.804-7.488 7.695-7.488s7.848 2.84 7.848 7.792V20ZM3.574 18.426H15.97v-.191c0-2.838-1.088-6.218-6.274-6.218-2.793 0-6.12 1.026-6.12 5.914v.497-.002Z"
    />
  </symbol>
  <symbol id="action-state_user-logged" viewBox="0 0 20 20" fill-rule="evenodd">
    <path
      d="m12.393 18.943-3.528-3.43 1.098-1.128 2.352 2.287 4.897-5.469 1.172 1.05-5.99 6.69Z M9.772 9.193a4.602 4.602 0 0 1-4.597-4.597A4.602 4.602 0 0 1 9.772 0a4.602 4.602 0 0 1 4.596 4.596 4.602 4.602 0 0 1-4.596 4.597Zm0-7.619a3.026 3.026 0 0 0-3.023 3.022A3.026 3.026 0 0 0 9.772 7.62a3.026 3.026 0 0 0 3.022-3.023 3.026 3.026 0 0 0-3.022-3.022ZM10.41 18.426H3.574v-.497c0-4.889 3.328-5.914 6.121-5.914.407 0 .8.022 1.174.067.61.074 1.178.207 1.689.398.544.203 1.02.473 1.437.8l1.054-1.178a6.868 6.868 0 0 0-1.94-1.097 8.912 8.912 0 0 0-2.051-.486 11.574 11.574 0 0 0-1.363-.078C4.805 10.44 2 13.17 2 17.929V20h10.03l-1.622-1.574h.002ZM15.836 16.616c.088.499.133 1.039.133 1.619v.19h-1.754L12.805 20h4.738v-1.765c0-1.185-.162-2.188-.434-3.04l-1.273 1.42Z"
    />
  </symbol>
  <symbol id="action-state_pin" viewBox="0 0 20 20" fill-rule="evenodd">
    <path
      d="m15.29 8.96-2.7-2.24 1.25-3.63.04-3.09H6.1v2.85l1.3 3.87L4.7 8.96v4.18h4.6v6.15l.7.71.7-.7v-6.16h4.59V8.96Zm-1.4 2.77H6.1v-2.1l2.95-2.44-1.54-4.45V1.42h4.97v1.32l-1.54 4.45 2.95 2.44v2.1Z"
    />
  </symbol>
  <symbol id="action-state_pin-active" viewBox="0 0 20 20" fill-rule="evenodd">
    <path
      d="m15.38 9.1-3.07-1.98V5.17h2.31V0H4.76v5.17h2.31v1.95L4 9.1v5.78h4.97V20h1.45v-5.12h4.97V9.1Zm-1.45 4.33H5.45V9.9L8.53 7.9v-4.2H6.22V1.47h6.94v2.26h-2.3v4.2l3.07 1.98v3.53Z"
    />
  </symbol>
  <symbol id="action-state_pin-beveled" viewBox="0 0 20 20" fill-rule="evenodd">
    <path
      d="M19 6.9 13.1 1l-2.15 2.15-1.93 3.88-3.74-.37-2.4 2.4 3.5 3.5L1 17.93V19h1.07l5.37-5.38 3.5 3.5 2.4-2.4-.38-3.74 3.68-1.78L19 6.9Zm-7.64 3.18.4 4.08-.82.83-5.93-5.93.83-.83 4.08.41 2.18-4.52.99-.99 3.78 3.78-1 .99-4.51 2.18Z"
    />
  </symbol>
  <symbol id="action-state_pin-beveled-active" viewBox="0 0 20 20" fill-rule="evenodd">
    <path
      d="M16.34 5.16 17.44 0H6.55l-1.1 5.16h2.62l-.4 1.94L4.22 9 3 14.86h5.38L7.3 20h1.48l1.09-5.14h5.2l1.2-5.7-3-2 .42-2h2.65Zm-1.7 4.66-.75 3.59h-9.1l.73-3.45 3.42-1.92.92-4.33H7.24l.48-2.26h7.93l-.48 2.26h-2.65l-.87 4.11 3 2Z"
    />
  </symbol>
  <symbol id="action-state_notification-active" viewBox="0 0 20 20" fill-rule="evenodd">
    <path
      d="M9.82 20a2.6 2.6 0 0 0 2.6-2.6h-5.2a2.6 2.6 0 0 0 2.6 2.6ZM17.64 16.09l-2.26-5.4V7.58c0-1.29-.45-2.48-1.2-3.42a5.22 5.22 0 0 0-3.52-1.92V0H8.98v2.23a5.23 5.23 0 0 0-3.53 1.91 5.52 5.52 0 0 0-1.19 3.43v3.13L2 16.08h15.64Z"
    />
  </symbol>
  <symbol id="action-state_notification-active-alt" viewBox="0 0 20 20" fill-rule="evenodd">
    <path
      d="M10 18.63c-.83 0-1.5-.6-1.66-1.39h3.32A1.7 1.7 0 0 1 10 18.63Zm4.46-12.7-2.23-3.17H10.7V0H9.3v2.76H7.77L5.54 5.93l-.68 6.17-2.2 2.2.98 2.94h3.29A3.1 3.1 0 0 0 10 20a3.1 3.1 0 0 0 3.07-2.76h3.29l.98-2.94-2.2-2.2-.68-6.17Zm1.3.65 1.32.41a3.42 3.42 0 0 0-2.25-4.32l-.41 1.3a2.08 2.08 0 0 1 1.35 2.6Zm-.1-6.54a6.16 6.16 0 0 1 4.05 7.78l-1.31-.41a4.8 4.8 0 0 0-3.15-6.07l.41-1.3ZM3.15 4.36c-.42.82-.5 1.75-.23 2.63l1.31-.41a2.08 2.08 0 0 1 1.35-2.6l-.41-1.31c-.88.27-1.6.88-2.02 1.7ZM4.34.04l.4 1.3A4.8 4.8 0 0 0 1.6 7.41l-1.3.41A6.17 6.17 0 0 1 4.33.04Z"
    />
  </symbol>
  <symbol id="action-state_notification-off" viewBox="0 0 20 20" fill-rule="evenodd">
    <path
      d="M10 4.13H8.45l-.5.7-1.01-.98.78-1.09H9.3V0h1.4v2.76h1.58l2.27 3.17.68 6.05-1.58-1.56-.45-3.99-1.65-2.3H10ZM4.52 15.87H15L6.66 7.7l-.57 5.03-1.98 1.94.41 1.2Zm3.79 1.37a1.73 1.73 0 0 0 3.39 0H8.3ZM20 18.83l-1 .97-2.6-2.56h-3.27A3.14 3.14 0 0 1 10 20a3.14 3.14 0 0 1-3.13-2.76H3.5l-1-2.94 2.25-2.2.63-5.64L0 1.18 1 .2l19 18.62Z"
    />
  </symbol>
  <symbol id="action-state_light-mode" viewBox="0 0 20 20" fill-rule="evenodd">
    <path
      d="M10 15.282A5.289 5.289 0 0 1 4.718 10 5.287 5.287 0 0 1 10 4.718 5.287 5.287 0 0 1 15.283 10 5.287 5.287 0 0 1 10 15.282Zm0-8.83A3.552 3.552 0 0 0 6.452 10 3.55 3.55 0 0 0 10 13.548 3.55 3.55 0 0 0 13.548 10 3.55 3.55 0 0 0 10 6.452ZM10.867 0H9.133v3.32h1.734V0ZM10.867 16.68H9.133V20h1.734v-3.32ZM20 9.133h-3.32v1.734H20V9.133ZM3.32 9.133H0v1.734h3.32V9.133ZM16.46 2.316l-2.348 2.348 1.226 1.227 2.348-2.348-1.226-1.227ZM4.663 14.11l-2.347 2.347 1.226 1.227 2.348-2.348-1.227-1.226ZM15.335 14.11l-1.226 1.226 2.348 2.348 1.226-1.226-2.348-2.348ZM3.542 2.316 2.316 3.542 4.664 5.89 5.89 4.664 3.542 2.316Z"
    />
  </symbol>
  <symbol id="action-state_dark-mode" viewBox="0 0 20 20" fill-rule="evenodd">
    <path
      d="M10.12 10.003c0-4.34 3.374-7.889 7.641-8.174A9.95 9.95 0 0 0 12.003 0C6.478 0 2 4.478 2 10s4.478 10 10.003 10c2.145 0 4.13-.676 5.758-1.829-4.267-.285-7.641-3.835-7.641-8.174v.006Z"
    />
  </symbol>
  <symbol id="action-state_mode-settings" viewBox="0 0 20 20" fill-rule="evenodd">
    <path
      d="M10 4.718A5.289 5.289 0 0 0 4.718 10 5.287 5.287 0 0 0 10 15.283 5.287 5.287 0 0 0 15.283 10 5.287 5.287 0 0 0 10 4.718ZM6.452 10A3.552 3.552 0 0 1 10 6.452v7.094a3.552 3.552 0 0 1-3.548-3.548V10ZM10.867 0H9.133v3.32h1.734V0ZM10.867 16.68H9.133V20h1.734v-3.32ZM20 9.133h-3.32v1.734H20V9.133ZM3.32 9.133H0v1.734h3.32V9.133ZM16.46 2.316l-2.348 2.348 1.226 1.227 2.348-2.348-1.226-1.227ZM4.663 14.11l-2.347 2.347 1.226 1.227 2.348-2.348-1.227-1.226ZM15.335 14.11l-1.226 1.226 2.348 2.348 1.226-1.226-2.348-2.348ZM3.542 2.316 2.316 3.542 4.664 5.89 5.89 4.664 3.542 2.316Z"
    />
  </symbol>
  <symbol id="action-state_eye-off" viewBox="0 0 20 20" fill-rule="evenodd">
    <path
      d="M13.46 13.84a5.15 5.15 0 0 0 .65-6.96l.31-.32A8.9 8.9 0 0 1 18.43 10a9.13 9.13 0 0 1-4.97 3.84ZM1.56 10a9.13 9.13 0 0 1 4.98-3.83 5.13 5.13 0 0 0-.62 7l-.3.3A8.92 8.92 0 0 1 1.57 10Zm4.63 0a3.82 3.82 0 0 1 5.98-3.12L10.65 8.4a1.72 1.72 0 0 0-2.24 2.26L6.9 12.2a3.78 3.78 0 0 1-.7-2.2Zm7.62 0a3.82 3.82 0 0 1-5.94 3.16l1.53-1.55c.2.07.39.12.6.12a1.72 1.72 0 0 0 1.6-2.34l1.54-1.54c.42.61.67 1.35.67 2.15Zm6.02-.32c-.95-1.78-2.51-3.2-4.39-4.15l3.24-3.26-.97-.97-3.62 3.65A12.14 12.14 0 0 0 10 4.22c-4.2 0-8.06 2.14-9.83 5.46L0 10l.17.33c.96 1.79 2.54 3.22 4.44 4.17l-3.14 3.16.98.96 3.51-3.54c1.27.44 2.63.7 4.04.7 4.2 0 8.05-2.14 9.83-5.45L20 10l-.17-.32Z"
    />
  </symbol>
  <symbol id="action-state_eye-on" viewBox="0 0 20 20" fill-rule="evenodd">
    <path
      d="M15.18 9.98c0 1.52-.67 2.88-1.72 3.83a9.14 9.14 0 0 0 4.98-3.83 9.13 9.13 0 0 0-4.98-3.83 5.15 5.15 0 0 1 1.72 3.83ZM6.54 6.15a9.13 9.13 0 0 0-4.98 3.83 9.13 9.13 0 0 0 4.98 3.83 5.15 5.15 0 0 1 0-7.66ZM6.2 9.98a3.82 3.82 0 1 0 7.63-.01 3.82 3.82 0 0 0-7.63.01ZM10 4.2c4.2 0 8.05 2.14 9.83 5.46l.17.32-.17.32c-1.78 3.32-5.63 5.46-9.83 5.46S1.94 13.62.17 10.3L0 9.98l.17-.32C1.95 6.34 5.8 4.2 10 4.2ZM8.28 9.98a1.73 1.73 0 1 1 3.45 0 1.73 1.73 0 0 1-3.45 0Z"
    />
  </symbol>
  <symbol id="action-state_checkmark" viewBox="0 0 20 20" fill-rule="evenodd">
    <path
      d="M10 18.5a8.5 8.5 0 1 0 0-17 8.5 8.5 0 0 0 0 17Zm0 1.5a10 10 0 1 0 0-20 10 10 0 0 0 0 20Z M7.81 12.62 4.97 9.77l-.97.96 3.81 3.82L16 6.36l-.96-.96-7.23 7.22Z"
    />
  </symbol>
  <symbol id="action-state_checkmark-active" viewBox="0 0 20 20" fill-rule="evenodd">
    <circle cx="10" cy="10" r="10" fill="currentColor" />
    <path d="M7.81 12.62 4.97 9.77l-.97.96 3.81 3.82L16 6.36l-.96-.96-7.23 7.22Z" fill="#ffffff" />
  </symbol>
  <symbol id="action-state_connection-error" viewBox="0 0 20 20" fill-rule="evenodd">
    <path
      d="m19.73 1.28-2.12 2.15A10.17 10.17 0 0 1 20 9.97 9.96 9.96 0 0 1 10.13 20c-2.45 0-4.72-.9-6.44-2.43l-2.12 2.16a.72.72 0 0 1-.52.2.72.72 0 0 1-.52-.2.75.75 0 0 1 0-1.06L18.69.22c.3-.3.75-.3 1.04 0 .3.3.3.76 0 1.06Zm-4.55 4.6h2.33a10.7 10.7 0 0 0-.94-1.4l-1.4 1.4Zm-1.69 6.69a20.18 20.18 0 0 0 .03-4.98l-4.9 4.98h4.88Zm-7.6 2.77-1.17 1.18a8.67 8.67 0 0 0 2.33 1.39c-.45-.7-.85-1.58-1.16-2.57Zm1.18-1.2c.65 2.7 1.9 4.38 3.06 4.38 1.16 0 2.43-1.7 3.1-4.47H7.15l-.09.08Zm7.63-.1a11.92 11.92 0 0 1-1.5 3.87 8.42 8.42 0 0 0 4.3-3.86h-2.8Zm.44-4.07c0 .91-.07 1.78-.17 2.6h3.18a8.91 8.91 0 0 0 0-5.2h-3.18c.1.83.17 1.7.17 2.6ZM2.7 14.47l.08.14-1.06 1.07A10.19 10.19 0 0 1 0 10.03 9.96 9.96 0 0 1 9.87 0a9.8 9.8 0 0 1 5.57 1.75l-1.06 1.08c-.46-.3-.93-.55-1.43-.74.27.42.52.9.75 1.44l-1.13 1.13c-.68-1.98-1.72-3.16-2.7-3.16-1.16 0-2.43 1.7-3.07 4.45h4.48L9.83 7.43H6.5A20.98 20.98 0 0 0 6.36 11L5 12.37a20.87 20.87 0 0 1 .04-4.92H1.87a8.91 8.91 0 0 0 0 5.2h2.85l-1.46 1.47H2.5l.2.35Zm2.6-8.52a11.7 11.7 0 0 1 1.5-3.86 8.42 8.42 0 0 0-4.3 3.86h2.8Z"
    />
  </symbol>
  <symbol id="action-state_user-plus" viewBox="0 0 20 20" fill-rule="evenodd">
    <path
      d="M8.98 18.62H2.35v-2.47l1.03-1.05 5.76-1.46v-1.56l-.26-.2c-1.9-1.54-2.83-5.28-1.94-7.84.42-1.22 1.44-2.67 3.9-2.67s3.48 1.45 3.9 2.67c.49 1.4.41 3.13-.38 5.36h1.4c.77-2.4.8-4.26.26-5.82-.8-2.3-2.64-3.58-5.18-3.58C8.3 0 6.46 1.27 5.67 3.58c-1.01 2.92-.08 6.98 1.99 9.03l-4.97 1.25L1 15.58V20h10.54l-1.36-1.37h-1.2ZM10.44 14.88h3.52V11.3c0-.03.02-.05.04-.05h1.4c.02 0 .04.02.04.05v3.57h3.52c.02 0 .04.02.04.04v1.42c0 .02-.02.04-.04.04h-3.52v3.58c0 .02-.02.04-.05.04H14a.04.04 0 0 1-.04-.04v-3.58h-3.52a.04.04 0 0 1-.05-.04v-1.42c0-.02.02-.04.05-.04Z"
    />
  </symbol>
  <symbol id="action-state_gift" viewBox="0 0 20 20" fill-rule="evenodd">
    <path
      d="M20 5.34h-4.4l.05-.01-1.45-4.18h-1.26l-2.27 2.2a2.27 2.27 0 0 0-.67-.11c-.23 0-.46.04-.67.1L7.06 1.16H5.8L4.35 5.33l.05.01H0v4.86h1.54v8.65h16.92V10.2H20V5.34Zm-6.7-2.67.93 2.67h-1.96c-.04-.46-.2-.87-.47-1.22l1.5-1.45Zm-1.26 6.19H7.96V6.69h4.08v2.17ZM10.9 5.34H9.1a.94.94 0 0 1 .91-.76c.46 0 .82.33.91.76ZM6.7 2.67l1.5 1.45c-.27.35-.43.76-.47 1.22H5.77l.93-2.67ZM1.34 6.69h5.28v2.17H1.34V6.69ZM2.88 17.5v-7.3h4.76v7.3H2.88Zm6.1 0v-7.3h2.04v7.3H8.98Zm8.14 0h-4.76v-7.3h4.76v7.3Zm1.54-8.65h-5.28V6.69h5.28v2.17Z"
    />
  </symbol>
  <symbol id="action-state_checkmark-minimal" viewBox="0 0 20 20" fill-rule="evenodd">
    <path d="m6.41 14.83-4.66-4.66-1.59 1.58L6.41 18 19.84 4.58 18.26 3 6.41 14.83Z" />
  </symbol>
  <symbol id="action-state_error-app" viewBox="0 0 20 20" fill-rule="evenodd">
    <path
      d="M14.71 2.47v2.6a4.02 4.02 0 0 0-1.37-.02V3.03l-1.66-1.66H6.04L4.37 3.03v13.92l1.67 1.67h5.65l1.65-1.67v-4a4.02 4.02 0 0 0 1.37-.01v4.57L12.25 20H5.47L3 17.52V2.47L5.47 0h6.77l2.47 2.47Zm-4.53 14.45H7.42v-1.36h2.76v1.36ZM17 11.1 14.9 9 17 6.9l-.9-.9L14 8.1 11.9 6l-.9.9L13.1 9 11 11.1l.9.9L14 9.9l2.1 2.1.9-.9Z"
    />
  </symbol>
  <symbol id="action-state_warning" viewBox="0 0 20 20" fill-rule="evenodd">
    <path
      d="M0.3031 17.5429L9.4647 1.1999H10.5585L19.6968 17.5429L19.1591 18.5199H0.8498L0.3031 17.5429ZM10.9441 13.2909H9.0486V6.1010H9.0492V5.9019H10.9447V13.0919H10.9441V13.2909ZM10.9441 16.5589H9.0486V14.5970H9.0492V14.3969H10.9447V16.3577H10.9441V16.5589Z"
    />
  </symbol>
  <symbol id="action-state_warning-outline" viewBox="0 0 20 20" fill-rule="evenodd">
    <path
      d="M10.56 1 20 17.34l-.56.98H.56L0 17.34 9.44 1h1.12ZM1.81 16.95h16.38L9.99 2.76 1.82 16.95ZM10.97 14.4v1.96H9.01V14.4h1.96Zm0-8.5v7.2H9.01V5.9h1.96Z"
    />
  </symbol>
</svg>
