<svg xmlns="http://www.w3.org/2000/svg" xmlns:xlink="http://www.w3.org/1999/xlink" style="display: none">
  <symbol id="incident-serve_pesapallo-bat" viewBox="0 0 20 20" fill-rule="evenodd">
    <path
      d="M16.93 0 8.1 8.81l-3.16 5.26-3.4 3.45-.56-.56-.98.97L2.07 20l.97-.98-.52-.52 3.4-3.45 5.26-3.16L20 3.06V1.08L18.91 0h-1.98ZM9.2 9.67l8.3-8.3h.84l.28.29v.83l-8.3 8.3-2.81 1.7L9.2 9.66Z"
    />
  </symbol>
  <symbol id="incident-serve_tennis" viewBox="0 0 20 20" fill-rule="evenodd">
    <path
      d="M10 18.63a8.56 8.56 0 0 1-2.98-.57 3.29 3.29 0 0 1-1.83-2.8A3.45 3.45 0 0 1 6.95 12c1.34-.76 3.13-.63 5.6-.43l1.16.09c2.08.13 3.87-.7 4.8-2.24l.05-.1c.01.24.07.46.07.7A8.64 8.64 0 0 1 10 18.62ZM1.37 10c0-.75.13-1.48.32-2.17a3.19 3.19 0 0 0 3.01.23C7.08 7.03 8.3 3.43 8.82 1.49c.39-.05.78-.12 1.18-.12 3 0 5.64 1.55 7.19 3.87.7 1.19.77 2.44.15 3.47-.66 1.09-1.98 1.69-3.53 1.57l-1.15-.1c-2.72-.2-4.68-.36-6.4.62a4.86 4.86 0 0 0-2.44 4.55c.02.28.1.54.16.8A8.58 8.58 0 0 1 1.38 10ZM7.3 1.85C6.63 4.02 5.55 6.2 4.15 6.8c-.87.37-1.6-.01-2.01-.31a8.62 8.62 0 0 1 5.15-4.64ZM18.34 4.5l-.01-.03A10 10 0 1 0 6.57 19.38l.05.04v-.02a10.01 10.01 0 0 0 11.7-14.9Z"
    />
  </symbol>
  <symbol id="incident-serve_american-football" viewBox="0 0 20 20" fill-rule="evenodd">
    <path
      d="m14.2 14.22.02-.02a16.86 16.86 0 0 0 3.24-4.37l-7.29-7.29c-1.49.74-2.96 1.83-4.37 3.24l-.02.01a16.93 16.93 0 0 0-3.2 4.3l7.32 7.33a17 17 0 0 0 4.3-3.2Zm-12.82.4c-.04 1.74.4 2.96.6 3.4.6.27 1.89.65 3.47.6 1.03-.04 2.06-.24 3.09-.61l-6.55-6.55a10.14 10.14 0 0 0-.6 3.17Zm17.23-9.16a8.29 8.29 0 0 0-.6-3.48 8.29 8.29 0 0 0-3.47-.6c-.99.04-2 .23-3 .58l6.5 6.5c.35-1 .54-2.01.57-3ZM14.6 0a9.66 9.66 0 0 1 4.45.96s1.02 1.88.96 4.45c-.04 1.49-.39 3-1.04 4.47-.8 1.82-2.07 3.6-3.77 5.3l-.01.01a17.71 17.71 0 0 1-5.3 3.77A11.76 11.76 0 0 1 5.14 20c-2.41 0-4.18-.96-4.18-.96S-.06 17.16 0 14.6c.04-1.49.4-3 1.04-4.47.8-1.82 2.07-3.6 3.77-5.3l.01-.01a17.7 17.7 0 0 1 5.3-3.77C11.6.4 13.1.04 14.59 0Zm-3.44 7.87.86-.86.98.98-.86.86.65.65-.97.98-.66-.66-1.27 1.28.65.65-.97.98-.66-.66-.86.87-.98-.98.87-.86-.64-.63.98-.98.63.63 1.28-1.27-.64-.63.98-.98.63.63Z"
    />
  </symbol>
  <symbol id="incident-serve_ping-pong" viewBox="0 0 20 20" fill-rule="evenodd">
    <path
      d="M14.73 15 4.99 5.28a7.23 7.23 0 1 1 9.74 9.74ZM4.13 8.63c0-.68.13-1.33.31-1.96l8.9 8.9c-.63.18-1.28.3-1.96.3-4 0-7.24-3.25-7.24-7.24ZM.99 20l4.84-4.85a8.54 8.54 0 0 0 5.56 2.09 8.63 8.63 0 0 0 0-17.24 8.63 8.63 0 0 0-8.62 8.62c0 2.13.8 4.05 2.1 5.56L0 19.03l.97.97Z"
    />
  </symbol>
  <symbol id="incident-serve_baseball" viewBox="0 0 20 20" fill-rule="evenodd">
    <path
      d="M16.1 16.1a8.54 8.54 0 0 1-5.4 2.46c-.02-.52.02-1.03.1-1.53l.92.25.35-1.33-.92-.25c.3-.82.75-1.58 1.32-2.26l.67.67.97-.97-.67-.67a7.67 7.67 0 0 1 2.26-1.32l.24.93 1.33-.36-.25-.92c.5-.09 1.02-.12 1.54-.1a8.56 8.56 0 0 1-2.46 5.4ZM1.44 10.68l.24.01c.56 0 1.11-.06 1.65-.16l.27.98 1.32-.35-.27-1c1.04-.37 2-.94 2.86-1.67l.75.74.97-.97-.72-.73a8.96 8.96 0 0 0 1.67-2.87l.98.26.35-1.33-.98-.26c.11-.62.17-1.25.15-1.89 1.98.15 3.91.95 5.42 2.46a8.55 8.55 0 0 1 2.46 5.43 9.06 9.06 0 0 0-1.89.15l-.27-1-1.32.36.26.99a8.98 8.98 0 0 0-2.88 1.67l-.72-.73-.97.97.72.73a8.96 8.96 0 0 0-1.67 2.87l-.98-.26-.35 1.33.98.26a8.98 8.98 0 0 0-.15 1.9A8.55 8.55 0 0 1 3.9 16.1a8.56 8.56 0 0 1-2.46-5.42ZM3.9 3.9a8.54 8.54 0 0 1 5.4-2.46c.02.52-.02 1.03-.1 1.53l-.92-.25-.35 1.33.92.25c-.3.82-.75 1.58-1.32 2.26l-.67-.67-.97.97.67.67A7.63 7.63 0 0 1 4.3 8.85l-.24-.93-1.33.36.24.92c-.5.08-1 .12-1.53.1.16-1.97.96-3.9 2.46-5.4Zm13.17-.97A10 10 0 1 0 2.93 17.09 10 10 0 0 0 17.07 2.93Z"
    />
  </symbol>
  <symbol id="incident-serve_volleyball" viewBox="0 0 20 20" fill-rule="evenodd">
    <path
      d="M17.006 2.918A9.963 9.963 0 1 0 5.593 18.917a9.963 9.963 0 0 0 14.33-8.955 9.896 9.896 0 0 0-2.917-7.044Zm1.544 7.044a8.575 8.575 0 0 1-.712 3.435 8.936 8.936 0 0 1-2.617-.42 14.67 14.67 0 0 0 .034-6.525 16.533 16.533 0 0 0-1.57-4.235 8.61 8.61 0 0 1 4.865 7.745Zm-6.865-8.416a15.38 15.38 0 0 1 2.227 5.2 13.32 13.32 0 0 1 .018 5.708 8.88 8.88 0 0 1-3.157-2.659c.25-1.655.09-3.347-.464-4.927a10.327 10.327 0 0 0-1.95-3.341 8.717 8.717 0 0 1 3.326.023v-.004ZM3.893 3.893A8.573 8.573 0 0 1 6.87 1.944a8.977 8.977 0 0 1 1.81 2.564 14.788 14.788 0 0 0-4.743 4.037 15.592 15.592 0 0 0-2.193 3.915 8.598 8.598 0 0 1 2.15-8.567ZM2.713 14.57a5.272 5.272 0 0 1-.143-.234 14.377 14.377 0 0 1 2.456-4.954 13.435 13.435 0 0 1 4.142-3.575 8.909 8.909 0 0 1 .248 3.769 10.235 10.235 0 0 0-4.149 7.579 8.621 8.621 0 0 1-2.553-2.585Zm3.908 3.306a8.907 8.907 0 0 1 .572-3.186 14.38 14.38 0 0 0 4.851 3.607 8.668 8.668 0 0 1-5.423-.421Zm9.413-1.842a8.613 8.613 0 0 1-2.08 1.536 13.009 13.009 0 0 1-6.11-4.242A8.88 8.88 0 0 1 9.91 10.93a10.239 10.239 0 0 0 7.188 3.808c-.312.466-.669.9-1.065 1.297Z"
    />
  </symbol>
  <symbol id="incident-serve_cricket-ball" viewBox="0 0 20 20" fill-rule="evenodd">
    <path
      d="M10 18.63a8.55 8.55 0 0 1-3.49-.75l.56-.56-.97-.98-.85.85a6.95 6.95 0 0 1-.7-.55l-.12-.1 12.1-12.1.1.11c.2.23.4.45.56.7l-.85.85.98.97.56-.55A8.64 8.64 0 0 1 10 18.63Zm0-17.26c1.24 0 2.42.28 3.48.75l-.55.56.97.98.85-.85c.25.16.47.36.7.55l.12.1-12.1 12.1-.12-.13c-.19-.22-.38-.44-.54-.68l.85-.85-.98-.97-.56.55A8.64 8.64 0 0 1 10 1.37ZM10 0a10.01 10.01 0 0 0 0 20 10.01 10.01 0 0 0 0-20ZM7.56 14.88l.98.97.97-.97-.97-.98-.98.98Zm4.15-2.2-.98-.97.98-.98.97.98-.97.97Zm2.2-4.14.97.97.98-.97-.98-.98-.98.98Zm-8.79 1.95.98.97-.98.98-.97-.98.97-.97Zm4.15-2.2-.98-.97-.97.97.97.98.98-.98Zm2.2-4.14.97.97-.98.98-.97-.98.97-.97Z"
    />
  </symbol>
  <symbol id="incident-serve_dart" viewBox="0 0 20 20" fill-rule="evenodd">
    <path
      d="m15.17 0-4.13 4.14v3.45L8.96 9.66H7.3L3.45 13.5v1.66L0 18.62V20h1.38l3.45-3.45h1.66l3.85-3.85v-1.66l2.07-2.07h3.45L20 4.83V3.45h-3.45V0h-1.38Zm-2.76 4.83 2.76-2.76v2.76h2.76l-2.76 2.76h-2.76V4.83ZM4.82 15.17v-1.09l3.05-3.05h1.1v1.1l-3.05 3.05h-1.1v-.01Z"
    />
  </symbol>
  <symbol id="incident-serve_badminton" viewBox="0 0 20 20" fill-rule="evenodd">
    <path
      d="m15.9 5.91-1.73-1.74-3.86.6V.08H6.66L4.17 1.74 2.54 13.1.92 14.7a3.09 3.09 0 0 0 0 4.37 3.05 3.05 0 0 0 4.38 0l1.52-1.52 11.54-1.66 1.59-2.46V9.69H15.3l.6-3.78ZM5.54 2.55 7.15 1.4h1.83v4.01L4.5 12.9l-.4-.4 1.42-9.94ZM4.47 18.1a1.68 1.68 0 0 1-2.4 0 1.73 1.73 0 0 1 0-2.43l1.69-1.7 2.4 2.43-1.69 1.7Zm1.87-3.46-.77-.78 4.57-7.67 3.61-.57.75.75-.57 3.65-7.59 4.62Zm12.21-3.56v1.89l-1.02 1.63L7.7 16l-.4-.4 7.41-4.54h3.84Z"
    />
  </symbol>
  <symbol id="incident-serve_baseball-bat" viewBox="0 0 20 20" fill-rule="evenodd">
    <path
      d="M16.93 0 8.1 8.81l-3.16 5.26-3.4 3.45-.56-.56-.98.97L2.07 20l.97-.98-.52-.52 3.4-3.45 5.26-3.16L20 3.06V1.08L18.91 0h-1.98ZM9.2 9.67l8.3-8.3h.84l.28.29v.83l-8.3 8.3-2.81 1.7L9.2 9.66Z"
    />
  </symbol>
  <symbol id="incident-serve_cricket-bat" viewBox="0 0 20 20" fill-rule="evenodd">
    <path
      d="M19.02 0 13.8 5.25l-.4-.42h-2.14L0 16.1V20h3.9L15.17 8.74V6.61l-.4-.39L20 1l-.98-1ZM1.38 16.67 11.83 6.22h1l.95.96v.99L3.33 18.62H1.38v-1.95Z"
    />
  </symbol>
</svg>
