<svg xmlns="http://www.w3.org/2000/svg" xmlns:xlink="http://www.w3.org/1999/xlink" style="display: none">
  <symbol id="action-list_quick-settings" viewBox="0 0 20 20" fill-rule="evenodd">
    <path
      d="M15 13.28H19V14.78H15V13.28ZM1 13.28H11V14.78H1V13.28ZM9 5.22H19V6.72H9V5.22ZM1 5.22H5V6.72H1V5.22ZM13.75 11.03V17.03H12.25V11.03H13.75ZM7.75 2.97V8.97H6.25V2.97H7.75Z"
    />
  </symbol>
  <symbol id="action-list_list-view" viewBox="0 0 20 20" fill-rule="evenodd">
    <path
      d="M18.96 10.75H7.03003V9.25H18.96V10.75ZM18.96 3.98999H7.03003V2.48999H18.96V3.98999ZM18.96 17.51H7.03003V16.01H18.96V17.51ZM3.39999 5.65999C4.72999 5.65999 5.80999 4.57999 5.80999 3.24999C5.80999 1.91999 4.72999 0.829987 3.39999 0.829987C2.06999 0.829987 0.98999 1.90999 0.98999 3.23999C0.98999 4.56999 2.06999 5.64999 3.39999 5.64999V5.65999ZM3.39999 2.19999C3.96999 2.19999 4.43999 2.66999 4.43999 3.23999C4.43999 3.80999 3.96999 4.27999 3.39999 4.27999C2.82999 4.27999 2.35999 3.80999 2.35999 3.23999C2.35999 2.66999 2.82999 2.19999 3.39999 2.19999ZM3.39999 12.41C4.72999 12.41 5.80999 11.33 5.80999 10C5.80999 8.67 4.72999 7.59 3.39999 7.59C2.06999 7.59 0.98999 8.67 0.98999 10C0.98999 11.33 2.06999 12.41 3.39999 12.41ZM3.39999 8.96C3.96999 8.96 4.43999 9.43 4.43999 10C4.43999 10.57 3.96999 11.04 3.39999 11.04C2.82999 11.04 2.35999 10.57 2.35999 10C2.35999 9.43 2.82999 8.96 3.39999 8.96ZM3.39999 19.17C4.72999 19.17 5.80999 18.09 5.80999 16.76C5.80999 15.43 4.72999 14.35 3.39999 14.35C2.06999 14.35 0.98999 15.43 0.98999 16.76C0.98999 18.09 2.06999 19.17 3.39999 19.17ZM3.39999 15.72C3.96999 15.72 4.43999 16.19 4.43999 16.76C4.43999 17.33 3.96999 17.8 3.39999 17.8C2.82999 17.8 2.35999 17.33 2.35999 16.76C2.35999 16.19 2.82999 15.72 3.39999 15.72Z"
    />
  </symbol>
  <symbol id="action-list_list-view-alt" viewBox="0 0 20 20" fill-rule="evenodd">
    <path
      d="M0 5.1h5.09V0H0v5.1Zm1.36-1.36h2.37V1.37H1.36v2.37Zm6.1 1.37h5.08V0H7.46v5.1Zm1.36-1.37h2.36V1.37H8.82v2.37ZM20 5.11H14.9V0H20v5.1Zm-1.36-1.37h-2.37V1.37h2.37v2.37ZM0 12.59h5.09v-5.1H0v5.1Zm1.36-1.37h2.37V8.85H1.36v2.37Zm9.82 0H8.82V8.85h2.36v2.37Zm1.36 1.37H7.46v-5.1h5.08v5.1Zm2.37 0H20v-5.1H14.9v5.1Zm1.36-1.37h2.37V8.85h-2.37v2.37ZM5.1 20H0v-5.1h5.09V20Zm-1.36-1.37H1.36v-2.37h2.37v2.37ZM7.46 20h5.08v-5.1H7.46V20Zm1.36-1.37h2.36v-2.37H8.82v2.37ZM20 20H14.9v-5.1H20V20Zm-1.36-1.37h-2.37v-2.37h2.37v2.37Z"
    />
  </symbol>
  <symbol id="action-list_table" viewBox="0 0 20 20" fill-rule="evenodd">
    <path d="M18 10.75H2V9.25H18V10.75ZM18 4.75H2V3.25H18V4.75ZM18 16.75H2V15.25H18V16.75Z" />
  </symbol>
  <symbol id="action-list_table-advanced" viewBox="0 0 20 20" fill-rule="evenodd">
    <path
      d="M14 3.75H0V5.25H14V3.75ZM20 3.75H16V5.25H20V3.75ZM14 9.25H0V10.75H14V9.25ZM20 9.25H16V10.75H20V9.25ZM14 14.75H0V16.25H14V14.75ZM20 14.75H16V16.25H20V14.75Z"
    />
  </symbol>
  <symbol id="action-list_order" viewBox="0 0 20 20" fill-rule="evenodd">
    <path d="M20 6.87H0V5.5h20v1.37Zm0 7.59H0v-1.37h20v1.37Z" />
  </symbol>
  <symbol id="action-list_order-alt" viewBox="0 0 20 20" fill-rule="evenodd">
    <path
      d="M7.45 3.45H4V0h3.45v3.45Zm8.28 0h-3.45V0h3.45v3.45ZM4 11.73h3.45V8.27H4v3.46Zm11.73 0h-3.45V8.27h3.45v3.46ZM12.28 20h3.44v-3.45h-3.44V20Zm-4.83 0H4v-3.45h3.45V20Z"
    />
  </symbol>
</svg>
