<svg xmlns="http://www.w3.org/2000/svg" xmlns:xlink="http://www.w3.org/1999/xlink" style="display: none">
  <symbol id="action_repeat" viewBox="0 0 20 20" fill-rule="evenodd">
    <path
      d="M10 3.02h2.64L10.6.99l1-1 3.7 3.72-3.7 3.7-.99-.99 2.02-2H9.99a7.1 7.1 0 1 0 7.1 7.09h1.4A8.5 8.5 0 1 1 9.99 3Z"
    />
  </symbol>
  <symbol id="action_voice-keyboard" viewBox="0 0 20 20" fill-rule="evenodd">
    <path
      d="M10 12.5a2.99 2.99 0 0 0 2.99-3l.01-6a3 3 0 1 0-6 0v6a3 3 0 0 0 3 3Zm5.3-3c0 3-2.54 5.1-5.3 5.1s-5.3-2.1-5.3-5.1H3c0 3.42 2.72 6.23 6 6.72v3.28h2v-3.28c3.28-.48 6-3.3 6-6.72h-1.7Z"
    />
  </symbol>
  <symbol id="action_share" viewBox="0 0 20 20" fill-rule="evenodd">
    <path
      d="M16.36 6.84H13.09V8.34H16.36C16.82 8.34 17.2 8.72 17.2 9.18V17.57C17.2 18.03 16.82 18.41 16.36 18.41H3.64C3.18 18.41 2.8 18.03 2.8 17.57V9.18C2.8 8.72 3.18 8.34 3.64 8.34H6.91V6.84H3.64C2.35 6.84 1.3 7.89 1.3 9.18V17.57C1.3 18.86 2.35 19.91 3.64 19.91H16.36C17.65 19.91 18.7 18.86 18.7 17.57V9.18C18.7 7.89 17.65 6.84 16.36 6.84ZM9.25001 3.04999V13.83H10.75V3.04999L12.71 5.06999L13.79 4.01999L10.54 0.679993H9.46001L6.21001 4.01999L7.29001 5.06999L9.25001 3.04999Z"
    />
  </symbol>
  <symbol id="action_share-android" viewBox="0 0 20 20" fill-rule="evenodd">
    <path
      d="m15.54 13.98c-.889 0-1.681.395-2.232 1.009l-6.24-3.927c.104-.304.172-.624.172-.963s-.069-.661-.173-.966l6.337-3.987c.546.551 1.301.894 2.137.894v.01c1.66 0 3.01-1.35 3.01-3.01s-1.351-3.01-3.011-3.01-3.01 1.34-3.01 3c0 .284.052.554.126.814l-6.412 4.035c-.535-.485-1.237-.789-2.014-.789-1.66 0-3.01 1.35-3.01 3.01s1.35 3.01 3.01 3.01c.779 0 1.482-.305 2.017-.791l6.363 4.004c-.049.215-.08.437-.08.667 0 1.66 1.35 3.01 3.01 3.01s3.01-1.35 3.01-3.01-1.35-3.01-3.01-3.01zm0-12.45c.83 0 1.51.68 1.51 1.51s-.68 1.51-1.51 1.51-1.51-.68-1.51-1.51.68-1.51 1.51-1.51zm-11.31 10.09c-.83 0-1.51-.68-1.51-1.51s.68-1.51 1.51-1.51 1.51.68 1.51 1.51-.68 1.51-1.51 1.51zm11.31 6.89c-.83 0-1.51-.68-1.51-1.51s.68-1.51 1.51-1.51 1.51.68 1.51 1.51-.68 1.51-1.51 1.51z"
    />
  </symbol>
  <symbol id="action_search" viewBox="0 0 20 20" fill-rule="evenodd">
    <path
      d="M19.84 18.97L14.8 13.93C16.09 12.45 16.88 10.52 16.88 8.41C16.88 3.78 13.1 0 8.46 0C3.82 0 0.05 3.78 0.05 8.42C0.05 13.06 3.83 16.84 8.47 16.84C10.46 16.84 12.29 16.14 13.73 14.98L18.79 20.04L19.85 18.98L19.84 18.97ZM8.46 15.33C4.65 15.33 1.54 12.23 1.54 8.41C1.54 4.59 4.65 1.5 8.46 1.5C12.27 1.5 15.38 4.6 15.38 8.42C15.38 12.24 12.28 15.34 8.46 15.34V15.33Z"
    />
  </symbol>
  <symbol id="action_edit" viewBox="0 0 20 20" fill-rule="evenodd">
    <path
      d="M15.27 2.35 17.62 0 20 2.36l-2.36 2.36-2.36-2.37Zm1.32 3.41L14.23 3.4 3.94 13.7l-1.18 3.54 3.54-1.18 10.3-10.3ZM0 20h20v-1.38H0V20Z"
    />
  </symbol>
  <symbol id="action_external-link" viewBox="0 0 20 20" fill-rule="evenodd">
    <path
      d="M15.38 3.49H11.74V1.89H17.32L18.12 2.68V8.26H16.5V4.62L7.26 13.87L6.12 12.74L15.38 3.49ZM13.49 19.97H2.46C1.12 19.97 0.0299988 18.88 0.0299988 17.54V6.5C0.0299988 5.15 1.12 4.06 2.46 4.06H10V5.56H2.46C1.94 5.56 1.52 5.98 1.52 6.49V17.53C1.52 18.05 1.94 18.47 2.46 18.47H13.48C14 18.47 14.42 18.05 14.42 17.53V9.99H15.92V17.53C15.92 18.87 14.83 19.97 13.48 19.97H13.49Z"
    />
  </symbol>
  <symbol id="action_calendar" viewBox="0 0 20 20" fill-rule="evenodd">
    <path
      d="M4.87 9.31H3.37V11.22H4.87V9.31ZM7.80005 9.31H6.30005V11.22H7.80005V9.31ZM10.72 9.31H9.21997V11.22H10.72V9.31ZM4.87 13.13H3.37V15.04H4.87V13.13ZM7.80005 13.13H6.30005V15.04H7.80005V13.13ZM16.5601 9.31H15.0601V11.22H16.5601V9.31ZM13.64 9.31H12.14V11.22H13.64V9.31ZM17.2 2.95H16.52V1.09H15.02V2.95H4.91999V1.09H3.41999V2.95H2.73999C1.21999 2.95 -0.0100098 4.19 -0.0100098 5.7V15.69C-0.0100098 17.21 1.21999 18.44 2.73999 18.44H17.2C18.72 18.44 19.95 17.21 19.95 15.69V5.7C19.95 4.18 18.72 2.95 17.2 2.95ZM2.73999 4.45H17.2C17.89 4.45 18.45 5.01 18.45 5.7V6.12H1.48999V5.7C1.48999 5.01 2.04999 4.45 2.73999 4.45ZM17.2 16.94H2.73999C2.04999 16.94 1.48999 16.38 1.48999 15.69V7.63H18.45V15.69C18.45 16.38 17.89 16.94 17.2 16.94Z"
    />
  </symbol>
  <symbol id="action_draw" viewBox="0 0 20 20" fill-rule="evenodd">
    <path
      d="M18.44 5.41H15.61C14.83 5.41 14.2 6.04 14.2 6.82V9.23H10.44L10.39 4.72L9.63999 3.98H5.81999V1.57C5.81999 0.790004 5.18999 0.160004 4.40999 0.160004H1.55999C0.789994 0.160004 0.159994 0.790004 0.159994 1.57V7.89C0.159994 8.67 0.789994 9.3 1.56999 9.3H4.39999C5.17999 9.3 5.80999 8.67 5.80999 7.89V5.48H8.88999L8.99999 14.58H5.80999V12.12C5.80999 11.34 5.17999 10.71 4.39999 10.71H1.55999C0.779994 10.71 0.149994 11.34 0.149994 12.12V18.44C0.149994 19.22 0.779994 19.85 1.55999 19.85H4.38999C5.16999 19.85 5.79999 19.22 5.79999 18.44V16.08H9.74999L10.5 15.32L10.44 10.73H14.18V13.14C14.18 13.92 14.81 14.55 15.59 14.55H18.42C19.2 14.55 19.83 13.92 19.83 13.14V6.82C19.83 6.04 19.2 5.41 18.42 5.41H18.44ZM4.30999 7.79H1.65999V1.66H4.30999V7.8V7.79ZM4.30999 18.34H1.65999V12.2H4.30999V18.34ZM18.34 13.05H15.69V6.91H18.34V13.05Z"
    />
  </symbol>
  <symbol id="action_table" viewBox="0 0 20 20" fill-rule="evenodd">
    <path
      d="M17.06 0.00999451H2.94C1.33 0.00999451 0.0299988 1.31999 0.0299988 2.91999V20.06H19.97V2.91999C19.97 1.31999 18.66 0.00999451 17.06 0.00999451ZM2.94 1.50999H17.06C17.84 1.50999 18.47 2.13999 18.47 2.91999V6.47999H1.53V2.91999C1.53 2.13999 2.16 1.50999 2.94 1.50999ZM1.53 7.97999H6.53V18.56H1.53V7.97999ZM8.03 18.56V7.97999H18.47V18.56H8.03Z"
    />
  </symbol>
</svg>
