<svg xmlns="http://www.w3.org/2000/svg" xmlns:xlink="http://www.w3.org/1999/xlink" style="display: none">
  <symbol id="repeat" viewBox="0 0 20 20" fill-rule="evenodd">
    <path
      d="M10 3.02h2.64L10.6.99l1-1 3.7 3.72-3.7 3.7-.99-.99 2.02-2H9.99a7.1 7.1 0 1 0 7.1 7.09h1.4A8.5 8.5 0 1 1 9.99 3Z"
    />
  </symbol>
  <symbol id="voice-keyboard" viewBox="0 0 20 20" fill-rule="evenodd">
    <path
      d="M10 12.5a2.99 2.99 0 0 0 2.99-3l.01-6a3 3 0 1 0-6 0v6a3 3 0 0 0 3 3Zm5.3-3c0 3-2.54 5.1-5.3 5.1s-5.3-2.1-5.3-5.1H3c0 3.42 2.72 6.23 6 6.72v3.28h2v-3.28c3.28-.48 6-3.3 6-6.72h-1.7Z"
    />
  </symbol>
  <symbol id="share" viewBox="0 0 20 20" fill-rule="evenodd">
    <path
      d="M6.28 3.7 9.98 0l3.7 3.7-.96.96-2.06-2.06v11.23H9.3V2.6L7.24 4.66l-.96-.96Zm6.8 4.63V6.98h3.01l2.47 2.45v8.12L16.09 20H3.87L1.4 17.56V9.5l2.46-2.52H6.9v1.35H4.43l-1.67 1.72v6.94l1.67 1.65h11.1l1.67-1.66V10l-1.67-1.67h-2.46Z"
    />
  </symbol>
  <symbol id="share-android" viewBox="0 0 20 20" fill-rule="evenodd">
    <path
      d="M15.7 18.63a1.57 1.57 0 1 1 0-3.14 1.57 1.57 0 0 1 0 3.14ZM4.33 11.58a1.57 1.57 0 1 1 0-3.14 1.57 1.57 0 0 1 0 3.14ZM15.65 1.37a1.57 1.57 0 1 1 0 3.14 1.57 1.57 0 0 1 0-3.14Zm.04 12.76c-.82 0-1.57.34-2.1.9L7.1 10.93c.1-.3.16-.6.16-.93 0-.33-.06-.65-.17-.95L13.56 5a2.93 2.93 0 0 0 5.03-2.06 2.94 2.94 0 0 0-5.88 0c0 .3.07.6.16.88L6.37 7.9A2.92 2.92 0 0 0 1.4 10a2.94 2.94 0 0 0 4.99 2.1l6.5 4.1a2.94 2.94 0 1 0 2.8-2.08Z"
    />
  </symbol>
  <symbol id="search" viewBox="0 0 20 20" fill-rule="evenodd">
    <path
      d="M8.013 14.639a6.634 6.634 0 0 1-6.626-6.626 6.633 6.633 0 0 1 6.626-6.626 6.633 6.633 0 0 1 6.625 6.626 6.633 6.633 0 0 1-6.625 6.626ZM20 19.02l-5.881-5.882c1.172-1.394 1.906-3.167 1.906-5.126C16.025 3.595 12.43 0 8.013 0 3.594 0 0 3.595 0 8.013c0 4.418 3.594 8.013 8.013 8.013 1.959 0 3.732-.735 5.125-1.907l5.881 5.88.981-.978Z"
    />
  </symbol>
  <symbol id="edit" viewBox="0 0 20 20" fill-rule="evenodd">
    <path
      d="M15.27 2.35 17.62 0 20 2.36l-2.36 2.36-2.36-2.37Zm1.32 3.41L14.23 3.4 3.94 13.7l-1.18 3.54 3.54-1.18 10.3-10.3ZM0 20h20v-1.38H0V20Z"
    />
  </symbol>
  <symbol id="external-link" viewBox="0 0 20 20" fill-rule="evenodd">
    <path
      d="m16.96 18.63 1.67-1.67v-5.24H20v5.8L17.53 20H2.47L0 17.52V2.47L2.47 0h5.8v1.37H3.04L1.37 3.04v13.92l1.67 1.67h13.92ZM11.73 1.37V0H20v8.27h-1.37V2.33l-7.8 7.8-.97-.96 7.8-7.8h-5.93Z"
    />
  </symbol>
  <symbol id="calendar" viewBox="0 0 20 20" fill-rule="evenodd">
    <path
      d="M14.5 1.38V0h1.37v1.38h1.66L20 3.85v13.68L17.53 20H2.47L0 17.53V3.85l2.47-2.47h1.67V0h1.37v1.38h3.8V0h1.38v1.38h3.8Zm1.37 1.38v1.37h-1.38V2.76h-3.8v1.37H9.3V2.76h-3.8v1.37H4.14V2.76h-1.1L1.37 4.42v1.1h17.26v-1.1l-1.67-1.66h-1.1ZM1.37 6.89v10.07l1.67 1.67h13.92l1.67-1.67V6.89H1.37Zm4.15 4.84H4.14V8.97h1.38v2.76Zm2.06 0h1.38V8.97H7.58v2.76Zm-2.06 4.83H4.14V13.8h1.38v2.76Zm2.06 0h1.38V13.8H7.58v2.76Zm4.84-4.83h-1.38V8.97h1.38v2.76Zm-1.38 4.83h1.38V13.8h-1.38v2.76Zm4.83-4.83H14.5V8.97h1.38v2.76Z"
    />
  </symbol>
  <symbol id="draw" viewBox="0 0 20 20" fill-rule="evenodd">
    <path
      d="M0 0v8.96h5.51v-3.8h1.8l1.66 1.67v6.33L7.3 14.83H5.51v-3.8H0V20h5.51v-3.8h2.36l2.47-2.47v-2.7h4.15v3.45H20V5.52h-5.51v4.14h-4.15v-3.4L7.87 3.8H5.51V0H0Zm1.37 7.59h2.77V1.37H1.37V7.6Zm14.5 5.52h2.76V6.89h-2.77v6.22Zm-14.5 5.52h2.77V12.4H1.37v6.22Z"
    />
  </symbol>
  <symbol id="table" viewBox="0 0 20 20" fill-rule="evenodd">
    <path
      d="M2.5 4.54a.04.04 0 0 1-.05-.04V1.1c0-.1-.04-.2-.1-.26L1.61.1a.38.38 0 0 0-.27-.1H.04C.02 0 0 0 0 .03v.87c0 .02.02.04.04.04h1.28c.1 0 .19.08.19.19V4.5c0 .02-.02.04-.04.04H.04a.04.04 0 0 0-.04.03v.87c0 .03.02.04.04.04h3.88c.03 0 .04-.01.04-.04v-.87c0-.02-.01-.03-.04-.03H2.5Zm3.7-1.11H20V2.05H6.2v1.38ZM20 10.69H6.2V9.3H20v1.38Zm0 7.26H6.2v-1.38H20v1.38ZM2.86 14.52c.1 0 .2.04.27.1l.72.74c.07.07.11.16.11.26v1.15l-.01.03-.43.43a.04.04 0 0 0 0 .05l.43.44.01.02v1.16c0 .1-.04.2-.1.26l-.73.73a.37.37 0 0 1-.27.11H.04a.04.04 0 0 1-.04-.04v-.87c0-.01.02-.04.04-.04h2.79c.1 0 .19-.08.19-.19v-1.41c0-.03-.04-.05-.07-.03l-.3.3H.6c-.01 0-.04 0-.04-.02v-.87c0-.03.03-.04.04-.04h2.23c.1 0 .19-.09.19-.19v-.96c-.01-.1-.09-.18-.19-.18H.04c-.02 0-.04-.01-.04-.03v-.87c0-.03.02-.04.04-.04h2.82Zm0-7.2c.1 0 .2.04.27.1l.72.73c.07.08.11.17.11.27v1.06c0 .07-.03.12-.09.16l-2.9 1.9c-.02 0-.02.02-.02.03v.24c0 .03.01.04.03.04h2.94c.03 0 .04.02.04.04v.87c0 .02-.01.04-.04.04H.04c-.02 0-.04-.02-.04-.04V11.1s0-.02.02-.03L3 9.14c.01 0 .02-.01.02-.03v-.66c0-.1-.09-.19-.19-.19H.04c-.02 0-.04-.01-.04-.03v-.87c0-.03.02-.04.04-.04h2.82Z"
    />
  </symbol>
</svg>
