<svg xmlns="http://www.w3.org/2000/svg" xmlns:xlink="http://www.w3.org/1999/xlink" style="display: none">
  <symbol id="favorite" viewBox="0 0 20 20" fill-rule="evenodd">
    <path
      d="m9.35 0-2.1 6.85L.4 6.83 0 8.14l5.54 4.21-2.13 6.84 1.06.81L10 15.76 15.53 20l1.05-.8-2.12-6.85L20 8.15l-.4-1.32-6.85.02L10.65 0h-1.3ZM8.4 7.8 10 2.57l1.6 5.21.66.5h5.2l-4.22 3.2-.25.81 1.63 5.21-4.22-3.23h-.8l-4.22 3.23 1.63-5.2-.26-.82-4.22-3.2h5.21l.66-.5Z"
    />
  </symbol>
  <symbol id="favorite-active" viewBox="0 0 20 20" fill-rule="evenodd">
    <path
      d="m9.35 0-2.1 6.85L.4 6.83 0 8.14l5.54 4.21-2.13 6.84 1.06.81L10 15.76 15.53 20l1.05-.8-2.12-6.85L20 8.15l-.4-1.32-6.85.02L10.65 0h-1.3Z"
    />
  </symbol>
  <symbol id="user" viewBox="0 0 20 20" fill-rule="evenodd">
    <path
      d="M18.63 18.63H1.37v-2.48l1.05-1.05 5.85-1.45v-1.56l-.26-.2C6.08 10.34 5.14 6.6 6.04 4.04 6.47 2.83 7.5 1.37 10 1.37s3.53 1.46 3.96 2.67c.9 2.56-.04 6.3-1.97 7.85l-.26.2v1.56l5.85 1.45 1.05 1.05v2.48Zm-.34-4.77-5.05-1.25c2.1-2.05 3.04-6.1 2.02-9.02C14.44 1.27 12.58 0 10 0 7.42 0 5.55 1.27 4.74 3.59c-1.02 2.92-.08 6.97 2.02 9.02l-5.05 1.25-1.7 1.73V20h20v-4.41l-1.72-1.73Z"
    />
  </symbol>
  <symbol id="user-logged" viewBox="0 0 20 20" fill-rule="evenodd">
    <path
      d="M10 18.63H1.37v-2.48l1.05-1.05 5.85-1.45v-1.56l-.26-.2C6.08 10.33 5.14 6.6 6.04 4.03 6.46 2.82 7.5 1.37 10 1.37s3.53 1.45 3.96 2.67c.9 2.56-.04 6.3-1.98 7.84l-.25.21v1.56l3.34.83 1.13-1.13-2.97-.74c2.1-2.05 3.05-6.1 2.02-9.02C14.45 1.27 12.57 0 10 0 7.42 0 5.55 1.27 4.74 3.59c-1.02 2.91-.08 6.97 2.02 9.02l-5.05 1.25L0 15.6V20h11.54l-1.38-1.37H10Zm8.62-1.99v1.99h-1.99L15.26 20H20v-4.74l-1.37 1.38Zm-5.22 1.4 5.63-5.64.97.97-6.6 6.6-3.25-3.24.98-.97 2.27 2.28Z"
    />
  </symbol>
  <symbol id="pin" viewBox="0 0 20 20" fill-rule="evenodd">
    <path
      d="m15.29 8.96-2.7-2.24 1.25-3.63.04-3.09H6.1v2.85l1.3 3.87L4.7 8.96v4.18h4.6v6.15l.7.71.7-.7v-6.16h4.59V8.96Zm-1.4 2.77H6.1v-2.1l2.95-2.44-1.54-4.45V1.42h4.97v1.32l-1.54 4.45 2.95 2.44v2.1Z"
    />
  </symbol>
  <symbol id="pin-active" viewBox="0 0 20 20" fill-rule="evenodd">
    <path
      d="m15.29 8.96-2.7-2.24 1.25-3.63.03-3.09H6.11v2.85l1.3 3.87L4.7 8.96v4.18h4.6v6.15l.7.71.7-.7v-6.16h4.59V8.96Z"
    />
  </symbol>
  <symbol id="pin-beveled" viewBox="0 0 20 20" fill-rule="evenodd">
    <path
      d="M19 6.9 13.1 1l-2.15 2.15-1.93 3.88-3.74-.37-2.4 2.4 3.5 3.5L1 17.93V19h1.07l5.37-5.38 3.5 3.5 2.4-2.4-.38-3.74 3.68-1.78L19 6.9Zm-7.64 3.18.4 4.08-.82.83-5.93-5.93.83-.83 4.08.41 2.18-4.52.99-.99 3.78 3.78-1 .99-4.51 2.18Z"
    />
  </symbol>
  <symbol id="pin-beveled-active" viewBox="0 0 20 20" fill-rule="evenodd">
    <path
      d="M20 6.57 13.44 0l-2.39 2.39L8.91 6.7l-4.16-.42L2.1 8.96l3.88 3.88L0 18.82V20h1.18l5.98-5.97 3.88 3.88 2.67-2.67-.42-4.15 4.1-1.98L20 6.57Z"
    />
  </symbol>
  <symbol id="notification-active" viewBox="0 0 20 20" fill-rule="evenodd">
    <path
      d="M15.37 15.87H4.63l-.4-1.2 1.94-1.94.7-6.3 1.61-2.3h3.04l1.61 2.3.7 6.3 1.94 1.94-.4 1.2ZM10 18.63c-.83 0-1.5-.6-1.66-1.39h3.32A1.7 1.7 0 0 1 10 18.63Zm4.46-12.7-2.23-3.17H10.7V0H9.3v2.76H7.77L5.54 5.93l-.68 6.17-2.2 2.2.98 2.94h3.29A3.1 3.1 0 0 0 10 20a3.1 3.1 0 0 0 3.07-2.76h3.29l.98-2.94-2.2-2.2-.68-6.17Zm1.3.65 1.32.41a3.42 3.42 0 0 0-2.25-4.32l-.41 1.3a2.08 2.08 0 0 1 1.35 2.6Zm-.1-6.54a6.16 6.16 0 0 1 4.05 7.78l-1.31-.41a4.8 4.8 0 0 0-3.15-6.07l.41-1.3ZM3.15 4.36c-.42.82-.5 1.75-.23 2.63l1.31-.41a2.08 2.08 0 0 1 1.35-2.6l-.41-1.31c-.88.27-1.6.88-2.02 1.7ZM4.34.04l.4 1.3A4.8 4.8 0 0 0 1.6 7.41l-1.3.41A6.17 6.17 0 0 1 4.33.04Z"
    />
  </symbol>
  <symbol id="notification-active-alt" viewBox="0 0 20 20" fill-rule="evenodd">
    <path
      d="M10 18.63c-.83 0-1.5-.6-1.66-1.39h3.32A1.7 1.7 0 0 1 10 18.63Zm4.46-12.7-2.23-3.17H10.7V0H9.3v2.76H7.77L5.54 5.93l-.68 6.17-2.2 2.2.98 2.94h3.29A3.1 3.1 0 0 0 10 20a3.1 3.1 0 0 0 3.07-2.76h3.29l.98-2.94-2.2-2.2-.68-6.17Zm1.3.65 1.32.41a3.42 3.42 0 0 0-2.25-4.32l-.41 1.3a2.08 2.08 0 0 1 1.35 2.6Zm-.1-6.54a6.16 6.16 0 0 1 4.05 7.78l-1.31-.41a4.8 4.8 0 0 0-3.15-6.07l.41-1.3ZM3.15 4.36c-.42.82-.5 1.75-.23 2.63l1.31-.41a2.08 2.08 0 0 1 1.35-2.6l-.41-1.31c-.88.27-1.6.88-2.02 1.7ZM4.34.04l.4 1.3A4.8 4.8 0 0 0 1.6 7.41l-1.3.41A6.17 6.17 0 0 1 4.33.04Z"
    />
  </symbol>
  <symbol id="notification-off" viewBox="0 0 20 20" fill-rule="evenodd">
    <path
      d="M10 4.13H8.45l-.5.7-1.01-.98.78-1.09H9.3V0h1.4v2.76h1.58l2.27 3.17.68 6.05-1.58-1.56-.45-3.99-1.65-2.3H10ZM4.52 15.87H15L6.66 7.7l-.57 5.03-1.98 1.94.41 1.2Zm3.79 1.37a1.73 1.73 0 0 0 3.39 0H8.3ZM20 18.83l-1 .97-2.6-2.56h-3.27A3.14 3.14 0 0 1 10 20a3.14 3.14 0 0 1-3.13-2.76H3.5l-1-2.94 2.25-2.2.63-5.64L0 1.18 1 .2l19 18.62Z"
    />
  </symbol>
  <symbol id="light-mode" viewBox="0 0 20 20" fill-rule="evenodd">
    <path
      d="M10.7 2.76H9.31V0h1.37v2.76Zm6.82.7-.97-.97-1.95 1.95.98.98 1.94-1.96ZM3.47 2.5l1.95 1.95-.98.98L2.5 3.46l.97-.97ZM10 14A4 4 0 1 1 10.01 6a4 4 0 0 1-.01 8Zm0-9.36a5.37 5.37 0 1 0 .02 10.75A5.37 5.37 0 0 0 10 4.63ZM9.32 20h1.37v-2.76H9.32V20Zm7.23-2.44-1.95-1.95.97-.97 1.95 1.95-.97.97ZM2.5 16.55l.97.97 1.95-1.95-.98-.97-1.94 1.95ZM20 10.69h-2.76V9.3H20v1.38Zm-20 0h2.76V9.3H0v1.38Z"
    />
  </symbol>
  <symbol id="dark-mode" viewBox="0 0 20 20" fill-rule="evenodd">
    <path
      d="m11.41 2.49-.08.01a7.36 7.36 0 0 0 2.8 14.45l.07-.02c-1.91-1.22-3.47-3.72-4.05-6.7-.58-2.99-.07-5.89 1.26-7.74Zm1.32 15.97a8.74 8.74 0 1 1 .5-17.44l.33 1.26c-1.83 1.17-2.7 4.4-2.07 7.69.64 3.28 2.65 5.96 4.78 6.35l.17 1.3a8.86 8.86 0 0 1-3.71.84Z"
    />
  </symbol>
  <symbol id="mode-settings" viewBox="0 0 20 20" fill-rule="evenodd">
    <path
      d="M10 4.63a5.37 5.37 0 1 0 .02 10.75A5.37 5.37 0 0 0 10 4.63ZM6 10a4 4 0 0 1 4-4v8a4 4 0 0 1-4-4ZM10.7 17.24H9.31V20h1.37v-2.76ZM15.57 14.64l-.97.97 1.95 1.95.97-.97-1.95-1.95ZM4.44 14.6 2.5 16.55l.97.97 1.95-1.95-.98-.97ZM3.47 2.5l-.97.96 1.94 1.96.98-.97-1.95-1.96ZM16.55 2.5 14.6 4.43l.97.97 1.95-1.95-.97-.97ZM20 9.31h-2.76v1.38H20V9.3ZM2.76 9.31H0v1.38h2.76V9.3ZM10.7 0H9.31v2.76h1.37V0Z"
    />
  </symbol>
  <symbol id="eye-off" viewBox="0 0 20 20" fill-rule="evenodd">
    <path
      d="M13.46 13.84a5.15 5.15 0 0 0 .65-6.96l.31-.32A8.9 8.9 0 0 1 18.43 10a9.13 9.13 0 0 1-4.97 3.84ZM1.56 10a9.13 9.13 0 0 1 4.98-3.83 5.13 5.13 0 0 0-.62 7l-.3.3A8.92 8.92 0 0 1 1.57 10Zm4.63 0a3.82 3.82 0 0 1 5.98-3.12L10.65 8.4a1.72 1.72 0 0 0-2.24 2.26L6.9 12.2a3.78 3.78 0 0 1-.7-2.2Zm7.62 0a3.82 3.82 0 0 1-5.94 3.16l1.53-1.55c.2.07.39.12.6.12a1.72 1.72 0 0 0 1.6-2.34l1.54-1.54c.42.61.67 1.35.67 2.15Zm6.02-.32c-.95-1.78-2.51-3.2-4.39-4.15l3.24-3.26-.97-.97-3.62 3.65A12.14 12.14 0 0 0 10 4.22c-4.2 0-8.06 2.14-9.83 5.46L0 10l.17.33c.96 1.79 2.54 3.22 4.44 4.17l-3.14 3.16.98.96 3.51-3.54c1.27.44 2.63.7 4.04.7 4.2 0 8.05-2.14 9.83-5.45L20 10l-.17-.32Z"
    />
  </symbol>
  <symbol id="eye-on" viewBox="0 0 20 20" fill-rule="evenodd">
    <path
      d="M15.18 9.98c0 1.52-.67 2.88-1.72 3.83a9.14 9.14 0 0 0 4.98-3.83 9.13 9.13 0 0 0-4.98-3.83 5.15 5.15 0 0 1 1.72 3.83ZM6.54 6.15a9.13 9.13 0 0 0-4.98 3.83 9.13 9.13 0 0 0 4.98 3.83 5.15 5.15 0 0 1 0-7.66ZM6.2 9.98a3.82 3.82 0 1 0 7.63-.01 3.82 3.82 0 0 0-7.63.01ZM10 4.2c4.2 0 8.05 2.14 9.83 5.46l.17.32-.17.32c-1.78 3.32-5.63 5.46-9.83 5.46S1.94 13.62.17 10.3L0 9.98l.17-.32C1.95 6.34 5.8 4.2 10 4.2ZM8.28 9.98a1.73 1.73 0 1 1 3.45 0 1.73 1.73 0 0 1-3.45 0Z"
    />
  </symbol>
  <symbol id="checkmark" viewBox="0 0 20 20" fill-rule="evenodd">
    <path
      d="M10 18.5a8.5 8.5 0 1 0 0-17 8.5 8.5 0 0 0 0 17Zm0 1.5a10 10 0 1 0 0-20 10 10 0 0 0 0 20Z M7.81 12.62 4.97 9.77l-.97.96 3.81 3.82L16 6.36l-.96-.96-7.23 7.22Z"
    />
  </symbol>
  <symbol id="checkmark-active" viewBox="0 0 20 20" fill-rule="evenodd">
    <circle cx="10" cy="10" r="10" fill="currentColor" />
    <path d="M7.81 12.62 4.97 9.77l-.97.96 3.81 3.82L16 6.36l-.96-.96-7.23 7.22Z" fill="#ffffff" />
  </symbol>
  <symbol id="connection-error" viewBox="0 0 20 20" fill-rule="evenodd">
    <path
      d="m19.73 1.28-2.12 2.15A10.17 10.17 0 0 1 20 9.97 9.96 9.96 0 0 1 10.13 20c-2.45 0-4.72-.9-6.44-2.43l-2.12 2.16a.72.72 0 0 1-.52.2.72.72 0 0 1-.52-.2.75.75 0 0 1 0-1.06L18.69.22c.3-.3.75-.3 1.04 0 .3.3.3.76 0 1.06Zm-4.55 4.6h2.33a10.7 10.7 0 0 0-.94-1.4l-1.4 1.4Zm-1.69 6.69a20.18 20.18 0 0 0 .03-4.98l-4.9 4.98h4.88Zm-7.6 2.77-1.17 1.18a8.67 8.67 0 0 0 2.33 1.39c-.45-.7-.85-1.58-1.16-2.57Zm1.18-1.2c.65 2.7 1.9 4.38 3.06 4.38 1.16 0 2.43-1.7 3.1-4.47H7.15l-.09.08Zm7.63-.1a11.92 11.92 0 0 1-1.5 3.87 8.42 8.42 0 0 0 4.3-3.86h-2.8Zm.44-4.07c0 .91-.07 1.78-.17 2.6h3.18a8.91 8.91 0 0 0 0-5.2h-3.18c.1.83.17 1.7.17 2.6ZM2.7 14.47l.08.14-1.06 1.07A10.19 10.19 0 0 1 0 10.03 9.96 9.96 0 0 1 9.87 0a9.8 9.8 0 0 1 5.57 1.75l-1.06 1.08c-.46-.3-.93-.55-1.43-.74.27.42.52.9.75 1.44l-1.13 1.13c-.68-1.98-1.72-3.16-2.7-3.16-1.16 0-2.43 1.7-3.07 4.45h4.48L9.83 7.43H6.5A20.98 20.98 0 0 0 6.36 11L5 12.37a20.87 20.87 0 0 1 .04-4.92H1.87a8.91 8.91 0 0 0 0 5.2h2.85l-1.46 1.47H2.5l.2.35Zm2.6-8.52a11.7 11.7 0 0 1 1.5-3.86 8.42 8.42 0 0 0-4.3 3.86h2.8Z"
    />
  </symbol>
  <symbol id="user-plus" viewBox="0 0 20 20" fill-rule="evenodd">
    <path
      d="M8.98 18.62H2.35v-2.47l1.03-1.05 5.76-1.46v-1.56l-.26-.2c-1.9-1.54-2.83-5.28-1.94-7.84.42-1.22 1.44-2.67 3.9-2.67s3.48 1.45 3.9 2.67c.49 1.4.41 3.13-.38 5.36h1.4c.77-2.4.8-4.26.26-5.82-.8-2.3-2.64-3.58-5.18-3.58C8.3 0 6.46 1.27 5.67 3.58c-1.01 2.92-.08 6.98 1.99 9.03l-4.97 1.25L1 15.58V20h10.54l-1.36-1.37h-1.2ZM10.44 14.88h3.52V11.3c0-.03.02-.05.04-.05h1.4c.02 0 .04.02.04.05v3.57h3.52c.02 0 .04.02.04.04v1.42c0 .02-.02.04-.04.04h-3.52v3.58c0 .02-.02.04-.05.04H14a.04.04 0 0 1-.04-.04v-3.58h-3.52a.04.04 0 0 1-.05-.04v-1.42c0-.02.02-.04.05-.04Z"
    />
  </symbol>
  <symbol id="gift" viewBox="0 0 20 20" fill-rule="evenodd">
    <path
      d="M20 5.34h-4.4l.05-.01-1.45-4.18h-1.26l-2.27 2.2a2.27 2.27 0 0 0-.67-.11c-.23 0-.46.04-.67.1L7.06 1.16H5.8L4.35 5.33l.05.01H0v4.86h1.54v8.65h16.92V10.2H20V5.34Zm-6.7-2.67.93 2.67h-1.96c-.04-.46-.2-.87-.47-1.22l1.5-1.45Zm-1.26 6.19H7.96V6.69h4.08v2.17ZM10.9 5.34H9.1a.94.94 0 0 1 .91-.76c.46 0 .82.33.91.76ZM6.7 2.67l1.5 1.45c-.27.35-.43.76-.47 1.22H5.77l.93-2.67ZM1.34 6.69h5.28v2.17H1.34V6.69ZM2.88 17.5v-7.3h4.76v7.3H2.88Zm6.1 0v-7.3h2.04v7.3H8.98Zm8.14 0h-4.76v-7.3h4.76v7.3Zm1.54-8.65h-5.28V6.69h5.28v2.17Z"
    />
  </symbol>
  <symbol id="checkmark-minimal" viewBox="0 0 20 20" fill-rule="evenodd">
    <path d="m6.41 14.83-4.66-4.66-1.59 1.58L6.41 18 19.84 4.58 18.26 3 6.41 14.83Z" />
  </symbol>
  <symbol id="error-app" viewBox="0 0 20 20" fill-rule="evenodd">
    <path
      d="M14.71 2.47v2.6a4.02 4.02 0 0 0-1.37-.02V3.03l-1.66-1.66H6.04L4.37 3.03v13.92l1.67 1.67h5.65l1.65-1.67v-4a4.02 4.02 0 0 0 1.37-.01v4.57L12.25 20H5.47L3 17.52V2.47L5.47 0h6.77l2.47 2.47Zm-4.53 14.45H7.42v-1.36h2.76v1.36ZM17 11.1 14.9 9 17 6.9l-.9-.9L14 8.1 11.9 6l-.9.9L13.1 9 11 11.1l.9.9L14 9.9l2.1 2.1.9-.9Z"
    />
  </symbol>
  <symbol id="warning" viewBox="0 0 20 20" fill-rule="evenodd">
    <path
      d="M0.3031 17.5429L9.4647 1.1999H10.5585L19.6968 17.5429L19.1591 18.5199H0.8498L0.3031 17.5429ZM10.9441 13.2909H9.0486V6.1010H9.0492V5.9019H10.9447V13.0919H10.9441V13.2909ZM10.9441 16.5589H9.0486V14.5970H9.0492V14.3969H10.9447V16.3577H10.9441V16.5589Z"
    />
  </symbol>
  <symbol id="warning-outline" viewBox="0 0 20 20" fill-rule="evenodd">
    <path
      d="M10.56 1 20 17.34l-.56.98H.56L0 17.34 9.44 1h1.12ZM1.81 16.95h16.38L9.99 2.76 1.82 16.95ZM10.97 14.4v1.96H9.01V14.4h1.96Zm0-8.5v7.2H9.01V5.9h1.96Z"
    />
  </symbol>
</svg>
