<svg xmlns="http://www.w3.org/2000/svg" xmlns:xlink="http://www.w3.org/1999/xlink" style="display: none">
  <symbol id="action-state_favorite" viewBox="0 0 20 20" fill-rule="evenodd">
    <path
      d="M10 3.29L8.24 7.64L7.59 8.11L2.9 8.43L6.5 11.43L6.75 12.19L5.6 16.73L9.59 14.24H10.39L14.38 16.73L13.23 12.19L13.48 11.43L17.08 8.43L12.39 8.11L11.74 7.64L9.98 3.29H10ZM7.03 6.64L9.3 1H10.69L12.97 6.64L19.07 7.05L19.5 8.38L14.81 12.28L16.3 18.17L15.17 18.99L9.99 15.75L4.81 18.99L3.68 18.17L5.17 12.28L0.5 8.39L0.93 7.06L7.03 6.65V6.64Z"
    />
  </symbol>
  <symbol id="action-state_favorite-active" viewBox="0 0 20 20" fill-rule="evenodd">
    <path
      d="M7.03 6.64L9.3 1H10.69L12.97 6.64L19.07 7.05L19.5 8.38L14.81 12.28L16.3 18.17L15.17 18.99L9.99 15.75L4.81 18.99L3.68 18.17L5.17 12.28L0.5 8.39L0.93 7.06L7.03 6.65V6.64Z"
    />
  </symbol>
  <symbol id="action-state_user" viewBox="0 0 20 20" fill-rule="evenodd">
    <path
      d="M6.59 5.57999C6.59 3.50999 8.27 1.82999 10.34 1.82999C12.41 1.82999 14.09 3.50999 14.09 5.57999V6.61999C14.09 8.68999 12.41 10.37 10.34 10.37C8.27 10.37 6.59 8.68999 6.59 6.61999V5.57999ZM10.34 3.32999C9.1 3.32999 8.09 4.33999 8.09 5.57999V6.61999C8.09 7.85999 9.1 8.86999 10.34 8.86999C11.58 8.86999 12.59 7.85999 12.59 6.61999V5.57999C12.59 4.33999 11.58 3.32999 10.34 3.32999ZM2.25999 17.15C2.25999 13.97 4.82999 11.4 8.00999 11.4H12.01C15.19 11.4 17.76 13.97 17.76 17.15V19.15L17.01 19.9H3.00999L2.25999 19.15V17.15ZM8.00999 12.9C5.65999 12.9 3.75999 14.8 3.75999 17.15V18.4H16.26V17.15C16.26 14.8 14.36 12.9 12.01 12.9H8.00999Z"
    />
  </symbol>
  <symbol id="action-state_user-logged" viewBox="0 0 20 20" fill-rule="evenodd">
    <path
      d="M11.92 11.4C13.65 11.4 15.21 12.17 16.26 13.38L15.21 14.46C14.43 13.51 13.25 12.9 11.92 12.9H7.92C5.57 12.9 3.67 14.8 3.67 17.15V18.4H9.52L11.01 19.9H2.92L2.17 19.15V17.15C2.17 13.97 4.74 11.4 7.92 11.4H11.92ZM19.9 14.14L14.4 19.79H13.32L9.79 16.19L10.87 15.14L13.86 18.19L18.82 13.09L19.9 14.14ZM6.59 5.57999C6.59 3.50999 8.27 1.82999 10.34 1.82999C12.41 1.82999 14.09 3.50999 14.09 5.57999V6.61999C14.09 8.68999 12.41 10.37 10.34 10.37C8.27 10.37 6.59 8.68999 6.59 6.61999V5.57999ZM10.34 3.32999C9.1 3.32999 8.09 4.33999 8.09 5.57999V6.61999C8.09 7.85999 9.1 8.86999 10.34 8.86999C11.58 8.86999 12.59 7.85999 12.59 6.61999V5.57999C12.59 4.33999 11.58 3.32999 10.34 3.32999Z"
    />
  </symbol>
  <symbol id="action-state_pin" viewBox="0 0 20 20" fill-rule="evenodd">
    <path
      d="M18.85 6.00001L13.75 0.890015L12.58 1.02001L9.29 6.26002C7.42 5.81002 5.38 6.29001 3.92 7.75001V8.81002L6.89 11.78L1.16 17.51V18.57H2.22L7.95 12.84L10.92 15.81H11.98C13.06 14.73 13.65 13.3 13.65 11.78C13.65 11.32 13.58 10.87 13.47 10.44L18.71 7.16001L18.84 5.99001L18.85 6.00001ZM11.41 14.17L5.57 8.33001C7.21 7.20001 9.47 7.36001 10.93 8.81002C12.39 10.27 12.55 12.53 11.41 14.17ZM12.91 9.03001C12.66 8.57001 12.36 8.14002 11.98 7.76002C11.6 7.38001 11.16 7.08001 10.71 6.83001L13.35 2.62001L17.12 6.39001L12.91 9.03001Z"
    />
  </symbol>
  <symbol id="action-state_pin-active" viewBox="0 0 20 20" fill-rule="evenodd">
    <path
      d="M15.7 12.14C15.7 10.08 14.6 8.28 12.96 7.28L14.34 1.26L13.61 0.339996H6.4L5.67 1.26L7.05 7.28C5.41 8.28 4.31 10.08 4.31 12.14L5.06 12.89H9.26V19.15L10.01 19.9L10.76 19.15V12.89H14.96L15.71 12.14H15.7ZM7.33 1.85H12.66L11.55 6.67C11.05 6.53 10.53 6.45 9.99 6.45C9.45 6.45 8.93 6.53 8.43 6.67L7.32 1.85H7.33ZM5.87 11.39C6.22 9.43 7.94 7.94 10 7.94C12.06 7.94 13.77 9.43 14.13 11.39H5.87Z"
    />
  </symbol>
  <symbol id="action-state_pin-beveled" viewBox="0 0 20 20" fill-rule="evenodd">
    <path
      d="M18.85 6.00001L13.75 0.890015L12.58 1.02001L9.29 6.26002C7.42 5.81002 5.38 6.29001 3.92 7.75001V8.81002L6.89 11.78L1.16 17.51V18.57H2.22L7.95 12.84L10.92 15.81H11.98C13.06 14.73 13.65 13.3 13.65 11.78C13.65 11.32 13.58 10.87 13.47 10.44L18.71 7.16001L18.84 5.99001L18.85 6.00001ZM11.41 14.17L5.57 8.33001C7.21 7.20001 9.47 7.36001 10.93 8.81002C12.39 10.27 12.55 12.53 11.41 14.17ZM12.91 9.03001C12.66 8.57001 12.36 8.14002 11.98 7.76002C11.6 7.38001 11.16 7.08001 10.71 6.83001L13.35 2.62001L17.12 6.39001L12.91 9.03001Z"
    />
  </symbol>
  <symbol id="action-state_pin-beveled-active" viewBox="0 0 20 20" fill-rule="evenodd">
    <path
      d="M18.85 6.00001L13.75 0.890015L12.58 1.02001L9.29 6.26002C7.42 5.81002 5.38 6.29001 3.92 7.75001V8.81002L6.89 11.78L1.16 17.51V18.57H2.22L7.95 12.84L10.92 15.81H11.98C13.06 14.73 13.65 13.3 13.65 11.78C13.65 11.32 13.58 10.87 13.47 10.44L18.71 7.16001L18.84 5.99001L18.85 6.00001ZM11.41 14.17L5.57 8.33001C7.21 7.20001 9.47 7.36001 10.93 8.81002C12.39 10.27 12.55 12.53 11.41 14.17ZM12.91 9.03001C12.66 8.57001 12.36 8.14002 11.98 7.76002C11.6 7.38001 11.16 7.08001 10.71 6.83001L13.35 2.62001L17.12 6.39001L12.91 9.03001Z"
    />
  </symbol>
  <symbol id="action-state_notification-active" viewBox="0 0 20 20" fill-rule="evenodd">
    <path
      d="M16.51 16.32H3.49001L2.74001 15.57V12.6L3.49001 11.85C4.18001 11.85 4.79001 10.91 4.79001 10.17V7.24C4.79001 4.48 6.85001 2.12 9.49001 1.87C10.97 1.74 12.4 2.2 13.5 3.2C14.58 4.19 15.2 5.59 15.2 7.05V10.17C15.2 10.91 15.81 11.85 16.5 11.85L17.25 12.6V15.57L16.5 16.32H16.51ZM4.24001 14.82H15.75V13.22C14.54 12.8 13.7 11.42 13.7 10.17V7.05C13.7 6.01 13.26 5.01 12.49 4.31C11.71 3.6 10.69 3.25 9.63001 3.36C7.76001 3.54 6.29001 5.24 6.29001 7.24V10.17C6.29001 11.42 5.45001 12.8 4.24001 13.22V14.82ZM12.25 17.25H7.75V18.75H12.25V17.25Z"
    />
  </symbol>
  <symbol id="action-state_notification-active-alt" viewBox="0 0 20 20" fill-rule="evenodd">
    <path
      d="M14.82 9.79997V7.37997C14.82 4.61997 12.87 2.35997 10.36 2.20997C10.27 2.18997 10.18 2.19997 10.02 2.20997H9.92C9.83 2.20997 9.74 2.19997 9.64 2.20997C7.14 2.36997 5.18 4.62997 5.18 7.38997V9.80997C5.18 11.97 3.51 12.97 3.44 13.01L3.06 13.67V15.91L3.79 16.66H16.21L16.94 15.91V13.67L16.57 13.02C16.5 12.98 14.83 11.97 14.83 9.81997L14.82 9.79997ZM12.25 17.57H7.75V19.07H12.25V17.57ZM5.66001 2.37002L5.34001 0.900024C4.04001 1.18002 2.93001 1.95002 2.21001 3.07002C1.49001 4.19002 1.25001 5.52002 1.53001 6.82002L3.00001 6.50002C2.60001 4.62002 3.79001 2.77002 5.67001 2.36002L5.66001 2.37002ZM17.79 3.07002C17.07 1.95002 15.96 1.18002 14.66 0.900024L14.34 2.37002C16.22 2.77002 17.41 4.63002 17.01 6.51002L18.48 6.83002C18.76 5.53002 18.52 4.20002 17.8 3.08002L17.79 3.07002Z"
    />
  </symbol>
  <symbol id="action-state_notification-off" viewBox="0 0 20 20" fill-rule="evenodd">
    <path
      d="M12.36 17.64H7.85999V19.14H12.36V17.64ZM19.34 17.86L2.28 0.799988L1.22 1.85999L4.5 5.13999L5.26 5.89999C5.11 6.38999 5.03 6.89999 5.03 7.43999V9.85999C5.03 12.02 3.31 13.02 3.24 13.06L2.85 13.72V15.96L3.6 16.71H16.06L18.27 18.92L19.33 17.86H19.34ZM4.35 14.12C5.07 13.59 6.53 12.22 6.53 9.85999V7.43999C6.53 7.35999 6.54 7.26999 6.55 7.18999L14.57 15.21H4.35V14.12ZM9.74 3.76L9.82 3.67V3.75C9.9 3.75 9.96 3.75 9.98 3.75C10.04 3.75 10.1 3.75 10.22 3.75V3.72L10.26 3.76C12.06 3.85 13.47 5.47 13.47 7.44V9.09L15.07 10.69C15.01 10.43 14.97 10.16 14.97 9.86V7.44C14.97 4.69 12.96 2.42 10.38 2.27C10.28 2.25 10.19 2.25 10.03 2.27H9.92C9.82 2.27 9.73 2.27 9.63 2.27C8.82 2.33 8.07 2.6 7.41 3.02L8.49 4.1C8.87 3.91 9.3 3.79 9.75 3.77L9.74 3.76Z"
    />
  </symbol>
  <symbol id="action-state_light-mode" viewBox="0 0 20 20" fill-rule="evenodd">
    <path
      d="M10 6.58002C8.11 6.58002 6.58 8.11002 6.58 10C6.58 11.89 8.11 13.42 10 13.42C11.89 13.42 13.42 11.89 13.42 10C13.42 8.11002 11.89 6.58002 10 6.58002ZM5.08 10C5.08 7.29002 7.28 5.08002 10 5.08002C12.72 5.08002 14.92 7.28002 14.92 10C14.92 12.72 12.72 14.92 10 14.92C7.28 14.92 5.08 12.72 5.08 10ZM9.25 2.96998V0.849976H10.75V2.96998H9.25ZM9.25 19.15V17.03H10.75V19.15H9.25ZM17.03 9.25H19.15V10.75H17.03V9.25ZM0.850006 9.25H2.97001V10.75H0.850006V9.25ZM15.5 14.44L17 15.94L15.94 17L14.44 15.5L15.5 14.44ZM4.06 3L5.56 4.5L4.5 5.56L3 4.06L4.06 3ZM14.44 4.5L15.94 3L17 4.06L15.5 5.56L14.44 4.5ZM3 15.94L4.5 14.44L5.56 15.5L4.06 17L3 15.94Z"
    />
  </symbol>
  <symbol id="action-state_dark-mode" viewBox="0 0 20 20" fill-rule="evenodd">
    <path
      d="M7.89 3.58002C7.17 3.82002 6.49 4.18002 5.89 4.65002C4.88 5.43002 4.11 6.49002 3.67 7.70002C3.24 8.91002 3.15 10.21 3.43 11.46C3.71 12.71 4.34 13.86 5.25 14.76C6.16 15.67 7.3 16.3 8.55 16.58C9.8 16.86 11.11 16.78 12.31 16.34C13.52 15.9 14.57 15.13 15.36 14.12C15.83 13.52 16.19 12.84 16.43 12.12C15.52 12.48 14.53 12.63 13.53 12.56C11.96 12.44 10.48 11.77 9.36 10.65C8.24 9.53002 7.57 8.06002 7.45 6.49002C7.37 5.50002 7.53 4.51002 7.89 3.59002V3.58002ZM4.97 3.46002C6.21 2.50002 7.7 1.92002 9.26 1.77002L9.93 2.96002C9.21 3.94002 8.86 5.14002 8.95 6.36002C9.04 7.57002 9.56 8.72002 10.43 9.58002C11.29 10.44 12.43 10.96 13.65 11.06C14.86 11.15 16.07 10.8 17.05 10.08L18.24 10.75C18.1 12.31 17.51 13.8 16.55 15.04C15.59 16.28 14.3 17.22 12.83 17.75C11.36 18.28 9.76 18.38 8.23 18.04C6.7 17.7 5.3 16.93 4.19 15.82C3.08 14.71 2.31 13.31 1.97 11.78C1.63 10.25 1.73 8.66002 2.26 7.18002C2.79 5.71002 3.73 4.42002 4.97 3.46002Z"
    />
  </symbol>
  <symbol id="action-state_mode-settings" viewBox="0 0 20 20" fill-rule="evenodd">
    <path
      d="M10 6.58002C8.11 6.58002 6.58 8.11002 6.58 10C6.58 11.89 8.11 13.42 10 13.42M5.08 10C5.08 7.29002 7.28 5.08002 10 5.08002C12.72 5.08002 14.92 7.28002 14.92 10C14.92 12.72 12.72 14.92 10 14.92C7.28 14.92 5.08 12.72 5.08 10ZM9.25 2.96998V0.849976H10.75V2.96998H9.25ZM9.25 19.15V17.03H10.75V19.15H9.25ZM17.03 9.25H19.15V10.75H17.03V9.25ZM0.85 9.25H2.97V10.75H0.85V9.25ZM15.5 14.44L17 15.94L15.94 17L14.44 15.5L15.5 14.44ZM4.06 3L5.56 4.5L4.5 5.56L3 4.06L4.06 3ZM14.44 4.5L15.94 3L17 4.06L15.5 5.56L14.44 4.5ZM3 15.94L4.5 14.44L5.56 15.5L4.06 17L3 15.94Z"
    />
  </symbol>
  <symbol id="action-state_eye-off" viewBox="0 0 20 20" fill-rule="evenodd">
    <path
      d="M0.5 10.27L1 9.99998L0.5 9.72998V10.27ZM19.49 9.35C19.38 9.17 19.22 8.93 19.02 8.63C18.6 8.04 17.99 7.25 17.18 6.46C15.57 4.89 13.15 3.25 10.01 3.25C9.18 3.25 8.39 3.37 7.66 3.57L7.59 3.59L8.85 4.85C9.22 4.79 9.61 4.76 10.01 4.76C12.6 4.76 14.67 6.12 16.13 7.55C16.86 8.26 17.42 8.97 17.79 9.51C17.93 9.71 18.04 9.88 18.13 10.02C18.05 10.15 17.94 10.31 17.81 10.5C17.49 10.95 17.04 11.54 16.46 12.15L16.3 12.32L17.36 13.38L17.55 13.19C18.19 12.52 18.69 11.87 19.04 11.37C19.24 11.08 19.39 10.84 19.5 10.67C19.5 10.67 19.5 10.67 19.5 10.66V9.4C19.5 9.4 19.5 9.39 19.49 9.38V9.35ZM0.94 2L4.22 5.28C3.08 6.13 2.18 7.09 1.55 7.89C1.16 8.38 0.86 8.81 0.66 9.12C0.6 9.22 0.55 9.3 0.5 9.37V9.72L1 9.99L0.5 10.26V10.62C0.5 10.62 0.5 10.63 0.51 10.64C0.62 10.82 0.78 11.06 0.98 11.36C1.4 11.95 2.01 12.74 2.82 13.53C4.43 15.1 6.85 16.74 9.99 16.74C11.71 16.74 13.21 16.25 14.48 15.54L17.99 19.05L19.05 17.99L2 0.940002L0.94 2ZM8.35 9.41L10.58 11.65C10.4 11.72 10.2 11.75 9.99 11.75C9.02 11.75 8.24 10.97 8.24 10C8.24 9.79 8.28 9.6 8.34 9.41H8.35ZM7.23 8.29C6.92 8.79 6.75 9.37 6.75 10C6.75 11.8 8.21 13.25 10 13.25C10.62 13.25 11.21 13.07 11.7 12.77L13.38 14.44C12.38 14.93 11.25 15.25 10 15.25C7.41 15.25 5.34 13.89 3.88 12.46C3.15 11.75 2.59 11.04 2.22 10.5C2.08 10.3 1.97 10.13 1.88 9.99C1.89 9.97 1.91 9.95 1.92 9.92C2.1 9.64 2.37 9.25 2.72 8.81C3.34 8.03 4.2 7.11 5.29 6.34L7.23 8.28V8.29Z"
    />
  </symbol>
  <symbol id="action-state_eye-on" viewBox="0 0 20 20" fill-rule="evenodd">
    <path
      d="M9.99999 3.25C13.14 3.25 15.57 4.89 17.17 6.46C17.98 7.25 18.59 8.04 19.01 8.63C19.22 8.92 19.38 9.17 19.48 9.35C19.48 9.35 19.48 9.36 19.49 9.37V10.63C19.49 10.63 19.49 10.64 19.48 10.65C19.37 10.83 19.21 11.07 19.01 11.37C18.59 11.96 17.98 12.75 17.17 13.54C15.56 15.11 13.14 16.75 9.99999 16.75C6.85999 16.75 4.42999 15.11 2.82999 13.54C2.01999 12.75 1.40999 11.96 0.989995 11.37C0.779995 11.08 0.619994 10.83 0.519994 10.65C0.519994 10.65 0.519995 10.64 0.509995 10.63V9.37C0.509995 9.37 0.509994 9.36 0.519994 9.35C0.629994 9.17 0.789995 8.93 0.989995 8.63C1.40999 8.04 2.01999 7.25 2.82999 6.46C4.43999 4.89 6.85999 3.25 9.99999 3.25ZM9.99999 4.75C7.40999 4.75 5.33999 6.11 3.87999 7.54C3.14999 8.25 2.58999 8.96 2.21999 9.5C2.07999 9.7 1.96999 9.87 1.87999 10.01C1.96999 10.15 2.07999 10.32 2.21999 10.52C2.59999 11.05 3.15999 11.77 3.87999 12.48C5.33999 13.91 7.40999 15.27 9.99999 15.27C12.59 15.27 14.66 13.91 16.12 12.48C16.85 11.77 17.41 11.06 17.78 10.52C17.92 10.32 18.03 10.15 18.12 10.01C18.03 9.87 17.92 9.7 17.78 9.5C17.4 8.97 16.84 8.25 16.12 7.54C14.66 6.11 12.59 4.75 9.99999 4.75ZM9.99999 6.75C11.79 6.75 13.25 8.2 13.25 10C13.25 11.8 11.79 13.25 9.99999 13.25C8.20999 13.25 6.74999 11.8 6.74999 10C6.74999 8.2 8.20999 6.75 9.99999 6.75ZM9.99999 8.25C9.02999 8.25 8.24999 9.03 8.24999 10C8.24999 10.97 9.02999 11.75 9.99999 11.75C10.97 11.75 11.75 10.97 11.75 10C11.75 9.03 10.97 8.25 9.99999 8.25Z"
    />
  </symbol>
  <symbol id="action-state_checkmark" viewBox="0 0 20 20" fill-rule="evenodd">
    <path
      d="M10 18.5a8.5 8.5 0 1 0 0-17 8.5 8.5 0 0 0 0 17Zm0 1.5a10 10 0 1 0 0-20 10 10 0 0 0 0 20Z M7.81 12.62 4.97 9.77l-.97.96 3.81 3.82L16 6.36l-.96-.96-7.23 7.22Z"
    />
  </symbol>
  <symbol id="action-state_checkmark-active" viewBox="0 0 20 20" fill-rule="evenodd">
    <circle cx="10" cy="10" r="10" fill="currentColor" />
    <path d="M7.81 12.62 4.97 9.77l-.97.96 3.81 3.82L16 6.36l-.96-.96-7.23 7.22Z" fill="#ffffff" />
  </symbol>
  <symbol id="action-state_connection-error" viewBox="0 0 20 20" fill-rule="evenodd">
    <path
      d="M3.47 14.31C3.31 14.06 3.15 13.81 3.01 13.54H4.24L6.95 10.84C6.94 10.56 6.92 10.29 6.92 9.99999C6.92 9.28999 6.96 8.60999 7.04 7.95999H9.83L11.33 6.45999H7.28C7.84 3.85999 8.96 2.15999 9.99 2.15999C10.87 2.15999 11.81 3.39999 12.42 5.37999L13.62 4.17999C13.42 3.64999 13.19 3.15999 12.94 2.72999C13.43 2.92999 13.89 3.17999 14.33 3.46999L15.4 2.39999C13.87 1.30999 12.01 0.649994 10 0.649994C4.85 0.659994 0.660004 4.84999 0.660004 9.99999C0.660004 12.01 1.31 13.86 2.4 15.39L3.48 14.31H3.47ZM7.06 2.72999C6.48 3.69999 6.03 4.97999 5.75 6.44999H3.02C3.87 4.76999 5.31 3.43999 7.07 2.72999H7.06ZM2.43 7.95999H5.52C5.45 8.60999 5.42 9.29999 5.42 9.99999C5.42 10.7 5.46 11.39 5.52 12.04H2.43C2.25 11.39 2.15 10.71 2.15 9.99999C2.15 9.28999 2.25 8.60999 2.43 7.95999ZM19.4 2.22L18.34 1.16L18.32 1.18H18.36L14.85 4.68L4.55 14.95L1.28 18.22L2.34 19.28L4.26 17.36C5.85 18.6 7.84 19.35 10 19.35C15.15 19.35 19.34 15.16 19.34 10.01C19.34 7.84 18.59 5.85 17.35 4.27L19.39 2.23L19.4 2.22ZM15.89 5.72L16.28 5.33C16.54 5.69 16.78 6.06 16.99 6.46H15.15L15.89 5.72ZM13.01 8.6C13.05 9.05 13.07 9.52 13.07 10C13.07 10.71 13.03 11.39 12.95 12.04H9.56L13 8.6H13.01ZM5.33 16.28L5.61 16L6.22 15.39C6.45 16.09 6.73 16.73 7.05 17.27C6.43 17.02 5.85 16.68 5.32 16.29L5.33 16.28ZM10 17.84C9.05 17.84 8.04 16.4 7.45 14.16L8.07 13.54H12.71C12.15 16.14 11.03 17.84 10 17.84ZM12.94 17.27C13.52 16.3 13.97 15.02 14.25 13.55H16.98C16.13 15.23 14.69 16.56 12.93 17.27H12.94ZM17.57 7.96C17.75 8.61 17.85 9.29 17.85 10C17.85 10.71 17.75 11.39 17.57 12.04H14.48C14.55 11.39 14.58 10.7 14.58 10C14.58 9.3 14.54 8.61 14.48 7.96H17.57Z"
    />
  </symbol>
  <symbol id="action-state_user-plus" viewBox="0 0 20 20" fill-rule="evenodd">
    <path
      d="M8.98 18.62H2.35v-2.47l1.03-1.05 5.76-1.46v-1.56l-.26-.2c-1.9-1.54-2.83-5.28-1.94-7.84.42-1.22 1.44-2.67 3.9-2.67s3.48 1.45 3.9 2.67c.49 1.4.41 3.13-.38 5.36h1.4c.77-2.4.8-4.26.26-5.82-.8-2.3-2.64-3.58-5.18-3.58C8.3 0 6.46 1.27 5.67 3.58c-1.01 2.92-.08 6.98 1.99 9.03l-4.97 1.25L1 15.58V20h10.54l-1.36-1.37h-1.2ZM10.44 14.88h3.52V11.3c0-.03.02-.05.04-.05h1.4c.02 0 .04.02.04.05v3.57h3.52c.02 0 .04.02.04.04v1.42c0 .02-.02.04-.04.04h-3.52v3.58c0 .02-.02.04-.05.04H14a.04.04 0 0 1-.04-.04v-3.58h-3.52a.04.04 0 0 1-.05-.04v-1.42c0-.02.02-.04.05-.04Z"
    />
  </symbol>
  <symbol id="action-state_gift" viewBox="0 0 20 20" fill-rule="evenodd">
    <path
      d="M10 3.95001L12.47 1.48001C14.05 -0.0999852 16.75 1.02001 16.75 3.25001C16.75 3.61001 16.67 3.95002 16.54 4.26002H18L18.75 5.01002V10.01L18 10.76H17.75V18.51L17 19.26H3L2.25 18.51V10.76H2L1.25 10.01V5.01002L2 4.26002H3.46C3.32 3.95002 3.25 3.61001 3.25 3.25001C3.25 1.02001 5.95 -0.0999852 7.53 1.48001L10 3.95001ZM6.47 2.54001C5.83 1.91001 4.75 2.36001 4.75 3.25001C4.75 3.81001 5.2 4.26002 5.76 4.26002H8.19L6.47 2.54001ZM11.81 4.26002H14.24C14.8 4.26002 15.25 3.81001 15.25 3.25001C15.25 2.35001 14.17 1.90001 13.53 2.54001L11.81 4.26002ZM3.75 10.76V17.76H9.25V10.76H3.75ZM10.75 10.76V17.76H16.25V10.76H10.75ZM10.75 9.26002V5.76002H17.25V9.26002H10.75ZM9.25 5.76002V9.26002H2.75V5.76002H9.25Z"
    />
  </symbol>
  <symbol id="action-state_checkmark-minimal" viewBox="0 0 20 20" fill-rule="evenodd">
    <path d="M7.5 13.52L16.14 4.88L17.2 5.94L8.03 15.11H6.97L2.8 10.94L3.86 9.88L7.5 13.52Z" />
  </symbol>
  <symbol id="action-state_error-app" viewBox="0 0 20 20" fill-rule="evenodd">
    <path
      d="M11.46 13.79V17.41C11.46 18 11.08 18.51 10.64 18.51H2.33C1.88 18.51 1.51 18.01 1.51 17.41V2.6C1.51 2.01 1.89 1.5 2.33 1.5H10.64C11.09 1.5 11.46 2 11.46 2.6V5.95C11.72 5.9 11.99 5.87 12.27 5.87C12.51 5.87 12.74 5.9 12.96 5.94V2.6C12.96 1.17 11.91 0 10.63 0H2.33C1.05 0 0 1.17 0 2.6V17.4C0 18.83 1.04 20 2.32 20H10.63C11.91 20 12.95 18.83 12.95 17.4V13.8C12.72 13.84 12.49 13.87 12.26 13.87C11.98 13.87 11.71 13.84 11.45 13.79H11.46ZM15.26 7.76L14.37 6.87L12.26 8.97999L10.15 6.87L9.26 7.76L11.37 9.87L9.26 11.98L10.15 12.87L12.26 10.76L14.37 12.87L15.26 11.98L13.15 9.87L15.26 7.76Z"
    />
  </symbol>
  <symbol id="action-state_warning" viewBox="0 0 20 20" fill-rule="evenodd">
    <path
      d="M19.96 17.16L19.4 18.13H0.609988L0.0499878 17.16L9.43999 0.890015H10.56L19.95 17.16H19.96ZM9.00999 14.03V14.23V16.18H10.96V15.98V14.03H9.00999ZM9.00999 5.57001V5.77001V12.93H10.96V12.73V5.57001H9.00999Z"
    />
  </symbol>
  <symbol id="action-state_warning-outline" viewBox="0 0 20 20" fill-rule="evenodd">
    <path
      d="M10.56 1 20 17.34l-.56.98H.56L0 17.34 9.44 1h1.12ZM1.81 16.95h16.38L9.99 2.76 1.82 16.95ZM10.97 14.4v1.96H9.01V14.4h1.96Zm0-8.5v7.2H9.01V5.9h1.96Z"
    />
  </symbol>
</svg>
