<svg xmlns="http://www.w3.org/2000/svg" xmlns:xlink="http://www.w3.org/1999/xlink" style="display: none">
  <symbol id="arrow-down" viewBox="0 0 20 20" fill-rule="evenodd">
    <path d="M19.02 5 10 14.03.98 5 0 5.98l10 10 10-10-.98-.98Z" />
  </symbol>
  <symbol id="arrow-up" viewBox="0 0 20 20" fill-rule="evenodd">
    <path d="M.98 15 10 5.97 19.02 15l.98-.98-10-10-10 10 .98.98Z" />
  </symbol>
  <symbol id="arrow-left" viewBox="0 0 20 20" fill-rule="evenodd">
    <path d="M15 0 5 10l10 10 .98-.98L6.95 10 15.98.98 15 0Z" />
  </symbol>
  <symbol id="arrow-right" viewBox="0 0 20 20" fill-rule="evenodd">
    <path d="M5 19.02 14.03 10 5 .98 5.98 0l10 10-10 10-.98-.98Z" />
  </symbol>
  <symbol id="back" viewBox="0 0 20 20" fill-rule="evenodd">
    <path d="M9.13 0 0 9.13l9.13 9.13.96-.95-7.5-7.5H20V8.46H2.6l7.5-7.5L9.12 0Z" />
  </symbol>
  <symbol id="up" viewBox="0 0 20 20" fill-rule="evenodd">
    <path d="M19.13 9.27 10 .13.87 9.27l.95.95 7.5-7.5v17.41h1.36V2.73l7.5 7.5.95-.96Z" />
  </symbol>
  <symbol id="add" viewBox="0 0 20 20" fill-rule="evenodd">
    <path d="M19.13 9.27 10 .13.87 9.27l.95.95 7.5-7.5v17.41h1.36V2.73l7.5 7.5.95-.96Z" />
  </symbol>
  <symbol id="close" viewBox="0 0 20 20" fill-rule="evenodd">
    <path d="M18.1 1 10 9.1 1.9 1l-.9.9L9.1 10 1 18.1l.9.9 8.1-8.1 8.1 8.1.9-.9-8.1-8.1L19 1.9l-.9-.9Z" />
  </symbol>
  <symbol id="settings-alt" viewBox="0 0 20 20" fill-rule="evenodd">
    <path
      d="M1.38 18.63v-2.48l1.04-1.05 5.85-1.45v-1.56l-.26-.2C6.08 10.33 5.14 6.6 6.04 4.03 6.47 2.83 7.5 1.37 10 1.37s3.53 1.45 3.96 2.67c.5 1.4.42 3.14-.05 4.68h1.41a8.96 8.96 0 0 0-.06-5.13C14.45 1.27 12.58 0 10 0 7.42 0 5.56 1.27 4.74 3.59c-1.02 2.91-.08 6.97 2.02 9.02l-5.05 1.25L0 15.6v4.4h10.7l-1.37-1.36H1.38Z M20 15.91V14.2h-1.44a3.6 3.6 0 0 0-.42-1.01l1.02-1.02-1.22-1.22-1.02 1.02a3.6 3.6 0 0 0-1-.42V10.1h-1.73v1.44c-.36.09-.7.23-1.01.42l-1.02-1.02-1.22 1.22 1.02 1.02a3.6 3.6 0 0 0-.42 1H10.1v1.73h1.43c.1.36.24.7.43 1.01l-1.02 1.02 1.22 1.22 1.02-1.02c.3.2.65.34 1 .43V20h1.73v-1.43c.37-.1.7-.24 1.02-.43l1.01 1.02 1.22-1.22-1.02-1.02c.2-.3.34-.65.43-1H20Zm-4.95 1.4a2.27 2.27 0 1 1 0-4.53 2.27 2.27 0 0 1 0 4.54Z"
    />
  </symbol>
  <symbol id="edit-favorites" viewBox="0 0 20 20" fill-rule="evenodd">
    <path
      d="M7.25 6.85 9.35 0h1.3l2.1 6.85.08.25c-.46.07-.9.2-1.33.36L10 2.58 8.4 7.79l-.66.5H2.53l4.22 3.2.25.81-1.62 5.21 1.92-1.47c.15.47.34.92.57 1.35L4.47 20l-1.05-.8 2.12-6.85L0 8.15l.4-1.32 6.85.02ZM12.62 8l-.11 1.72-.48.2-1.3-1.14-1.95 1.96 1.14 1.3-.2.47-1.72.1v2.78l1.72.1.2.48-1.14 1.3 1.96 1.95 1.3-1.14.47.2.1 1.72h2.78l.1-1.72.48-.2 1.3 1.14 1.95-1.96-1.14-1.3.2-.47 1.72-.1V12.6l-1.72-.1-.2-.48 1.14-1.3-1.96-1.95-1.29 1.14-.48-.2L15.4 8h-2.77Zm.68 2.29.09-1.47h1.22l.1 1.47 1.42.59 1.1-.97.86.86-.97 1.1.6 1.43 1.46.09v1.22l-1.47.1-.59 1.42.97 1.1-.86.86-1.1-.97-1.43.6-.09 1.46H13.4l-.1-1.47-1.42-.59-1.1.97-.86-.86.97-1.1-.6-1.43-1.46-.09V13.4l1.47-.1.59-1.42-.97-1.1.86-.86 1.1.97 1.43-.6Zm.7 5.1a1.39 1.39 0 1 1 0-2.78 1.39 1.39 0 0 1 0 2.78Zm0-3.6a2.21 2.21 0 1 0 0 4.43 2.21 2.21 0 0 0 0-4.43Z"
    />
  </symbol>
  <symbol id="settings" viewBox="0 0 20 20" fill-rule="evenodd">
    <path
      d="M7.51 2.87 7.69 0h4.62l.18 2.87.8.33 2.15-1.9 3.26 3.26-1.9 2.16.33.79 2.87.18v4.62l-2.87.18-.33.8 1.9 2.15-3.26 3.26-2.16-1.9-.79.33-.18 2.87H7.69l-.18-2.87-.8-.33-2.15 1.9-3.26-3.26 1.9-2.16-.33-.79L0 12.31V7.69l2.87-.18.33-.8-1.9-2.15L4.56 1.3l2.16 1.9.79-.33Zm1.47-1.5-.15 2.44-2.38.98-1.83-1.61-1.44 1.44 1.61 1.83-.98 2.38-2.44.15v2.04l2.44.15.98 2.38-1.61 1.83 1.44 1.44 1.83-1.61 2.38.98.15 2.44h2.04l.15-2.44 2.38-.98 1.83 1.61 1.44-1.44-1.61-1.83.98-2.38 2.44-.15V8.98l-2.44-.15-.98-2.38 1.61-1.83-1.44-1.44-1.83 1.61-2.38-.98-.15-2.44H8.98ZM7.69 10a2.31 2.31 0 1 0 4.62 0 2.31 2.31 0 0 0-4.62 0Zm-1.37 0a3.69 3.69 0 1 1 7.37.01 3.69 3.69 0 0 1-7.37 0Z"
    />
  </symbol>
  <symbol id="dropdown" viewBox="0 0 20 20" fill-rule="evenodd">
    <path d="M0 18 10 2l10 16H0Z" />
  </symbol>
  <symbol id="burger-menu" viewBox="0 0 20 20" fill-rule="evenodd">
    <path d="M0 5.25h20v-1.5H0v1.5Zm0 5.5h20v-1.5H0v1.5Zm20 5.5H0v-1.5h20v1.5Z" />
  </symbol>
  <symbol id="more-android" viewBox="0 0 20 20" fill-rule="evenodd">
    <path d="M8.28 0v3.45h3.45V0H8.28Zm0 8.28v3.45h3.45V8.28H8.28Zm0 11.72v-3.45h3.45V20H8.28Z" />
  </symbol>
  <symbol id="more" viewBox="0 0 20 20" fill-rule="evenodd">
    <path d="M0 11.75h3.45V8.3H0v3.45Zm8.28 0h3.45V8.3H8.28v3.45Zm11.72 0h-3.45V8.3H20v3.45Z" />
  </symbol>
  <symbol id="live" viewBox="0 0 20 20" fill-rule="evenodd">
    <path
      d="M0 13C0 7.5 4.49 3 10 3a10.01 10.01 0 0 1 8.93 14.51l-1.23-.62a8.64 8.64 0 1 0-15.4 0l-1.23.62A9.89 9.89 0 0 1 0 13.01Zm10-6.43a6.52 6.52 0 0 0-5.82 9.45l1.23-.62a5.15 5.15 0 1 1 9.18 0l1.23.62A6.52 6.52 0 0 0 10 6.57Zm0 7.93a1.5 1.5 0 1 1 0-3 1.5 1.5 0 0 1 0 3Zm0-4.37a2.87 2.87 0 1 0 0 5.75 2.87 2.87 0 0 0 0-5.75Z"
    />
  </symbol>
  <symbol id="games" viewBox="0 0 20 20" fill-rule="evenodd">
    <path
      d="M17.24 11.62h1.39V8.86h-1.39v2.76Zm-.29 4.49h-6.26v-2.47a3.47 3.47 0 0 0 0-6.8V4.37h6.26l1.68 1.68v1.43h-2.76V13h2.76v1.43l-1.68 1.68ZM1.37 14.43V13h2.76V7.48H1.37V6.05l1.68-1.68h6.26v2.47a3.47 3.47 0 0 0 0 6.8v2.47H3.05l-1.68-1.68Zm0-2.8h1.39V8.85H1.37v2.76Zm9.32-3.34c.81.28 1.4 1.04 1.4 1.95 0 .91-.59 1.67-1.4 1.95V8.3Zm-1.38 3.9a2.08 2.08 0 0 1-1.4-1.95c0-.91.59-1.67 1.4-1.95v3.9ZM17.51 3H2.49L0 5.48V15l2.48 2.48h15.04L20 15V5.48L17.52 3Z"
    />
  </symbol>
  <symbol id="news" viewBox="0 0 20 20" fill-rule="evenodd">
    <path
      d="M2.47 0h15.06L20 2.47v15.06L17.53 20H2.47L0 17.53V2.47L2.47 0Zm14.49 18.63 1.67-1.67V3.04l-1.67-1.67H3.03L1.36 3.04v13.92l1.67 1.67h13.93ZM11.03 3.45H3.45v4.81h7.58v-4.8ZM9.65 6.9H4.81V4.82h4.84V6.9Zm6.9 5.52H3.45v1.37h13.1v-1.37Zm-13.1 2.76h10.34v1.37H3.44v-1.37Zm13.1-5.52H3.45v1.38h13.1V9.66Z"
    />
  </symbol>
  <symbol id="leagues" viewBox="0 0 20 20" fill-rule="evenodd">
    <path
      d="M4.26.8v1.72H1.5V7.3l2.76 2.76 2.76 2.76v2.05l-2.76 1.38v3.18h11.72v-3.18l-2.76-1.38v-2.05l2.76-2.76 2.76-2.76V2.52h-2.76V.8H4.26Zm1.37 3.45h8.98V2.17H5.63v2.08Zm10.35-.35h1.38v2.82l-1.38 1.39V3.9ZM2.88 6.72V3.9h1.38v4.2L2.87 6.73Zm2.75 2.76V5.63h8.98v3.85l-2.76 2.76H8.4L5.63 9.48Zm0 7.61 2.76-1.38v-2.1h3.46v2.1l2.76 1.38v.96H5.63v-.96Z"
    />
  </symbol>
</svg>
