<svg xmlns="http://www.w3.org/2000/svg" xmlns:xlink="http://www.w3.org/1999/xlink" style="display: none">
  <symbol id="action-navigation_arrow-down" viewBox="0 0 20 20" fill-rule="evenodd">
    <path d="M9.46999 14.95L2.57999 8.06L3.64999 7L9.99999 13.36L16.35 7L17.41 8.06L10.53 14.95H9.46999Z" />
  </symbol>
  <symbol id="action-navigation_arrow-up" viewBox="0 0 20 20" fill-rule="evenodd">
    <path d="M3.65 12.98L2.59 11.92L9.47 5.02002H10.53L17.42 11.92L16.35 12.98L10 6.61002L3.65 12.98Z" />
  </symbol>
  <symbol id="action-navigation_arrow-left" viewBox="0 0 20 20" fill-rule="evenodd">
    <path d="M11.92 17.42L5.01999 10.53V9.46997L11.92 2.58997L12.98 3.64997L6.60999 9.99997L12.98 16.35L11.92 17.42Z" />
  </symbol>
  <symbol id="action-navigation_arrow-right" viewBox="0 0 20 20" fill-rule="evenodd">
    <path d="M8.08 17.41L7.02 16.35L13.39 9.99996L7.02 3.64996L8.08 2.57996L14.98 9.46996V10.53L8.08 17.41Z" />
  </symbol>
  <symbol id="action-navigation_back" viewBox="0 0 20 20" fill-rule="evenodd">
    <path
      d="M18.05 9.24999H2.35L9.19 2.41999L8.12 1.35999L0.0100002 9.46999V10.53L8.12 18.64L9.19 17.58L2.35 10.75H18.05V9.24999Z"
    />
  </symbol>
  <symbol id="action-navigation_up" viewBox="0 0 20 20" fill-rule="evenodd">
    <path
      d="M18.64 8.12L10.53 0H9.46999L1.35999 8.12L2.41999 9.18L9.24999 2.35V18.04H10.75V2.35L17.58 9.18L18.64 8.12Z"
    />
  </symbol>
  <symbol id="action-navigation_add" viewBox="0 0 20 20" fill-rule="evenodd">
    <path d="M15.83 9.25004H10.75V4.17004H9.25V9.25004H4.17V10.75H9.25V15.83H10.75V10.75H15.83V9.25004Z" />
  </symbol>
  <symbol id="action-navigation_close" viewBox="0 0 20 20" fill-rule="evenodd">
    <path
      d="M16.53 4.52997L15.47 3.46997L10 8.93997L4.53 3.46997L3.47 4.52997L8.94 9.99997L3.47 15.47L4.53 16.53L10 11.06L15.47 16.53L16.53 15.47L11.06 9.99997L16.53 4.52997Z"
    />
  </symbol>
  <symbol id="action-navigation_settings-alt" viewBox="0 0 20 20" fill-rule="evenodd">
    <path
      d="M3.76001 17.14C3.76001 14.79 5.66001 12.89 8.01001 12.89H10.35V11.39H8.01001C4.83001 11.39 2.26001 13.96 2.26001 17.14V19.14L3.01001 19.89H10.73V18.39H3.76001V17.14ZM10.34 10.38C12.41 10.38 14.09 8.69997 14.09 6.62997V5.58997C14.09 3.51997 12.41 1.83997 10.34 1.83997C8.27 1.83997 6.59 3.51997 6.59 5.58997V6.62997C6.59 8.69997 8.27 10.38 10.34 10.38ZM8.09 5.57997C8.09 4.33997 9.1 3.32997 10.34 3.32997C11.58 3.32997 12.59 4.33997 12.59 5.57997V6.61997C12.59 7.85997 11.58 8.86997 10.34 8.86997C9.1 8.86997 8.09 7.85997 8.09 6.61997V5.57997ZM20 15.9V14.4H18.7C18.61 13.98 18.44 13.58 18.21 13.23L19.13 12.31L18.07 11.25L17.15 12.17C16.8 11.94 16.4 11.77 15.98 11.68V10.38H14.48V11.68C14.06 11.77 13.66 11.94 13.31 12.17L12.39 11.25L11.33 12.31L12.25 13.23C12.02 13.58 11.85 13.98 11.76 14.4H10.46V15.9H11.76C11.85 16.32 12.02 16.72 12.25 17.07L11.33 17.99L12.39 19.05L13.31 18.13C13.66 18.36 14.06 18.53 14.48 18.62V19.92H15.98V18.62C16.4 18.53 16.8 18.36 17.15 18.13L18.07 19.05L19.13 17.99L18.21 17.07C18.44 16.72 18.61 16.32 18.7 15.9H20ZM15.23 17.3C14.04 17.3 13.07 16.33 13.07 15.14C13.07 13.95 14.04 12.98 15.23 12.98C16.42 12.98 17.39 13.95 17.39 15.14C17.39 16.33 16.42 17.3 15.23 17.3Z"
    />
  </symbol>
  <symbol id="action-navigation_edit-favorites" viewBox="0 0 20 20" fill-rule="evenodd">
    <path
      d="M7.25 6.85 9.35 0h1.3l2.1 6.85.08.25c-.46.07-.9.2-1.33.36L10 2.58 8.4 7.79l-.66.5H2.53l4.22 3.2.25.81-1.62 5.21 1.92-1.47c.15.47.34.92.57 1.35L4.47 20l-1.05-.8 2.12-6.85L0 8.15l.4-1.32 6.85.02ZM12.62 8l-.11 1.72-.48.2-1.3-1.14-1.95 1.96 1.14 1.3-.2.47-1.72.1v2.78l1.72.1.2.48-1.14 1.3 1.96 1.95 1.3-1.14.47.2.1 1.72h2.78l.1-1.72.48-.2 1.3 1.14 1.95-1.96-1.14-1.3.2-.47 1.72-.1V12.6l-1.72-.1-.2-.48 1.14-1.3-1.96-1.95-1.29 1.14-.48-.2L15.4 8h-2.77Zm.68 2.29.09-1.47h1.22l.1 1.47 1.42.59 1.1-.97.86.86-.97 1.1.6 1.43 1.46.09v1.22l-1.47.1-.59 1.42.97 1.1-.86.86-1.1-.97-1.43.6-.09 1.46H13.4l-.1-1.47-1.42-.59-1.1.97-.86-.86.97-1.1-.6-1.43-1.46-.09V13.4l1.47-.1.59-1.42-.97-1.1.86-.86 1.1.97 1.43-.6Zm.7 5.1a1.39 1.39 0 1 1 0-2.78 1.39 1.39 0 0 1 0 2.78Zm0-3.6a2.21 2.21 0 1 0 0 4.43 2.21 2.21 0 0 0 0-4.43Z"
    />
  </symbol>
  <symbol id="action-navigation_settings" viewBox="0 0 20 20" fill-rule="evenodd">
    <path
      d="M12.1 1L12.65 3.6L14.87 2.15L15.65 2.22L17.77 4.34L17.85 5.12L16.4 7.34L19 7.89L19.5 8.5V11.5L19 12.11L16.4 12.66L17.85 14.88L17.77 15.66L15.65 17.78L14.87 17.85L12.65 16.4L12.1 19L11.5 19.5H8.5L7.9 19L7.35 16.4L5.13 17.85L4.35 17.78L2.23 15.66L2.15 14.88L3.6 12.66L1 12.11L0.5 11.5V8.5L1 7.89L3.6 7.34L2.15 5.12L2.23 4.34L4.35 2.22L5.13 2.15L7.35 3.6L7.9 1L8.5 0.5H11.5L12.1 1ZM8.71 4.4C8.08 4.55 7.48 4.79 6.95 5.13L4.9 3.79L3.79 4.9L5.13 6.95C4.79 7.49 4.54 8.08 4.4 8.71L2 9.21V10.78L4.4 11.28C4.55 11.91 4.79 12.51 5.13 13.04L3.79 15.09L4.9 16.2L6.95 14.86C7.49 15.2 8.08 15.45 8.71 15.59L9.22 17.99H10.79L11.29 15.59C11.93 15.44 12.52 15.19 13.06 14.86L15.11 16.2L16.22 15.09L14.88 13.04C15.22 12.5 15.47 11.91 15.61 11.27L18.01 10.77V9.2L15.61 8.7C15.46 8.07 15.21 7.47 14.88 6.94L16.22 4.89L15.11 3.78L13.06 5.12C12.52 4.78 11.93 4.53 11.29 4.39L10.79 1.99H9.22L8.71 4.39V4.4ZM10 6.5C11.93 6.5 13.5 8.07 13.5 10C13.5 11.93 11.93 13.5 10 13.5C8.07 13.5 6.5 11.93 6.5 10C6.5 8.07 8.07 6.5 10 6.5ZM10 8C8.9 8 8 8.9 8 10C8 11.1 8.9 12 10 12C11.1 12 12 11.1 12 10C12 8.9 11.1 8 10 8Z"
    />
  </symbol>
  <symbol id="action-navigation_dropdown" viewBox="0 0 20 20" fill-rule="evenodd">
    <path d="M10.6699 3.97L9.32994 3.98L0.689941 12.64L1.34994 14.25L18.6499 14.24L19.3099 12.63L10.6699 3.97Z" />
  </symbol>
  <symbol id="action-navigation_burger-menu" viewBox="0 0 20 20" fill-rule="evenodd">
    <path d="M18 10.75H2V9.25H18V10.75ZM18 4.75H2V3.25H18V4.75ZM18 16.75H2V15.25H18V16.75Z" />
  </symbol>
  <symbol id="action-navigation_more-android" viewBox="0 0 20 20" fill-rule="evenodd">
    <path d="M8.28 0v3.45h3.45V0H8.28Zm0 8.28v3.45h3.45V8.28H8.28Zm0 11.72v-3.45h3.45V20H8.28Z" />
  </symbol>
  <symbol id="action-navigation_more" viewBox="0 0 20 20" fill-rule="evenodd">
    <path d="M0 11.75h3.45V8.3H0v3.45Zm8.28 0h3.45V8.3H8.28v3.45Zm11.72 0h-3.45V8.3H20v3.45Z" />
  </symbol>
  <symbol id="action-navigation_live" viewBox="0 0 20 20" fill-rule="evenodd">
    <path
      d="M10 12C11.1 12 12 11.1 12 10C12 8.9 11.1 8 10 8C8.9 8 8 8.9 8 10C8 11.1 8.9 12 10 12ZM4.52 4.52997C3.07 5.97997 2.25 7.94997 2.25 9.99997C2.25 12.05 3.07 14.02 4.52 15.47L3.46 16.53C1.73 14.8 0.75 12.45 0.75 9.99997C0.75 7.54997 1.72 5.19997 3.46 3.46997L4.52 4.52997ZM17.75 9.99997C17.75 7.94997 16.93 5.97997 15.48 4.52997L16.54 3.46997C18.27 5.19997 19.25 7.54997 19.25 9.99997C19.25 12.45 18.28 14.8 16.54 16.53L15.48 15.47C16.93 14.02 17.75 12.05 17.75 9.99997ZM6.92 6.91997C6.52 7.31997 6.19 7.79997 5.98 8.32997C5.76 8.85997 5.65 9.41997 5.65 9.98997C5.65 10.56 5.76 11.12 5.98 11.65C6.2 12.18 6.52 12.66 6.92 13.06L5.86 14.12C5.32 13.58 4.88 12.93 4.59 12.22C4.3 11.51 4.14 10.75 4.14 9.97997C4.14 9.20997 4.29 8.44997 4.59 7.73997C4.89 7.02997 5.32 6.38997 5.86 5.83997L6.92 6.89997V6.91997ZM14.02 8.33997C13.8 7.80997 13.48 7.32997 13.08 6.92997L14.14 5.86997C14.68 6.40997 15.12 7.05997 15.41 7.76997C15.7 8.47997 15.86 9.23997 15.86 10.01C15.86 10.78 15.71 11.54 15.41 12.25C15.11 12.96 14.68 13.6 14.14 14.15L13.08 13.09C13.48 12.69 13.81 12.21 14.02 11.68C14.24 11.15 14.35 10.59 14.35 10.02C14.35 9.44997 14.24 8.88997 14.02 8.35997V8.33997Z"
    />
  </symbol>
  <symbol id="action-navigation_games" viewBox="0 0 20 20" fill-rule="evenodd">
    <path
      d="M19.75 7.99V6.49V6C19.75 3.93 18.07 2.25 16 2.25H4C1.93 2.25 0.25 3.93 0.25 6V14C0.25 16.07 1.93 17.75 4 17.75H16C18.07 17.75 19.75 16.07 19.75 14V13.51V12.01V7.99ZM9.25 12.14C8.36 11.83 7.72 10.99 7.72 10C7.72 9.01 8.36 8.17 9.25 7.86V12.15V12.14ZM10.75 7.86C11.64 8.17 12.28 9.01 12.28 10C12.28 10.99 11.64 11.83 10.75 12.14V7.85V7.86ZM1.75 7.99H3.39V12.01H1.75V7.99ZM1.75 14V13.51H4.14L4.89 12.76V7.24L4.14 6.49H1.75V6C1.75 4.76 2.76 3.75 4 3.75H9.25V6.3C7.52 6.65 6.22 8.18 6.22 10.01C6.22 11.84 7.52 13.37 9.25 13.71V16.26H4C2.76 16.26 1.75 15.25 1.75 14.01V14ZM18.25 14C18.25 15.24 17.24 16.25 16 16.25H10.75V13.7C12.48 13.35 13.78 11.82 13.78 10C13.78 8.18 12.48 6.64 10.75 6.29V3.74H16C17.24 3.74 18.25 4.75 18.25 5.99V6.48H15.86L15.11 7.23V12.75L15.86 13.5H18.25V13.99V14ZM18.25 12.01H16.61V7.99H18.25V12.01Z"
    />
  </symbol>
  <symbol id="action-navigation_news" viewBox="0 0 20 20" fill-rule="evenodd">
    <path
      d="M10.49 9.37002H4.91C4.16 9.37002 3.54 8.76002 3.54 8.00002V5.14002C3.54 4.39002 4.15 3.77002 4.91 3.77002H10.49C11.24 3.77002 11.86 4.38002 11.86 5.14002V8.00002C11.86 8.75002 11.25 9.37002 10.49 9.37002ZM5.04 7.87002H10.36V5.27002H5.04V7.87002ZM16.2 11.1699H3.75V12.6699H16.2V11.1699ZM13.89 14.1699H3.75V15.6699H13.89V14.1699ZM17.22 19.97H2.78C1.26 19.97 0.0299988 18.74 0.0299988 17.22V2.76001C0.0299988 1.25001 1.26 0.0100098 2.78 0.0100098H17.22C18.74 0.0100098 19.97 1.24001 19.97 2.76001V17.22C19.97 18.74 18.74 19.97 17.22 19.97ZM2.78 1.51001C2.09 1.51001 1.53 2.07001 1.53 2.76001V17.22C1.53 17.91 2.09 18.47 2.78 18.47H17.22C17.91 18.47 18.47 17.91 18.47 17.22V2.76001C18.47 2.07001 17.91 1.51001 17.22 1.51001H2.78Z"
    />
  </symbol>
  <symbol id="action-navigation_leagues" viewBox="0 0 20 20" fill-rule="evenodd">
    <path
      d="M17.44 2.90001H16.16V1.26001L15.41 0.51001H4.59L3.84 1.26001V2.90001H2.56C1.53 2.90001 0.699997 3.67001 0.699997 4.63001L1.21 8.07001L1.66 8.65001L4.56 9.86001C5.15 10.87 6.04 11.61 7.04 12.35L7.47 12.67V14.89L6.21 15.35C4.79 15.87 3.84 17.24 3.84 18.76L4.59 19.51H15.45L16.2 18.76C16.2 17.25 15.25 15.88 13.83 15.35L12.57 14.89V12.67L13 12.35C14 11.61 14.89 10.86 15.48 9.86001L18.38 8.65001L18.83 8.07001L19.33 4.74001V4.63001C19.33 3.68001 18.5 2.90001 17.48 2.90001H17.44ZM14.66 2.00001V4.83001H5.34V2.00001H14.67H14.66ZM2.62 7.42001L2.2 4.59001C2.23 4.49001 2.37 4.39001 2.56 4.39001H3.84V7.02001C3.84 7.35001 3.86 7.65001 3.9 7.94001L2.62 7.41001V7.42001ZM13.28 16.75C13.87 16.97 14.32 17.43 14.54 18H5.46C5.67 17.43 6.13 16.97 6.72 16.75L8.44 16.12H11.58L13.3 16.75H13.28ZM12.08 11.14L11.35 11.68L11.05 12.28V14.62H8.96V12.28L8.66 11.68L7.93 11.14C6.14 9.82001 5.35 8.91001 5.35 7.03001V6.33001H14.68V7.03001C14.68 8.91001 13.88 9.82001 12.1 11.14H12.08ZM17.38 7.42001L16.1 7.95001C16.14 7.66001 16.16 7.36001 16.16 7.03001V4.40001H17.44C17.63 4.40001 17.77 4.50001 17.8 4.60001L17.38 7.43001V7.42001Z"
    />
  </symbol>
</svg>
