<svg xmlns="http://www.w3.org/2000/svg" xmlns:xlink="http://www.w3.org/1999/xlink" style="display: none">
  <symbol id="stopwatch" viewBox="0 0 20 20" fill-rule="evenodd">
    <path
      d="M2.87 11.72a6.9 6.9 0 1 0 13.82-.01 6.9 6.9 0 0 0-13.82.01Zm13.84-8.21-1.52 2A8.22 8.22 0 0 1 9.78 20a8.26 8.26 0 0 1-.69-16.48V1.37H6.67V0h6.21v1.37h-2.42v2.15c1.32.1 2.56.51 3.63 1.18l1.53-2.02 1.1.83Zm-6.25 8.21H9.09V6.21h1.37v5.51Z"
    />
  </symbol>
  <symbol id="whistle" viewBox="0 0 20 20" fill-rule="evenodd">
    <path
      d="M14.22.52 12.97 0l-2.02 4.89 1.25.51L14.22.52Zm3.6 2.62-3.74 3.74-.96-.96 3.74-3.74.96.96Zm-4.52 15.5h2.06l2.46-2.46-6.03-6.04-3 3-1.91-1.93 2.99-3-.27-.26a3.52 3.52 0 0 0-2.53-1.09c-1 0-1.98.42-2.7 1.14l-2.12 2.12c-1.27 1.37-1.19 3.4.23 4.91a3.42 3.42 0 0 0 2.53 1.06c1.02 0 2.01-.4 2.73-1.1l1.9.01 3.66 3.64ZM7.07 5.51c1.22 0 2.46.45 3.49 1.48l9.18 9.19L15.92 20h-3.18l-4.05-4.04A5.29 5.29 0 0 1 5 17.45c-1.29 0-2.57-.48-3.51-1.49-1.88-2-2.04-4.83-.21-6.8l.4-.4L.01 7.08l1.96-1.96 1.7 1.7a5.18 5.18 0 0 1 3.4-1.31ZM20 7.03l-4.88 2.03-.52-1.25 4.88-2.03.52 1.25Z"
    />
  </symbol>
  <symbol id="additional-time" viewBox="0 0 20 20" fill-rule="evenodd">
    <path
      d="M2.47 0 0 2.47v15.05L2.47 20h15.06L20 17.53V2.47L17.53 0H2.47Zm-1.1 16.96V3.04l1.67-1.67h13.92l1.67 1.67v13.92l-1.67 1.67H3.04l-1.67-1.67Zm6.32-4.34a.3.3 0 0 1-.09.22.3.3 0 0 1-.22.09H4.61a.3.3 0 0 1-.22-.1.3.3 0 0 1-.1-.2V7.37c0-.1.04-.17.1-.22a.31.31 0 0 1 .22-.09h2.77a.3.3 0 0 1 .22.09.3.3 0 0 1 .09.22v5.24Zm1.4-5.69L7.82 5.66a.49.49 0 0 0-.15-.1.47.47 0 0 0-.18-.03h-3a.47.47 0 0 0-.17.03.49.49 0 0 0-.16.1L2.89 6.93a.44.44 0 0 0-.1.16.48.48 0 0 0-.04.18v5.46c0 .06.02.12.04.18.03.06.06.11.1.15l1.27 1.28c.04.04.1.07.16.1l.17.03h3c.06 0 .12-.01.18-.04a.45.45 0 0 0 .15-.1l1.27-1.27a.47.47 0 0 0 .14-.33V7.27a.47.47 0 0 0-.04-.18.46.46 0 0 0-.1-.16Zm6.53 5.9a.3.3 0 0 0 .09-.2V7.37a.3.3 0 0 0-.1-.22.3.3 0 0 0-.21-.09h-2.78a.31.31 0 0 0-.21.09.3.3 0 0 0-.1.22v5.24c0 .08.03.15.1.22.06.06.13.09.21.09h2.78a.3.3 0 0 0 .22-.1Zm-.11-7.3.18.03.15.1 1.27 1.27c.04.04.08.1.1.16.03.06.04.12.04.18v5.46c0 .06-.01.12-.04.18a.44.44 0 0 1-.1.15l-1.27 1.28a.45.45 0 0 1-.15.1.48.48 0 0 1-.18.03h-3a.47.47 0 0 1-.18-.04.44.44 0 0 1-.15-.1l-1.27-1.27a.44.44 0 0 1-.1-.15.47.47 0 0 1-.04-.18V7.27c0-.06.01-.12.04-.18a.44.44 0 0 1 .1-.16l1.27-1.27a.47.47 0 0 1 .33-.14h3Z"
    />
  </symbol>
  <symbol id="var" viewBox="0 0 20 20" fill-rule="evenodd">
    <path
      d="m16.96 15.13 1.67-1.67V6.44l-1.67-1.67H3.04L1.37 6.44v7.02l1.67 1.67h13.92ZM2.47 3.4h15.06L20 5.87v8.16l-2.47 2.47H2.47L0 14.03V5.87L2.47 3.4Zm8.5 6.4c.1 0 .2-.09.2-.2V8.27c0-.12-.1-.2-.2-.2h-2.5c-.1 0-.2.08-.2.2V9.6c0 .1.1.19.2.19h2.5Zm.04-2.7c.1 0 .2.04.27.11l.73.74c.08.08.12.17.12.27v4.43c0 .02-.02.04-.04.04h-.88c-.03 0-.04-.02-.04-.04v-1.7c0-.1-.1-.19-.2-.19h-2.5c-.1 0-.2.08-.2.2v1.69c0 .02-.01.04-.04.04h-.88c-.03 0-.04-.02-.04-.04V8.22c0-.1.04-.2.11-.27l.74-.74a.38.38 0 0 1 .27-.11h2.58Zm-6.08 4.6 1.03-4.57c0-.02.02-.03.04-.03h1.04l-1.31 5.56c-.01.02-.02.03-.04.03H3.57c-.02 0-.03-.02-.04-.03L2.22 7.1h1.03c.02 0 .03.01.04.03l1.05 4.56c0 .02.01.03.03.03h.52c.01 0 .03 0 .04-.03Zm11.84-2.48a.2.2 0 0 1-.19.2h-2.5a.2.2 0 0 1-.2-.2v-.96c0-.12.08-.2.2-.2h2.5c.1 0 .2.08.2.2v.96Zm-.14-2.12h-3.67c-.03 0-.04.01-.04.04v5.5c0 .03.01.05.04.05h.88c.03 0 .04-.02.04-.04v-2.09c0-.1.07-.18.18-.19h1.23l1.33 2.32h1.11l-1.33-2.32h.23c.1 0 .2-.04.27-.1l.72-.74a.36.36 0 0 0 .12-.28V8.22c0-.1-.04-.2-.12-.27l-.72-.74a.38.38 0 0 0-.27-.11Z"
    />
  </symbol>
  <symbol id="audio" viewBox="0 0 20 20" fill-rule="evenodd">
    <path
      d="M6.6 2 3.46 5.17v3.72h-.98L0 11.38v4.06l2.47 2.47H6.2v-9H4.82V5.72l2.36-2.36H12.82l2.36 2.36V8.9H13.8v9.01h3.73L20 15.43v-4.06L17.53 8.9h-.98V5.16L13.4 2H6.61Zm8.57 8.27h1.79l1.67 1.67v2.92l-1.67 1.67h-1.79v-6.26Zm-13.8 4.59v-2.92l1.67-1.67h1.79v6.26H3.04l-1.67-1.67Z"
    />
  </symbol>
  <symbol id="audio-live" viewBox="0 0 20 20" fill-rule="evenodd">
    <g fill="currentColor">
      <animate
        xlink:href="#left-eq"
        attributeName="height"
        dur="3.45s"
        repeatCount="indefinite"
        calcMode="spline"
        values="5;7;3;3;7;3;1;5;7;5;"
        keySplines="0.42 0 0.58 1;0.42 0 0.58 1;0.42 0 0.58 1;0.42 0 0.58 1;0.42 0 0.58 1;0.42 0 0.58 1;0.42 0 0.58 1;0.42 0 0.58 1;0.42 0 0.58 1"
        keyTimes="0;0.116;0.232;0.348;0.464;0.580;0.696;0.812;0.884;1"
      />
      <animate
        xlink:href="#left-eq"
        attributeName="y"
        dur="3.45s"
        repeatCount="indefinite"
        calcMode="spline"
        values="1.5;0.5;2.5;2.5;0.5;2.5;3.5;1.5;0.5;1.5;"
        keySplines="0.42 0 0.58 1;0.42 0 0.58 1;0.42 0 0.58 1;0.42 0 0.58 1;0.42 0 0.58 1;0.42 0 0.58 1;0.42 0 0.58 1;0.42 0 0.58 1;0.42 0 0.58 1"
        keyTimes="0;0.116;0.232;0.348;0.464;0.580;0.696;0.812;0.884;1"
      />

      <animate
        xlink:href="#center-eq"
        attributeName="height"
        dur="3.45s"
        repeatCount="indefinite"
        calcMode="spline"
        values="7;1;5;1;3;7;3;7;3;7;"
        keySplines="0.42 0 0.58 1;0.42 0 0.58 1;0.42 0 0.58 1;0.42 0 0.58 1;0.42 0 0.58 1;0.42 0 0.58 1;0.42 0 0.58 1;0.42 0 0.58 1;0.42 0 0.58 1"
        keyTimes="0;0.116;0.232;0.348;0.464;0.580;0.696;0.812;0.884;1"
      />
      <animate
        xlink:href="#center-eq"
        attributeName="y"
        dur="3.45s"
        repeatCount="indefinite"
        calcMode="spline"
        values="0.5;3.5;1.5;3.5;2.5;0.5;2.5;0.5;2.5;0.5;"
        keySplines="0.42 0 0.58 1;0.42 0 0.58 1;0.42 0 0.58 1;0.42 0 0.58 1;0.42 0 0.58 1;0.42 0 0.58 1;0.42 0 0.58 1;0.42 0 0.58 1;0.42 0 0.58 1"
        keyTimes="0;0.116;0.232;0.348;0.464;0.580;0.696;0.812;0.884;1"
      />

      <animate
        xlink:href="#right-eq"
        attributeName="height"
        dur="3.45s"
        repeatCount="indefinite"
        calcMode="spline"
        values="3;5;7;5;5;1;1;7;7;3;"
        keySplines="0.42 0 0.58 1;0.42 0 0.58 1;0.42 0 0.58 1;0.42 0 0.58 1;0.42 0 0.58 1;0.42 0 0.58 1;0.42 0 0.58 1;0.42 0 0.58 1;0.42 0 0.58 1"
        keyTimes="0;0.116;0.232;0.348;0.464;0.580;0.696;0.812;0.884;1"
      />
      <animate
        xlink:href="#right-eq"
        attributeName="y"
        dur="3.45s"
        repeatCount="indefinite"
        calcMode="spline"
        values="2.5;1.5;0.5;1.5;1.5;3.5;3.5;0.5;0.5;2.5;"
        keySplines="0.42 0 0.58 1;0.42 0 0.58 1;0.42 0 0.58 1;0.42 0 0.58 1;0.42 0 0.58 1;0.42 0 0.58 1;0.42 0 0.58 1;0.42 0 0.58 1;0.42 0 0.58 1"
        keyTimes="0;0.116;0.232;0.348;0.464;0.580;0.696;0.812;0.884;1"
      />

      <path
        fill-rule="evenodd"
        clip-rule="evenodd"
        d="M6.606 2.5L3.45 5.666V9.395H2.472L0 11.868V15.929L2.472 18.402H6.204V9.395H4.824V6.233L7.176 3.873H9V2.5H6.606ZM1.37109 12.4376V15.3596L3.04009 17.0276H4.82809V10.7686H3.04009L1.37109 12.4376Z"
      />
      <path
        fill-rule="evenodd"
        clip-rule="evenodd"
        d="M15.1808 9.39453H13.8008V9.49953V18.4015H17.5308L20.0018 15.9285V11.8675L17.5318 9.39453H16.5548H15.1808ZM16.9599 10.7686H15.1719V17.0276H16.9599L18.6259 15.3596V12.4376L16.9599 10.7686Z"
      />
      <rect id="left-eq" x="10.8" y="1.5" width="1.4" height="5" />
      <rect id="center-eq" x="13.8" y="0.5" width="1.4" height="7" />
      <rect id="right-eq" x="16.8" y="2.5" width="1.4" height="3" />
    </g>
  </symbol>
  <symbol id="commentator" viewBox="0 0 20 20" fill-rule="evenodd">
    <path
      d="M7.21 4.82759H12.04V3.44828H7.21V4.82759ZM7.9 7.58621H11.35V6.2069H7.9V7.58621ZM6.92419 0L4.45 2.47296V12.6995L6.92419 15.1724H12.3258L14.8 12.6995V2.47296L12.3258 0H6.92419ZM5.83 3.04429L7.49581 1.37931H11.7542L13.42 3.04429V12.1281L11.7542 13.7931H7.49581L5.83 12.1281V3.04429ZM2.38 9.65517V13.5074L6.11581 17.2414H13.1342L16.87 13.5074V9.65517H18.25V14.0788L13.7058 18.6207H10.315V20H8.935V18.6207H5.54419L1 14.0788V9.65517H2.38Z"
    />
  </symbol>
  <symbol id="lineup" viewBox="0 0 20 20" fill-rule="evenodd">
    <path
      d="m10.75 3.58 2.07-2.08h4.02L20 4.67v7.18h-4.14v-1.38h2.77V5.23l-2.36-2.36h-2.88l-2.07 2.08H8.68L6.61 2.87H3.73L1.38 5.24v5.23h2.76v1.37H0V4.67L3.16 1.5h4.02l2.07 2.08h1.5Zm3.74 13.79V7.7h1.37v11.03H4.14V7.71H5.5v9.66h8.98Z"
    />
  </symbol>
  <symbol id="tv" viewBox="0 0 20 20" fill-rule="evenodd">
    <path
      d="M2.47 2 0 4.47v7.47l2.47 2.47h6.84v2.08H2.07v1.38h15.87v-1.38h-7.25v-2.08h6.84L20 11.94V4.47L17.53 2H2.47Zm-1.1 9.37V5.04l1.67-1.67h13.92l1.67 1.67v6.33l-1.67 1.67H3.04l-1.67-1.67Z"
    />
  </symbol>
  <symbol id="rating" viewBox="0 0 20 20" fill-rule="evenodd">
    <path
      d="M5.54 17.23h-4.2v-2.3l1.02-.96 5.73-1.35v-1.44L7.83 11C5.94 9.56 5.03 6.1 5.9 3.74c.42-1.13 1.43-2.48 3.88-2.48v.07c2.47 0 3.5 1.4 3.92 2.6a7.7 7.7 0 0 1-1.56 7.23l1.14.73a9.09 9.09 0 0 0 1.69-8.4C14.17 1.23 12.33 0 9.78 0 7.26 0 5.43 1.18 4.64 3.32c-1 2.7-.08 6.45 1.98 8.34l-4.94 1.16L0 14.42v4.08h4.44l1.1-1.27Zm6.7-3.29 3.05 1.86L20 10.57v1.9l-4.46 4.95-3.03-1.85L8.67 20H6.99l5.25-6.06Z"
    />
  </symbol>
  <symbol id="behind" viewBox="0 0 20 20" fill-rule="evenodd">
    <path
      d="M14.4 8.9a.7.7 0 0 0 .23-.52V6.4c0-.2-.08-.39-.23-.52l-1.38-1.43a.73.73 0 0 0-.52-.22H5.44c-.04 0-.08.04-.08.08V14.9c0 .04.04.07.08.07h7.06c.2 0 .38-.07.52-.21l1.4-1.43a.73.73 0 0 0 .21-.52v-1.98c0-.2-.1-.38-.23-.52l-.63-.66c-.03-.02-.03-.06-.01-.1l.64-.65ZM2.47 0h15.06L20 2.47v15.06L17.53 20H2.47L0 17.53V2.47L2.47 0Zm9.94 6.1H7.59c-.1 0-.15 0-.22.05a.4.4 0 0 0-.15.3v1.86c0 .05 0 .1.03.14l.05.1.03.02c.06.07.15.11.26.11h4.86l.05-.01.04-.02h.02l.01-.01c.11-.07.2-.19.2-.33V6.46c0-.2-.17-.37-.36-.37Zm.06 4.42H8.49l-.9.02c-.2 0-.37.15-.37.35v1.87c0 .2.17.36.37.36h4.81c.2 0 .37-.17.37-.37v-1.86a.38.38 0 0 0-.3-.37Z"
    />
  </symbol>
  <symbol id="assist" viewBox="0 0 20 20" fill-rule="evenodd">
    <path
      d="M0 2.47 2.47 0h15.06L20 2.47v15.06L17.53 20H2.47L0 17.53V2.47Zm1.37.57v13.92l1.67 1.67h13.92l1.67-1.67V3.04l-1.67-1.67H3.04L1.37 3.04Zm11.04 6.38c.2 0 .37-.17.37-.37v-2.6a.36.36 0 0 0-.37-.36H7.6c-.2 0-.37.15-.37.37v2.6c0 .2.17.36.37.36h4.81Zm.06-5.19c.2 0 .39.08.53.22l1.4 1.43c.15.13.22.32.22.52v8.5c0 .04-.03.07-.06.07h-1.7c-.05 0-.08-.03-.08-.07v-3.26a.36.36 0 0 0-.37-.37H7.6c-.2 0-.37.16-.37.37v3.26c0 .04-.03.07-.08.07h-1.7c-.05 0-.08-.03-.08-.07V6.4c0-.2.08-.39.22-.52L7 4.45a.73.73 0 0 1 .52-.22h4.94Z"
    />
  </symbol>
  <symbol id="assist-alt" viewBox="0 0 20 20" fill-rule="evenodd">
    <path
      d="M13.66 9.28c0 .26-.22.48-.48.48H6.9a.49.49 0 0 1-.48-.48V5.9c0-.28.22-.48.48-.48h6.28c.26 0 .48.2.48.48v3.38Zm.28-6a.96.96 0 0 0-.68-.28H6.82c-.26 0-.5.1-.68.28L4.28 5.14a.95.95 0 0 0-.28.68V16.9c0 .06.04.1.1.1h2.22c.06 0 .1-.04.1-.1v-4.24c0-.28.22-.48.48-.48h6.28c.26 0 .48.2.48.48v4.24c0 .06.04.1.1.1h2.22c.04 0 .08-.04.08-.1V5.82c0-.26-.1-.5-.28-.68l-1.84-1.86Z"
    />
  </symbol>
  <symbol id="penalty-end-10" viewBox="0 0 20 20" fill-rule="evenodd">
    <path
      d="M17.95 13.33a.73.73 0 0 0 .21-.52V6.4c0-.2-.07-.39-.21-.52l-1.43-1.43a.73.73 0 0 0-.52-.22h-3.45c-.2 0-.39.08-.53.22L10.6 5.88a.73.73 0 0 0-.22.52v6.41c0 .2.08.38.22.52l1.43 1.43c.13.14.32.21.52.21H16c.2 0 .38-.07.52-.21l1.43-1.43Zm-8.41 1.64c.04 0 .07-.03.07-.07v-1.7c0-.05-.03-.08-.07-.08H6.73c-.05 0-.08-.04-.08-.08V6.4c0-.2-.07-.39-.21-.52L5 4.45a.73.73 0 0 0-.52-.22H1.91a.07.07 0 0 0-.07.08v1.7c0 .05.03.08.07.08h2.52c.2 0 .37.17.37.37v6.58c0 .04-.03.08-.08.08h-2.8c-.05 0-.08.03-.08.07v1.7c0 .05.03.08.07.08h7.63ZM2.47 0h15.06L20 2.47v15.06L17.53 20H2.47L0 17.53V2.47L2.47 0Zm10.14 6.1h3.33c.2 0 .37.16.37.36v6.29c0 .2-.17.37-.37.37H12.6a.36.36 0 0 1-.37-.37v-6.3c0-.2.15-.36.37-.36Z"
      fill="#dc0000"
    />
    <path
      d="M15.94 13.12c.2 0 .36-.17.36-.37v-6.3c0-.2-.16-.36-.36-.36H12.6a.36.36 0 0 0-.37.37v6.29c0 .2.15.37.37.37h3.33ZM16 4.23c.2 0 .38.08.52.22l1.43 1.43c.13.13.21.32.21.52v6.41c0 .2-.08.38-.21.52l-1.43 1.43a.73.73 0 0 1-.52.21h-3.45a.73.73 0 0 1-.53-.21l-1.42-1.43a.73.73 0 0 1-.22-.52V6.4c0-.2.08-.39.22-.52l1.42-1.43a.73.73 0 0 1 .53-.22H16Zm-9.35 8.8c0 .06.03.09.08.09h2.8c.05 0 .08.03.08.07v1.7c0 .05-.03.08-.07.08H1.9c-.04 0-.07-.03-.07-.07v-1.7c0-.05.03-.08.07-.08h2.81c.05 0 .08-.03.08-.08V6.46c0-.2-.17-.37-.37-.37H1.9a.07.07 0 0 1-.07-.08v-1.7c0-.04.03-.08.07-.08H4.5c.2 0 .38.08.52.22l1.43 1.43c.14.13.21.32.21.52v6.64Z"
      fill="#ffffff"
    />
  </symbol>
  <symbol id="penalty-2" viewBox="0 0 20 20" fill-rule="evenodd">
    <path
      d="M13.88 8.47c0 .14-.06.24-.18.32L8 12.5c-.04.02-.04.05-.04.06v.48c0 .04.04.08.08.08h5.77c.04 0 .07.03.07.07v1.7c0 .05-.03.08-.07.08H6.18a.07.07 0 0 1-.07-.07v-3.26l.03-.06L12 7.81c.01-.01.03-.03.03-.06V6.46c0-.2-.17-.37-.37-.37H6.18c-.04 0-.07-.03-.07-.07v-1.7c0-.05.03-.08.07-.08h5.54c.2 0 .38.07.52.21l1.43 1.43c.14.14.21.32.21.52v2.07ZM17.53 0H2.47L0 2.47v15.06L2.47 20h15.06L20 17.53V2.47L17.53 0Z"
      fill="#ffcd00"
    />
    <path
      d="M12.24 4.45a.73.73 0 0 0-.52-.21H6.2a.07.07 0 0 0-.08.07v1.7c0 .05.03.08.08.08h5.47c.2 0 .37.17.37.37v1.29c0 .03-.02.05-.03.06l-5.86 3.77a.12.12 0 0 0-.03.06v3.26c0 .04.03.07.08.07h7.62c.04 0 .07-.03.07-.07v-1.7c0-.05-.03-.08-.07-.08H8.04c-.04 0-.08-.03-.08-.08v-.48c0-.01 0-.04.04-.06l5.7-3.7a.36.36 0 0 0 .18-.33V6.4c0-.2-.07-.38-.21-.52l-1.43-1.43Z"
      fill="#001e28"
    />
  </symbol>
  <symbol id="penalty-5" viewBox="0 0 20 20" fill-rule="evenodd">
    <path
      d="M13.89 12.81c0 .2-.08.38-.22.52l-1.42 1.43a.73.73 0 0 1-.53.21H6.2c-.05 0-.08-.03-.08-.07v-1.7c0-.05.03-.08.08-.08h5.47c.2 0 .37-.17.37-.37v-1.86c0-.2-.17-.37-.37-.37H6.2c-.05 0-.08-.03-.08-.06V4.31c0-.04.03-.08.08-.08h6.88c.03 0 .08.04.08.08v1.7c0 .05-.05.08-.08.08H8.04a.07.07 0 0 0-.07.08V8.6c0 .03.03.07.07.07h3.68c.2 0 .39.08.53.22l1.42 1.41c.14.14.22.34.22.52v1.98ZM17.53 0H2.47L0 2.47v15.06L2.47 20h15.06L20 17.53V2.47L17.53 0Z"
      fill="#ffcd00"
    />
    <path
      d="M12.25 8.9a.73.73 0 0 0-.53-.22H8.04c-.04 0-.07-.04-.07-.07V6.17c0-.05.03-.08.07-.08h5.03c.03 0 .08-.03.08-.08v-1.7c0-.04-.05-.08-.08-.08H6.2c-.05 0-.08.04-.08.08v6.15c0 .03.03.06.08.06h5.47c.2 0 .37.17.37.37v1.86c0 .2-.17.37-.37.37H6.2a.07.07 0 0 0-.08.07v1.7c0 .05.03.08.08.08h5.53c.2 0 .39-.07.53-.21l1.42-1.43a.73.73 0 0 0 .22-.52v-1.98a.76.76 0 0 0-.22-.52L12.25 8.9Z"
      fill="#001e28"
    />
  </symbol>
  <symbol id="penalty-10" viewBox="0 0 20 20" fill-rule="evenodd">
    <path
      d="M17.95 13.33a.73.73 0 0 0 .21-.52V6.4c0-.2-.07-.39-.21-.52l-1.43-1.43a.73.73 0 0 0-.52-.22h-3.45c-.2 0-.39.08-.53.22L10.6 5.88a.73.73 0 0 0-.22.52v6.41c0 .2.08.38.22.52l1.43 1.43c.13.14.32.21.52.21H16c.2 0 .38-.07.52-.21l1.43-1.43Zm-8.41 1.64c.04 0 .07-.03.07-.07v-1.7c0-.05-.03-.08-.07-.08H6.73c-.05 0-.08-.04-.08-.08V6.4c0-.2-.07-.39-.21-.52L5 4.45a.73.73 0 0 0-.52-.22H1.91a.07.07 0 0 0-.07.08v1.7c0 .05.03.08.07.08h2.52c.2 0 .37.17.37.37v6.58c0 .04-.03.08-.08.08h-2.8c-.05 0-.08.03-.08.07v1.7c0 .05.03.08.07.08h7.63ZM2.47 0h15.06L20 2.47v15.06L17.53 20H2.47L0 17.53V2.47L2.47 0Zm10.14 6.1h3.33c.2 0 .37.16.37.36v6.29c0 .2-.17.37-.37.37H12.6a.36.36 0 0 1-.37-.37v-6.3c0-.2.15-.36.37-.36Z"
      fill="#ffcd00"
    />
    <path
      d="M15.94 13.12c.2 0 .36-.17.36-.37v-6.3c0-.2-.16-.36-.36-.36H12.6a.36.36 0 0 0-.37.37v6.29c0 .2.15.37.37.37h3.33ZM16 4.23c.2 0 .38.08.52.22l1.43 1.43c.13.13.21.32.21.52v6.41c0 .2-.08.38-.21.52l-1.43 1.43a.73.73 0 0 1-.52.21h-3.45a.73.73 0 0 1-.53-.21l-1.42-1.43a.73.73 0 0 1-.22-.52V6.4c0-.2.08-.39.22-.52l1.42-1.43a.73.73 0 0 1 .53-.22H16Zm-9.35 8.8c0 .06.03.09.08.09h2.8c.05 0 .08.03.08.07v1.7c0 .05-.03.08-.07.08H1.9c-.04 0-.07-.03-.07-.07v-1.7c0-.05.03-.08.07-.08h2.81c.05 0 .08-.03.08-.08V6.46c0-.2-.17-.37-.37-.37H1.9a.07.07 0 0 1-.07-.08v-1.7c0-.04.03-.08.07-.08H4.5c.2 0 .38.08.52.22l1.43 1.43c.14.13.21.32.21.52v6.64Z"
      fill="#001e28"
    />
  </symbol>
  <symbol id="yellow-card" viewBox="0 0 20 20" fill-rule="evenodd">
    <path d="M5.97 0 3.5 2.47v15.06L5.97 20h8.16l2.47-2.47V2.47L14.13 0H5.97Z" fill="#ffcd00" />
  </symbol>
  <symbol id="red-card" viewBox="0 0 20 20" fill-rule="evenodd">
    <path d="M5.97 0 3.5 2.47v15.06L5.97 20h8.16l2.47-2.47V2.47L14.13 0H5.97Z" fill="#dc0000" />
  </symbol>
  <symbol id="red-card-second" viewBox="0 0 20 20" fill-rule="evenodd">
    <path d="M5.97 0 3.5 2.47v15.06L5.97 20h8.16l2.47-2.47V2.47L14.13 0H5.97Z" fill="#ffcd00" />
    <path d="M5.97 0 3.5 2.47v15.06L16.6 2.47 14.13 0H5.97Z" fill="#dc0000" />
  </symbol>
  <symbol id="penalty" viewBox="0 0 20 20" fill-rule="evenodd">
    <path
      d="M10 18.6a8.57 8.57 0 0 1-5.58-2.06L16.5 4.37A8.62 8.62 0 0 1 10 18.61ZM10 1.4c2.1 0 4.02.75 5.51 2L3.44 15.56A8.62 8.62 0 0 1 10 1.39ZM10 0a10.01 10.01 0 0 0 0 20 10.01 10.01 0 0 0 0-20Z"
      fill="var(--color-icon-negative-base)"
    />
  </symbol>
  <symbol id="injury" viewBox="0 0 20 20" fill-rule="evenodd">
    <path d="M7.24 0v7.24H0v5.52h7.24V20h5.52v-7.24H20V7.24h-7.24V0H7.24Z" fill="#dc0000" />
  </symbol>
  <symbol id="corner" viewBox="0 0 20 20" fill-rule="evenodd">
    <path d="M0 20h1.37V0H0v20Z" />
    <path d="M11.72 0v10.35H20l-4.83-5.17L20 0h-8.28ZM2.76 11.73h7.58V1.38H2.76v10.35Z" fill="#dc0000" />
  </symbol>
  <symbol id="substitution" viewBox="0 0 20 20" fill-rule="evenodd">
    <path
      d="m18.74 4.21-1.31 3.16a7.84 7.84 0 0 0-14.81-.18l1.28.46a6.47 6.47 0 0 1 12.28.3l-3.24-1.33-.52 1.26 5.36 2.22L20 4.74l-1.26-.53Z"
      fill="#dc0000"
    />
    <path
      d="M10 16.3a6.47 6.47 0 0 1-6.18-4.58l3.24 1.34.53-1.26-5.37-2.22-.32.77-.2.49-1.7 4.1 1.26.52 1.31-3.15a7.84 7.84 0 0 0 14.81.17l-1.28-.46a6.49 6.49 0 0 1-6.1 4.29Z"
      fill="#14dc4b"
    />
  </symbol>
  <symbol id="shift" viewBox="0 0 20 20" fill-rule="evenodd">
    <path d="M10 16 0 3.5h20L10 16Z" />
  </symbol>
  <symbol id="arrow" viewBox="0 0 20 20" fill-rule="evenodd">
    <path d="M10.13 0 1 9.13l.96.96 7.5-7.5V20h1.35V2.6l7.5 7.5.95-.97L10.13 0Z" />
  </symbol>
  <symbol id="arrow-narrow" viewBox="0 0 20 20" fill-rule="evenodd">
    <path d="m7 0 7 7-1.4 1.4L8 3.8V20H6V3.8L1.4 8.4 0 7l7-7Z" />
  </symbol>
  <symbol id="rating-average" viewBox="0 0 20 20" fill-rule="evenodd">
    <path
      d="m4.37 17-1.16-1.25 1.4-1.4a7.04 7.04 0 0 1-1.22-2.06 7.14 7.14 0 0 1 .53-5.83 7.1 7.1 0 0 1 6-3.46c.8 0 1.58.14 2.31.42.76.26 1.45.65 2.09 1.19l1.52-1.52 1.13 1.28-1.49 1.49a6.7 6.7 0 0 1 .39 7.5 7.1 7.1 0 0 1-2.5 2.54 6.62 6.62 0 0 1-3.46.92 6.92 6.92 0 0 1-4.05-1.3L4.37 17Zm1.55-3.96L13 5.94a5.45 5.45 0 0 0-1.5-.8 4.95 4.95 0 0 0-5.99 2.23c-.42.76-.64 1.6-.64 2.54 0 .58.08 1.13.23 1.67.18.52.45 1 .8 1.46Zm4 1.9a4.9 4.9 0 0 0 2.5-.65 4.95 4.95 0 0 0 2.32-5.78c-.12-.46-.31-.9-.57-1.31L7.2 14.17c.4.26.82.46 1.28.6.46.12.93.17 1.43.17Z"
    />
  </symbol>
  <symbol id="penalty-goal" viewBox="0 0 20 20" fill-rule="evenodd">
    <path
      d="M19.972 0.014H0v10.736h1.366V1.38h17.24v9.371h1.366V0.012M9.988 3.235a7.517 7.517 0 1 0 0 15.032 7.517 7.517 0 0 0 0 -15.032m4.629 3.47 -0.725 2.331 -0.854 0.257 -2.381 -1.73V6.698l2.075 -1.45a6.138 6.138 0 0 1 1.883 1.457m-4.63 -2.103q0.6 0.003 1.17 0.112L9.986 5.531l-1.169 -0.817a6.207 6.207 0 0 1 1.169 -0.112m-2.745 0.649 2.075 1.45v0.863l-2.381 1.73 -0.852 -0.257 -0.725 -2.33A6.138 6.138 0 0 1 7.241 5.249m-2.834 2.914 0.34 1.092 -0.823 0.463q0.141 -0.821 0.483 -1.555m1.455 7.15h0.791l0.255 0.763a6.207 6.207 0 0 1 -1.046 -0.763m0.997 -1.341H4.748a6.138 6.138 0 0 1 -0.885 -2.68l1.766 -0.992 0.928 0.28 0.906 2.788Zm4.574 2.757a6.138 6.138 0 0 1 -2.891 0l-0.637 -1.905 0.715 -0.717h2.737l0.714 0.717Zm-0.11 -3.926h-2.672l-0.825 -2.541 2.161 -1.57 2.161 1.57Zm1.743 3.272 0.255 -0.763h0.791a6.207 6.207 0 0 1 -1.046 0.763m2.16 -2.103h-2.11l-0.603 -0.603 0.908 -2.79 0.925 -0.279 1.768 0.992a6.138 6.138 0 0 1 -0.886 2.68m0.823 -4.252 -0.823 -0.463 0.34 -1.091c0.225 0.488 0.39 1.008 0.483 1.554"
    />
  </symbol>
  <symbol id="penalty-missed" viewBox="0 0 20 20" fill-rule="evenodd">
    <path
      d="M19.972 0.014H0v10.736h1.366V1.38h17.24v9.371h1.366V0.012M9.988 3.235a7.517 7.517 0 1 0 0 15.032 7.517 7.517 0 0 0 0 -15.032m4.629 3.47 -0.725 2.331 -0.854 0.257 -2.381 -1.73V6.698l2.075 -1.45a6.138 6.138 0 0 1 1.883 1.457m-4.63 -2.103q0.6 0.003 1.17 0.112L9.986 5.531l-1.169 -0.817a6.207 6.207 0 0 1 1.169 -0.112m-2.745 0.649 2.075 1.45v0.863l-2.381 1.73 -0.852 -0.257 -0.725 -2.33A6.138 6.138 0 0 1 7.241 5.249m-2.834 2.914 0.34 1.092 -0.823 0.463q0.141 -0.821 0.483 -1.555m1.455 7.15h0.791l0.255 0.763a6.207 6.207 0 0 1 -1.046 -0.763m0.997 -1.341H4.748a6.138 6.138 0 0 1 -0.885 -2.68l1.766 -0.992 0.928 0.28 0.906 2.788Zm4.574 2.757a6.138 6.138 0 0 1 -2.891 0l-0.637 -1.905 0.715 -0.717h2.737l0.714 0.717Zm-0.11 -3.926h-2.672l-0.825 -2.541 2.161 -1.57 2.161 1.57Zm1.743 3.272 0.255 -0.763h0.791a6.207 6.207 0 0 1 -1.046 0.763m2.16 -2.103h-2.11l-0.603 -0.603 0.908 -2.79 0.925 -0.279 1.768 0.992a6.138 6.138 0 0 1 -0.886 2.68m0.823 -4.252 -0.823 -0.463 0.34 -1.091c0.225 0.488 0.39 1.008 0.483 1.554"
      fill="var(--color-icon-negative-base)"
    />
  </symbol>
  <symbol id="transfers" viewBox="0 0 20 20" fill-rule="evenodd">
    <path
      d="M17.5288 0H2.47124L0 2.47124V17.5288L2.47124 20H17.5288L20 17.5288V2.47124L17.5288 0ZM18.6293 16.9585L16.9585 18.6293H3.04152L1.37069 16.9585V3.04152L3.04152 1.37069H16.9585L18.6293 3.04152V16.9685V16.9585ZM11.4857 4.16214L13.3767 6.05308H4.02197V7.42377H13.3767L11.4857 9.30471L12.4462 10.2752L15.988 6.73342L12.4462 3.19165L11.4857 4.16214ZM8.51421 10.6853L7.54372 9.72485L4.00195 13.2566L7.54372 16.7984L8.51421 15.8379L6.62326 13.947H15.9779V12.5763H6.62326L8.51421 10.6853Z"
    />
  </symbol>
  <symbol id="injuries" viewBox="0 0 20 20" fill-rule="evenodd">
    <path
      d="M17.5288 4.3823H13.0965V1.25073H6.90345V4.3923H2.47124L0 6.85353V17.5189L2.47124 19.9901H17.5288L20 17.5189V6.85353L17.5288 4.3823ZM8.26413 2.61141H11.7259V4.3823H8.26413V2.61141ZM18.6293 16.9586L16.9585 18.6294H3.04152L1.37069 16.9586V7.42382L3.04152 5.75298H16.9585L18.6293 7.42382V16.9586ZM12.4062 7.55371H7.60379V9.79483H5.36267V14.6072H7.60379V16.8484H12.4062V14.6072H14.6473V9.79483H12.4062V7.55371ZM13.2766 11.1555V13.2265H11.0355V15.4677H8.96447V13.2265H6.72335V11.1555H8.96447V8.91439H11.0355V11.1555H13.2766Z"
    />
  </symbol>
  <symbol id="warning" viewBox="0 0 20 20" fill-rule="evenodd">
    <path
      d="M9.44 1.2 0 17.54l.56.98h18.88l.56-.98L10.56 1.2H9.44ZM9 13.3h1.96V6.1H9.01v7.2Zm0 3.26h1.96V14.6H9.01v1.96Z"
      fill="#dc0000"
    />
    <path d="M10.97 13.1H9.01V5.9h1.96v7.2Zm0 3.26H9.01V14.4h1.96v1.96Z" fill="#ffffff" />
  </symbol>
  <symbol id="next-stage" viewBox="0 0 20 20" fill-rule="evenodd">
    <path
      d="M0 2.47 2.47 0h15.06L20 2.47v15.06L17.53 20H2.47L0 17.53V2.47Zm1.37.57v13.92l1.67 1.67h13.92l1.67-1.67V3.04l-1.67-1.67H3.04L1.37 3.04Zm3.72 7.24-.97-.97L10 3.43l5.88 5.88-.97.97-4.22-4.22v9.8H9.3v-9.8L5.1 10.28Z"
    />
  </symbol>
</svg>
