<svg xmlns="http://www.w3.org/2000/svg" xmlns:xlink="http://www.w3.org/1999/xlink" style="display: none">
  <symbol id="score-change-baseball" viewBox="0 0 20 20" fill-rule="evenodd">
    <path
      d="M3.1 4.82a1.72 1.72 0 1 0 0-3.45 1.72 1.72 0 0 0 0 3.45ZM3.1 0a3.1 3.1 0 1 1 0 6.21A3.1 3.1 0 0 1 3.1 0Zm4.42 12.5 2.81-1.7 8.3-8.3v-.84l-.29-.28h-.83l-8.3 8.3-1.7 2.81ZM2.07 20 0 17.93l.98-.97.52.53 3.45-3.4 3.16-5.27L16.94 0h1.98L20 1.09v1.98l-8.81 8.83-5.26 3.16-3.45 3.4.56.57-.97.97Z"
    />
  </symbol>
  <symbol id="score-change-am-football" viewBox="0 0 20 20" fill-rule="evenodd">
    <path
      d="m12.28 5.48-3.1-3.1c-.54.38-1.09.93-1.46 1.46l3.1 3.1a6.35 6.35 0 0 0 1.46-1.46Zm.91-4.01a5.32 5.32 0 0 0-2.73.24l2.5 2.49a5.28 5.28 0 0 0 .23-2.73ZM6.81 7.85a5.39 5.39 0 0 0 2.73-.24L7.05 5.12a5.33 5.33 0 0 0-.24 2.73Zm-.86 1.2-.25-.1-.12-.34C4.2 3.74 9.07-1.14 13.96.23l.34.13.12.34c1.36 4.84-3.42 9.75-8.38 8.38l-.1-.03Zm12.67 4.05V0H20v20h-1.38v-5.52H1.38V20H0V0h1.38v13.1h17.24Z"
    />
  </symbol>
  <symbol id="score-change-rugby" viewBox="0 0 20 20" fill-rule="evenodd">
    <path
      d="M17.7 9.6a15.87 15.87 0 0 1-3.36 4.75A15.85 15.85 0 0 1 9.6 17.7c-1.37.6-2.76.9-4.14.9a7.6 7.6 0 0 1-.95-.06c2.1-.82 5.2-2.42 8.3-5.41l.16-.17a25.16 25.16 0 0 0 5.54-8.64c.07.42.1.88.1 1.38-.04 1.3-.34 2.6-.91 3.9Zm-.01-7.19a23.26 23.26 0 0 1-5.76 9.65 23.37 23.37 0 0 1-9.5 5.74A23.03 23.03 0 0 1 17.69 2.4ZM1.39 14.29c.03-1.3.33-2.6.9-3.9a15.9 15.9 0 0 1 3.38-4.74 15.81 15.81 0 0 1 4.72-3.36c1.3-.57 2.6-.87 3.9-.9.61-.03 1.16.04 1.66.13a25 25 0 0 0-8.93 5.85l-.16.17c-3 3.2-4.54 6.4-5.31 8.52a8.06 8.06 0 0 1-.17-1.77ZM19.02 1.25l-.1-.18-.18-.1C18.67.93 16.8-.05 14.25 0 12.79.04 11.3.4 9.84 1.03a17.2 17.2 0 0 0-5.15 3.66 17.17 17.17 0 0 0-3.65 5.14A11.68 11.68 0 0 0 0 14.26a9.84 9.84 0 0 0 .85 4.22v.01l.13.26.1.18.17.1c.03.01.29.14.71.3v.02h.01c.74.28 2 .65 3.5.65 1.57 0 3.15-.35 4.7-1.03 1.77-.78 3.5-2 5.15-3.66a17.23 17.23 0 0 0 3.65-5.14c.64-1.46.99-2.95 1.03-4.43a9.66 9.66 0 0 0-.97-4.49Z"
    />
  </symbol>
  <symbol id="score-change-snooker" viewBox="0 0 20 20" fill-rule="evenodd">
    <path
      d="M10.54 3.44A5.46 5.46 0 0 0 0 5.44c0 2.24 1.4 4.25 3.46 5.06v9.46h1.36V10l-.5-.65a4.1 4.1 0 0 1-2.95-3.92A4.09 4.09 0 0 1 9.4 4.3l.66.5H20V3.43h-9.46Zm-1.11 7.87a1.85 1.85 0 0 1-1.85-1.85 1.85 1.85 0 0 1 3.7 0c0 1.02-.83 1.85-1.85 1.85Zm0-5.06a3.22 3.22 0 0 0-3.22 3.21 3.22 3.22 0 0 0 6.44 0c0-1.77-1.44-3.2-3.22-3.2ZM19.01 20l-6.64-6.67.96-.96L20 19.06V20h-.99Z"
    />
  </symbol>
  <symbol id="result" viewBox="0 0 20 20" fill-rule="evenodd">
    <path
      d="M2.47 0 0 2.47v15.06L2.47 20h15.06L20 17.53V2.47L17.53 0H2.47Zm8.22 1.37h6.27l1.67 1.67v13.92l-1.67 1.67H10.7V1.37ZM1.37 16.96V3.04l1.67-1.67h6.27v17.26H3.04l-1.67-1.67Zm6.84-4.73H6.23c-.04 0-.06-.03-.06-.06v-4.7a.52.52 0 0 0-.15-.36l-1-1a.5.5 0 0 0-.37-.16H2.83c-.04 0-.06.02-.06.06v1.2c0 .03.02.05.06.05H4.6c.14 0 .26.12.26.26v4.65c0 .03-.02.06-.05.06H2.83c-.04 0-.06.02-.06.05v1.2c0 .03.02.06.06.06H8.2c.03 0 .05-.03.05-.06v-1.2c0-.03-.02-.05-.05-.05Zm7.64 0c.14 0 .26-.13.26-.27V7.52a.26.26 0 0 0-.26-.26H13.5a.26.26 0 0 0-.26.26v4.44c0 .14.1.27.26.27h2.35Zm-2.4-6.28h2.44c.14 0 .27.06.37.15l1 1.01c.1.1.16.23.16.37v4.53c0 .14-.05.27-.15.37l-1 1c-.1.1-.24.15-.38.15h-2.44a.51.51 0 0 1-.36-.15l-1.01-1a.52.52 0 0 1-.15-.37V7.48c0-.14.05-.27.15-.37l1-1c.1-.1.23-.16.37-.16Z"
    />
  </symbol>
  <symbol id="red-card-outline" viewBox="0 0 20 20" fill-rule="evenodd">
    <path
      d="M5.92 0 3.45 2.47v15.06L5.92 20h8.16l2.47-2.47V2.47L14.08 0H5.92Zm-1.1 16.96V3.04l1.67-1.68h7.03l1.67 1.68v13.93l-1.67 1.66H6.49l-1.67-1.67Z"
    />
  </symbol>
  <symbol id="lineups" viewBox="0 0 20 20" fill-rule="evenodd">
    <path
      d="m12.82 1.4-2.07 2.08h-1.5L7.18 1.4H3.16L0 4.56v7.18h4.14v-1.37H1.37V5.13l2.36-2.36h2.88l2.07 2.08h2.64l2.07-2.08h2.88l2.36 2.36v5.24h-2.77v1.38H20V4.55L16.84 1.4h-4.02Zm1.67 6.2v9.67H5.5V7.6H4.14v11.03h11.72V7.61H14.5Zm-6.51 6.9 3.32-4.37V9.02c0-.12-.1-.22-.23-.22H7.55c-.03 0-.05-.02-.05-.05v-1.1c0-.02.02-.04.05-.04h3.56c.13 0 .25.05.33.13l.92.92c.09.09.14.2.14.34v1.32a.5.5 0 0 1-.08.26l-2.9 3.93H7.98Z"
    />
  </symbol>
  <symbol id="report" viewBox="0 0 20 20" fill-rule="evenodd">
    <path
      d="M4.17 2.47 6.64 0h10.9L20 2.47v15.06L17.53 20H2.46L0 17.53V8.97h4.17v-6.5Zm1.37 9.25v5.8L4.4 18.63h12.55l1.68-1.67V3.04l-1.67-1.67H7.2L5.53 3.04v8.68Zm-4.18-1.38v6.62l1.4 1.4 1.41-1.4v-6.62h-2.8ZM6.92 5.5h10.33V4.14H6.92v1.37Zm10.33 3.45H6.92V7.59h10.33v1.37ZM6.92 12.4h10.33v-1.37H6.92v1.37Zm0 3.45h10.33v-1.37H6.92v1.37Z"
    />
  </symbol>
  <symbol id="halftime" viewBox="0 0 20 20" fill-rule="evenodd">
    <path
      d="M3.07 11.73a6.9 6.9 0 1 0 13.82-.02 6.9 6.9 0 0 0-13.82.02ZM16.91 3.5l-1.52 2A8.22 8.22 0 0 1 9.98 20a8.26 8.26 0 0 1-.69-16.48V1.38H6.87V0h6.21v1.38h-2.42v2.14c1.32.11 2.56.52 3.63 1.18l1.53-2.02 1.1.83ZM9.98 16.9V6.54a5.18 5.18 0 0 1 0 10.35Z"
    />
  </symbol>
  <symbol id="quarter" viewBox="0 0 20 20" fill-rule="evenodd">
    <path
      d="M3.07 11.72a6.9 6.9 0 1 0 13.82 0 6.9 6.9 0 0 0-13.82 0Zm13.84-8.21-1.52 2a8.22 8.22 0 0 1 2.86 6.21 8.29 8.29 0 0 1-16.55 0 8.26 8.26 0 0 1 7.59-8.2V1.37H6.87V0h6.21v1.37h-2.42v2.15c1.32.1 2.55.51 3.63 1.18l1.53-2.02 1.1.83Zm-6.93 8.21V6.55a5.17 5.17 0 0 1 5.17 5.17H9.98Z"
    />
  </symbol>
  <symbol id="additional-time" viewBox="0 0 20 20" fill-rule="evenodd">
    <path
      d="M3.07 11.72a6.9 6.9 0 1 0 13.82 0 6.9 6.9 0 0 0-13.82 0Zm13.84-8.21-1.52 2a8.22 8.22 0 0 1 2.86 6.21 8.29 8.29 0 0 1-16.55 0 8.26 8.26 0 0 1 7.59-8.2V1.37H6.87V0h6.21v1.37h-2.42v2.15c1.32.1 2.55.51 3.63 1.18l1.53-2.02 1.1.83Zm-6.93 8.21V6.55C11.5 6.5 12 7 12 7l-2.02 4.72Z"
    />
  </symbol>
  <symbol id="end-of-set" viewBox="0 0 20 20" fill-rule="evenodd">
    <path
      d="M9.98 18.63A6.9 6.9 0 1 1 9.99 4.8a6.9 6.9 0 0 1-.01 13.82Zm5.41-13.11 1.52-2.01-1.09-.83L14.3 4.7a8.19 8.19 0 0 0-3.63-1.18V1.37h2.42V0h-6.2v1.38h2.4v2.14A8.26 8.26 0 0 0 9.99 20a8.22 8.22 0 0 0 5.41-14.48Z"
    />
  </symbol>
  <symbol id="race-start-cycling" viewBox="0 0 20 20" fill-rule="evenodd">
    <path d="M18.63 0v1.39H1.38V0H0v20h1.38v-8.97h17.25V20H20V0h-1.37ZM1.38 9.66h17.25V2.75H1.38v6.91Z" />
  </symbol>
  <symbol id="race-end-cycling" viewBox="0 0 20 20" fill-rule="evenodd">
    <path
      d="M1.43 20H0V0h1.43v20ZM20 11.05H2.84V.02H20v11.04Zm-4.3-6.9h-2.85V1.39h2.85v2.76Zm-5.73 0H7.13V1.39h2.84v2.76Zm8.6 2.76h-2.86V4.17h2.86V6.9Zm-5.74 0H10V4.17h2.84V6.9Zm-5.72 0H4.27V4.17H7.1V6.9Zm8.59 2.77h-2.85V6.93h2.85v2.75Zm-5.73 0H7.13V6.93h2.84v2.75Z"
    />
  </symbol>
  <symbol id="race-start-winter" viewBox="0 0 20 20" fill-rule="evenodd">
    <path
      d="M0 20h1.38V0H0v20Zm4.12-8.95h5.5v-8.3h-5.5v8.3Zm-1.38 1.37H11V1.38H2.74v11.04ZM20 10.36h-8.3V.01H20v10.35ZM18.62 9h-5.54v-7.6h5.54v7.6Z"
    />
  </symbol>
  <symbol id="race-end-winter" viewBox="0 0 20 20" fill-rule="evenodd">
    <path
      d="M18.63 0v1.39H1.38V0H0v20h1.38v-8.97h17.25V20H20V0h-1.37Zm-6.9 6.2V2.76h3.44V6.2h3.46v3.45h-3.46V6.21h-3.45v3.45H8.29V6.21H4.83v3.45H1.37V6.21h3.46V2.75h3.45V6.2h3.45Z"
    />
  </symbol>
  <symbol id="race-start-motorsport" viewBox="0 0 20 20" fill-rule="evenodd">
    <path
      d="M20 1.36H0V0h20v1.36ZM1.39 4.9a2.15 2.15 0 1 1 4.3 0 2.15 2.15 0 0 1-4.3 0Zm15.07-2.15a2.15 2.15 0 1 0 0 4.3 2.15 2.15 0 0 0 0-4.3ZM7.85 4.9a2.15 2.15 0 1 1 4.3 0 2.15 2.15 0 0 1-4.3 0ZM3.54 8.8a2.15 2.15 0 1 0 0 4.3 2.15 2.15 0 0 0 0-4.3Zm10.77 2.15a2.15 2.15 0 1 1 4.3 0 2.15 2.15 0 0 1-4.3 0ZM10 8.8a2.15 2.15 0 1 0 0 4.3 2.15 2.15 0 0 0 0-4.3Zm-7.25 8.16a.79.79 0 0 0 1.57 0 .78.78 0 0 0-1.57 0Zm-1.36 0a2.15 2.15 0 1 1 4.3 0 2.15 2.15 0 0 1-4.3 0Zm15.07.78a.79.79 0 0 1 0-1.56.78.78 0 0 1 0 1.56Zm0-2.93a2.15 2.15 0 1 0 0 4.3 2.15 2.15 0 0 0 0-4.3ZM9.2 16.96a.78.78 0 1 0 1.57 0 .78.78 0 0 0-1.57 0Zm-1.36 0a2.15 2.15 0 1 1 4.3 0 2.15 2.15 0 0 1-4.3 0Z"
    />
  </symbol>
  <symbol id="race-end-motorsport" viewBox="0 0 20 20" fill-rule="evenodd">
    <path
      d="M1.38 20H0V0h1.38v20ZM9.62 1.38V.01h8.3v11.03H11v1.38H2.74V1.38h6.88Zm6.88 2.76h-2.72V1.43h2.72v2.7ZM9.62 5.52H6.88V2.75h2.74v2.77Zm4.14 1.37h-2.72V4.15h2.72v2.74Zm-6.9 1.39H4.12V5.53h2.74v2.75Zm9.64 1.35h-2.72V6.9h2.72v2.72Zm-6.88 1.42H6.88V8.29h2.74v2.76Z"
    />
  </symbol>
  <symbol id="wicket" viewBox="0 0 20 20" fill-rule="evenodd">
    <path
      d="M14.44 20h1.37V0h-1.37v20ZM4.1 20h1.37V0H4.1v20Zm6.57-20v4.38a4.64 4.64 0 0 0-.72-.07c-.19 0-.37.02-.55.05l-.09.01V.01h1.36ZM9.31 13.58V20h1.36v-6.44c-.23.04-.47.08-.72.08-.19 0-.38-.03-.56-.06H9.3ZM8 8.97a1.94 1.94 0 1 0 3.88 0 1.94 1.94 0 0 0-3.87 0Zm-1.36 0a3.3 3.3 0 1 1 6.6.01 3.3 3.3 0 0 1-6.6-.01Z"
    />
  </symbol>
  <symbol id="wicket-hit" viewBox="0 0 20 20" fill-rule="evenodd">
    <path
      d="M14.57 1.34 16.6 1l.23 1.35-2.04.33-.22-1.34ZM0 1.4l3.26 18.34 1.34-.24L1.35 1.17 0 1.41Zm8.8 17.62 1.16.73L19.99 4.08l-1.15-.74L8.81 19.03ZM5.78 4.84 4.05 3.7l-.76 1.14L5 5.98l.76-1.14ZM8.7 1.16l1.35.22-.3 1.91c-.53.07-1.01.22-1.46.45l.41-2.58ZM5.77 19.54l1.35.22 1.28-8.04a4.5 4.5 0 0 1-1.24-.87l-1.4 8.7ZM12.05 7.7a1.73 1.73 0 1 0-3.45.01 1.73 1.73 0 0 0 3.45 0Zm1.39 0a3.1 3.1 0 1 1-6.22-.01 3.1 3.1 0 0 1 6.22.01Z"
    />
  </symbol>
  <symbol id="tournament-start-golf" viewBox="0 0 20 20" fill-rule="evenodd">
    <path
      d="M9.95 10.13a4.38 4.38 0 1 1 .01-8.76 4.38 4.38 0 0 1-.01 8.75ZM9.95 0a5.75 5.75 0 1 0 0 11.5 5.75 5.75 0 0 0 0-11.5Zm2.16 12.07a5.87 5.87 0 0 1-4.32 0l-.5 1.28c.66.27 1.36.4 2.08.45H9.3l-.04 5.52.66.68.68-.66.04-5.54h-.11a7.14 7.14 0 0 0 2.09-.45l-.5-1.28ZM9.9 5.52h.05A.7.7 0 0 1 10 6.9h-.05a.7.7 0 0 1-.05-1.38Zm2.7 0h-.06a.69.69 0 1 0 .1 1.38.69.69 0 0 0-.05-1.38Zm-5.35 0h.06a.7.7 0 1 1-.06 0ZM8.57 7.6a.69.69 0 1 0 0 1.38.69.69 0 0 0 0-1.38Zm2.1.5a.69.69 0 1 1 1.32.38.69.69 0 0 1-1.32-.38Z"
    />
  </symbol>
  <symbol id="tournament-end-golf" viewBox="0 0 20 20" fill-rule="evenodd">
    <path
      d="M6.83 17.24V0l11.72 5.52-10.34 5.51v6.21H6.83Zm8.96-11.72L8.21 2.07v7.6l7.58-4.15Zm-6.21 9.25v-1.42c2.02.51 3.46 1.75 3.46 3.2 0 1.9-2.47 3.45-5.52 3.45C4.47 20 2 18.46 2 16.55c0-1.45 1.43-2.69 3.46-3.2v1.42c-1.29.4-2.13 1.13-2.13 1.78 0 .42.36.88.98 1.27.82.52 2 .81 3.2.81 2.37 0 4.2-1.12 4.2-2.08 0-.42-.36-.88-.98-1.27-.34-.2-.73-.38-1.15-.51Z"
    />
  </symbol>
  <symbol id="winner" viewBox="0 0 20 20" fill-rule="evenodd">
    <path
      d="M19.35 1.712h-3.505V.65a.65.65 0 0 0-.65-.651H4.805a.65.65 0 0 0-.65.65v1.062H.65a.65.65 0 0 0-.65.65v1.403c0 2.927 1.76 5.51 4.488 6.579l.105.04s.02.004.029.008a5.9 5.9 0 0 0 3.386 3.204v2.651h-.642a2.06 2.06 0 0 0-2.061 2.062v1.04c0 .358.293.651.65.651h8.102c.358 0 .65-.293.65-.65v-1.041a2.06 2.06 0 0 0-2.06-2.062h-.643v-2.655a5.87 5.87 0 0 0 3.374-3.2q.014-.001.028-.008l.11-.04A7.03 7.03 0 0 0 20 3.765V2.362a.65.65 0 0 0-.65-.65M1.3 3.765v-.752h2.854V8.11c0 .224.017.44.041.659a5.73 5.73 0 0 1-2.894-5zm12.106 14.548v.39h-6.8v-.39c0-.42.341-.76.76-.76h5.28c.419 0 .76.34.76.76m-2.703-2.062h-1.39v-2.338a5.4 5.4 0 0 0 1.394.001v2.341zM10 12.653a4.55 4.55 0 0 1-4.545-4.546v-6.81h9.086v6.81a4.55 4.55 0 0 1-4.545 4.546zm8.7-8.888a5.73 5.73 0 0 1-2.895 5.001c.024-.215.04-.435.04-.659V3.01H18.7z"
    />
  </symbol>
</svg>
