<svg xmlns="http://www.w3.org/2000/svg" xmlns:xlink="http://www.w3.org/1999/xlink" style="display: none">
  <symbol id="rating-star" viewBox="0 0 20 20" fill-rule="evenodd">
    <path
      d="M6 0a6 6 0 0 1-6 6 6 6 0 0 1 6 6 6 6 0 0 1 6-6 6 6 0 0 1-6-6Z"
      fill="var(--rating-star-fill, var(--color-badge-rating-typeBest-background-base, #0033FF))"
    />
  </symbol>
  <symbol id="people" viewBox="0 0 20 20" fill-rule="evenodd">
    <path
      d="M18.63 18.63h-2.09v-1.32l-1.2-1.21-2.83-.71a6.32 6.32 0 0 0 1.03-5.66 3.55 3.55 0 0 0-1.33-1.79l-.02-.07c-.28-1.1-.14-2.19.36-2.82.35-.45.89-.68 1.6-.68.96 0 1.6.43 1.9 1.28.46 1.3-.02 3.27-1 4.05l-.25.2v1.26l3.4.84.43.44v6.2Zm-4.49 0H4.82v-.76l.54-.54 3.8-.95v-1.3l-.25-.2c-1.13-.9-1.7-3.19-1.16-4.7.35-1 1.1-1.5 2.25-1.5 1.14 0 1.9.5 2.25 1.5.53 1.51-.03 3.79-1.16 4.7l-.25.2v1.3l3.8.95.54.54v.76h-1.04Zm-12.77 0v-6.19L1.8 12l3.4-.84V9.9l-.26-.2c-.97-.79-1.45-2.76-1-4.06.3-.85.95-1.28 1.92-1.28.7 0 1.24.23 1.6.68.49.63.63 1.71.35 2.82l-.02.08a3.54 3.54 0 0 0-1.33 1.78 6.32 6.32 0 0 0 1.03 5.66l-2.83.7-1.2 1.22v1.32h-2.1ZM8.7 1.87c.29-.33.72-.5 1.3-.5.56 0 1 .17 1.3.52.38.45.53 1.2.41 2.04l-.25.27c-.62.8-.88 1.94-.75 3.17a4.53 4.53 0 0 0-1.44 0 4.4 4.4 0 0 0-.75-3.17 3.4 3.4 0 0 0-.26-.28c-.11-.84.05-1.6.44-2.05Zm10.2 8.9-2.41-.6a5.6 5.6 0 0 0 .84-4.97 3.2 3.2 0 0 0-3.2-2.2c-.39 0-.73.05-1.03.13A3.57 3.57 0 0 0 12.34 1C11.8.35 10.98 0 10 0c-.97 0-1.77.34-2.33.98-.47.55-.74 1.3-.79 2.15-.3-.08-.64-.13-1.02-.13a3.2 3.2 0 0 0-3.2 2.2 5.6 5.6 0 0 0 .84 4.97l-2.4.6L0 11.88V20h20v-8.12l-1.1-1.1Z"
    />
  </symbol>
  <symbol id="venue" viewBox="0 0 20 20" fill-rule="evenodd">
    <path
      d="M2.47 2.4 0 4.87v10.3l2.48 2.4h15.05L20 15.1V4.87L17.53 2.4H2.47Zm8.21 1.37h5.14l-1.66 2.08h-3.48V3.77Zm-6.5 0h5.14v2.08H5.84L4.18 3.77ZM15.4 6.48l1.9-2.37 1 .99L15.91 7l-.52-.52ZM1.7 5.1l1-1 1.9 2.38-.52.52-2.37-1.9Zm14.85 6.63V8.24l2.08-1.66v6.81l-2.08-1.66ZM1.37 6.58l2.08 1.66v3.49l-2.08 1.66V6.58Zm3.45 5.2V8.2l.98-.98h8.4l.98.98v3.57l-.98.98H5.8l-.98-.98Zm10.58 1.7.52-.51 2.37 1.9-.99 1-1.9-2.38ZM1.68 14.9l2.4-1.92.52.51-1.91 2.4-1.01-.99Zm9-.77h3.48l1.66 2.08h-5.14v-2.08Zm-4.84 0h3.48v2.08H4.18l1.66-2.08Z"
    />
  </symbol>
  <symbol id="charts" viewBox="0 0 20 20" fill-rule="evenodd">
    <path d="M18 3h-4v14h4V3ZM8 7h4v10H8V7Zm-6 4h4v6H2v-6Z" />
  </symbol>
  <symbol id="man" viewBox="0 0 20 20" fill-rule="evenodd">
    <path
      d="M10.01 20H20v-4.73l-1.48-1.4-5.91-1.37v-.7C16.3 9.03 16.55 0 10 0H10c-6.54 0-6.3 9.03-2.6 11.8v.7l-5.91 1.38L0 15.27V20h10.01Z"
      fill="#2f5491"
    />
  </symbol>
  <symbol id="men-double" viewBox="0 0 20 20" fill-rule="evenodd">
    <path
      d="M18.63 18.63h-3.81v-2.38l-1.1-1.1-4.39-1.1v-.55c2.32-1.87 3.06-7.28.06-8.89.03-.9.27-1.7.71-2.25.52-.66 1.3-1 2.3-1 1.4 0 2.34.63 2.78 1.87.64 1.8-.05 4.56-1.4 5.65l-.26.2v1.38l4.42 1.1.7.7v6.37Zm.01-8.3-3.5-.87a7.26 7.26 0 0 0 1.33-6.69C15.84 1 14.39 0 12.4 0 10.97 0 9.8.52 9.03 1.52a5.04 5.04 0 0 0-.98 2.68c-.2-.03-.41-.06-.64-.06-5.22 0-4.67 7.16-1.93 9.36v.55l-4.38 1.1-1.1 1.1V20h20v-8.3l-1.36-1.37Z"
      fill="#2f5491"
    />
  </symbol>
  <symbol id="women" viewBox="0 0 20 20" fill-rule="evenodd">
    <path
      d="m18.52 13.85-4.28-1-1.64-.38v-.7l.62-.25a150.68 150.68 0 0 1 2.9-1.13l-.02-.73C16.01 5.86 15.12 0 10 0 4.88 0 3.99 5.86 3.9 9.66l-.01.73c1.29.48 2.53.98 3.51 1.39v.7L5.15 13l-3.67.85L0 15.24V20h20v-4.76l-1.48-1.4Z"
      fill="#eb0037"
    />
  </symbol>
  <symbol id="women-double" viewBox="0 0 20 20" fill-rule="evenodd">
    <path
      d="M18.64 18.63h-3.86v-2.4l-1.1-1.1-4.37-1.1v-.55c.73-.32 1.64-.72 2.6-1.1 0-2.41-.33-6.4-2.66-7.76.52-2.15 1.57-3.25 3.15-3.25 2.79 0 3.48 3.46 3.54 6.56-.74.3-1.44.6-2.02.86l-.4.18v1.5l4.42 1.1.7.7v6.36Zm0-8.3-3.08-.76c.42-.18.86-.37 1.32-.55l.43-.17v-.47C17.3 1.08 14.23 0 12.4 0 10.77 0 8.8.8 7.95 4.2a3.97 3.97 0 0 0-.56-.06c-4.04 0-4.52 5.3-4.52 8.24.96.38 1.87.78 2.6 1.1v.55l-4.38 1.1L0 16.22V20h20v-8.3l-1.36-1.37Z"
      fill="#eb0037"
    />
  </symbol>
  <symbol id="mixed-double" viewBox="0 0 20 20" fill-rule="evenodd">
    <path
      d="m18.65 10.33-3.5-.87a7.28 7.28 0 0 0 1.33-6.69C15.85.98 14.4 0 12.42 0a4.1 4.1 0 0 0-3.38 1.52 5.05 5.05 0 0 0-.97 2.67c.51.09.96.27 1.34.53.01-.94.26-1.78.71-2.36.51-.66 1.29-1 2.3-1 1.4 0 2.33.63 2.77 1.87.63 1.8-.05 4.56-1.4 5.65l-.26.2v1.38l4.41 1.1.7.7v6.37H14.8V20H20v-8.3l-1.35-1.37Z"
      fill="#2f5491"
    />
    <path
      d="m14.8 16.2-1.1-1.1L9.32 14v-.55c.73-.32 1.64-.72 2.6-1.1 0-2.36-.31-6.2-2.5-7.64a3.4 3.4 0 0 0-2.02-.58c-4.04 0-4.52 5.28-4.52 8.22.95.38 1.87.78 2.6 1.1V14L1.1 15.1 0 16.2V20h14.8V16.2Z"
      fill="#eb0037"
    />
  </symbol>
  <symbol id="venue-tiny" viewBox="0 0 20 20" fill-rule="evenodd">
    <path
      d="M17.65 3H2.35L0 5.35v10.37l2.35 2.27h15.3L20 15.65V5.35L17.65 3Zm-1.54 4.9-1-1 2.43-3.05 1.6 1.6-3.03 2.44Zm-1.6 5.83H5.49L4.26 12.5v-4l1.23-1.24h9.02l1.23 1.23v4.01l-1.23 1.23Zm-.02-7.15h-4.15v-2.9h6.46l-2.31 2.9Zm-4.83 0H5.5L3.2 3.68h6.46v2.9Zm-4.77.31-1 1L.85 5.46l1.6-1.6L4.9 6.88ZM3.58 8.51v3.97l-2.9 2.31V6.2l2.9 2.32Zm.31 4.59 1 1-2.43 3.04-1.64-1.58 3.07-2.46Zm1.62 1.31h4.15v2.9H3.2l2.31-2.9Zm4.83 0h4.15l2.31 2.9h-6.46v-2.9Zm4.77-.31 1-1 3.04 2.43-1.6 1.6-2.44-3.03Zm1.31-1.62V8.5l2.9-2.31v8.6l-2.9-2.32Z"
    />
  </symbol>
</svg>
