<svg xmlns="http://www.w3.org/2000/svg" xmlns:xlink="http://www.w3.org/1999/xlink" style="display: none">
  <symbol id="other_rating-star" viewBox="0 0 12 12" fill-rule="evenodd">
    <path
      d="M6 0a6 6 0 0 1-6 6 6 6 0 0 1 6 6 6 6 0 0 1 6-6 6 6 0 0 1-6-6Z"
      fill="var(--rating-star-fill, var(--color-badge-rating-typeBest-background-base, #0033FF))"
    />
  </symbol>
  <symbol id="other_people" viewBox="0 0 20 20" fill-rule="evenodd">
    <path
      d="M15.16 9.93005H4.88005C2.22005 9.93005 0.0500488 11.7901 0.0500488 14.0801V16.8401L0.800049 17.5901H4.02005V19.2401L4.77005 19.9901H15.34L16.09 19.2401V17.5901H19.21L19.96 16.8401V14.0801C19.96 11.7901 17.81 9.93005 15.17 9.93005H15.16ZM1.55005 16.1001V14.0901C1.55005 12.6301 3.04005 11.4401 4.88005 11.4401H5.49005C4.59005 12.4401 4.02005 13.8501 4.02005 15.4201V16.1101H1.55005V16.1001ZM14.58 18.5001H5.52005V15.4101C5.52005 13.2201 6.94005 11.4301 8.68005 11.4301H11.42C13.16 11.4301 14.58 13.2101 14.58 15.4101V18.5001ZM18.4501 16.1001H16.08V15.4101C16.08 13.8401 15.51 12.4301 14.61 11.4301H15.15C16.97 11.4301 18.4401 12.6201 18.4401 14.0801V16.0901L18.4501 16.1001ZM4.9 8.91C5.89 8.91 6.75 8.41 7.28 7.66C7.97 8.42 8.95 8.89999 10.05 8.89999C11.15 8.89999 12.13 8.42 12.82 7.66C13.35 8.41 14.21 8.91 15.2 8.91C16.8 8.91 18.1 7.61 18.1 6.01V4.89C18.1 3.29 16.8 1.99 15.2 1.99C14.55 1.99 13.95 2.21 13.47 2.58C12.88 1.28 11.58 0.369995 10.06 0.369995C8.54 0.369995 7.23 1.27999 6.64 2.58999C6.15 2.21999 5.56 2 4.9 2C3.3 2 2 3.3 2 4.9V6.02C2 7.62 3.3 8.92 4.9 8.92V8.91ZM15.2 3.49C15.97 3.49 16.6 4.12 16.6 4.89V6.01C16.6 6.78 15.97 7.41 15.2 7.41C14.43 7.41 13.8 6.78 13.8 6.01V5.22C13.8 5.22 13.8 5.18 13.8 5.16V4.83C13.83 4.09 14.44 3.49 15.2 3.49ZM10.05 1.86C11.29 1.86 12.3 2.87 12.3 4.11V4.83C12.3 4.83 12.3 4.87 12.3 4.89V5.22C12.27 6.43 11.28 7.41 10.06 7.41C8.84 7.41 7.82 6.41 7.81 5.17V4.89C7.81 4.89 7.81 4.89 7.81 4.88V4.11C7.81 2.87 8.82 1.86 10.06 1.86H10.05ZM3.5 4.89C3.5 4.12 4.13 3.49 4.9 3.49C5.67 3.49 6.3 4.11 6.3 4.88V5.16C6.3 5.16 6.3 5.16 6.3 5.17V6.01C6.3 6.78 5.67 7.41 4.9 7.41C4.13 7.41 3.5 6.78 3.5 6.01V4.89Z"
    />
  </symbol>
  <symbol id="other_venue" viewBox="0 0 20 20" fill-rule="evenodd">
    <path
      d="M10.75 2.87V0.619995H9.25V2.87H5.75V0.619995H4.25V3.02C1.95 3.59 0.25 5.66 0.25 8.12V14.12C0.25 17.02 2.6 19.37 5.5 19.37H14.5C17.4 19.37 19.75 17.02 19.75 14.12V8.12C19.75 5.64999 18.05 3.58 15.75 3.02V0.619995H14.25V2.87H10.75ZM7.75 17.87H12.25V16.37H7.75V17.87ZM13.75 17.87V15.62L13 14.87H7L6.25 15.62V17.87H5.5C3.43 17.87 1.75 16.19 1.75 14.12V11.79C2.7 12.76 4.03 13.37 5.5 13.37H14.5C15.97 13.37 17.3 12.77 18.25 11.79V14.12C18.25 16.19 16.57 17.87 14.5 17.87H13.75ZM1.75 8.12C1.75 9.43999 2.43 10.6 3.46 11.27C3.32 10.91 3.25 10.53 3.25 10.12C3.25 8.33 4.7 6.87 6.5 6.87H13.5C15.3 6.87 16.75 8.33 16.75 10.12C16.75 10.52 16.68 10.91 16.54 11.27C17.57 10.6 18.25 9.43999 18.25 8.12C18.25 6.05 16.57 4.37 14.5 4.37H5.5C3.43 4.37 1.75 6.05 1.75 8.12ZM4.75 10.12C4.75 11.09 5.53 11.87 6.5 11.87H13.5C14.47 11.87 15.25 11.09 15.25 10.12C15.25 9.14999 14.47 8.37 13.5 8.37H6.5C5.53 8.37 4.75 9.14999 4.75 10.12Z"
    />
  </symbol>
  <symbol id="other_charts" viewBox="0 0 20 20" fill-rule="evenodd">
    <path
      d="M4.68006 9.98999H2.89006C2.02006 9.98999 1.31006 10.8 1.31006 11.78V19.39H6.25006V11.78C6.25006 10.79 5.54006 9.98999 4.67006 9.98999H4.68006Z M17.1 1.29004H15.31C14.44 1.29004 13.73 2.10004 13.73 3.09004V19.4H18.67V3.09004C18.67 2.10004 17.96 1.29004 17.09 1.29004H17.1Z M10.89 5.64001H9.10002C8.23002 5.64001 7.52002 6.45001 7.52002 7.44001V19.4H12.46V7.44001C12.46 6.45001 11.75 5.64001 10.88 5.64001H10.89Z"
    />
  </symbol>
  <symbol id="other_man" viewBox="0 0 20 20" fill-rule="evenodd">
    <path
      d="M10.01 20H20v-4.73l-1.48-1.4-5.91-1.37v-.7C16.3 9.03 16.55 0 10 0H10c-6.54 0-6.3 9.03-2.6 11.8v.7l-5.91 1.38L0 15.27V20h10.01Z"
      fill="#2f5491"
    />
  </symbol>
  <symbol id="other_men-double" viewBox="0 0 20 20" fill-rule="evenodd">
    <path
      d="M18.63 18.63h-3.81v-2.38l-1.1-1.1-4.39-1.1v-.55c2.32-1.87 3.06-7.28.06-8.89.03-.9.27-1.7.71-2.25.52-.66 1.3-1 2.3-1 1.4 0 2.34.63 2.78 1.87.64 1.8-.05 4.56-1.4 5.65l-.26.2v1.38l4.42 1.1.7.7v6.37Zm.01-8.3-3.5-.87a7.26 7.26 0 0 0 1.33-6.69C15.84 1 14.39 0 12.4 0 10.97 0 9.8.52 9.03 1.52a5.04 5.04 0 0 0-.98 2.68c-.2-.03-.41-.06-.64-.06-5.22 0-4.67 7.16-1.93 9.36v.55l-4.38 1.1-1.1 1.1V20h20v-8.3l-1.36-1.37Z"
      fill="#2f5491"
    />
  </symbol>
  <symbol id="other_women" viewBox="0 0 20 20" fill-rule="evenodd">
    <path
      d="m18.52 13.85-4.28-1-1.64-.38v-.7l.62-.25a150.68 150.68 0 0 1 2.9-1.13l-.02-.73C16.01 5.86 15.12 0 10 0 4.88 0 3.99 5.86 3.9 9.66l-.01.73c1.29.48 2.53.98 3.51 1.39v.7L5.15 13l-3.67.85L0 15.24V20h20v-4.76l-1.48-1.4Z"
      fill="#eb0037"
    />
  </symbol>
  <symbol id="other_women-double" viewBox="0 0 20 20" fill-rule="evenodd">
    <path
      d="M18.64 18.63h-3.86v-2.4l-1.1-1.1-4.37-1.1v-.55c.73-.32 1.64-.72 2.6-1.1 0-2.41-.33-6.4-2.66-7.76.52-2.15 1.57-3.25 3.15-3.25 2.79 0 3.48 3.46 3.54 6.56-.74.3-1.44.6-2.02.86l-.4.18v1.5l4.42 1.1.7.7v6.36Zm0-8.3-3.08-.76c.42-.18.86-.37 1.32-.55l.43-.17v-.47C17.3 1.08 14.23 0 12.4 0 10.77 0 8.8.8 7.95 4.2a3.97 3.97 0 0 0-.56-.06c-4.04 0-4.52 5.3-4.52 8.24.96.38 1.87.78 2.6 1.1v.55l-4.38 1.1L0 16.22V20h20v-8.3l-1.36-1.37Z"
      fill="#eb0037"
    />
  </symbol>
  <symbol id="other_mixed-double" viewBox="0 0 20 20" fill-rule="evenodd">
    <path
      d="m18.65 10.33-3.5-.87a7.28 7.28 0 0 0 1.33-6.69C15.85.98 14.4 0 12.42 0a4.1 4.1 0 0 0-3.38 1.52 5.05 5.05 0 0 0-.97 2.67c.51.09.96.27 1.34.53.01-.94.26-1.78.71-2.36.51-.66 1.29-1 2.3-1 1.4 0 2.33.63 2.77 1.87.63 1.8-.05 4.56-1.4 5.65l-.26.2v1.38l4.41 1.1.7.7v6.37H14.8V20H20v-8.3l-1.35-1.37Z"
      fill="#2f5491"
    />
    <path
      d="m14.8 16.2-1.1-1.1L9.32 14v-.55c.73-.32 1.64-.72 2.6-1.1 0-2.36-.31-6.2-2.5-7.64a3.4 3.4 0 0 0-2.02-.58c-4.04 0-4.52 5.28-4.52 8.22.95.38 1.87.78 2.6 1.1V14L1.1 15.1 0 16.2V20h14.8V16.2Z"
      fill="#eb0037"
    />
  </symbol>
  <symbol id="other_venue-tiny" viewBox="0 0 20 20" fill-rule="evenodd">
    <path
      d="M10.75 2.87V0.619995H9.25V2.87H5.75V0.619995H4.25V3.02C1.95 3.59 0.25 5.66 0.25 8.12V14.12C0.25 17.02 2.6 19.37 5.5 19.37H14.5C17.4 19.37 19.75 17.02 19.75 14.12V8.12C19.75 5.64999 18.05 3.58 15.75 3.02V0.619995H14.25V2.87H10.75ZM7.75 17.87H12.25V16.37H7.75V17.87ZM13.75 17.87V15.62L13 14.87H7L6.25 15.62V17.87H5.5C3.43 17.87 1.75 16.19 1.75 14.12V11.79C2.7 12.76 4.03 13.37 5.5 13.37H14.5C15.97 13.37 17.3 12.77 18.25 11.79V14.12C18.25 16.19 16.57 17.87 14.5 17.87H13.75ZM1.75 8.12C1.75 9.43999 2.43 10.6 3.46 11.27C3.32 10.91 3.25 10.53 3.25 10.12C3.25 8.33 4.7 6.87 6.5 6.87H13.5C15.3 6.87 16.75 8.33 16.75 10.12C16.75 10.52 16.68 10.91 16.54 11.27C17.57 10.6 18.25 9.43999 18.25 8.12C18.25 6.05 16.57 4.37 14.5 4.37H5.5C3.43 4.37 1.75 6.05 1.75 8.12ZM4.75 10.12C4.75 11.09 5.53 11.87 6.5 11.87H13.5C14.47 11.87 15.25 11.09 15.25 10.12C15.25 9.14999 14.47 8.37 13.5 8.37H6.5C5.53 8.37 4.75 9.14999 4.75 10.12Z"
    />
  </symbol>
</svg>
