<svg xmlns="http://www.w3.org/2000/svg" xmlns:xlink="http://www.w3.org/1999/xlink" style="display: none">
  <symbol id="organization" viewBox="0 0 20 20" fill-rule="evenodd">
    <path
      d="M1 2.47 3.39 0H16.6L19 2.47V12.7L11.94 20H8.06L1 12.7V2.47Zm1.32 8.58 9.37-9.68H3.94L2.32 3.04v8.01Zm11.25-9.68L2.74 12.57l1.58 1.62L16.39 1.7l-.33-.33h-2.5ZM6.7 16.66l-1.44-1.49 12.07-12.5.35.37V5.3L6.7 16.66Zm.94.97.97 1h2.78l6.29-6.5V7.25L7.64 17.63Z"
    />
  </symbol>
  <symbol id="team" viewBox="0 0 20 20" fill-rule="evenodd">
    <path
      d="M3.8 0 .84 2.95v9.96L7.97 20h3.71l7.11-7.1V2.96L15.83 0H3.8ZM1.53 12.62V3.23L4.09.68h11.46l2.56 2.55v9.4l-6.71 6.69H8.25l-6.73-6.7Zm14.52-.59-5.24 5.22H8.84L3.6 12.03V4.09l1.35-1.34h9.75l1.35 1.34v7.94ZM4.65 2.07 2.91 3.8v8.51l5.65 5.62h2.53l5.63-5.62v-8.5l-1.74-1.74H4.66Zm10 5.94-6.6 6.58-.47-.49 7.06-7.06V8Zm-8.74 4.42.48.49 8.28-8.28-.49-.48-8.27 8.27ZM4.98 10l5.88-5.88h.97l-6.85 6.85V10Z"
    />
  </symbol>
  <symbol id="news" viewBox="0 0 20 20" fill-rule="evenodd">
    <path
      d="M2.47 0h15.06L20 2.47v15.06L17.53 20H2.47L0 17.53V2.47L2.47 0Zm14.49 18.63 1.67-1.67V3.04l-1.67-1.67H3.03L1.36 3.04v13.92l1.67 1.67h13.93ZM11.03 3.45H3.45v4.81h7.58v-4.8ZM9.65 6.9H4.81V4.82h4.84V6.9Zm6.9 5.52H3.45v1.37h13.1v-1.37Zm-13.1 2.76h10.34v1.37H3.44v-1.37Zm13.1-5.52H3.45v1.38h13.1V9.66Z"
    />
  </symbol>
  <symbol id="man" viewBox="0 0 20 20" fill-rule="evenodd">
    <path
      d="m18.4 16.29-5.06-1.52-.43-1.55a7.78 7.78 0 0 0 2.25-5.41c.02-2.69-.78-4.46-1-4.9l.25-1.96H9.95c-1.57 0-2.8.45-3.67 1.34-1.1 1.14-1.6 2.94-1.54 5.52a8.02 8.02 0 0 0 2.34 5.44l-.42 1.52-5.06 1.52-1.6 1.6V20h20v-2.11l-1.6-1.6Z"
      fill="var(--color-container-section)"
    />
    <path
      d="M11.12 17.8h-2.3l-2.3-2.28.7-.2.43-1.57c.75.57 1.56.9 2.3.9.78 0 1.62-.34 2.39-.93l.44 1.6.64.19-2.3 2.3Zm-5.7-10c0-.45 0-.86.03-1.25L9 5.66l2.84 1.4v-1.3l2.6.87c.02.37.04.76.04 1.17-.02 3.58-2.72 6.17-4.53 6.17-1.96 0-4.44-2.85-4.52-6.17Zm1.35-5.03C7.52 2 8.56 1.64 9.95 1.64h3.68l-.17 1.4.05.1c0 .01.56 1.03.83 2.74L11.15 4.8v1.16L9.08 4.94l-3.57.89a5.18 5.18 0 0 1 1.26-3.06ZM18.4 16.29l-5.06-1.52-.43-1.55a7.78 7.78 0 0 0 2.25-5.41c.02-2.69-.78-4.46-1-4.9l.25-1.96H9.95c-1.57 0-2.8.45-3.67 1.34-1.1 1.14-1.6 2.94-1.54 5.52a8.02 8.02 0 0 0 2.34 5.44l-.42 1.52-5.06 1.52-1.6 1.6V20h.68v-1.83l1.28-1.28 3.82-1.15 2.75 2.75h2.87l2.77-2.76 3.87 1.16 1.28 1.28V20H20v-2.11l-1.6-1.6Z"
      fill="var(--color-icon-secondary-base)"
    />
  </symbol>
  <symbol id="woman" viewBox="0 0 20 20" fill-rule="evenodd">
    <path
      d="m18.33 16.9-6.1-1.76v-.91l2.18-.42c.61-.1 1.24-.23 2.05-.38l.27-.06v-.28c0-4.15-1.4-11.96-6.72-12.13H9.84C4.53 1.13 3.1 8.94 3.1 13.09v.28l.28.06 2.05.38 2.34.45v.98L1.67 16.9.24 18.33 0 20h20l-.24-1.67-1.43-1.43Z"
      fill="var(--color-container-section)"
    />
    <path
      d="M11.89 18.25h-3.8l-1.97-2 2.1-.54.26-1.21c.44.25.94.4 1.53.4.57 0 1.08-.14 1.53-.39l.25 1.2 2.06.53-1.96 2.01Zm-5.2-10.9.46-.49c2.27.94 4.42.94 5.63.83l.53.79c-.16 2.64-.86 5.72-3.3 5.72-2.84 0-3.31-4.23-3.33-6.85Zm-1.13 6.02-1.76-.34C3.86 8.95 5.2 1.74 9.92 1.65c4.73.1 6.07 7.3 6.13 11.38a250.5 250.5 0 0 1-3.58.69c.88-1.07 1.4-2.86 1.53-5.32v-.12l-.9-1.32-.2.02c-1.12.12-3.36.18-5.7-.85L7 6.03 6 7.07v.14c0 2 .26 4.95 1.6 6.55l-2.04-.4Zm12.84 3.32-6.03-1.55-.14-.67 2.18-.42c.61-.11 1.24-.23 2.05-.4l.27-.05v-.28c0-4.23-1.4-12.19-6.72-12.36H9.84C4.53 1.13 3.1 9.1 3.1 13.32v.28l.28.06 2.05.4c.72.13 1.41.26 2.34.45l-.13.63-6.05 1.55L0 18.34V20h.68v-1.38l1.27-1.3 3.4-.87 2.45 2.5h4.37l2.42-2.48-.05-.05 3.5.9 1.28 1.3V20H20v-1.66l-1.6-1.65Z"
      fill="var(--color-icon-secondary-base)"
    />
  </symbol>
</svg>
