<svg xmlns="http://www.w3.org/2000/svg" xmlns:xlink="http://www.w3.org/1999/xlink" style="display: none">
  <symbol id="settings_all-platforms" viewBox="0 0 20 20" fill-rule="evenodd">
    <path
      d="M9.65006 12.47H3.12006C1.99006 12.47 1.06006 11.55 1.06006 10.41V3.08C1.06006 1.95 1.98006 1.02 3.12006 1.02H16.9701C18.1001 1.02 19.0301 1.94 19.0301 3.08V4.83H17.5301V3.08C17.5301 2.77 17.2801 2.52 16.9701 2.52H3.12006C2.81006 2.52 2.56006 2.77 2.56006 3.08V10.42C2.56006 10.73 2.81006 10.98 3.12006 10.98H9.65006V12.48V12.47ZM18.1501 19.9H12.5701C11.6101 19.9 10.8201 19.12 10.8201 18.16V7.61C10.8201 6.65 11.6001 5.86 12.5701 5.86H18.1501C19.1101 5.86 19.8901 6.64 19.8901 7.61V18.15C19.8901 19.11 19.1101 19.89 18.1501 19.89V19.9ZM12.5701 7.36C12.4401 7.36 12.3201 7.47 12.3201 7.61V18.15C12.3201 18.28 12.4301 18.39 12.5701 18.39H18.1501C18.2801 18.39 18.3901 18.28 18.3901 18.15V7.61C18.3901 7.48 18.2801 7.36 18.1501 7.36H12.5701ZM9.65 13.73H0V15.23H9.65V13.73Z"
    />
  </symbol>
  <symbol id="settings_phone-settings" viewBox="0 0 20 20" fill-rule="evenodd">
    <path
      d="M14.1501 20H5.8501C4.5701 20 3.5301 18.83 3.5301 17.4V2.6C3.5201 1.17 4.5701 0 5.8501 0H14.1601C15.4401 0 16.4801 1.16 16.4801 2.6V17.4C16.4801 18.83 15.4401 20 14.1601 20H14.1501ZM5.8501 1.5C5.4001 1.5 5.0301 2 5.0301 2.6V17.4C5.0301 17.99 5.4101 18.5 5.8501 18.5H14.1601C14.6101 18.5 14.9801 18 14.9801 17.4V2.6C14.9801 2.01 14.6001 1.5 14.1601 1.5H5.8501ZM11.3801 15.53H8.62012V16.9H11.3801V15.53Z"
    />
  </symbol>
  <symbol id="settings_vibration" viewBox="0 0 20 20" fill-rule="evenodd">
    <path
      d="M4.14 2.47 6.61 0h6.78l2.47 2.47v15.06L13.4 20H6.6l-2.47-2.47V2.47Zm1.37.57v13.92l1.67 1.67h5.65l1.66-1.66V3.04l-1.67-1.67H7.18L5.5 3.04Zm5.82 13.9H8.57v-1.37h2.76v1.36Zm7.29-11.15-1.1.8a5.68 5.68 0 0 1 0 6.8l1.1.8a7.04 7.04 0 0 0 0-8.4ZM0 10c0-1.53.48-2.98 1.38-4.2l1.1.8a5.68 5.68 0 0 0 0 6.8l-1.1.8A7.04 7.04 0 0 1 0 10Z"
    />
  </symbol>
  <symbol id="settings_sound-on-middle" viewBox="0 0 20 20" fill-rule="evenodd">
    <path
      d="M3.88 6.83 9.4 2h3v15.86h-3l-5.52-4.83H0v-6.2h3.88Zm.51 1.37H1.37v3.46h3.02l5.52 4.83h1.13V3.37H9.91L4.4 8.2Zm9.52-1.66 1.1-.81a7.03 7.03 0 0 1 0 8.4l-1.1-.81a5.67 5.67 0 0 0 0-6.78Z"
    />
  </symbol>
  <symbol id="settings_sound-on" viewBox="0 0 20 20" fill-rule="evenodd">
    <path
      d="M17.8099 10C17.8099 7.99 17.0099 6.06 15.5899 4.64L16.6499 3.58C18.3499 5.28 19.3099 7.59 19.3099 10C19.3099 12.41 18.3499 14.72 16.6499 16.42L15.5899 15.36C17.0099 13.94 17.8099 12.01 17.8099 10ZM13.6499 10C13.6499 9.09 13.2899 8.22 12.6499 7.58L13.7099 6.52C14.6299 7.44 15.1499 8.69 15.1499 10C15.1499 11.31 14.6299 12.55 13.7099 13.48L12.6499 12.42C13.2899 11.78 13.6499 10.91 13.6499 10.01V10ZM9.9 17.84L4.36 13.73H0.74L0 12.99V7.02L0.75 6.27H4.36L9.9 2.16L11.1 2.76V17.24L9.9 17.84ZM1.49 12.24H4.6L5.05 12.39L9.59 15.76V4.25L5.05 7.62L4.6 7.77H1.49V12.24Z"
    />
  </symbol>
  <symbol id="settings_sound-off" viewBox="0 0 20 20" fill-rule="evenodd">
    <path
      d="M18.8601 12.11L16.7501 10L18.8601 7.89L17.9701 7L15.8601 9.11L13.7501 7L12.8601 7.89L14.9701 10L12.8601 12.11L13.7501 13L15.8601 10.89L17.9701 13L18.8601 12.11ZM9.9 17.84L4.36 13.73H0.74L0 12.99V7.02L0.75 6.27H4.36L9.9 2.16L11.1 2.76V17.24L9.9 17.84ZM1.49 12.24H4.6L5.05 12.39L9.59 15.76V4.25L5.05 7.62L4.6 7.77H1.49V12.24Z"
    />
  </symbol>
  <symbol id="settings_sound-melody" viewBox="0 0 20 20" fill-rule="evenodd">
    <path
      d="M14 15.88c-1.13 0-1.98-.58-1.98-1.1 0-.52.85-1.1 1.99-1.1 1.13 0 1.98.58 1.98 1.1 0 .52-.85 1.1-1.98 1.1ZM7.7 6.34V4.18l8.29-2.37v2.16l-8.3 2.37Zm-3.35 12.3c-1.14 0-1.98-.58-1.98-1.1 0-.52.84-1.1 1.98-1.1 1.13 0 1.98.58 1.98 1.1 0 .52-.85 1.1-1.98 1.1Zm1.98-15.5v12.41a4.2 4.2 0 0 0-1.98-.47C2.47 15.08 1 16.16 1 17.54S2.47 20 4.35 20c1.88 0 3.35-1.08 3.35-2.46V7.76l8.29-2.37v7.4a4.21 4.21 0 0 0-1.98-.47c-1.88 0-3.35 1.08-3.35 2.46s1.47 2.46 3.35 2.46c1.87 0 3.35-1.08 3.35-2.46V0L6.33 3.15Z"
    />
  </symbol>
  <symbol id="settings_voice-notification" viewBox="0 0 20 20" fill-rule="evenodd">
    <path
      d="M5.33 19.43L4.08 18.87V14.74H2.59C1.17 14.74 0 13.7 0 12.42V3.43C0 2.15 1.17 1.11 2.6 1.11H17.4C18.83 1.11 20 2.15 20 3.43V12.42C20 13.7 18.84 14.74 17.4 14.74H10.63L5.34 19.43H5.33ZM2.6 2.61C2.01 2.61 1.5 2.99 1.5 3.43V12.42C1.5 12.86 2 13.24 2.6 13.24H4.84L5.59 13.99V17.2L9.85 13.43L10.35 13.24H17.41C18 13.24 18.51 12.86 18.51 12.42V3.43C18.51 2.99 18.01 2.61 17.41 2.61H2.6ZM8.65992 12.59L5.75992 10.44H3.91992L3.16992 9.69V6.46L3.91992 5.71H5.75992L8.65992 3.56L9.85992 4.16V11.98L8.65992 12.58V12.59ZM4.66992 8.93H6.00992L6.45992 9.08L8.35992 10.49V5.64L6.45992 7.05L6.00992 7.2H4.66992V8.93ZM12.33 10.37L11.27 9.31C11.6 8.98 11.78 8.53 11.78 8.06C11.78 7.59 11.6 7.14 11.26 6.81L12.32 5.75C12.94 6.37 13.28 7.19 13.28 8.06C13.28 8.93 12.94 9.74 12.33 10.36V10.37ZM14.6999 12.19L13.6399 11.13C14.4499 10.31 14.8999 9.22 14.8999 8.07C14.8999 6.92 14.4499 5.82 13.6299 5L14.6899 3.94C15.7899 5.04 16.3999 6.51 16.3999 8.07C16.3999 9.63 15.7999 11.09 14.6999 12.19Z"
    />
  </symbol>
  <symbol id="settings_logout" viewBox="0 0 20 20" fill-rule="evenodd">
    <path
      d="M18.12 9.47V10.52L14.13 14.49L13.07 13.44L15.78 10.74H6.20996V9.25H15.79L13.08 6.55L14.14 5.5L18.13 9.47H18.12ZM11.9401 19.04H3.8401C2.3301 19.04 1.1001 17.81 1.1001 16.3V3.69C1.1001 2.17 2.3301 0.940002 3.8401 0.940002H11.9401V2.44H3.8401C3.1601 2.44 2.6001 3 2.6001 3.68V16.3C2.6001 16.98 3.1601 17.54 3.8401 17.54H11.9401V19.04Z"
    />
  </symbol>
  <symbol id="settings_account-deletion" viewBox="0 0 20 20" fill-rule="evenodd">
    <path
      d="M19.98 14.33L17.68 16.63L19.98 18.93L18.92 19.99L16.62 17.69L14.32 19.99L13.26 18.93L15.56 16.63L13.26 14.33L14.32 13.27L16.62 15.57L18.92 13.27L19.98 14.33ZM13.04 12.89H8.01001C5.66001 12.89 3.76001 14.79 3.76001 17.14V18.39H11.92V19.89H3.01001L2.26001 19.14V17.14C2.26001 13.96 4.83001 11.39 8.01001 11.39H13.04V12.89ZM6.59009 5.58C6.59009 3.51 8.27009 1.83 10.3401 1.83C12.4101 1.83 14.0901 3.51 14.0901 5.58V6.62C14.0901 8.69 12.4101 10.37 10.3401 10.37C8.27009 10.37 6.59009 8.69 6.59009 6.62V5.58ZM10.3401 3.33C9.10009 3.33 8.09009 4.34 8.09009 5.58V6.62C8.09009 7.86 9.10009 8.87 10.3401 8.87C11.5801 8.87 12.5901 7.86 12.5901 6.62V5.58C12.5901 4.34 11.5801 3.33 10.3401 3.33Z"
    />
  </symbol>
  <symbol id="settings_order-matches" viewBox="0 0 20 20" fill-rule="evenodd">
    <path
      d="M10.3499 7.46L7.26988 4.3H6.19988L3.12988 7.46L4.19988 8.51L5.98988 6.67V15.98H7.48988V6.67L9.27988 8.51L10.3499 7.46ZM14.0099 13.31V4.00999H12.5099V13.32L10.7299 11.48L9.6499 12.53L12.7299 15.68H13.7999L16.8799 12.53L15.7999 11.48L14.0099 13.31ZM17.22 0.00999451H2.78003C1.26003 0.00999451 0.0300293 1.24999 0.0300293 2.75999V17.22C0.0300293 18.74 1.26003 19.97 2.78003 19.97H17.22C18.74 19.97 19.97 18.74 19.97 17.22V2.75999C19.97 1.24999 18.73 0.00999451 17.22 0.00999451ZM18.47 17.22C18.47 17.91 17.91 18.47 17.22 18.47H2.78003C2.09003 18.47 1.53003 17.91 1.53003 17.22V2.75999C1.53003 2.06999 2.09003 1.50999 2.78003 1.50999H17.22C17.91 1.50999 18.47 2.06999 18.47 2.75999V17.22Z"
    />
  </symbol>
  <symbol id="settings_odds" viewBox="0 0 20 20" fill-rule="evenodd">
    <path
      d="M0.25 6L1 5.25H5L5.75 6V18L5 18.75H1L0.25 18V6ZM1.75 6.75V17.25H4.25V6.75H1.75ZM7.25 2L8 1.25H12L12.75 2V18L12 18.75H8L7.25 18V2ZM8.75 2.75V17.25H11.25V2.75H8.75ZM14.25 10L15 9.25H19L19.75 10V18L19 18.75H15L14.25 18V10ZM15.75 10.75V17.25H18.25V10.75H15.75Z"
    />
  </symbol>
  <symbol id="settings_odds-alt" viewBox="0 0 20 20" fill-rule="evenodd">
    <path
      d="M4.45 5.87h1.23V.16H4.62L3.18.99v1.29l1.27-.74zM10.17 0H9.05L6.88 6.05H8zm3.23 3.56c.67-.7.94-1.2.94-1.78 0-1.03-.73-1.71-1.81-1.71s-1.85.68-1.99 1.82V2h1.23v-.08c.08-.47.33-.72.72-.72s.6.22.6.61c0 .29-.06.48-.67 1.12l-1.86 1.98-.03.03v.93h3.97V4.76h-2.27l1.16-1.2zM5.09 7.02c-1.34 0-2.11 1.07-2.11 2.95s.77 2.94 2.11 2.94S7.2 11.84 7.2 9.97s-.77-2.95-2.11-2.95m0 4.77c-.42 0-.85-.22-.85-1.82s.46-1.82.85-1.82.85.21.85 1.82-.43 1.82-.85 1.82m4.18-.21H7.99v1.24h1.28zm4.59-3.39V7.11h-3.23l-.37 3.36h1.07l.03-.04c.19-.24.48-.37.8-.37.51 0 .83.33.83.86s-.3.87-.83.87c-.39 0-.64-.19-.74-.55l-.02-.07h-1.24l.02.12c.17 1 .93 1.62 1.98 1.62 1.22 0 2.07-.82 2.07-1.99s-.82-1.95-1.95-1.95c-.26 0-.51.04-.74.13l.1-.91h2.23zm3.2 4.72c1.34 0 2.11-1.07 2.11-2.94s-.77-2.95-2.11-2.95-2.11 1.07-2.11 2.95.77 2.94 2.11 2.94m0-4.76c.4 0 .85.21.85 1.82s-.43 1.82-.85 1.82-.85-.22-.85-1.82.46-1.82.85-1.82m-11.1 9.31c.67-.7.94-1.2.94-1.78 0-1.03-.73-1.71-1.81-1.71s-1.85.68-1.99 1.82v.11h1.23v-.08c.08-.47.33-.72.72-.72s.6.22.6.61c0 .29-.06.48-.67 1.12l-1.86 1.98-.03.03v.93h3.97v-1.11H4.79l1.16-1.2zm3.31 1.07H7.99v1.24h1.28zm2.9-4.56c-1.34 0-2.11 1.07-2.11 2.95s.77 2.94 2.11 2.94 2.11-1.07 2.11-2.94-.77-2.95-2.11-2.95m0 4.77c-.42 0-.85-.22-.85-1.82s.46-1.82.85-1.82.85.21.85 1.82-.43 1.82-.85 1.82m4.89-4.77c-1.34 0-2.11 1.07-2.11 2.95s.77 2.94 2.11 2.94 2.11-1.07 2.11-2.94-.77-2.95-2.11-2.95m0 4.77c-.42 0-.85-.22-.85-1.82s.46-1.82.85-1.82.85.21.85 1.82-.43 1.82-.85 1.82M2.81 16.67H0v.99h2.81z"
    />
  </symbol>
  <symbol id="settings_odds-hide" viewBox="0 0 20 20" fill-rule="evenodd">
    <path
      d="M7.92008 17.82H6.83008V16.38L6.54008 16.68L5.33008 17.88V19.32H9.42008V13.81L7.92008 15.3V17.82ZM8.04008 9.59H6.70008C5.93008 9.59 5.33008 10.34 5.33008 11.3V12.34L8.08008 9.6C8.08008 9.6 8.05008 9.6 8.04008 9.6V9.59ZM18.5401 6.72H17.2001C16.4301 6.72 15.8301 7.47 15.8301 8.43V19.31H19.9101V8.43C19.9101 7.47 19.3101 6.72 18.5401 6.72ZM18.4101 17.82H17.3301V8.44C17.3301 8.35 17.3501 8.27 17.3601 8.23H18.3801C18.3801 8.23 18.4101 8.35 18.4101 8.44V17.82ZM12.0801 2.16C12.0801 2.07 12.1001 2 12.1101 1.95H13.1301C13.1301 1.95 13.1601 2.07 13.1601 2.16V4.53L14.6601 3.03V2.16C14.6601 1.2 14.0601 0.449997 13.2901 0.449997H11.9501C11.1801 0.449997 10.5801 1.2 10.5801 2.16V7.1L12.0801 5.6V2.16ZM13.1601 10.06V17.82H12.0801V11.14L10.5801 12.64V19.32H14.6601V8.57001L13.1601 10.06ZM1.58008 6.48C1.58008 6.39 1.60008 6.32 1.61008 6.27H2.63008C2.63008 6.27 2.66008 6.39 2.66008 6.48V15.01L4.16008 13.51V6.48C4.16008 5.52 3.56008 4.77 2.79008 4.77H1.45008C0.680078 4.77 0.0800781 5.52 0.0800781 6.48V17.5L1.58008 16.07V6.48ZM18.9201 0.5L14.9201 4.49L14.6601 4.75L13.1601 6.25L12.0801 7.33L10.5801 8.82L9.14008 10.27L7.92008 11.48L6.83008 12.56L5.33008 14.06L4.63008 14.76L4.17008 15.23L2.67008 16.72L1.58008 17.8L1.38008 18.01L0.0800781 19.3V19.32H2.10008L2.40008 19.03L3.86008 17.63L4.17008 17.33L5.33008 16.16L6.83008 14.67L7.92008 13.59L9.42008 12.09L10.5801 10.92L11.9501 9.56L12.0801 9.43L13.1601 8.35L14.6601 6.85L15.9901 5.52L19.9701 1.54L18.9201 0.5Z"
    />
  </symbol>
  <symbol id="settings_order" viewBox="0 0 20 20" fill-rule="evenodd">
    <path
      d="M10.28 4.33L6.06002 0H4.99002L0.77002 4.33L1.84002 5.38L4.77002 2.37V19.31H6.27002V2.37L9.21002 5.38L10.28 4.33ZM18.16 14.62L15.23 17.63V0.690002H13.73V17.63L10.8 14.62L9.71997 15.67L13.94 20H15.01L19.23 15.67L18.16 14.62Z"
    />
  </symbol>
  <symbol id="settings_data" viewBox="0 0 20 20" fill-rule="evenodd">
    <path
      d="m16.27 0-.99.94a9.28 9.28 0 0 1 0 12.87l1 .94c1.9-2 2.94-4.62 2.94-7.38S18.17 2 16.27 0ZM9.91 5.65a1.72 1.72 0 0 0-.69 3.3V20h1.38V8.95a1.72 1.72 0 0 0-.69-3.3Zm2.9-2.3 1-.93a7.21 7.21 0 0 1 0 9.9l-1-.93a5.85 5.85 0 0 0 0-8.03ZM4.54.96 3.55 0C1.65 2 .6 4.61.6 7.37s1.05 5.38 2.95 7.38l.99-.95a9.28 9.28 0 0 1-2.57-6.43c0-2.4.91-4.69 2.57-6.43Zm-.49 6.42c0-1.84.7-3.6 1.96-4.95l1 .94a5.85 5.85 0 0 0 0 8.03l-1 .94a7.21 7.21 0 0 1-1.96-4.96Z"
    />
  </symbol>
  <symbol id="settings_security" viewBox="0 0 20 20" fill-rule="evenodd">
    <path
      d="M16.5 8.42H14.92V5.84C14.92 4.54 14.4 3.29 13.48 2.36C12.56 1.44 11.31 0.919998 10 0.919998C8.69 0.919998 7.45 1.44 6.52 2.36C5.6 3.28 5.08 4.53 5.08 5.84V8.42H3.5L2.75 9.17V16.67C2.75 18 3.83 19.09 5.17 19.09H14.84C16.18 19.09 17.26 18.01 17.26 16.67V9.17L16.51 8.42H16.5ZM6.58 5.83C6.58 4.92 6.94 4.06 7.58 3.41C8.22 2.77 9.09 2.41 10 2.41C10.91 2.41 11.77 2.77 12.42 3.41C13.06 4.05 13.42 4.92 13.42 5.83V8.41H6.59V5.83H6.58ZM15.75 16.67C15.75 17.18 15.34 17.59 14.83 17.59H5.17C4.66 17.59 4.25 17.18 4.25 16.67V9.92H15.75V16.67Z"
    />
  </symbol>
  <symbol id="settings_feedback" viewBox="0 0 20 20" fill-rule="evenodd">
    <path
      d="M16.64 6.53V12.68C16.64 13.04 16.22 13.34 15.73 13.34H9.38L8.88 13.53L5.17 16.81V14.09L4.42 13.34H2.41C1.92 13.34 1.5 13.04 1.5 12.68V4.6C1.5 4.24 1.92 3.94 2.41 3.94H12.09L13.77 2.44H2.41C1.08 2.43 0 3.41 0 4.6V12.68C0 13.87 1.08 14.84 2.41 14.84H3.67V18.48L4.92 19.04L9.66 14.84H15.72C17.05 14.84 18.13 13.87 18.13 12.68V5.2L16.63 6.53H16.64Z M3.12012 6.55V8.05H7.48012L9.16012 6.55H3.12012Z M7.32012 9.61H3.12012V11.11H7.32012V9.61Z M16.6199 4.54L10.8899 9.61H10.3999V8.99L16.0499 3.98C15.9499 3.95 15.8299 3.93 15.7199 3.93H14.3399L11.4099 6.55H12.0199L10.1299 8.05H9.72989L8.90989 8.78L8.88989 11.1H11.4599L16.6399 6.52V4.59C16.6399 4.59 16.6299 4.55 16.6199 4.53V4.54Z M16.0001 2.46C16.4701 2.51 16.9001 2.68 17.2501 2.93L17.3401 2.85L17.8601 3.44L17.7901 3.5C18.0001 3.82 18.1301 4.19 18.1301 4.6V5.2L19.9701 3.57L17.4601 0.739998L15.8601 2.16L16.0701 2.4L15.9901 2.47L16.0001 2.46Z M15.7301 3.93C15.8501 3.93 15.9601 3.95 16.0601 3.98L17.2501 2.93C16.9001 2.67 16.4701 2.5 16.0001 2.46L14.3501 3.94H15.7301V3.93Z M17.7999 3.5L16.6299 4.54C16.6299 4.54 16.6499 4.58 16.6499 4.6V6.53L18.1499 5.2V4.6C18.1499 4.2 18.0199 3.83 17.8099 3.5H17.7999Z M10.13 8.05L12.02 6.55H11.42L9.73999 8.05H10.13Z M11.4199 6.55L14.3499 3.93H13.8599L10.8999 6.55H11.4199Z M8.91991 8.31L8.90991 8.79L9.73991 8.05H9.20991L8.91991 8.31Z M15.73 2.43C15.82 2.43 15.91 2.45 16 2.45L16.08 2.38L15.87 2.14L15.55 2.42H15.73V2.43Z M16.0001 2.46C15.9101 2.46 15.8201 2.44 15.7301 2.44H15.5501L13.8601 3.94H14.3501L16.0001 2.46Z M9.20996 8.05H9.73996L11.42 6.55H10.9L9.20996 8.05Z"
    />
  </symbol>
  <symbol id="settings_language" viewBox="0 0 20 20" fill-rule="evenodd">
    <path
      d="M8 7.89L10.57 3.51H11.72V1.62H6.87V0.0400009H4.98V1.62H0V3.51H8.38L6.63 6.49L4.48 4.31L3.13 5.64L5.1 7.64L1.18 10.03L2.16 11.65L6.47 9.03L9.06 11.67L10.41 10.35L8 7.89Z M15.9 8.37H13.37L9.22998 20H11.38L12.17 17.65H16.95L17.76 20H20.02L15.9 8.37ZM12.8 15.84L14.57 10.61L16.34 15.84H12.79H12.8Z"
    />
  </symbol>
  <symbol id="settings_thumb-up" viewBox="0 0 20 20" fill-rule="evenodd">
    <path
      d="M9.13998 1L8.44998 1.45L5.16998 8.84H1.97998L1.22998 9.59V18.26L1.97998 19.01H16.98L17.72 18.35L18.77 9.6L18.59 9.02L16.92 7.1L16.35 6.84H11.88L12.37 4.4L12.39 4.25C12.39 3.39 12.05 2.56 11.44 1.95C10.83 1.34 9.99998 1 9.13998 1ZM5.05998 17.5V10.33H2.72998V17.5H5.05998ZM6.55998 9.41L9.59998 2.56C9.88998 2.64 10.16 2.79 10.38 3.01C10.69 3.32 10.87 3.74 10.89 4.18L10.24 7.43L10.97 8.33H16.01L17.24 9.74L16.3 17.5H6.55998V9.41Z"
    />
  </symbol>
  <symbol id="settings_review-smile" viewBox="0 0 20 20" fill-rule="evenodd">
    <path
      d="M9.994 0C4.474 0 0 4.474 0 9.994c0 5.519 4.474 9.993 9.994 9.993 5.519 0 9.992-4.474 9.992-9.993C19.986 4.474 15.514 0 9.994 0Zm0 1.366a8.627 8.627 0 0 1 8.627 8.628 8.628 8.628 0 1 1-8.627-8.628ZM7.579 8.269H5.51V6.2h2.069v2.068Zm8.07 3.931-.966-.966-2.559 2.559H7.862l-2.558-2.559-.966.966 2.958 2.96h5.394l2.959-2.96ZM12.407 8.27h2.069V6.2h-2.069v2.068Z"
    />
  </symbol>
  <symbol id="settings_cookies" viewBox="0 0 20 20" fill-rule="evenodd">
    <path
      d="M9.20991 14.84H8.09991L4.15991 10.52L5.25991 9.51L8.65991 13.23L14.7399 6.63L15.8399 7.65L9.20991 14.84Z M9.99997 19.99C5.90997 19.99 0.969971 15.94 0.969971 10.91V4.14L1.43997 3.45L9.70997 0.0400009H10.28L18.56 3.44L19.02 4.13V10.86C19.02 15.91 14.09 19.98 9.98997 19.98L9.99997 19.99ZM2.46997 10.91C2.46997 15.11 6.58997 18.49 9.99997 18.49C13.41 18.49 17.53 14.97 17.53 10.87V4.64L9.99997 1.55L2.46997 4.64V10.91Z"
    />
  </symbol>
  <symbol id="settings_info-rounded" viewBox="0 0 20 20" fill-rule="evenodd">
    <path
      d="M9.99992 2.42C5.80992 2.42 2.41992 5.81 2.41992 10C2.41992 14.19 5.81992 17.58 9.99992 17.58C14.1799 17.58 17.5799 14.19 17.5799 10C17.5799 5.81 14.1799 2.42 9.99992 2.42ZM0.919922 10C0.919922 4.98 4.97992 0.919998 9.99992 0.919998C15.0199 0.919998 19.0799 4.99 19.0799 10C19.0799 15.01 15.0099 19.08 9.99992 19.08C4.98992 19.08 0.919922 15.02 0.919922 10Z M10.75 8.38V14.37H9.25V8.38H10.75Z M9.25 5.63H10.76V7.13H9.25V5.63Z"
    />
  </symbol>
  <symbol id="settings_info" viewBox="0 0 20 20" fill-rule="evenodd">
    <path
      d="M11.0399 5.81V16.02H15.1099V18.09H4.88989V16.02H8.95989V7.88H5.88989V5.81H11.0299H11.0399ZM11.0399 1.91V3.98H8.96989V1.91H11.0399Z"
    />
  </symbol>
  <symbol id="settings_impressum" viewBox="0 0 20 20" fill-rule="evenodd">
    <path
      d="M6.21994 7.17H3.43994V8.56H4.82994V11.34H3.43994V12.73H7.60994V11.34H6.21994V7.17Z M6.22008 4.86H4.83008V6.25H6.22008V4.86Z M17.25 4.88H8.96997V6.25H17.25V4.88Z M17.25 7.64H8.96997V9.01H17.25V7.64Z M17.25 10.4H8.96997V11.77H17.25V10.4Z M17.25 13.16H8.96997V14.53H17.25V13.16Z M17.22 0.0100021H2.78003C1.26003 0.0100021 0.0300293 1.25 0.0300293 2.76V17.22C0.0300293 18.74 1.26003 19.97 2.78003 19.97H17.22C18.74 19.97 19.97 18.74 19.97 17.22V2.76C19.97 1.25 18.73 0.0100021 17.22 0.0100021ZM18.47 17.22C18.47 17.91 17.91 18.47 17.22 18.47H2.78003C2.09003 18.47 1.53003 17.91 1.53003 17.22V2.76C1.53003 2.07 2.09003 1.51 2.78003 1.51H17.22C17.91 1.51 18.47 2.07 18.47 2.76V17.22Z"
    />
  </symbol>
  <symbol id="settings_tickets" viewBox="0 0 20 20" fill-rule="evenodd">
    <path
      d="M13.8501 11.5H12.3501V13.08H13.8501V11.5Z M13.8501 13.83H12.3501V15.41H13.8501V13.83Z M13.8501 16.15H12.3501V17.73H13.8501V16.15Z M9.80578 5.83338L8.74512 6.89404L9.86235 8.01126L10.923 6.9506L9.80578 5.83338Z M19.9698 7.6L16.8998 4.53L16.3698 5.1C16.1798 5.3 15.9198 5.42 15.6498 5.42C15.0998 5.42 14.6498 4.97 14.6498 4.42C14.6498 4.15 14.7598 3.89 14.9698 3.69L15.5298 3.16L12.3798 0.0100021L3.13979 9.25H0.0297852V13.62H0.779785C1.32979 13.62 1.77979 14.07 1.77979 14.62C1.77979 15.17 1.32979 15.62 0.779785 15.62H0.0297852V19.99H19.9698V15.62H19.2198C18.6698 15.62 18.2198 15.17 18.2198 14.62C18.2198 14.07 18.6698 13.62 19.2198 13.62H19.9698V9.25H18.3198L19.9698 7.6ZM12.3798 2.13L13.4498 3.2C13.2498 3.56 13.1398 3.98 13.1398 4.4C13.1398 5.78 14.2598 6.9 15.6398 6.9C16.0598 6.9 16.4798 6.79 16.8398 6.59L17.8398 7.59L16.1898 9.24H11.8998L12.5598 8.58L11.4398 7.46L10.3798 8.52L11.0898 9.23H5.25979L12.3798 2.11V2.13ZM18.4698 12.23C17.4598 12.55 16.7198 13.5 16.7198 14.61C16.7198 15.72 17.4598 16.67 18.4698 16.99V18.47H1.52979V16.99C2.53979 16.67 3.27979 15.72 3.27979 14.61C3.27979 13.5 2.53979 12.54 1.52979 12.23V10.75H18.4698V12.23Z"
    />
  </symbol>
  <symbol id="settings_shop" viewBox="0 0 20 20" fill-rule="evenodd">
    <path
      d="M15.17 14.75C15.17 14.75 15.16 14.75 15.15 14.75H5.45L5.11 12.84H16.67L17.41 12.21L18.67 4.68L17.93 3.81H3.49L3.03 1.25L2.29 0.629997H0V2.13H1.66L3.99 15.1C3.2 15.55 2.66 16.39 2.66 17.37C2.66 18.81 3.83 19.99 5.28 19.99C6.73 19.99 7.9 18.82 7.9 17.37C7.9 16.97 7.8 16.59 7.64 16.25H12.82C12.66 16.59 12.56 16.97 12.56 17.37C12.56 18.81 13.73 19.99 15.18 19.99C16.63 19.99 17.8 18.82 17.8 17.37C17.8 15.92 16.63 14.75 15.18 14.75H15.17ZM17.05 5.31L16.04 11.34H4.84L3.76 5.31H17.05ZM6.39 17.36C6.39 17.98 5.89 18.48 5.27 18.48C4.65 18.48 4.15 17.98 4.15 17.36C4.15 16.74 4.65 16.24 5.27 16.24C5.89 16.24 6.39 16.74 6.39 17.36ZM15.17 18.48C14.55 18.48 14.05 17.98 14.05 17.36C14.05 16.74 14.55 16.24 15.17 16.24C15.79 16.24 16.29 16.74 16.29 17.36C16.29 17.98 15.79 18.48 15.17 18.48Z"
    />
  </symbol>
  <symbol id="settings_redeem-code" viewBox="0 0 20 20" fill-rule="evenodd">
    <path
      d="M7.65 9.34 8.7 8.28a.64.64 0 0 0 .16-.4V5.2a.63.63 0 0 0-.16-.4L7.65 3.76a.63.63 0 0 0-.4-.16H4.58a.63.63 0 0 0-.4.16L3.13 4.8a.63.63 0 0 0-.16.39v2.68c0 .13.07.3.16.4l1.06 1.06c.09.09.26.16.39.16h2.69c.12 0 .3-.07.39-.16ZM4.69 8.12a.35.35 0 0 1-.35-.34V5.32c0-.2.16-.35.35-.35h2.46c.18 0 .34.16.34.35v2.46c0 .18-.16.34-.36.34H4.7Zm11.13 2.54a.59.59 0 0 0-.37-.16h-2.7a.59.59 0 0 0-.38.16l-1.08 1.06a.64.64 0 0 0-.16.4v2.68c0 .13.07.3.16.4l1.08 1.05c.09.1.25.16.37.16h2.71a.6.6 0 0 0 .37-.16l1.06-1.06a.64.64 0 0 0 .16-.39v-2.68c0-.13-.07-.3-.16-.4l-1.06-1.06Zm-.16 4.02c0 .2-.16.35-.35.35h-2.44c-.2 0-.34-.15-.34-.35v-2.46c0-.18.14-.34.34-.34h2.46c.2 0 .33.16.33.36v2.44Zm-.62-11.09h-1.5c-.05 0-.09.03-.12.07l-8.5 12.67c-.03.05-.02.08.04.08h1.5c.05 0 .1-.03.12-.07L15.1 3.67c.01-.05 0-.08-.06-.08ZM17.53 0H2.47L0 2.47v15.06L2.47 20h15.06L20 17.53V2.47L17.53 0Zm1.1 16.96-1.67 1.67H3.04l-1.67-1.67V3.04l1.67-1.67h13.92l1.67 1.67v13.92Z"
    />
  </symbol>
  <symbol id="settings_ads-off" viewBox="0 0 20 20" fill-rule="evenodd">
    <path
      d="M17.92 0H7.27C6.12 0 5.19 1.05 5.19 2.33v1.15h-.52c-1.15 0-2.08 1.05-2.08 2.33v1.15h-.52C.92 6.97-.01 8.02-.01 9.3v8.36c0 1.29.93 2.33 2.08 2.33h10.65c1.15 0 2.08-1.05 2.08-2.33v-1.15h.52c1.15 0 2.08-1.05 2.08-2.33v-1.15h.52c1.15 0 2.08-1.05 2.08-2.33V2.33C19.99 1.05 19.06 0 17.92 0m-4.63 17.66c0 .44-.27.83-.58.83H2.06c-.31 0-.58-.39-.58-.83V9.3c0-.44.27-.83.58-.83h10.65c.31 0 .58.39.58.83zm2.6-3.48c0 .44-.27.83-.58.83h-.52V9.3c0-1.29-.93-2.33-2.08-2.33H4.09V5.82c0-.44.27-.83.58-.83h10.65c.31 0 .58.39.58.83v8.36zm2.6-3.48c0 .44-.27.83-.58.83h-.52V5.82c0-1.29-.93-2.33-2.08-2.33H6.69V2.34c0-.44.27-.83.58-.83h10.65c.31 0 .58.39.58.83v8.36zm-7.74.49-2.3 2.3 2.3 2.3-1.06 1.06-2.3-2.3-2.3 2.3-1.06-1.06 2.3-2.3-2.3-2.3 1.06-1.06 2.3 2.3 2.3-2.3z"
    />
  </symbol>
  <symbol id="settings_email" viewBox="0 0 20 20" fill-rule="evenodd">
    <path
      d="M4 2.25C1.93 2.25 0.25 3.93 0.25 6V14C0.25 16.07 1.93 17.75 4 17.75H16C18.07 17.75 19.75 16.07 19.75 14V6C19.75 3.93 18.07 2.25 16 2.25H4ZM1.78 5.62C1.96 4.56 2.88 3.75 4 3.75H16C17.11 3.75 18.04 4.56 18.22 5.62L10 11.1L1.78 5.62ZM1.75 7.4V14C1.75 15.24 2.76 16.25 4 16.25H16C17.24 16.25 18.25 15.24 18.25 14V7.4L10.42 12.62H9.59L1.75 7.4Z"
    />
  </symbol>
  <symbol id="settings_invoice-history" viewBox="0 0 20 20" fill-rule="evenodd">
    <path
      d="M13.1 8.29001C16.33 8.29001 18.96 10.92 18.96 14.15C18.96 17.38 16.33 20 13.1 20C9.86999 20 7.23999 17.37 7.23999 14.15C7.23999 10.92 9.86999 8.29001 13.1 8.29001ZM13.1 9.66001C10.62 9.66001 8.60999 11.67 8.60999 14.15C8.60999 16.62 10.62 18.64 13.1 18.64C15.58 18.64 17.59 16.63 17.59 14.15C17.59 11.67 15.57 9.66001 13.1 9.66001Z M7.59 20.02H0.75L0 19.27V0H1.3L2.86 1.52L4.31 0H5.38L6.9 1.54L8.41 0H9.48L10.98 1.54L12.51 0H13.79V6.88H12.29V2.35L11.5 3.13H10.43L8.94 1.59L7.45 3.13H6.38L4.86 1.61L3.39 3.13L2.3 3.12L1.5 2.26V18.52H7.59V20.02Z M15.3201 14.9H12.3501V10.89H13.8501V13.4H15.3201V14.9Z M4.88988 13.92H3.37988V15.43H4.88988V13.92Z M4.88988 10.89H3.37988V12.4H4.88988V10.89Z M4.88988 7.87H3.37988V9.37999H4.88988V7.87Z M4.88988 4.84H3.37988V6.35H4.88988V4.84Z"
    />
  </symbol>
  <symbol id="settings_restore" viewBox="0 0 20 20" fill-rule="evenodd">
    <path
      d="m17.43 7.87 1.3-3.16 1.27.53-2.22 5.36-5.36-2.22.52-1.27 3.24 1.35a6.47 6.47 0 0 0-12.28-.3l-1.28-.47a7.84 7.84 0 0 1 14.81.18ZM3.82 12.22a6.47 6.47 0 0 0 12.28.3l1.28.46a7.84 7.84 0 0 1-14.81-.17l-1.3 3.15L0 15.44l1.7-4.1.2-.5.32-.76L7.6 12.3l-.53 1.26-3.24-1.34Z"
    />
  </symbol>
  <symbol id="settings_document" viewBox="0 0 20 20" fill-rule="evenodd">
    <path
      d="M15.93,19.97H4.07c-1.52,0-2.75-1.24-2.75-2.75V2.77C1.32,1.25,2.55.01,4.07.01h11.85c1.52,0,2.75,1.24,2.75,2.75v14.45c0,1.52-1.24,2.75-2.75,2.75l.01.01ZM4.07,1.51c-.69,0-1.25.56-1.25,1.25v14.45c0,.69.56,1.25,1.25,1.25h11.85c.69,0,1.25-.56,1.25-1.25V2.77c0-.69-.56-1.25-1.25-1.25H4.07v-.01ZM15,4H5v1.5h10v-1.5ZM15,7H5v1.5h10v-1.5ZM15,10H5v1.5h10v-1.5ZM12.41,13h-7.41v1.5h7.41v-1.5Z"
    />
  </symbol>
  <symbol id="settings_stats" viewBox="0 0 20 20" fill-rule="evenodd">
    <path
      d="M6.27008 16.61H1.33008V10.93C1.33008 9.99 2.04008 9.22 2.91008 9.22H4.70008C5.57008 9.22 6.28008 9.99 6.28008 10.93V16.61H6.27008ZM2.83008 15.11H4.77008V10.93C4.77008 10.8 4.70008 10.72 4.68008 10.72H2.90008C2.90008 10.72 2.82008 10.8 2.82008 10.93V15.11H2.83008Z M18.67 16.61H13.73V6.47999C13.73 5.53999 14.44 4.76999 15.31 4.76999H17.1C17.97 4.76999 18.68 5.53999 18.68 6.47999V16.61H18.67ZM15.23 15.11H17.17V6.47999C17.17 6.34999 17.1 6.26999 17.08 6.26999H15.3C15.3 6.26999 15.22 6.34999 15.22 6.47999V15.11H15.23Z M12.47 16.61H7.53003V3.00999C7.53003 2.06999 8.24003 1.29999 9.11003 1.29999H10.9C11.77 1.29999 12.48 2.06999 12.48 3.00999V16.62L12.47 16.61ZM9.03003 15.11H10.97V3.00999C10.97 2.87999 10.9 2.79999 10.88 2.79999H9.10003C9.10003 2.79999 9.02003 2.87999 9.02003 3.00999V15.12L9.03003 15.11Z M18.6199 18.07H1.37988V19.57H18.6199V18.07Z"
    />
  </symbol>
  <symbol id="settings_page-error" viewBox="0 0 20 20" fill-rule="evenodd">
    <path
      d="M17.4 2.52H2.6C1.17 2.52 0 3.69 0 5.12v9.76c0 1.43 1.16 2.6 2.6 2.6h14.8c1.43 0 2.6-1.16 2.6-2.6V5.12c0-1.43-1.16-2.6-2.6-2.6m1.09 12.36c0 .6-.49 1.1-1.1 1.1H2.6c-.6 0-1.1-.49-1.1-1.1V9.01h16.99zm0-7.37H1.51V5.12c0-.6.49-1.1 1.1-1.1h14.8c.6 0 1.1.49 1.1 1.1v2.39zm-6.87 7.3 1.06-1.06a3.79 3.79 0 0 0-5.36 0l1.06 1.06a2.3 2.3 0 0 1 3.24 0m3.01-4.66h-1.5v2.26h1.5zm-7.76-.03h-1.5v2.26h1.5zm.08-5.06H5.28v1.5h1.67zm-2.76 0H2.52v1.5h1.67z"
    />
  </symbol>
  <symbol id="settings_thumbs-rating" viewBox="0 0 20 20" fill-rule="evenodd">
    <path
      d="M9.64 10.9101L9.11 10.6901H7.39C7.56 10.3201 7.69 9.93006 7.68 9.63006C7.77 8.13006 6.48 7.31006 5.69 7.06006L4.81 7.40006L2.35 11.7001H0.75L0 12.4601V17.8201L0.75 18.5701H9.48L10.22 17.9401L11.05 12.7601L10.84 12.1101L9.64 10.9101ZM1.5 13.2101H2.33V17.0701H1.5V13.2101ZM8.84 17.0701H3.82V12.1801L5.77 8.78006C6 8.96006 6.21 9.23006 6.19 9.60006C6.19 9.81006 5.85 10.4901 5.5 11.0401L6.13 12.2001H8.81L9.51 12.9001L8.84 17.0701ZM19.27 1.34009H10.54L9.79997 1.97009L8.96997 7.15009L9.17997 7.80009L10.37 9.00009L10.9 9.22009H12.62C12.45 9.59009 12.33 9.98009 12.33 10.2801C12.23 11.7801 13.53 12.6001 14.32 12.8501L15.2 12.5101L17.66 8.21009H19.28L20.03 7.46009V2.09009L19.28 1.34009H19.27ZM14.25 11.1301C14.02 10.9501 13.81 10.6801 13.83 10.3101C13.83 10.1001 14.17 9.42009 14.52 8.87009L13.89 7.71009H11.21L10.51 7.01009L11.18 2.84009H16.19V7.73009L14.24 11.1301H14.25ZM18.52 6.70009H17.69V2.84009H18.52V6.70009Z"
    />
  </symbol>
  <symbol id="settings_attachment" viewBox="0 0 20 20" fill-rule="evenodd">
    <path
      d="M5.54 18.32c-.73 0-1.44-.26-1.98-.8-.57-.57-.85-1.34-.79-2.18.05-.8.41-1.57 1.01-2.17l6.9-6.9c.77-.78 1.99-.83 2.71-.11s.67 1.93-.11 2.71l-5.47 5.47-1.06-1.06 5.47-5.47c.21-.21.22-.47.11-.59-.07-.07-.16-.08-.22-.07-.13 0-.26.07-.37.18l-6.9 6.9c-.34.34-.54.77-.57 1.21-.03.4.1.77.36 1.02s.63.39 1.02.36c.44-.03.87-.23 1.21-.57l8.6-8.61c.57-.57.91-1.29.95-2.03.05-.7-.18-1.34-.64-1.8s-1.09-.68-1.8-.63c-.74.05-1.46.39-2.03.95l-7.18 7.18-1.06-1.06 7.18-7.18c.82-.82 1.89-1.32 2.99-1.39 1.15-.08 2.19.31 2.96 1.07s1.15 1.82 1.07 2.96c-.07 1.11-.57 2.17-1.39 2.99L7.9 17.31c-.67.67-1.54 1.01-2.37 1.01z"
    />
  </symbol>
  <symbol id="settings_user" viewBox="0 0 20 20" fill-rule="evenodd">
    <path
      d="M10 3.59c-1.75 0-3.18 1.43-3.18 3.18v.84c0 1.75 1.43 3.18 3.18 3.18s3.18-1.43 3.18-3.18v-.84c0-1.75-1.43-3.18-3.18-3.18m1.68 4.02c0 .93-.75 1.68-1.68 1.68s-1.68-.75-1.68-1.68v-.84c0-.92.75-1.68 1.68-1.68s1.68.75 1.68 1.68zM10 .66C4.85.66.66 4.85.66 10s4.19 9.34 9.34 9.34 9.34-4.19 9.34-9.34S15.15.66 10 .66M5.12 16.13c.19-1.73 1.56-2.96 3.42-2.96h2.92c1.86 0 3.23 1.22 3.42 2.96A7.8 7.8 0 0 1 10 17.84c-1.84 0-3.54-.64-4.88-1.71m11-1.24c-.66-1.91-2.44-3.22-4.66-3.22H8.54c-2.23 0-4 1.31-4.66 3.22A7.82 7.82 0 0 1 2.16 10c0-4.33 3.52-7.84 7.84-7.84s7.84 3.52 7.84 7.84c0 1.85-.65 3.55-1.72 4.89"
    />
  </symbol>
  <symbol id="settings_data-error" viewBox="0 0 20 20" fill-rule="evenodd">
    <path
      d="M8.15 3.86H6.21v1.5h1.94zm0 5.3H6.21v1.5h1.94zm0 5.3H6.21v1.5h1.94zm10.88-1.28-2.3 2.3 2.3 2.3-1.06 1.06-2.3-2.3-2.3 2.3-1.06-1.06 2.3-2.3-2.3-2.3 1.06-1.06 2.3 2.3 2.3-2.3z M10.34 17.1H5.82c-.46 0-.84-.38-.84-.84V13.3h5.55c.23-.55.56-1.06.95-1.5h-6.5V8h10.06v1.93c.21-.02.41-.04.63-.04.3 0 .59.03.87.08V3.55c0-1.29-1.05-2.34-2.34-2.34H5.82c-1.29 0-2.34 1.05-2.34 2.34v12.72c0 1.29 1.05 2.34 2.34 2.34h5.24q-.465-.69-.72-1.5zM4.98 3.55c0-.46.38-.84.84-.84h8.39c.46 0 .84.38.84.84v2.96H4.98z"
    />
  </symbol>
  <symbol id="settings_advertise" viewBox="0 0 20 20" fill-rule="evenodd">
    <path
      d="M17.92 0H7.27C6.12 0 5.19 1.05 5.19 2.33v1.15h-.52c-1.15 0-2.08 1.05-2.08 2.33v1.15h-.52C.92 6.97-.01 8.02-.01 9.3v8.36c0 1.29.93 2.33 2.08 2.33h10.65c1.15 0 2.08-1.05 2.08-2.33v-1.15h.52c1.15 0 2.08-1.05 2.08-2.33v-1.15h.52c1.15 0 2.08-1.05 2.08-2.33V2.33C19.99 1.05 19.06 0 17.92 0m-4.63 17.66c0 .44-.27.83-.58.83H2.06c-.31 0-.58-.39-.58-.83V9.3c0-.44.27-.83.58-.83h10.65c.31 0 .58.39.58.83zm2.6-3.48c0 .44-.27.83-.58.83h-.52V9.3c0-1.29-.93-2.33-2.08-2.33H4.09V5.82c0-.44.27-.83.58-.83h10.65c.31 0 .58.39.58.83v8.36zm2.6-3.48c0 .44-.27.83-.58.83h-.52V5.82c0-1.29-.93-2.33-2.08-2.33H6.69V2.34c0-.44.27-.83.58-.83h10.65c.31 0 .58.39.58.83v8.36zm-13.14.08H4.08l-1.87 5.27-.05.13h1.17l.35-1.05h2l.36 1.05h1.22l-1.89-5.33zm-1.32 3.34.65-1.93.65 1.93H4.02zm5.82-3.34H7.92v5.4h1.93c1.59 0 2.66-1.08 2.66-2.7s-1.09-2.7-2.66-2.7m0 4.36h-.77v-3.31h.77c.9 0 1.43.62 1.43 1.65s-.54 1.66-1.43 1.66"
    />
  </symbol>
  <symbol id="settings_major-error" viewBox="0 0 20 20" fill-rule="evenodd">
    <path
      d="M10 .66C4.85.66.66 4.85.66 10s4.19 9.34 9.34 9.34 9.34-4.19 9.34-9.34S15.15.66 10 .66m0 17.18c-4.33 0-7.84-3.52-7.84-7.84S5.68 2.16 10 2.16s7.84 3.52 7.84 7.84-3.52 7.84-7.84 7.84M7.83 7.03h-2v2.5h2zm6.34 0h-2v2.5h2zM10 11.66c-1.78 0-3.38.99-4.18 2.58l1.34.67a3.15 3.15 0 0 1 2.83-1.75c1.2 0 2.29.67 2.83 1.75l1.34-.67c-.8-1.59-2.4-2.58-4.18-2.58z"
    />
  </symbol>
</svg>
