<svg xmlns="http://www.w3.org/2000/svg" xmlns:xlink="http://www.w3.org/1999/xlink" style="display: none">
  <symbol id="facebook" viewBox="0 0 24 24" fill-rule="evenodd">
    <path
      d="m23.5 12.0699c0-6.3513-5.1487-11.50002-11.5-11.50002-6.35128 0-11.5 5.14872-11.5 11.50002 0 5.74 4.20538 10.4975 9.7031 11.3603v-8.0361h-2.9199v-3.3242h2.9199v-2.53361c0-2.88219 1.7169-4.47422 4.3437-4.47422 1.2582 0 2.5743.22461 2.5743.22461v2.83007h-1.4501c-1.4286 0-1.8741.88647-1.8741 1.79591v2.15724h3.1894l-.5098 3.3242h-2.6796v8.0361c5.4977-.8628 9.7031-5.6203 9.7031-11.3603z"
      fill="#1877f2"
    />
  </symbol>
  <symbol id="google" viewBox="0 0 24 24" fill-rule="evenodd">
    <path
      d="M23.04 12.26c0-.81-.07-1.6-.2-2.35H12v4.45h6.19a5.29 5.29 0 0 1-2.3 3.47v2.88h3.72c2.18-2 3.43-4.95 3.43-8.45Z"
      fill="#4285f4"
    />
    <path
      d="M12 23.5c3.1 0 5.7-1.03 7.61-2.79l-3.72-2.88a6.91 6.91 0 0 1-3.89 1.1c-3 0-5.53-2.03-6.43-4.75H1.72v2.98A11.5 11.5 0 0 0 12 23.5Z"
      fill="#34a853"
    />
    <path d="M5.57 14.19a6.91 6.91 0 0 1 0-4.37V6.84H1.72a11.5 11.5 0 0 0 0 10.32l3.85-2.97Z" fill="#fbbc05" />
    <path
      d="M12 5.07c1.69 0 3.2.58 4.4 1.72l3.3-3.3A11.5 11.5 0 0 0 1.72 6.84l3.84 2.98A6.85 6.85 0 0 1 12 5.07Z"
      fill="#ea4335"
    />
  </symbol>
  <symbol id="apple" viewBox="0 0 24 24" fill-rule="evenodd">
    <path
      d="M21.28 18.42c-.35.8-.76 1.55-1.24 2.23a11.3 11.3 0 0 1-1.59 1.92 3.1 3.1 0 0 1-2.05.9c-.52 0-1.15-.15-1.89-.45a5.43 5.43 0 0 0-2.03-.45c-.65 0-1.35.15-2.1.45-.74.3-1.35.46-1.8.48-.7.03-1.4-.28-2.1-.93-.44-.39-1-1.05-1.67-2-.7-1-1.3-2.16-1.76-3.5-.49-1.43-.74-2.82-.74-4.16 0-1.54.34-2.87 1-3.99a5.87 5.87 0 0 1 4.93-2.91c.56 0 1.28.17 2.2.5.9.34 1.47.52 1.73.52.19 0 .83-.2 1.92-.6a6.37 6.37 0 0 1 2.62-.47c1.94.16 3.4.92 4.36 2.3a4.85 4.85 0 0 0-2.57 4.4 5.24 5.24 0 0 0 3.19 4.7l-.4 1.06ZM16.84.96a4.9 4.9 0 0 1-1.26 3.22c-1 1.18-2.23 1.86-3.55 1.76a5.04 5.04 0 0 1 1.3-3.69c.43-.5.97-.9 1.63-1.22.65-.32 1.27-.5 1.86-.53.02.15.02.3.02.46Z"
    />
  </symbol>
  <symbol id="android" viewBox="0 0 24 24" fill-rule="evenodd">
    <path
      d="M6 18a1 1 0 0 0 1 1h1v3.5a1.5 1.5 0 1 0 3 0V19h2v3.5a1.5 1.5 0 0 0 3 0V19h1a1 1 0 0 0 1-1V8H6ZM3.5 8C2.67 8 2 8.67 2 9.5v7a1.5 1.5 0 1 0 3 0v-7C5 8.67 4.33 8 3.5 8Zm17 0c-.83 0-1.5.67-1.5 1.5v7a1.5 1.5 0 0 0 3 0v-7c0-.83-.67-1.5-1.5-1.5Zm-4.97-5.84 1.3-1.3c.2-.2.2-.5 0-.71a.5.5 0 0 0-.71 0l-1.48 1.48a5.84 5.84 0 0 0-5.3 0L7.84.15a.5.5 0 0 0-.7 0 .5.5 0 0 0 0 .7l1.3 1.32A5.95 5.95 0 0 0 6 7h12c0-1.99-.97-3.75-2.47-4.84ZM10 5H9V4h1Zm5 0h-1V4h1Zm0 0"
    />
  </symbol>
  <symbol id="huawei" viewBox="0 0 24 24" fill-rule="evenodd">
    <path
      d="M9.43 2.74c-1.74 0-3.08 1.52-3.08 4.3 0 1.81 2.74 6.47 5.18 10.54 0-10.55-.26-11.7-2.1-14.84Zm5.14 0c-1.87 3.1-2.1 4.29-2.1 14.84 2.44-4.07 5.18-8.73 5.18-10.54 0-2.78-1.34-4.3-3.08-4.3ZM3.43 6.17c-2.56 1.78-1.72 6-.43 7.38.86.9 4.16 2.5 7.29 4.62Zm17.14 0-6.86 12c3.13-2.12 6.43-3.73 7.29-4.62 1.29-1.38 2.13-5.6-.43-7.38ZM0 13.03c.04 4.75 2.94 6 4.9 6h4.9Zm24 0-9.8 6h4.9c1.96 0 4.86-1.25 4.9-6ZM2.67 19.89c.28 1.41.9 2.57 2.67 2.57a5.36 5.36 0 0 0 4.46-2.57Zm11.53 0a5.35 5.35 0 0 0 4.46 2.57c1.78 0 2.4-1.16 2.67-2.57Zm0 0"
    />
  </symbol>
</svg>
