<svg xmlns="http://www.w3.org/2000/svg" xmlns:xlink="http://www.w3.org/1999/xlink" style="display: none">
  <symbol id="action-navigation_arrow-down" viewBox="0 0 20 20" fill-rule="evenodd">
    <path d="m10 15.35-10-10L1.35 4 10 12.65 18.65 4 20 5.35l-10 10Z" />
  </symbol>
  <symbol id="action-navigation_arrow-up" viewBox="0 0 20 20" fill-rule="evenodd">
    <path d="m10 3.65 10 10L18.65 15 10 6.35 1.35 15 0 13.65l10-10Z" />
  </symbol>
  <symbol id="action-navigation_arrow-left" viewBox="0 0 20 20" fill-rule="evenodd">
    <path d="m3.65 10 10-10L15 1.35 6.35 10 15 18.65 13.65 20l-10-10Z" />
  </symbol>
  <symbol id="action-navigation_arrow-right" viewBox="0 0 20 20" fill-rule="evenodd">
    <path d="m15.35 10-10 10L4 18.65 12.65 10 4 1.35 5.35 0l10 10Z" />
  </symbol>
  <symbol id="action-navigation_back" viewBox="0 0 20 20" fill-rule="evenodd">
    <path d="M19.33 8.93H4.1l7.42-7.42L10 0 0 10l10 10 1.52-1.51-7.42-7.42h15.23V8.93Z" />
  </symbol>
  <symbol id="action-navigation_up" viewBox="0 0 20 20" fill-rule="evenodd">
    <path d="M11.07 19.33V4.1l7.42 7.42L20 10 10 0 0 10l1.51 1.52L8.93 4.1v15.23h2.14Z" />
  </symbol>
  <symbol id="action-navigation_add" viewBox="0 0 20 20" fill-rule="evenodd">
    <path d="M19.13 9.27 10 .13.87 9.27l.95.95 7.5-7.5v17.41h1.36V2.73l7.5 7.5.95-.96Z" />
  </symbol>
  <symbol id="action-navigation_close" viewBox="0 0 20 20" fill-rule="evenodd">
    <path
      d="M20 1.51 18.49 0 10 8.49 1.52 0 0 1.51 8.5 10 0 18.48 1.51 20 10 11.5 18.48 20 20 18.48 11.5 10 20 1.51Z"
    />
  </symbol>
  <symbol id="action-navigation_settings-alt" viewBox="0 0 20 20" fill-rule="evenodd">
    <path
      d="M1.38 18.63v-2.48l1.04-1.05 5.85-1.45v-1.56l-.26-.2C6.08 10.33 5.14 6.6 6.04 4.03 6.47 2.83 7.5 1.37 10 1.37s3.53 1.45 3.96 2.67c.5 1.4.42 3.14-.05 4.68h1.41a8.96 8.96 0 0 0-.06-5.13C14.45 1.27 12.58 0 10 0 7.42 0 5.56 1.27 4.74 3.59c-1.02 2.91-.08 6.97 2.02 9.02l-5.05 1.25L0 15.6v4.4h10.7l-1.37-1.36H1.38Z M20 15.91V14.2h-1.44a3.6 3.6 0 0 0-.42-1.01l1.02-1.02-1.22-1.22-1.02 1.02a3.6 3.6 0 0 0-1-.42V10.1h-1.73v1.44c-.36.09-.7.23-1.01.42l-1.02-1.02-1.22 1.22 1.02 1.02a3.6 3.6 0 0 0-.42 1H10.1v1.73h1.43c.1.36.24.7.43 1.01l-1.02 1.02 1.22 1.22 1.02-1.02c.3.2.65.34 1 .43V20h1.73v-1.43c.37-.1.7-.24 1.02-.43l1.01 1.02 1.22-1.22-1.02-1.02c.2-.3.34-.65.43-1H20Zm-4.95 1.4a2.27 2.27 0 1 1 0-4.53 2.27 2.27 0 0 1 0 4.54Z"
    />
  </symbol>
  <symbol id="action-navigation_edit-favorites" viewBox="0 0 20 20" fill-rule="evenodd">
    <path
      d="M7.25 6.85 9.35 0h1.3l2.1 6.85.08.25c-.46.07-.9.2-1.33.36L10 2.58 8.4 7.79l-.66.5H2.53l4.22 3.2.25.81-1.62 5.21 1.92-1.47c.15.47.34.92.57 1.35L4.47 20l-1.05-.8 2.12-6.85L0 8.15l.4-1.32 6.85.02ZM12.62 8l-.11 1.72-.48.2-1.3-1.14-1.95 1.96 1.14 1.3-.2.47-1.72.1v2.78l1.72.1.2.48-1.14 1.3 1.96 1.95 1.3-1.14.47.2.1 1.72h2.78l.1-1.72.48-.2 1.3 1.14 1.95-1.96-1.14-1.3.2-.47 1.72-.1V12.6l-1.72-.1-.2-.48 1.14-1.3-1.96-1.95-1.29 1.14-.48-.2L15.4 8h-2.77Zm.68 2.29.09-1.47h1.22l.1 1.47 1.42.59 1.1-.97.86.86-.97 1.1.6 1.43 1.46.09v1.22l-1.47.1-.59 1.42.97 1.1-.86.86-1.1-.97-1.43.6-.09 1.46H13.4l-.1-1.47-1.42-.59-1.1.97-.86-.86.97-1.1-.6-1.43-1.46-.09V13.4l1.47-.1.59-1.42-.97-1.1.86-.86 1.1.97 1.43-.6Zm.7 5.1a1.39 1.39 0 1 1 0-2.78 1.39 1.39 0 0 1 0 2.78Zm0-3.6a2.21 2.21 0 1 0 0 4.43 2.21 2.21 0 0 0 0-4.43Z"
    />
  </symbol>
  <symbol id="action-navigation_settings" viewBox="0 0 20 20" fill-rule="evenodd">
    <path
      d="M12.698 20h-5.39v-2.813a7.664 7.664 0 0 1-.482-.199l-1.988 1.989-3.812-3.81 1.99-1.99a7.651 7.651 0 0 1-.199-.48H0v-5.39h2.82c.06-.162.126-.322.196-.477L1.02 4.836l3.813-3.813L6.83 3.02c.155-.07.315-.135.474-.196V0h5.39v2.824c.161.06.318.126.476.196l1.996-1.997 3.813 3.813-1.995 1.994c.072.157.138.315.197.476h2.821v5.39h-2.817a7.145 7.145 0 0 1-.199.48l1.99 1.99-3.812 3.813-1.988-1.99a7.152 7.152 0 0 1-.482.198V20h.004Zm-3.862-1.528h2.335v-2.409l.55-.159a6.088 6.088 0 0 0 1.241-.515l.502-.277 1.705 1.704 1.651-1.652-1.704-1.704.275-.502a6.05 6.05 0 0 0 .51-1.24l.16-.552h2.414V8.831h-2.416l-.16-.55a6.142 6.142 0 0 0-.512-1.235l-.277-.502 1.708-1.708-1.652-1.652-1.71 1.71-.502-.276a6.133 6.133 0 0 0-1.236-.511l-.55-.16v-2.42H8.835v2.42l-.55.16a6.135 6.135 0 0 0-1.235.51l-.502.276-1.711-1.711-1.652 1.652 1.709 1.708-.278.502a6.196 6.196 0 0 0-.512 1.235l-.16.55H1.528v2.335H3.94l.16.552c.126.435.296.851.51 1.24l.275.502-1.704 1.704 1.652 1.652 1.704-1.704.502.277c.39.214.807.388 1.241.513l.55.159v2.41l.005.003Zm1.167-4.536a3.94 3.94 0 0 1-3.936-3.937 3.94 3.94 0 0 1 3.936-3.937A3.94 3.94 0 0 1 13.94 10a3.94 3.94 0 0 1-3.937 3.937Zm0-6.344a2.411 2.411 0 0 0-2.409 2.41c0 1.328 1.08 2.408 2.41 2.408 1.328 0 2.408-1.08 2.408-2.409 0-1.329-1.08-2.41-2.409-2.41Z"
    />
  </symbol>
  <symbol id="action-navigation_dropdown" viewBox="0 0 20 20" fill-rule="evenodd">
    <path d="M0 18 10 2l10 16H0Z" />
  </symbol>
  <symbol id="action-navigation_burger-menu" viewBox="0 0 20 20" fill-rule="evenodd">
    <path
      d="M19.6 4.84 20 3H2.96l-.4 1.84h17.03ZM1.29 10.53h17.04l.4-1.84H1.7l-.4 1.84ZM.4 14.47 0 16.31h17.04l.4-1.84H.42Z"
    />
  </symbol>
  <symbol id="action-navigation_more-android" viewBox="0 0 20 20" fill-rule="evenodd">
    <path d="M8.28 0v3.45h3.45V0H8.28Zm0 8.28v3.45h3.45V8.28H8.28Zm0 11.72v-3.45h3.45V20H8.28Z" />
  </symbol>
  <symbol id="action-navigation_more" viewBox="0 0 20 20" fill-rule="evenodd">
    <path d="M0 11.75h3.45V8.3H0v3.45Zm8.28 0h3.45V8.3H8.28v3.45Zm11.72 0h-3.45V8.3H20v3.45Z" />
  </symbol>
  <symbol id="action-navigation_live" viewBox="0 0 20 20" fill-rule="evenodd">
    <path
      d="M0 13C0 7.5 4.49 3 10 3a10.01 10.01 0 0 1 8.93 14.51l-1.23-.62a8.64 8.64 0 1 0-15.4 0l-1.23.62A9.89 9.89 0 0 1 0 13.01Zm10-6.43a6.52 6.52 0 0 0-5.82 9.45l1.23-.62a5.15 5.15 0 1 1 9.18 0l1.23.62A6.52 6.52 0 0 0 10 6.57Zm0 7.93a1.5 1.5 0 1 1 0-3 1.5 1.5 0 0 1 0 3Zm0-4.37a2.87 2.87 0 1 0 0 5.75 2.87 2.87 0 0 0 0-5.75Z"
    />
  </symbol>
  <symbol id="action-navigation_games" viewBox="0 0 20 20" fill-rule="evenodd">
    <path
      d="M17.24 11.62h1.39V8.86h-1.39v2.76Zm-.29 4.49h-6.26v-2.47a3.47 3.47 0 0 0 0-6.8V4.37h6.26l1.68 1.68v1.43h-2.76V13h2.76v1.43l-1.68 1.68ZM1.37 14.43V13h2.76V7.48H1.37V6.05l1.68-1.68h6.26v2.47a3.47 3.47 0 0 0 0 6.8v2.47H3.05l-1.68-1.68Zm0-2.8h1.39V8.85H1.37v2.76Zm9.32-3.34c.81.28 1.4 1.04 1.4 1.95 0 .91-.59 1.67-1.4 1.95V8.3Zm-1.38 3.9a2.08 2.08 0 0 1-1.4-1.95c0-.91.59-1.67 1.4-1.95v3.9ZM17.51 3H2.49L0 5.48V15l2.48 2.48h15.04L20 15V5.48L17.52 3Z"
    />
  </symbol>
  <symbol id="action-navigation_news" viewBox="0 0 20 20" fill-rule="evenodd">
    <path
      d="M18.54 1.46v17.08H1.46V1.46h17.08ZM20 0H0v20h20V0Z M13.06 9.34h-9.5V3.42h9.5v5.92ZM5.02 7.88h6.58v-3H5.02v3ZM16.44 11.33H3.56v1.46h12.88v-1.46ZM14.86 14.35H3.56v1.46h11.3v-1.46Z"
    />
  </symbol>
  <symbol id="action-navigation_leagues" viewBox="0 0 20 20" fill-rule="evenodd">
    <path
      d="M4.26.8v1.72H1.5V7.3l2.76 2.76 2.76 2.76v2.05l-2.76 1.38v3.18h11.72v-3.18l-2.76-1.38v-2.05l2.76-2.76 2.76-2.76V2.52h-2.76V.8H4.26Zm1.37 3.45h8.98V2.17H5.63v2.08Zm10.35-.35h1.38v2.82l-1.38 1.39V3.9ZM2.88 6.72V3.9h1.38v4.2L2.87 6.73Zm2.75 2.76V5.63h8.98v3.85l-2.76 2.76H8.4L5.63 9.48Zm0 7.61 2.76-1.38v-2.1h3.46v2.1l2.76 1.38v.96H5.63v-.96Z"
    />
  </symbol>
</svg>
