<svg xmlns="http://www.w3.org/2000/svg" xmlns:xlink="http://www.w3.org/1999/xlink" style="display: none">
  <symbol id="action-video_play" viewBox="0 0 20 20" fill-rule="evenodd">
    <path d="M2 0v20l16.99-10L2 0Zm1.37 2.39L16.3 10 3.36 17.61V2.4Z" />
  </symbol>
  <symbol id="action-video_play-alt" viewBox="0 0 20 20" fill-rule="evenodd">
    <path d="M2 0v20l16.99-10L2 0Z" />
  </symbol>
  <symbol id="action-video_pause" viewBox="0 0 20 20" fill-rule="evenodd">
    <path
      d="M8 20H1.3V0H8v20Zm-1.38-1.37H2.67V1.37h3.95v17.26ZM18.64 20h-6.7V0h6.7v20Zm-1.37-1.37h-3.95V1.37h3.95v17.26Z"
    />
  </symbol>
  <symbol id="action-video_pause-alt" viewBox="0 0 20 20" fill-rule="evenodd">
    <path d="M8.65 18H3.3V2h5.35v16Zm8.52 0h-5.35V2h5.35v16Z" />
  </symbol>
  <symbol id="action-video_stop" viewBox="0 0 20 20" fill-rule="evenodd">
    <path d="M1.7 19.6h16.6V.4H1.7v19.2ZM3.01 1.71H17V18.3H3V1.7Z" />
  </symbol>
  <symbol id="action-video_next" viewBox="0 0 20 20" fill-rule="evenodd">
    <path d="M17.25.4v9.3L1.44.4v19.2l15.81-9.3v9.3h1.31V.4h-1.3ZM2.75 17.31V2.69L15.17 10 2.75 17.32Z" />
  </symbol>
  <symbol id="action-video_previous" viewBox="0 0 20 20" fill-rule="evenodd">
    <path d="M18.55.4 2.73 9.7V.41H1.42v19.2h1.31V10.3l15.82 9.3V.4Zm-1.32 16.92L4.81 10 17.23 2.7v14.63Z" />
  </symbol>
  <symbol id="action-video_back-15-sec" viewBox="0 0 20 20" fill-rule="evenodd">
    <path
      d="M10 3.02H7.34L9.37.99l-.99-1-3.7 3.72 3.7 3.7.98-.99-2.01-2h2.64a7.1 7.1 0 1 1-7.1 7.09H1.5A8.5 8.5 0 1 0 10 3Zm-2.92 10.2H5.64c-.02 0-.04.01-.04.04v.87c0 .02.02.04.04.04h3.92c.02 0 .04-.02.04-.04v-.87c0-.03-.02-.04-.04-.04H8.12c-.03 0-.04-.02-.04-.04V9.76c0-.1-.04-.2-.11-.26l-.74-.74a.37.37 0 0 0-.26-.1H5.64c-.02 0-.04 0-.04.03v.88c0 .02.02.04.04.04h1.3c.1 0 .18.08.18.19v3.38c0 .02-.01.04-.04.04Zm3.35 0h2.81a.2.2 0 0 0 .19-.2v-.95a.2.2 0 0 0-.19-.19h-2.81c-.02 0-.04-.01-.04-.03V8.7c0-.02.02-.04.04-.04h3.54c.01 0 .04.02.04.04v.88c0 .02-.03.04-.04.04h-2.59c-.02 0-.04.01-.04.04v1.25c0 .02.02.04.04.04h1.9c.1 0 .19.04.26.1l.73.73a.4.4 0 0 1 .11.27v1.02c0 .1-.04.2-.1.27l-.74.73a.38.38 0 0 1-.27.1h-2.84c-.02 0-.04 0-.04-.03v-.87c0-.03.02-.04.04-.04Z"
    />
  </symbol>
  <symbol id="action-video_forward-15-sec" viewBox="0 0 20 20" fill-rule="evenodd">
    <path
      d="M10 3.02h2.64L10.6.99l1-1 3.7 3.72-3.7 3.7-.99-.99 2.02-2H9.99a7.1 7.1 0 1 0 7.1 7.09h1.4A8.5 8.5 0 1 1 9.99 3Zm-2.92 10.2H5.64c-.02 0-.04.01-.04.04v.87c0 .02.02.04.04.04h3.92c.02 0 .04-.02.04-.04v-.87c0-.03-.02-.04-.04-.04H8.12c-.03 0-.04-.02-.04-.04V9.76c0-.1-.04-.2-.11-.26l-.74-.74a.37.37 0 0 0-.26-.1H5.64c-.02 0-.04 0-.04.03v.88c0 .02.02.04.04.04h1.3c.1 0 .18.08.18.19v3.38c0 .02-.01.04-.04.04Zm3.35 0h2.81a.2.2 0 0 0 .19-.2v-.95a.2.2 0 0 0-.19-.19h-2.81c-.02 0-.04-.01-.04-.03V8.7c0-.02.02-.04.04-.04h3.54c.01 0 .04.02.04.04v.88c0 .02-.03.04-.04.04h-2.59c-.02 0-.04.01-.04.04v1.25c0 .02.02.04.04.04h1.9c.1 0 .19.04.26.1l.73.73a.4.4 0 0 1 .11.27v1.02c0 .1-.04.2-.1.27l-.74.73a.38.38 0 0 1-.27.1h-2.84c-.02 0-.04 0-.04-.03v-.87c0-.03.02-.04.04-.04Z"
    />
  </symbol>
  <symbol id="action-video_subtitles" viewBox="0 0 20 20" fill-rule="evenodd">
    <path
      d="M12.8 6.6h6.73c.04 0 .07-.02.07-.07V4.9c0-.04-.03-.07-.07-.07h-6.85c-.13 0-.3.07-.39.15l-1.47 1.46a.63.63 0 0 0-.16.39v6.35c0 .13.07.3.16.38l1.47 1.48c.09.08.26.15.39.15h6.85c.04 0 .07-.02.07-.07v-1.64c0-.04-.03-.07-.07-.07H12.8a.35.35 0 0 1-.36-.36V6.96c0-.2.16-.36.36-.36ZM2.42 4.82c-.13 0-.3.07-.39.15L.56 6.43a.63.63 0 0 0-.16.39v6.35c0 .13.07.3.16.38l1.47 1.48c.09.08.26.15.39.15h6.85c.04 0 .07-.02.07-.07v-1.64c0-.04-.03-.07-.07-.07H2.55a.35.35 0 0 1-.36-.36V6.96c0-.2.16-.36.36-.36h6.72c.04 0 .07-.02.07-.07V4.9c0-.04-.03-.07-.07-.07H2.42Z"
    />
  </symbol>
  <symbol id="action-video_full-screen" viewBox="0 0 20 20" fill-rule="evenodd">
    <path
      d="M2 6.92V2h4.93v1.37H3.37v3.55H2Zm0 10.9v-4.93h1.37v3.56h3.56v1.37H2ZM12.92 2v1.37h3.56v3.55h1.37V2h-4.93Zm3.56 14.45V12.9h1.37v4.93H12.9v-1.37h3.57Z"
    />
  </symbol>
  <symbol id="action-video_small-screen" viewBox="0 0 20 20" fill-rule="evenodd">
    <path
      d="M5.97 5.96V2h1.37v5.32H2V5.96h3.97ZM2 13.86V12.5h5.34v5.33H5.97v-3.96H2ZM12.52 2v5.32h5.34V5.96H13.9V2h-1.37Zm0 15.83V12.5h5.34v1.37H13.9v3.96h-1.37Z"
    />
  </symbol>
  <symbol id="action-video_error" viewBox="0 0 20 20" fill-rule="evenodd">
    <path
      d="M2.47 3 0 5.47v9.54l2.47 2.47h8.75a5 5 0 0 1-.22-1.37H3.04l-1.67-1.67v-8.4l1.67-1.67h13.92l1.66 1.67v5.7c.54.33 1 .76 1.38 1.26V5.47L17.53 3H2.47Zm10.99 7.24-5.87 3.77V6.47l5.87 3.77Z M18.1 13 16 15.1 13.9 13l-.9.9 2.1 2.1-2.1 2.1.9.9 2.1-2.1 2.1 2.1.9-.9-2.1-2.1 2.1-2.1-.9-.9Z"
    />
  </symbol>
  <symbol id="action-video_locked" viewBox="0 0 20 20" fill-rule="evenodd">
    <path
      d="M1.38 6.04v8.4l1.66 1.67h6.61v1.37H2.47L0 15.01V5.47L2.47 3h15.05L20 5.47v8.5a4.46 4.46 0 0 0-1.38-3.16V6.04l-1.66-1.67H3.04L1.37 6.04Zm12.07 4.2L7.58 6.47v7.54l5.87-3.77Zm2.7 7.1v1.52h-1.26v-1.52c-.27-.2-.45-.5-.45-.85a1.08 1.08 0 0 1 2.15 0c0 .36-.18.66-.45.85Zm-.63-4.88c.87 0 1.57.7 1.57 1.57h-3.15c0-.87.71-1.57 1.58-1.57Zm2.95 1.57a2.95 2.95 0 0 0-5.9 0h-1.54v4.14l2.07 2.07h4.83L20 18.17v-4.14h-1.53Z"
    />
  </symbol>
  <symbol id="action-video_available" viewBox="0 0 20 20" fill-rule="evenodd">
    <path
      d="M0 5.47 2.47 3h15.06L20 5.47v9.54l-2.47 2.47H2.47L0 15.01V5.47Zm1.37.57v8.4l1.67 1.67h13.92l1.66-1.67v-8.4l-1.66-1.67H3.04L1.37 6.04Zm12.09 4.2-5.87 3.77V6.47l5.87 3.77Z"
    />
  </symbol>
  <symbol id="action-video_hd" viewBox="0 0 20 20" fill-rule="evenodd">
    <path
      d="M0 4.47 2.47 2h15.06L20 4.47v11.02l-2.47 2.47H2.47L0 15.48V4.47Zm1.37.57v9.88l1.67 1.67h13.92l1.67-1.67V5.04l-1.67-1.67H3.04L1.37 5.04Zm3.44 7.92c0 .02-.02.04-.04.04H3.75c-.03 0-.05-.02-.05-.04V7.04c0-.02.02-.04.05-.04h1.02c.02 0 .04.02.04.04v2.24c0 .11.1.2.22.2h2.89c.12 0 .22-.09.22-.2V7.04c0-.02.02-.04.04-.04H9.2c.02 0 .04.02.04.04v5.92c0 .02-.02.04-.04.04H8.18c-.02 0-.04-.02-.04-.04v-2.24c0-.11-.1-.2-.22-.2H5.03c-.12 0-.22.09-.22.2v2.24Zm10.52-.08A.45.45 0 0 1 15 13h-4.2c-.03 0-.05-.02-.05-.04V7.04c0-.02.02-.04.05-.04H15c.12 0 .23.04.32.12l.84.8a.4.4 0 0 1 .13.29v3.58a.4.4 0 0 1-.13.3l-.84.79Zm-.35-.92h-2.89c-.12 0-.22-.1-.22-.2V8.24c0-.12.1-.2.22-.2h2.89c.12 0 .22.08.22.2v3.52c0 .1-.1.2-.22.2Z"
    />
    <path
      d="M2.47 2v-.1h-.04l-.03.03.07.07ZM0 4.47l-.07-.07-.03.03v.04H0ZM17.53 2l.07-.07-.03-.03h-.04V2ZM20 4.47h.1v-.04l-.03-.03-.07.07Zm0 11.02.07.07.03-.03v-.04H20Zm-2.47 2.47v.1h.04l.03-.03-.07-.07Zm-15.06 0-.07.07.03.03h.04v-.1ZM0 15.48h-.1v.05l.03.02.07-.07Zm1.37-.56h-.1v.04l.03.03.07-.07Zm0-9.88-.07-.08-.03.03v.05h.1Zm1.67 11.55-.07.07.03.03h.04v-.1Zm13.92 0v.1h.05l.02-.03-.07-.07Zm1.67-1.67.07.07.03-.03v-.04h-.1Zm0-9.88h.1v-.05l-.03-.03-.07.08Zm-1.67-1.67.07-.08-.02-.02h-.05v.1Zm-13.92 0v-.1H3l-.03.02.07.08Zm12.29 9.51.06.07-.06-.07Zm0-5.76.07-.07-.07.07Zm.84.8-.07.07.07-.07Zm0 4.16-.07-.07.07.07ZM2.4 1.93-.07 4.4l.14.14 2.47-2.47-.14-.14Zm15.13-.03H2.47v.2h15.06v-.2Zm2.54 2.5L17.6 1.93l-.14.14 2.47 2.47.14-.14Zm.03 11.09V4.47h-.2v11.02h.2Zm-2.5 2.54 2.47-2.47-.14-.14-2.47 2.47.14.14Zm-15.13.03h15.06v-.2H2.47v.2Zm-2.54-2.5 2.47 2.47.14-.14L.07 15.4l-.14.14ZM-.1 4.45v11.02h.2V4.47h-.2Zm1.57 10.46V5.04h-.2v9.88h.2Zm1.64 1.6-1.67-1.67-.14.14 1.67 1.67.14-.14Zm13.85-.03H3.04v.2h13.92v-.2Zm1.6-1.64-1.67 1.67.14.14L18.7 15l-.14-.14Zm-.03-9.81v9.88h.2V5.04h-.2Zm-1.64-1.6 1.67 1.67.14-.15-1.67-1.67-.14.15Zm-13.85.03h13.92v-.2H3.04v.2ZM1.44 5.1 3.1 3.44l-.14-.15L1.3 4.96l.14.15Zm3.33 7.99c.03 0 .07-.01.1-.04a.14.14 0 0 0 .04-.1h-.2c0-.01 0-.03.02-.04a.05.05 0 0 1 .04-.02v.2Zm-1.02 0h1.02v-.2H3.75v.2Zm-.15-.14a.14.14 0 0 0 .15.14v-.2s.02 0 .03.02c.02 0 .02.03.02.04h-.2Zm0-5.92v5.92h.2V7.04h-.2Zm.15-.14a.14.14 0 0 0-.15.14h.2a.06.06 0 0 1-.05.06v-.2Zm1.02 0H3.75v.2h1.02v-.2Zm.14.14a.14.14 0 0 0-.14-.14v.2c-.01 0-.03 0-.04-.02a.06.06 0 0 1-.02-.04h.2Zm0 2.24V7.04h-.2v2.24h.2Zm.12.1c-.07 0-.12-.05-.12-.1h-.2c0 .17.15.3.32.3v-.2Zm2.89 0H5.03v.2h2.89v-.2Zm.12-.1c0 .05-.05.1-.12.1v.2c.17 0 .32-.13.32-.3h-.2Zm0-2.24v2.24h.2V7.04h-.2Zm.14-.14a.14.14 0 0 0-.15.14h.2a.06.06 0 0 1-.05.06v-.2Zm1.02 0H8.18v.2H9.2v-.2Zm.14.14c0-.07-.05-.14-.14-.14v.2a.06.06 0 0 1-.06-.06h.2Zm0 5.92V7.04h-.2v5.92h.2Zm-.14.14c.09 0 .14-.07.14-.14h-.2c0-.02.02-.06.06-.06v.2Zm-1.02 0H9.2v-.2H8.18v.2Zm-.14-.14a.14.14 0 0 0 .14.14v-.2c.01 0 .03 0 .04.02l.02.04h-.2Zm0-2.24v2.24h.2v-2.24h-.2Zm-.12-.1c.07 0 .12.05.12.1h.2c0-.17-.15-.3-.32-.3v.2Zm-2.89 0h2.89v-.2H5.03v.2Zm-.12.1c0-.05.05-.1.12-.1v-.2c-.17 0-.32.13-.32.3h.2Zm0 2.24v-2.24h-.2v2.24h.2Zm10.1.14c.15 0 .28-.05.38-.15l-.13-.14a.35.35 0 0 1-.25.09v.2Zm-4.2 0H15v-.2h-4.2v.2Zm-.15-.14a.14.14 0 0 0 .15.14v-.2s.02 0 .03.02c.02 0 .02.03.02.04h-.2Zm0-5.92v5.92h.2V7.04h-.2Zm.15-.14a.14.14 0 0 0-.15.14h.2c0 .01 0 .03-.02.04a.05.05 0 0 1-.03.02v-.2Zm4.2 0h-4.2v.2H15v-.2Zm.38.15a.55.55 0 0 0-.38-.15v.2c.1 0 .19.03.25.1l.13-.15Zm.85.8-.84-.8-.14.14.84.8.14-.15Zm.16.36a.5.5 0 0 0-.16-.37L16.1 8c.07.06.1.14.1.22h.2Zm0 3.58V8.21h-.2v3.58h.2Zm-.16.37a.5.5 0 0 0 .16-.37h-.2a.3.3 0 0 1-.1.22l.14.15Zm-.84.8.84-.8-.14-.15-.84.8.14.14Zm-3.3-.9h2.88v-.2h-2.89v.2Zm-.33-.3c0 .17.15.3.32.3v-.2c-.07 0-.12-.05-.12-.1h-.2Zm0-3.52v3.52h.2V8.24h-.2Zm.32-.3c-.16 0-.32.12-.32.3h.2c0-.05.05-.1.12-.1v-.2Zm2.89 0h-2.89v.2h2.89v-.2Zm.32.3c0-.18-.16-.3-.32-.3v.2c.07 0 .12.05.12.1h.2Zm0 3.52V8.24h-.2v3.52h.2Zm-.32.3c.16 0 .32-.13.32-.3h-.2c0 .05-.05.1-.12.1v.2Z"
    />
  </symbol>
  <symbol id="action-video_chromecast" viewBox="0 0 20 20" fill-rule="evenodd">
    <path
      d="M2.44 2.8h15.08L20 5.28v9.55l-2.47 2.48h-5.58c-.03-.47-.1-.93-.18-1.38h5.19l1.66-1.67V5.85l-1.67-1.67H3.01L1.69 5.5C1.14 5.38.57 5.29 0 5.24L2.44 2.8ZM0 8.65V7.27c5.26.55 9.44 4.77 9.93 10.04H8.56A9.81 9.81 0 0 0 0 8.65Zm0 2.05v1.38a6.4 6.4 0 0 1 5.12 5.23H6.5a7.77 7.77 0 0 0-6.5-6.6Zm0 4.94V14.2a4.35 4.35 0 0 1 3.02 3.1H1.6A3 3 0 0 0 0 15.65Z"
    />
  </symbol>
  <symbol id="action-video_airplay" viewBox="0 0 20 20" fill-rule="evenodd">
    <path
      d="M0 3.77 2.47 1.3h15.06L20 3.77v9.54l-2.47 2.47H15.3l-1.17-1.37h2.83l1.66-1.67v-8.4l-1.66-1.67H3.04L1.37 4.34v8.4l1.67 1.67h2.8l-1.16 1.37H2.47L0 13.31V3.77Zm15.85 14.77H4.13l5.86-6.9 5.86 6.9Z"
    />
  </symbol>
  <symbol id="action-video_pip" viewBox="0 0 20 20" fill-rule="evenodd">
    <path
      d="M0 4.47 2.47 2h15.06L20 4.47v11.02l-2.47 2.47H2.47L0 15.48V4.47Zm1.37.57v9.88l1.67 1.67h13.92l1.67-1.67V5.04l-1.67-1.67H3.04L1.37 5.04ZM16 9H9v5h7V9Z"
    />
  </symbol>
  <symbol id="action-video_chapters" viewBox="0 0 20 20" fill-rule="evenodd">
    <path
      d="M10 7.68a2.32 2.32 0 1 0 0 4.64 2.32 2.32 0 0 0 0-4.64ZM10 11a1 1 0 1 1 0-2 1 1 0 0 1 0 2ZM10 1.36A2.32 2.32 0 1 0 10 6a2.32 2.32 0 0 0 0-4.64Zm0 3.31a1 1 0 0 1 0-2 1 1 0 0 1 0 2ZM10 14a2.32 2.32 0 1 0 0 4.65A2.32 2.32 0 0 0 10 14Zm0 3.32a1 1 0 1 1 0-2 1 1 0 0 1 0 2Z"
    />
  </symbol>
</svg>
