<svg xmlns="http://www.w3.org/2000/svg" xmlns:xlink="http://www.w3.org/1999/xlink" style="display: none">
  <symbol id="incident-goal_soccer" viewBox="0 0 20 20" fill-rule="evenodd">
    <path
      d="M17 2.93a9.96 9.96 0 1 0-14.08 14.1A9.96 9.96 0 0 0 17 2.92Zm.41 2.77a8.5 8.5 0 0 1 1.1 3.43L16.66 8.1l.75-2.4Zm-1.37-1.8.37.4-1.11 3.57-1.33.4-3.32-2.41V4.5l3.16-2.2a8.6 8.6 0 0 1 2.22 1.6ZM9.96 1.4c.78-.01 1.55.1 2.3.3l-2.3 1.6-2.3-1.6c.75-.2 1.52-.31 2.3-.3ZM3.9 3.9a8.6 8.6 0 0 1 2.22-1.6l3.16 2.2v1.36l-3.32 2.4-1.32-.4L3.52 4.3l.37-.4ZM2.52 5.7l.75 2.4-1.85 1.03a8.5 8.5 0 0 1 1.1-3.43Zm1.37 10.35-.22-.23H5.7l.65 1.95a8.6 8.6 0 0 1-2.45-1.72Zm2.01-1.6H2.63A8.5 8.5 0 0 1 1.4 10.7l2.75-1.55 1.41.43 1.28 3.91-.95.95Zm6.05 3.89c-1.3.3-2.66.3-3.97 0l-1.01-3.02 1.1-1.1h3.79l1.1 1.1-1.01 3.02Zm-.07-5.44H8.05L6.86 9.25 9.96 7l3.1 2.25-1.18 3.65Zm4.15 3.15a8.6 8.6 0 0 1-2.45 1.72l.66-1.94h2.01l-.22.22Zm-2-1.6-.95-.95 1.27-3.91 1.41-.43 2.76 1.55a8.5 8.5 0 0 1-1.22 3.74h-3.27Z"
    />
  </symbol>
  <symbol id="incident-goal_soccer-own" viewBox="0 0 20 20" fill-rule="evenodd">
    <path
      fill="#dc0000"
      d="M17 2.93a9.96 9.96 0 1 0-14.08 14.1A9.96 9.96 0 0 0 17 2.92Zm.41 2.77a8.5 8.5 0 0 1 1.1 3.43L16.66 8.1l.75-2.4Zm-1.37-1.8.37.4-1.11 3.57-1.33.4-3.32-2.41V4.5l3.16-2.2a8.6 8.6 0 0 1 2.22 1.6ZM9.96 1.4c.78-.01 1.55.1 2.3.3l-2.3 1.6-2.3-1.6c.75-.2 1.52-.31 2.3-.3ZM3.9 3.9a8.6 8.6 0 0 1 2.22-1.6l3.16 2.2v1.36l-3.32 2.4-1.32-.4L3.52 4.3l.37-.4ZM2.52 5.7l.75 2.4-1.85 1.03a8.5 8.5 0 0 1 1.1-3.43Zm1.37 10.35-.22-.23H5.7l.65 1.95a8.6 8.6 0 0 1-2.45-1.72Zm2.01-1.6H2.63A8.5 8.5 0 0 1 1.4 10.7l2.75-1.55 1.41.43 1.28 3.91-.95.95Zm6.05 3.89c-1.3.3-2.66.3-3.97 0l-1.01-3.02 1.1-1.1h3.79l1.1 1.1-1.01 3.02Zm-.07-5.44H8.05L6.86 9.25 9.96 7l3.1 2.25-1.18 3.65Zm4.15 3.15a8.6 8.6 0 0 1-2.45 1.72l.66-1.94h2.01l-.22.22Zm-2-1.6-.95-.95 1.27-3.91 1.41-.43 2.76 1.55a8.5 8.5 0 0 1-1.22 3.74h-3.27Z"
    />
  </symbol>
  <symbol id="incident-goal_hockey" viewBox="0 0 20 20" fill-rule="evenodd">
    <path
      d="m19.88 9.18-1.9-5.35c-.4-1.13-1.77-1.78-3.85-1.83-1.85-.04-4.14.39-6.43 1.2a18.81 18.81 0 0 0-5.75 3.13C.37 7.68-.29 9.05.12 10.18l1.9 5.35c.4 1.13 1.77 1.78 3.85 1.82h.25c1.81 0 4-.42 6.18-1.2a18.8 18.8 0 0 0 5.75-3.13c1.58-1.35 2.24-2.71 1.83-3.84ZM2.84 7.38c1.29-1.1 3.18-2.13 5.32-2.89a17.78 17.78 0 0 1 5.94-1.12c1.41.03 2.4.38 2.6.91.37 1.05-2.02 3.55-6.76 5.23-4.73 1.69-8.16 1.26-8.54.2-.18-.52.36-1.42 1.44-2.34Zm9 7.48a17.42 17.42 0 0 0 5.32-2.88c1.08-.91 1.63-1.81 1.44-2.35l-1.18-3.31c-1.26 1.75-4.1 3.44-7.02 4.48-2.08.74-4.33 1.2-6.2 1.2-.77 0-1.47-.08-2.07-.24l1.18 3.31c.19.53 1.18.88 2.59.92 1.7.02 3.8-.37 5.94-1.13Z"
    />
  </symbol>
  <symbol id="incident-goal_handball" viewBox="0 0 20 20" fill-rule="evenodd">
    <path
      d="m14.55 17.33-1.26-.92.45-2.72 2.43-1.24 1.65 1.2a8.68 8.68 0 0 1-3.27 3.68ZM6.8 18l.84-.61h4.69l.85.62a8.58 8.58 0 0 1-6.38 0Zm-4.62-4.38 1.6-1.17 2.45 1.23.45 2.72-1.25.9a8.68 8.68 0 0 1-3.25-3.68ZM5.44 2.69l1.24.9-.45 2.72-.14.07-2.3 1.17-1.61-1.18A8.67 8.67 0 0 1 5.44 2.7Zm7.74-.71-.86.62H7.64L6.8 2a8.58 8.58 0 0 1 6.38-.01Zm4.64 4.38-1.65 1.2-2.43-1.25-.45-2.72 1.26-.91a8.67 8.67 0 0 1 3.27 3.68ZM8 16.03l-.4-2.4.56-.3 1.81-.91 2.39 1.2-.4 2.41H8ZM4.4 8.8l2.19-1.12.27-.14 2.43 1.24v2.46l-2.43 1.24-2.46-1.25V8.79Zm7.58-4.82.39 2.4-1.9.97-.49.24-2.36-1.2.4-2.41h3.96Zm1.14 3.56 2.44 1.24v2.46l-2.44 1.24-2.45-1.24V8.77l.42-.22 2.03-1.02ZM1.37 10c0-.8.11-1.56.32-2.3l1.33.98v2.64l-1.33.97A8.6 8.6 0 0 1 1.37 10Zm17.26 0c0 .8-.12 1.58-.32 2.31l-1.4-1.01V8.7l1.4-1.01c.2.73.32 1.5.32 2.31ZM10 0a10.01 10.01 0 0 0 0 20 10.01 10.01 0 0 0 0-20Z"
    />
  </symbol>
  <symbol id="incident-goal_hockey-alt" viewBox="0 0 20 20" fill-rule="evenodd">
    <path
      d="M10.06 10.5c4.8-1.3 8.3-3.85 7.8-5.72-.5-1.87-4.8-2.34-9.6-1.05-4.8 1.29-8.3 3.84-7.8 5.71.5 1.87 4.8 2.34 9.6 1.05Zm-3.18 2.02c-2.3.25-4.32.07-5.74-.56l1 3.76c.5 1.87 4.8 2.34 9.6 1.05 4.8-1.29 8.3-3.84 7.8-5.71L18.52 7.3c-.92 1.26-2.58 2.43-4.69 3.35l-.53.23a24.26 24.26 0 0 1-5.86 1.57l-.57.07Z"
    />
  </symbol>
  <symbol id="incident-goal_floorball" viewBox="0 0 20 20" fill-rule="evenodd">
    <path
      d="M14.132 5.853c.54.537 1.417.537 1.959 0a1.385 1.385 0 0 0 0-1.956 1.385 1.385 0 0 0-.98-.403 1.38 1.38 0 0 0-.98 2.359Zm-8.31 0a1.383 1.383 0 1 0-1.956 0 1.39 1.39 0 0 0 1.957 0Zm-1.96 10.24.005.006.006.005a1.389 1.389 0 0 0 1.95-.003 1.383 1.383 0 1 0-1.958-1.956 1.38 1.38 0 0 0-.003 1.947Zm13.2-2.92h.002c.234.235.412.506.547.796a8.497 8.497 0 0 0 .752-1.964c-.01-.01-.023-.018-.034-.026a.301.301 0 0 1-.036-.028 2.755 2.755 0 0 1-.002-3.9c.011-.01.025-.02.038-.03a.377.377 0 0 0 .034-.028 8.464 8.464 0 0 0-.751-1.966 2.755 2.755 0 0 1-.548.796 2.759 2.759 0 0 1-1.952.806 2.756 2.756 0 0 1-1.952-4.703c.236-.236.509-.411.796-.544a8.547 8.547 0 0 0-1.974-.748.343.343 0 0 0-.026.032.362.362 0 0 1-.028.035 2.748 2.748 0 0 1-1.95.804 2.755 2.755 0 0 1-1.952-.806.325.325 0 0 1-.03-.036l-.023-.03a8.598 8.598 0 0 0-1.984.756 2.6 2.6 0 0 1 .808.537c.522.52.809 1.212.809 1.948a2.73 2.73 0 0 1-.81 1.949 2.743 2.743 0 0 1-1.951.807 2.745 2.745 0 0 1-1.953-.807 2.763 2.763 0 0 1-.544-.79A8.495 8.495 0 0 0 1.6 8.002c.01.01.022.02.034.028.01.008.021.016.03.025a2.757 2.757 0 0 1-.001 3.895l-.031.024a.29.29 0 0 0-.031.025c.162.679.419 1.334.747 1.965.135-.288.312-.557.544-.79a2.771 2.771 0 0 1 3.905 0c.522.52.809 1.213.809 1.95a2.73 2.73 0 0 1-.81 1.948c-.236.237-.51.412-.797.545a8.52 8.52 0 0 0 1.973.752c.01-.01.019-.023.027-.035.01-.013.019-.025.03-.036a2.74 2.74 0 0 1 1.947-.806c.739 0 1.432.289 1.954.809.01.01.02.023.029.035a.446.446 0 0 0 .026.033 8.5 8.5 0 0 0 1.974-.752 2.713 2.713 0 0 1-1.61-2.493 2.763 2.763 0 0 1 4.713-1.949Zm-.976 2.93.005-.004.005-.007a1.382 1.382 0 0 0-.005-1.947 1.385 1.385 0 0 0-.98-.403 1.38 1.38 0 0 0-.98 2.359 1.391 1.391 0 0 0 1.955.002ZM20 9.999a9.922 9.922 0 0 1-2.942 7.077l-.004.003a9.96 9.96 0 0 1-7.075 2.92 9.96 9.96 0 0 1-7.075-2.92l-.011-.008a2.676 2.676 0 0 1-.355-.436 9.95 9.95 0 0 1 .004-13.28c.083-.125.183-.24.287-.352a.328.328 0 0 0 .031-.039.338.338 0 0 1 .033-.04c3.91-3.9 10.265-3.897 14.172 0A9.93 9.93 0 0 1 20 10Zm-11.001.978c.54.537 1.417.537 1.959 0a1.385 1.385 0 0 0 0-1.956 1.385 1.385 0 0 0-.98-.403 1.38 1.38 0 0 0-.98 2.359ZM8.027 8.05a2.765 2.765 0 0 1 3.903 0c.522.52.809 1.212.809 1.949a2.759 2.759 0 0 1-2.76 2.754A2.756 2.756 0 0 1 8.027 8.05Z"
    />
  </symbol>
  <symbol id="incident-goal_futsal" viewBox="0 0 20 20" fill-rule="evenodd">
    <path
      d="M17 2.93a9.96 9.96 0 1 0-14.08 14.1A9.96 9.96 0 0 0 17 2.92Zm.41 2.77a8.5 8.5 0 0 1 1.1 3.43L16.66 8.1l.75-2.4Zm-1.37-1.8.37.4-1.11 3.57-1.33.4-3.32-2.41V4.5l3.16-2.2a8.6 8.6 0 0 1 2.22 1.6ZM9.96 1.4c.78-.01 1.55.1 2.3.3l-2.3 1.6-2.3-1.6c.75-.2 1.52-.31 2.3-.3ZM3.9 3.9a8.6 8.6 0 0 1 2.22-1.6l3.16 2.2v1.36l-3.32 2.4-1.32-.4L3.52 4.3l.37-.4ZM2.52 5.7l.75 2.4-1.85 1.03a8.5 8.5 0 0 1 1.1-3.43Zm1.37 10.35-.22-.23H5.7l.65 1.95a8.6 8.6 0 0 1-2.45-1.72Zm2.01-1.6H2.63A8.5 8.5 0 0 1 1.4 10.7l2.75-1.55 1.41.43 1.28 3.91-.95.95Zm6.05 3.89c-1.3.3-2.66.3-3.97 0l-1.01-3.02 1.1-1.1h3.79l1.1 1.1-1.01 3.02Zm-.07-5.44H8.05L6.86 9.25 9.96 7l3.1 2.25-1.18 3.65Zm4.15 3.15a8.6 8.6 0 0 1-2.45 1.72l.66-1.94h2.01l-.22.22Zm-2-1.6-.95-.95 1.27-3.91 1.41-.43 2.76 1.55a8.5 8.5 0 0 1-1.22 3.74h-3.27Z"
    />
  </symbol>
  <symbol id="incident-goal_aussie-ball" viewBox="0 0 20 20" fill-rule="evenodd">
    <path
      d="M17.7 9.61a15.89 15.89 0 0 1-3.37 4.73 15.84 15.84 0 0 1-4.72 3.37c-1.37.6-2.77.9-4.14.9-.33 0-.65-.02-.95-.06 2.1-.83 5.2-2.42 8.29-5.41l.17-.16a25.18 25.18 0 0 0 5.54-8.66c.07.43.1.89.1 1.39-.04 1.3-.34 2.6-.91 3.9ZM2.12 10.85l1.08 1.08.99-.98L2.74 9.5c.22-.41.47-.82.74-1.23l1.68 1.68.98-.98-1.82-1.82c.29-.35.6-.7.92-1.05L7.13 8l.98-.98-1.89-1.89c.35-.32.7-.62 1.06-.9l1.8 1.8.99-.98L8.41 3.4c.41-.27.83-.52 1.24-.73l1.4 1.4.99-.98L11 2.05c1.1-.4 2.2-.64 3.29-.67a8.25 8.25 0 0 1 3.5.67A23.09 23.09 0 0 1 2.1 17.9a8.55 8.55 0 0 1-.73-3.6c.03-1.14.29-2.3.73-3.44Zm16.92-9.6-.1-.18-.18-.1c-.08-.04-1.91-1-4.5-.97a11.7 11.7 0 0 0-4.42 1.03c-1.77.78-3.5 2-5.15 3.66a17.22 17.22 0 0 0-3.65 5.14A11.67 11.67 0 0 0 0 14.25a9.67 9.67 0 0 0 .97 4.5l.1.18.18.1c.03 0 .29.14.71.3v.02h.02c.74.28 1.99.65 3.5.65 1.56 0 3.14-.35 4.69-1.03 1.77-.78 3.5-2 5.15-3.66a17.2 17.2 0 0 0 3.65-5.14A11.7 11.7 0 0 0 20 5.74a9.69 9.69 0 0 0-.97-4.49Z"
    />
  </symbol>
  <symbol id="incident-goal_goalkeeper" viewBox="0 0 20 20" fill-rule="evenodd">
    <path
      d="m18.84 10.46-.89-.41-1.75.65 3.19-3.44.18-.46c0-.19-.63-.92-1.89-2.2h-.97l-3.93 4.02 4.4-5.51.15-.43c0-.23-.75-.89-2.24-1.97l-.94.13L9.9 6.2 12.25 2l.08-.34c0-.26-.74-.82-2.22-1.67l-.94.25-3.36 5.93-.2-2.87-.74-.64-2.72.27-.62.7.24 5.83-.32 1.1-.05 2.6-1.08 1.74.15.9 5.14 4.16.82.03 2.3-1.57 3.64-2 6.9-2.8.35-.32c.09-.17-.17-1.12-.78-2.85ZM6.08 18.6 1.8 15.12l.77-1.24 4.7 3.9c-.56.38-.94.64-1.2.8Zm5.7-3.38L8.48 17l-5.7-4.74v-1.41l.33-1.1.03-.23-.22-5.3L4.3 4.1l.2 3.09.57.63.77.14.72-.34 3.46-6.1.7.41-2.49 4.48.26.92 1.04.61.88-.16 4.4-5.58.85.62L11 8.65l.1.95.96.8.93-.04 4.2-4.31.75.76-4.32 4.67-.1.78.12.23.84.32 3.3-1.24.37 1.05-6.36 2.58Z"
    />
  </symbol>
</svg>
