<svg xmlns="http://www.w3.org/2000/svg" xmlns:xlink="http://www.w3.org/1999/xlink" style="display: none">
    <symbol id="other-cycling_light-grey" viewBox="0 0 20 20" fill-rule="evenodd">
        <path
                fill="#c8cdcd"
                d="m13.25 1.1 3.6 2.04L20 7.26l-3.14 2.26-1.55-1.84V19.1H4.61V7.85L3.13 9.52 0 7.26l3.14-4.12L6.73 1.1h6.52Z"
        />
        <path fill="black" fill-opacity="0.15" d="M7 1.1c.59 2.11 1.02 4 3 4s2.44-1.89 3-4H7Z" />
    </symbol>
    <symbol id="other-cycling_grey" viewBox="0 0 20 20" fill-rule="evenodd">
        <path
                fill="#999999"
                d="m13.25 1.1 3.6 2.04L20 7.26l-3.14 2.26-1.55-1.84V19.1H4.61V7.85L3.13 9.52 0 7.26l3.14-4.12L6.73 1.1h6.52Z"
        />
        <path fill="black" fill-opacity="0.15" d="M7 1.1c.59 2.11 1.02 4 3 4s2.44-1.89 3-4H7Z" />
    </symbol>
    <symbol id="other-cycling_dark-grey" viewBox="0 0 20 20" fill-rule="evenodd">
        <path
                fill="#555e61"
                d="m13.25 1.1 3.6 2.04L20 7.26l-3.14 2.26-1.55-1.84V19.1H4.61V7.85L3.13 9.52 0 7.26l3.14-4.12L6.73 1.1h6.52Z"
        />
        <path fill="black" fill-opacity="0.4" d="M7 1.1c.59 2.11 1.02 4 3 4s2.44-1.89 3-4H7Z" />
    </symbol>
    <symbol id="other-cycling_yellow" viewBox="0 0 20 20" fill-rule="evenodd">
        <path
                fill="#f4d42c"
                d="m13.25 1.1 3.6 2.04L20 7.26l-3.14 2.26-1.55-1.84V19.1H4.61V7.85L3.13 9.52 0 7.26l3.14-4.12L6.73 1.1h6.52Z"
        />
        <path fill="black" fill-opacity="0.15" d="M7 1.1c.59 2.11 1.02 4 3 4s2.44-1.89 3-4H7Z" />
    </symbol>
    <symbol id="other-cycling_yellow-2" viewBox="0 0 20 20" fill-rule="evenodd">
        <path
                fill="#fcb008"
                d="m13.25 1.1 3.6 2.04L20 7.26l-3.14 2.26-1.55-1.84V19.1H4.61V7.85L3.13 9.52 0 7.26l3.14-4.12L6.73 1.1h6.52Z"
        />
        <path fill="black" fill-opacity="0.15" d="M7 1.1c.59 2.11 1.02 4 3 4s2.44-1.89 3-4H7Z" />
    </symbol>
    <symbol id="other-cycling_orange" viewBox="0 0 20 20" fill-rule="evenodd">
        <path
                fill="#ee6e05"
                d="m13.25 1.1 3.6 2.04L20 7.26l-3.14 2.26-1.55-1.84V19.1H4.61V7.85L3.13 9.52 0 7.26l3.14-4.12L6.73 1.1h6.52Z"
        />
        <path fill="black" fill-opacity="0.2" d="M7 1.1c.59 2.11 1.02 4 3 4s2.44-1.89 3-4H7Z" />
    </symbol>
    <symbol id="other-cycling_red" viewBox="0 0 20 20" fill-rule="evenodd">
        <path
                fill="#ee171d"
                d="m13.25 1.1 3.6 2.04L20 7.26l-3.14 2.26-1.55-1.84V19.1H4.61V7.85L3.13 9.52 0 7.26l3.14-4.12L6.73 1.1h6.52Z"
        />
        <path fill="black" fill-opacity="0.25" d="M7 1.1c.59 2.11 1.02 4 3 4s2.44-1.89 3-4H7Z" />
    </symbol>
    <symbol id="other-cycling_pink" viewBox="0 0 20 20" fill-rule="evenodd">
        <path
                fill="#f08df4"
                d="m13.25 1.1 3.6 2.04L20 7.26l-3.14 2.26-1.55-1.84V19.1H4.61V7.85L3.13 9.52 0 7.26l3.14-4.12L6.73 1.1h6.52Z"
        />
        <path fill="black" fill-opacity="0.2" d="M7 1.1c.59 2.11 1.02 4 3 4s2.44-1.89 3-4H7Z" />
    </symbol>
    <symbol id="other-cycling_aqua" viewBox="0 0 20 20" fill-rule="evenodd">
        <path
                fill="#13baf3"
                d="m13.25 1.1 3.6 2.04L20 7.26l-3.14 2.26-1.55-1.84V19.1H4.61V7.85L3.13 9.52 0 7.26l3.14-4.12L6.73 1.1h6.52Z"
        />
        <path fill="black" fill-opacity="0.2" d="M7 1.1c.59 2.11 1.02 4 3 4s2.44-1.89 3-4H7Z" />
    </symbol>
    <symbol id="other-cycling_blue" viewBox="0 0 20 20" fill-rule="evenodd">
        <path
                fill="#1d46f8"
                d="m13.25 1.1 3.6 2.04L20 7.26l-3.14 2.26-1.55-1.84V19.1H4.61V7.85L3.13 9.52 0 7.26l3.14-4.12L6.73 1.1h6.52Z"
        />
        <path fill="black" fill-opacity="0.4" d="M7 1.1c.59 2.11 1.02 4 3 4s2.44-1.89 3-4H7Z" />
    </symbol>
    <symbol id="other-cycling_green" viewBox="0 0 20 20" fill-rule="evenodd">
        <path
                fill="#6edb3c"
                d="m13.25 1.1 3.6 2.04L20 7.26l-3.14 2.26-1.55-1.84V19.1H4.61V7.85L3.13 9.52 0 7.26l3.14-4.12L6.73 1.1h6.52Z"
        />
        <path fill="black" fill-opacity="0.2" d="M7 1.1c.59 2.11 1.02 4 3 4s2.44-1.89 3-4H7Z" />
    </symbol>
    <symbol id="other-cycling_red-dots" viewBox="0 0 20 20" fill-rule="evenodd">
        <path
                fill="#ffffff"
                d="M17.5,5l-1-1.4l-0.2-0.1l-3.2-1.9H7L5,2.8L3.7,3.5L2.6,5L1.2,6.7L0.7,7.5L1.5,8l0.9,0.6l0.3,0.2l1,0.7L5,8.3v10.4h10V8.3l1.4,1.3l1.1-0.8l0.1-0.1l1.7-1.3L17.5,5z"
        />
        <path
                fill="#b0b0b0"
                d="M17.5,5l-1-1.4l-0.2-0.1l-3.2-1.9H7L5,2.8L3.7,3.5L2.6,5L1.2,6.7L0.7,7.5L1.5,8l0.9,0.6l0.3,0.2l1,0.7L5,8.3v10.4h10V8.3l1.4,1.3l1.1-0.8l0.1-0.1l1.7-1.3L17.5,5z M16.6,8.2L16.6,8.2L14,6v11.7H6V6L5,7L3.5,8.3L2.1,7.2L3.8,5l0.5-0.7l0.8-0.4l2.2-1.3h5.5l3,1.7l0.1,0.1l0.8,1l0,0L18,7.2L16.6,8.2z"
        />
        <g fill="#ee171d">
            <path
                    d="M5,6.5v0.8c0,0.8-0.7,1.5-1.5,1.5H2.7L2.4,8.6L1.5,8C1.3,7.8,1.2,7.5,1.2,7.2V6.7L2.6,5c0,0,0.1,0,0.2,0h1.1C4.5,5.1,5,5.8,5,6.5z"
            />
            <path
                    d="M8.7,2.7v0.8C8.7,4.3,8.1,5,7.2,5H6.5C5.8,5,5.2,4.5,5.1,3.9C5,3.7,5,3.6,5,3.5V2.8l2-1.1h1.3C8.6,1.7,8.7,2.7,8.7,2.7z"
            />
            <path
                    d="M10.2,5H11c0.8,0,1.5,0.7,1.5,1.5v0.8c0,0.8-0.7,1.5-1.5,1.5h-0.8c-0.8,0-1.5-0.7-1.5-1.5V6.5C8.7,5.7,9.4,5,10.2,5z"
            />
            <path
                    d="M16.2,3.5c0,0.4-0.1,0.7-0.4,1C15.6,4.8,15.2,5,14.7,5H14c-0.8,0-1.5-0.7-1.5-1.5V2.7V2.6c0-0.4,0.2-0.8,0.5-1h0.1L16.2,3.5z"
            />
            <path
                    d="M19.3,7.4l-1.7,1.3l-0.1,0.1c-0.3,0-0.6-0.2-0.8-0.5c0,0,0-0.1-0.1-0.1c-0.2-0.3-0.3-0.5-0.3-0.9V6.5c0-0.4,0.2-0.7,0.4-1c0,0,0,0,0,0C16.9,5.2,17.2,5,17.5,5L19.3,7.4z"
            />
            <path
                    d="M6.5,8.7h0.8c0.8,0,1.5,0.7,1.5,1.5V11c0,0.8-0.7,1.5-1.5,1.5H6.5C5.7,12.5,5,11.8,5,11v-0.8C5,9.4,5.7,8.7,6.5,8.7z"
            />
            <path
                    d="M10.2,12.5H11c0.8,0,1.5,0.7,1.5,1.5v0.8c0,0.8-0.7,1.5-1.5,1.5h-0.8c-0.8,0-1.5-0.7-1.5-1.5V14C8.7,13.2,9.4,12.5,10.2,12.5z"
            />
            <path
                    d="M15,8.8v3.7c-0.1,0-0.2,0-0.2,0H14c-0.8,0-1.5-0.7-1.5-1.5v-0.8c0-0.8,0.7-1.5,1.5-1.5h0.8C14.8,8.7,14.9,8.7,15,8.8z"
            />
            <path
                    d="M8.7,17.7v0.8c0,0.1,0,0.1,0,0.2H5c0-0.1,0-0.1,0-0.2v-0.8c0-0.7,0.4-1.2,1-1.4c0.2-0.1,0.3-0.1,0.5-0.1h0.8C8.1,16.2,8.7,16.9,8.7,17.7z"
            />
            <path d="M15,16.3v2.4h-2.5c0-0.1,0-0.1,0-0.2v-0.8c0-0.8,0.7-1.5,1.5-1.5h0.8C14.8,16.2,14.9,16.2,15,16.3z" />
        </g>
        <path
                fill="#000000"
                fill-rule="nonzero"
                d="M7,1.6C7.6,3.4,8,5,10,5s2.5-1.6,3-3.4C13,1.6,7,1.6,7,1.6z"
                opacity=".15"
        />
    </symbol>
    <symbol id="other-cycling_blue-dots" viewBox="0 0 20 20" fill-rule="evenodd">
        <path
                fill="#ffffff"
                d="M17.5,5l-1-1.4l-0.2-0.1l-3.2-1.9H7L5,2.8L3.7,3.5L2.6,5L1.2,6.7L0.7,7.5L1.5,8l0.9,0.6l0.3,0.2l1,0.7L5,8.3v10.4h10V8.3l1.4,1.3l1.1-0.8l0.1-0.1l1.7-1.3L17.5,5z"
        />
        <path
                fill="#b0b0b0"
                d="M17.5,5l-1-1.4l-0.2-0.1l-3.2-1.9H7L5,2.8L3.7,3.5L2.6,5L1.2,6.7L0.7,7.5L1.5,8l0.9,0.6l0.3,0.2l1,0.7L5,8.3v10.4h10V8.3l1.4,1.3l1.1-0.8l0.1-0.1l1.7-1.3L17.5,5z M16.6,8.2L16.6,8.2L14,6v11.7H6V6L5,7L3.5,8.3L2.1,7.2L3.8,5l0.5-0.7l0.8-0.4l2.2-1.3h5.5l3,1.7l0.1,0.1l0.8,1l0,0L18,7.2L16.6,8.2z"
        />
        <g fill="#1d8bf8">
            <path
                    d="M5,6.5v0.8c0,0.8-0.7,1.5-1.5,1.5H2.7L2.4,8.6L1.5,8C1.3,7.8,1.2,7.5,1.2,7.2V6.7L2.6,5c0,0,0.1,0,0.2,0h1.1C4.5,5.1,5,5.8,5,6.5z"
            />
            <path
                    d="M8.7,2.7v0.8C8.7,4.3,8.1,5,7.2,5H6.5C5.8,5,5.2,4.5,5.1,3.9C5,3.7,5,3.6,5,3.5V2.8l2-1.1h1.3C8.6,1.7,8.7,2.7,8.7,2.7z"
            />
            <path
                    d="M10.2,5H11c0.8,0,1.5,0.7,1.5,1.5v0.8c0,0.8-0.7,1.5-1.5,1.5h-0.8c-0.8,0-1.5-0.7-1.5-1.5V6.5C8.7,5.7,9.4,5,10.2,5z"
            />
            <path
                    d="M16.2,3.5c0,0.4-0.1,0.7-0.4,1C15.6,4.8,15.2,5,14.7,5H14c-0.8,0-1.5-0.7-1.5-1.5V2.7V2.6c0-0.4,0.2-0.8,0.5-1h0.1L16.2,3.5z"
            />
            <path
                    d="M19.3,7.4l-1.7,1.3l-0.1,0.1c-0.3,0-0.6-0.2-0.8-0.5c0,0,0-0.1-0.1-0.1c-0.2-0.3-0.3-0.5-0.3-0.9V6.5c0-0.4,0.2-0.7,0.4-1c0,0,0,0,0,0C16.9,5.2,17.2,5,17.5,5L19.3,7.4z"
            />
            <path
                    d="M6.5,8.7h0.8c0.8,0,1.5,0.7,1.5,1.5V11c0,0.8-0.7,1.5-1.5,1.5H6.5C5.7,12.5,5,11.8,5,11v-0.8C5,9.4,5.7,8.7,6.5,8.7z"
            />
            <path
                    d="M10.2,12.5H11c0.8,0,1.5,0.7,1.5,1.5v0.8c0,0.8-0.7,1.5-1.5,1.5h-0.8c-0.8,0-1.5-0.7-1.5-1.5V14C8.7,13.2,9.4,12.5,10.2,12.5z"
            />
            <path
                    d="M15,8.8v3.7c-0.1,0-0.2,0-0.2,0H14c-0.8,0-1.5-0.7-1.5-1.5v-0.8c0-0.8,0.7-1.5,1.5-1.5h0.8C14.8,8.7,14.9,8.7,15,8.8z"
            />
            <path
                    d="M8.7,17.7v0.8c0,0.1,0,0.1,0,0.2H5c0-0.1,0-0.1,0-0.2v-0.8c0-0.7,0.4-1.2,1-1.4c0.2-0.1,0.3-0.1,0.5-0.1h0.8C8.1,16.2,8.7,16.9,8.7,17.7z"
            />
            <path d="M15,16.3v2.4h-2.5c0-0.1,0-0.1,0-0.2v-0.8c0-0.8,0.7-1.5,1.5-1.5h0.8C14.8,16.2,14.9,16.2,15,16.3z" />
        </g>
        <path
                fill="#000000"
                fill-rule="nonzero"
                d="M7,1.6C7.6,3.4,8,5,10,5s2.5-1.6,3-3.4C13,1.6,7,1.6,7,1.6z"
                opacity=".15"
        />
    </symbol>
    <symbol id="other-cycling_rainbow" viewBox="0 0 20 20" fill-rule="evenodd">
        <g clip-path="url(#clip-a)">
            <path
                    fill="#DFDFDF"
                    d="m13.25 1.1 3.6 2.04L20 7.25l-3.14 2.26-1.55-1.84V19.1H4.62V7.83L3.13 9.5 0 7.26l3.14-4.12L6.73 1.1h6.52z"
            />
            <path fill="#000" fill-opacity=".15" d="M7 1.1c.59 2.11 1.02 4 3 4s2.44-1.89 3-4H7z" />
        </g>
        <path fill="#1B84E5" d="M4.7 9.83h10.52V8.52H4.7v1.31z" />
        <path fill="#E71B1F" d="M4.7 11.15h10.52V9.83H4.7v1.32z" />
        <path fill="#171717" d="M4.7 12.46h10.52v-1.31H4.7v1.31z" />
        <path fill="#FECE29" d="M4.7 13.78h10.52v-1.32H4.7v1.32z" />
        <path fill="#66A400" d="M4.7 15.1h10.52v-1.32H4.7v1.32z" />
        <defs>
            <clipPath id="other-cycling_clip-a"><path fill="#fff" d="M0 1h20v19H0z" /></clipPath>
        </defs>
    </symbol>
</svg>
