<svg xmlns="http://www.w3.org/2000/svg" xmlns:xlink="http://www.w3.org/1999/xlink" style="display: none">
  <symbol id="other-social_facebook" viewBox="0 0 20 20" fill-rule="evenodd">
    <path
      d="M20 10.06C20 4.71 15.83.29 10.52.01a10.02 10.02 0 0 0-10.46 9A10.05 10.05 0 0 0 8.44 20v-7.03H5.9v-2.91h2.54V7.84c0-2.52 1.5-3.91 3.77-3.91.75 0 1.5.08 2.24.2V6.6H13.2a1.46 1.46 0 0 0-1.63 1.57v1.89h2.78l-.45 2.9h-2.33V20A10.04 10.04 0 0 0 20 10.06Z"
    />
  </symbol>
  <symbol id="other-social_twitter" viewBox="0 0 20 20" fill-rule="evenodd">
    <path
      d="M15.75 1h3.07l-6.7 7.66L20 19.08h-6.17l-4.84-6.32-5.53 6.32H.4l7.16-8.2L0 1h6.33l4.37 5.78L15.75 1Zm-1.07 16.24h1.7L5.4 2.74H3.58l11.1 14.5Z"
    />
  </symbol>
  <symbol id="other-social_instagram" viewBox="0 0 20 20" fill-rule="evenodd">
    <path
      d="M10 4.87A5.12 5.12 0 1 0 10 15.11 5.12 5.12 0 0 0 10 4.87Zm0 8.46a3.34 3.34 0 1 1 .02-6.67 3.34 3.34 0 0 1-.02 6.67Zm6.53-8.67a1.2 1.2 0 1 1-2.39 0 1.2 1.2 0 1 1 2.4 0Zm3.4 1.22c-.08-1.6-.44-3.02-1.62-4.2C17.15.53 15.73.16 14.12.08c-1.65-.1-6.6-.1-8.24 0-1.6.08-3.02.44-4.2 1.61C.52 2.85.16 4.27.08 5.88c-.1 1.64-.1 6.6 0 8.24.08 1.6.44 3.02 1.62 4.2 1.17 1.16 2.58 1.53 4.19 1.61 1.65.1 6.6.1 8.24 0 1.6-.08 3.03-.44 4.2-1.62 1.16-1.17 1.53-2.58 1.61-4.19.1-1.65.1-6.6 0-8.24ZM17.8 15.9a3.37 3.37 0 0 1-1.9 1.9c-1.32.52-4.44.4-5.9.4-1.45 0-4.58.11-5.9-.4a3.37 3.37 0 0 1-1.9-1.9c-.51-1.32-.4-4.45-.4-5.9 0-1.45-.11-4.58.4-5.9a3.37 3.37 0 0 1 1.9-1.9c1.32-.52 4.45-.4 5.9-.4 1.46 0 4.58-.11 5.9.4a3.37 3.37 0 0 1 1.9 1.9c.52 1.32.4 4.45.4 5.9 0 1.45.12 4.58-.4 5.9Z"
    />
  </symbol>
  <symbol id="other-social_tiktok" viewBox="0 0 20 20" fill-rule="evenodd">
    <path
      d="M8.2 7.45v3.43a2.99 2.99 0 0 0-3.59 3.9 2.7 2.7 0 0 0 2.72 1.75 2.7 2.7 0 0 0 2.9-2.91V0h3.4C14.2 3.6 16 4.43 18.4 4.82v3.44a10.24 10.24 0 0 1-4.68-1.58v6.8c0 3.08-1.83 6.52-6.36 6.52a6.39 6.39 0 0 1-5.73-9.1 6.26 6.26 0 0 1 6.56-3.45Z"
    />
  </symbol>
  <symbol id="other-social_vkontakte" viewBox="0 0 20 20" fill-rule="evenodd">
    <path
      d="M16.92 0H3.08A3.08 3.08 0 0 0 0 3.08v13.84C0 18.62 1.38 20 3.08 20h13.84c1.7 0 3.08-1.38 3.08-3.08V3.08C20 1.38 18.62 0 16.92 0Zm-.5 14.08h-1.68c-.55 0-.62-.4-1.63-1.36-.85-.84-1.21-.9-1.42-.9-.18 0-.3.13-.3.45v1.28c0 .38-.22.53-1.12.53-1.46 0-3.09-.9-4.32-2.57C4.1 9.02 3.63 7.17 3.63 6.77c0-.22.17-.37.38-.37h1.5c.39 0 .54.11.68.53.68 2.01 1.9 3.79 2.42 3.79.2 0 .22-.17.22-.58V8.1c0-1-.56-1.08-.56-1.45 0-.14.11-.25.3-.25h2.4c.32 0 .37.12.37.5V9.7c0 .31.06.43.2.43.18 0 .34-.1.66-.46.98-1.09 1.8-2.81 1.8-2.81.1-.22.22-.37.56-.37h1.5c.3 0 .43.16.37.45-.17.8-1.9 3.24-1.9 3.24-.16.25-.23.39 0 .63.16.2.66.65.97 1.06.76.8 1.25 1.48 1.25 1.86 0 .28-.16.36-.33.36Z"
    />
  </symbol>
</svg>
