<svg xmlns="http://www.w3.org/2000/svg" xmlns:xlink="http://www.w3.org/1999/xlink" style="display: none">
  <symbol id="settings_all-platforms" viewBox="0 0 20 20" fill-rule="evenodd">
    <path
      d="M1.06 12.37V1h17.9v3.45h-1.37V2.37H2.43V11h7.25v1.37H1.06Zm9.98 7.24H20V5.83h-8.96v13.78Zm1.37-1.36h6.22V7.19h-6.22v11.06ZM0 15.09h9.68v-1.37H0v1.37Z"
    />
  </symbol>
  <symbol id="settings_phone-settings" viewBox="0 0 20 20" fill-rule="evenodd">
    <path
      d="M4 2.47 6.47 0h6.77l2.47 2.47V17.5l-2.46 2.47H6.47L4 17.52V2.47Zm1.37.56v13.92l1.66 1.67h5.66l1.65-1.67V3.03l-1.66-1.66H7.03L5.37 3.02Zm5.81 13.9H8.42v-1.37h2.76v1.36Z"
    />
  </symbol>
  <symbol id="settings_vibration" viewBox="0 0 20 20" fill-rule="evenodd">
    <path
      d="M4.14 2.47 6.61 0h6.78l2.47 2.47v15.06L13.4 20H6.6l-2.47-2.47V2.47Zm1.37.57v13.92l1.67 1.67h5.65l1.66-1.66V3.04l-1.67-1.67H7.18L5.5 3.04Zm5.82 13.9H8.57v-1.37h2.76v1.36Zm7.29-11.15-1.1.8a5.68 5.68 0 0 1 0 6.8l1.1.8a7.04 7.04 0 0 0 0-8.4ZM0 10c0-1.53.48-2.98 1.38-4.2l1.1.8a5.68 5.68 0 0 0 0 6.8l-1.1.8A7.04 7.04 0 0 1 0 10Z"
    />
  </symbol>
  <symbol id="settings_sound-on-middle" viewBox="0 0 20 20" fill-rule="evenodd">
    <path
      d="M3.88 6.83 9.4 2h3v15.86h-3l-5.52-4.83H0v-6.2h3.88Zm.51 1.37H1.37v3.46h3.02l5.52 4.83h1.13V3.37H9.91L4.4 8.2Zm9.52-1.66 1.1-.81a7.03 7.03 0 0 1 0 8.4l-1.1-.81a5.67 5.67 0 0 0 0-6.78Z"
    />
  </symbol>
  <symbol id="settings_sound-on" viewBox="0 0 20 20" fill-rule="evenodd">
    <path
      d="M9.4 2 3.88 6.83H0v6.2h3.88l5.52 4.83h3V2h-3ZM1.37 8.2h3.02l5.52-4.83h1.13v13.12H9.91L4.4 11.66H1.37V8.2ZM16.68 2.2l-.94.99a9.24 9.24 0 0 1 2.9 6.75 9.25 9.25 0 0 1-2.9 6.75l.94.99A10.6 10.6 0 0 0 20 9.93c0-2.95-1.18-5.7-3.32-7.74Zm-2.77 4.35 1.1-.81a7.03 7.03 0 0 1 0 8.4l-1.1-.81a5.67 5.67 0 0 0 0-6.78Z"
    />
  </symbol>
  <symbol id="settings_sound-off" viewBox="0 0 20 20" fill-rule="evenodd">
    <path
      d="M3.88 6.84 9.41 2h3.02v15.88H9.4l-5.53-4.83H0V6.84h3.88ZM4.4 8.2H1.37v3.47H4.4l5.53 4.84h1.13V3.37H9.93L4.4 8.2Zm10.1-1.5 2.26 2.26 2.27-2.27.97.97-2.27 2.27L20 12.21l-.97.97-2.27-2.27-2.27 2.27-.97-.97 2.27-2.27-2.27-2.27.97-.97Z"
    />
  </symbol>
  <symbol id="settings_sound-melody" viewBox="0 0 20 20" fill-rule="evenodd">
    <path
      d="M14 15.88c-1.13 0-1.98-.58-1.98-1.1 0-.52.85-1.1 1.99-1.1 1.13 0 1.98.58 1.98 1.1 0 .52-.85 1.1-1.98 1.1ZM7.7 6.34V4.18l8.29-2.37v2.16l-8.3 2.37Zm-3.35 12.3c-1.14 0-1.98-.58-1.98-1.1 0-.52.84-1.1 1.98-1.1 1.13 0 1.98.58 1.98 1.1 0 .52-.85 1.1-1.98 1.1Zm1.98-15.5v12.41a4.2 4.2 0 0 0-1.98-.47C2.47 15.08 1 16.16 1 17.54S2.47 20 4.35 20c1.88 0 3.35-1.08 3.35-2.46V7.76l8.29-2.37v7.4a4.21 4.21 0 0 0-1.98-.47c-1.88 0-3.35 1.08-3.35 2.46s1.47 2.46 3.35 2.46c1.87 0 3.35-1.08 3.35-2.46V0L6.33 3.15Z"
    />
  </symbol>
  <symbol id="settings_voice-notification" viewBox="0 0 20 20" fill-rule="evenodd">
    <path
      d="M0 2.47 2.47 0h15.05l2.47 2.47v11.6l-2.47 2.47H9.86L4.83 20v-3.47H2.47L0 14.07V2.47Zm1.37.56V13.5l1.66 1.67H6.2v2.24l3.25-2.24h7.51l1.67-1.67V3.03l-1.67-1.66H3.03L1.37 3.03Zm14.49 5.24c0-1.57-.63-3.04-1.75-4.14l.95-.98a7.07 7.07 0 0 1 2.16 5.12c0 1.94-.77 3.76-2.16 5.11l-.95-.98a5.71 5.71 0 0 0 1.75-4.13Zm-2.2-2.46-1.12.78a2.96 2.96 0 0 1 0 3.36l1.15.74a4.3 4.3 0 0 0-.03-4.88Zm-3.75 6.43V4.2h-.4L5.93 7.34h-1.8v1.77h1.8l3.58 3.13h.4ZM2.76 5.98h2.66l3.57-3.13h2.29V13.6H8.99l-3.57-3.13H2.76v-4.5Z"
    />
  </symbol>
  <symbol id="settings_logout" viewBox="0 0 20 20" fill-rule="evenodd">
    <path
      d="M1 2.47 3.45 0h9.28v1.37h-8.7L2.36 3.04v13.93l1.65 1.66h8.7V20H3.46L1 17.53V2.47Zm15.28 6.85-2.97-2.98.96-.96L18.9 10l-4.63 4.62-.96-.96 2.97-2.98H7.35V9.32h8.93Z"
    />
  </symbol>
  <symbol id="settings_account-deletion" viewBox="0 0 20 20" fill-rule="evenodd">
    <path
      d="M1.36 16.15v2.48H9.2L10.56 20H0v-4.41l1.71-1.72 5.04-1.26c-2.1-2.04-3.04-6.1-2.02-9.02C5.54 1.28 7.4 0 9.97 0c2.88 0 4.26 1.53 4.92 2.82 1.33 2.6.71 6.2-.67 8.46l-.3-.31-.69-.68c1.16-2.1 1.39-5.01.45-6.85-.7-1.38-1.95-2.07-3.7-2.07-2.5 0-3.54 1.45-3.96 2.67-.9 2.56.04 6.3 1.97 7.84l.25.2v1.57L2.41 15.1l-1.05 1.05Zm17.68-4.66.96.97-3.28 3.28 3.28 3.3-.96.96-3.28-3.29L12.48 20l-.96-.97 3.28-3.29-3.28-3.28.96-.97 3.28 3.29 3.28-3.3Z"
    />
  </symbol>
  <symbol id="settings_order-matches" viewBox="0 0 20 20" fill-rule="evenodd">
    <path
      d="M2.47 0 0 2.47v15.06L2.47 20h15.06L20 17.53V2.47L17.53 0H2.47Zm-1.1 16.96V3.04l1.67-1.67h13.92l1.67 1.67v13.92l-1.67 1.67H3.04l-1.67-1.67Zm8.9-9.41L6.75 4 3.2 7.55l.96.96 1.9-1.89v9.36h1.36V6.62l1.9 1.9.96-.97Zm3.68-3.53v9.36l1.89-1.9.96.97L13.26 16l-3.54-3.54.97-.96 1.89 1.89V4.02h1.37Z"
    />
  </symbol>
  <symbol id="settings_odds" viewBox="0 0 20 20" fill-rule="evenodd">
    <path
      d="M10.58 20h4.13V0h-4.13v20Zm1.37-1.37h1.4V1.37h-1.4v17.26ZM4.13 20H0V4.3h4.13V20Zm-1.37-1.37h-1.4V5.66h1.4v12.97ZM9.42 20H5.29V8.28h4.13V20Zm-1.37-1.37h-1.4V9.65h1.4v8.98ZM20 20h-4.13V3.6H20V20Zm-1.37-1.37h-1.39V4.97h1.4v13.66Z"
    />
  </symbol>
  <symbol id="settings_odds-alt" viewBox="0 0 20 20" fill-rule="evenodd">
    <path
      d="M12.3 0c.01 0 .03 0 .03.02v.03L10.1 5.58c-.01.02-.03.04-.06.04h-.96c-.01 0-.02 0-.03-.02v-.03L11.3.04c.01-.03.03-.04.05-.04h.96ZM8.27 5.58c0 .02-.01.04-.04.04H4.24c-.02 0-.04-.02-.04-.04v-.9c0-.02.02-.03.04-.03h1.47c.03 0 .04-.01.04-.04V1.16c0-.05-.02-.1-.05-.14a.19.19 0 0 0-.14-.05H4.24C4.22.97 4.2.96 4.2.93v-.9c0-.02.02-.03.04-.03h1.39a.32.32 0 0 1 .2.09l.8.8c.03.02.05.05.07.09l.02.11v3.52c0 .03.01.04.04.04h1.47c.03 0 .04.01.04.04v.89Zm8.87.04c.02 0 .04-.02.04-.04v-.9c0-.02-.02-.03-.04-.03h-3.02c-.03 0-.04-.01-.04-.04v-.23a.1.1 0 0 1 .05-.08l2.95-1.91a.3.3 0 0 0 .07-.09.23.23 0 0 0 .03-.1V1.1a.31.31 0 0 0-.09-.22l-.8-.8a.31.31 0 0 0-.2-.09h-2.94c-.03.01-.04.02-.04.05v.89c0 .03.01.04.04.04h2.87c.05 0 .1.02.14.05a.2.2 0 0 1 .05.14v.64a.1.1 0 0 1-.05.08l-2.95 1.9a.27.27 0 0 0-.07.1.21.21 0 0 0-.03.1v1.6c0 .02.01.04.04.04h3.99ZM.3 16.75c0-.03.01-.04.04-.04H3.4c.02 0 .04.01.04.04v.89c0 .02-.02.04-.04.04H.34c-.03 0-.04-.02-.04-.04v-.9Zm7.9-1.48-.8-.8a.29.29 0 0 0-.1-.06.3.3 0 0 0-.11-.03H4.25c-.03 0-.04.02-.04.04v.9c0 .02.01.03.04.03h2.87c.05 0 .1.02.14.06.03.03.05.08.05.14v.63a.1.1 0 0 1-.05.09l-2.95 1.9a.3.3 0 0 0-.07.09.2.2 0 0 0-.03.1v1.6c0 .03.01.04.04.04h3.99c.03 0 .04-.01.04-.04v-.89c0-.03-.01-.04-.04-.04H5.22c-.03 0-.04-.01-.04-.04v-.22a.1.1 0 0 1 .05-.09l2.95-1.91a.3.3 0 0 0 .07-.09.22.22 0 0 0 .03-.1v-1.1a.3.3 0 0 0-.02-.12.28.28 0 0 0-.07-.1Zm.85 3.8c0-.02.02-.04.04-.04h.9c.02 0 .03.02.03.04v.9c0 .02-.01.03-.04.03H9.1c-.02 0-.04-.01-.04-.04v-.89Zm4.84-.23a.2.2 0 0 1-.05.13.18.18 0 0 1-.14.06h-1.74a.18.18 0 0 1-.14-.06.19.19 0 0 1-.06-.13v-3.3c0-.05.02-.1.06-.13a.2.2 0 0 1 .14-.06h1.74c.06 0 .1.02.14.06.04.03.05.08.05.14v3.29Zm.89-3.57-.8-.8a.3.3 0 0 0-.2-.08h-1.9a.32.32 0 0 0-.2.08l-.8.8a.26.26 0 0 0-.06.1.29.29 0 0 0-.02.1v3.44c0 .03 0 .07.02.11.01.04.04.07.06.1l.8.8.1.06.1.02h1.89a.3.3 0 0 0 .2-.09l.8-.8a.26.26 0 0 0 .07-.09.32.32 0 0 0 .02-.11v-3.43a.3.3 0 0 0-.08-.21Zm3.9 3.7a.2.2 0 0 0 .06-.13v-3.3c0-.05-.02-.1-.06-.13a.2.2 0 0 0-.14-.06H16.8a.2.2 0 0 0-.14.06.18.18 0 0 0-.05.14v3.29c0 .05.01.1.05.13.04.04.09.06.14.06h1.74c.06 0 .1-.02.14-.06Zm.94-3.7c.02.02.05.05.06.1.02.03.02.07.02.1v3.44a.3.3 0 0 1-.02.11.26.26 0 0 1-.06.1l-.8.8a.3.3 0 0 1-.2.09h-1.9l-.1-.03a.28.28 0 0 1-.1-.07l-.8-.8a.26.26 0 0 1-.06-.09.3.3 0 0 1-.02-.11v-3.43c0-.04 0-.08.02-.12a.26.26 0 0 1 .06-.1l.8-.8a.32.32 0 0 1 .2-.08h1.9a.3.3 0 0 1 .1.03c.04.01.07.03.1.06l.8.8ZM5.17 8.43c0-.06.02-.1.06-.14a.2.2 0 0 1 .14-.05H7.1c.05 0 .1.01.14.05.03.03.05.08.05.14v3.3a.2.2 0 0 1-.05.13.18.18 0 0 1-.14.05H5.37a.19.19 0 0 1-.14-.05.19.19 0 0 1-.06-.14v-3.3ZM4.3 12l.8.8.1.06.1.02h1.89a.3.3 0 0 0 .2-.08l.8-.8a.26.26 0 0 0 .07-.1.32.32 0 0 0 .02-.11V8.36a.31.31 0 0 0-.09-.2l-.8-.8a.3.3 0 0 0-.2-.08H5.3a.31.31 0 0 0-.21.07l-.8.8a.26.26 0 0 0-.06.1.3.3 0 0 0-.03.1v3.44c0 .04.01.07.03.11.01.04.03.07.06.1Zm5.72.84c0 .03-.01.04-.04.04h-.89c-.02 0-.04-.01-.04-.04v-.89c0-.02.02-.04.04-.04h.9c.02 0 .03.02.03.04v.9Zm3.75.04a.31.31 0 0 0 .21-.08l.8-.8a.27.27 0 0 0 .06-.1.32.32 0 0 0 .02-.11v-1.12a.3.3 0 0 0-.02-.1.3.3 0 0 0-.06-.1l-.8-.8a.3.3 0 0 0-.1-.06.33.33 0 0 0-.1-.02h-1.98c-.02 0-.03-.01-.03-.04V8.27c0-.02 0-.03.03-.03h2.64c.02 0 .04-.02.04-.04v-.9c0-.02-.02-.03-.04-.03h-3.6c-.03 0-.04 0-.04.04v3.21c0 .03 0 .04.04.04h2.86c.06 0 .1.02.14.05a.2.2 0 0 1 .06.14v.97a.2.2 0 0 1-.06.14.18.18 0 0 1-.14.05h-2.86c-.03 0-.04.02-.04.04v.9c0 .02 0 .03.04.03h2.93Zm2.9-4.6a.18.18 0 0 0-.06.15v3.3c0 .04.02.09.05.13.04.04.09.05.14.05h1.74c.06 0 .1-.01.14-.05a.2.2 0 0 0 .06-.14v-3.3c0-.05-.02-.1-.06-.13a.2.2 0 0 0-.14-.05H16.8a.2.2 0 0 0-.14.05Zm-.15 4.52-.8-.8a.26.26 0 0 1-.06-.1.3.3 0 0 1-.02-.11V8.36c0-.04 0-.07.02-.11a.26.26 0 0 1 .06-.1l.8-.8a.31.31 0 0 1 .2-.08h1.9a.3.3 0 0 1 .2.08l.8.8c.03.03.05.06.06.1a.3.3 0 0 1 .03.1v3.44a.3.3 0 0 1-.03.11.26.26 0 0 1-.06.1l-.8.8a.3.3 0 0 1-.2.09h-1.89a.31.31 0 0 1-.2-.1Z"
    />
  </symbol>
  <symbol id="settings_odds-hide" viewBox="0 0 20 20" fill-rule="evenodd">
    <path
      d="M19.02 0 0 19.05l.97.97L19.98.97 19.02 0ZM1.38 5.7h1.4v8.64l1.36-1.37V4.34H0V17.1l1.37-1.36V5.7Zm2.76 14.37v-1.3l-1.3 1.3h1.3ZM6.67 9.7h.73l1.37-1.37H5.3v3.48l1.37-1.37V9.7Zm1.39 9h-1.4v-2.46L5.3 17.61v2.46h4.12v-6.6l-1.36 1.38v3.85Zm3.89-17.29h1.4v2.34l1.36-1.37V.04H10.6v6.47l1.36-1.37V1.41Zm1.4 17.29h-1.4v-7.76l-1.36 1.37v7.76h4.12V8.18l-1.36 1.37v9.15Zm5.89-15.05-1.37 1.37h.76V18.7h-1.39V5.65l-1.37 1.37v13.05H20V3.65h-.76Z"
    />
  </symbol>
  <symbol id="settings_order" viewBox="0 0 20 20" fill-rule="evenodd">
    <path
      d="M.7 4.61 5.31 0l4.62 4.61-.97.97L6 2.6V19.9H4.63V2.6L1.66 5.58.7 4.6ZM14.01 17.4V.1h1.37V17.4l2.96-2.97.97.97L14.7 20l-4.62-4.61.97-.97L14 17.4Z"
    />
  </symbol>
  <symbol id="settings_data" viewBox="0 0 20 20" fill-rule="evenodd">
    <path
      d="m16.27 0-.99.94a9.28 9.28 0 0 1 0 12.87l1 .94c1.9-2 2.94-4.62 2.94-7.38S18.17 2 16.27 0ZM9.91 5.65a1.72 1.72 0 0 0-.69 3.3V20h1.38V8.95a1.72 1.72 0 0 0-.69-3.3Zm2.9-2.3 1-.93a7.21 7.21 0 0 1 0 9.9l-1-.93a5.85 5.85 0 0 0 0-8.03ZM4.54.96 3.55 0C1.65 2 .6 4.61.6 7.37s1.05 5.38 2.95 7.38l.99-.95a9.28 9.28 0 0 1-2.57-6.43c0-2.4.91-4.69 2.57-6.43Zm-.49 6.42c0-1.84.7-3.6 1.96-4.95l1 .94a5.85 5.85 0 0 0 0 8.03l-1 .94a7.21 7.21 0 0 1-1.96-4.96Z"
    />
  </symbol>
  <symbol id="settings_security" viewBox="0 0 20 20" fill-rule="evenodd">
    <path
      d="M14.6 18.63 17.27 15V7.8H2.76v7.23l2.67 3.6h9.17Zm.92-12.2a5.53 5.53 0 0 0-10.99 0h10.99ZM10.02 0a6.89 6.89 0 0 1 6.87 6.43h1.75v9.03L15.3 20H4.75L1.4 15.47V6.43h1.76A6.89 6.89 0 0 1 10.03 0Zm.47 13.25.27-.21c.2-.15.55-.48.55-1a1.28 1.28 0 0 0-2.56 0c0 .52.34.85.54 1l.28.2v2.44h.92v-2.43Zm-3.1-1.21a2.65 2.65 0 0 1 5.28 0c0 .7-.3 1.37-.82 1.87v3.13H8.2v-3.13a2.57 2.57 0 0 1-.82-1.87Z"
    />
  </symbol>
  <symbol id="settings_feedback" viewBox="0 0 20 20" fill-rule="evenodd">
    <path
      d="m16.96 13.77 1.67-1.66V3.03l-1.67-1.67H3.04L1.37 3.03v9.08l1.67 1.66h3.85v3.04l3.18-3.04h6.9ZM2.47 0h15.06L20 2.46v10.21l-2.47 2.47h-6.91L5.52 20v-4.86H2.47L0 12.67V2.47L2.47 0ZM12.5 3.28a.62.62 0 0 0-.43-.18H7.94a.62.62 0 0 0-.44.18L6.31 4.47a.61.61 0 0 0-.18.44v.9c0 .04.03.07.07.07h1.42c.04 0 .06-.03.06-.07v-.85c0-.17.14-.31.31-.31h4.02c.17 0 .31.14.31.3v1.56c0 .16-.14.3-.3.3H9.8a.64.64 0 0 0-.45.18L8.17 8.17a.63.63 0 0 0-.18.43v1.23c0 .04.03.06.06.06h1.43c.02 0 .06-.02.06-.06V8.65c0-.16.13-.3.3-.3h2.23a.6.6 0 0 0 .43-.18l1.18-1.18a.63.63 0 0 0 .18-.44V4.91a.62.62 0 0 0-.18-.44L12.5 3.28Zm-3.02 7.23H8.05c-.03 0-.06.02-.06.06V12c0 .04.03.07.06.07h1.43c.02 0 .06-.03.06-.07v-1.42c0-.04-.04-.06-.06-.06Z"
    />
  </symbol>
  <symbol id="settings_language" viewBox="0 0 20 20" fill-rule="evenodd">
    <path
      d="M11 1.55V2.9H9.97L7.3 7.5 9.6 9.86l-.97.95-2.5-2.55-4.2 2.54-.7-1.17 3.9-2.37-1.97-2.02.97-.95 2.16 2.2L8.4 2.9H0V1.55h4.88V0h1.36v1.55H11Zm6.78 12.86c.2 0 .37-.17.37-.37v-2.6a.37.37 0 0 0-.37-.38h-4.83c-.2 0-.37.16-.37.38v2.6c0 .2.17.37.37.37h4.83Zm.59-5 1.41 1.44c.14.14.22.33.22.52v8.55c0 .05-.03.08-.06.08h-1.71c-.05 0-.08-.03-.08-.08v-3.27a.36.36 0 0 0-.37-.37h-4.83c-.2 0-.37.16-.37.37v3.27c0 .05-.03.08-.08.08h-1.7c-.05 0-.08-.03-.08-.08v-8.55c0-.2.08-.38.21-.52l1.44-1.44a.73.73 0 0 1 .52-.21h4.95c.2 0 .39.08.53.21Z"
    />
  </symbol>
  <symbol id="settings_thumb-up" viewBox="0 0 20 20" fill-rule="evenodd">
    <path
      d="M11.4 0H8.27v4.88L5.23 7.93H4.8V6.21H0v13.78h4.81V18.6h.5l2.06 1.38h8.7l2.4-2.42 1.58-7.8-2.53-2.53h-4.43v-4.7L11.39 0ZM3.44 17.24V18.62H1.37V7.57h2.08v9.67Zm1.36 0h.9l2.08 1.38h7.7l1.73-1.72 1.34-6.68-1.6-1.61h-5.24V2.96l-1.06-1.6H9.64v4.09L5.8 9.3h-.98v7.94Z"
    />
  </symbol>
  <symbol id="settings_review-smile" viewBox="0 0 20 20" fill-rule="evenodd">
    <path
      d="M9.994 0C4.474 0 0 4.474 0 9.994c0 5.519 4.474 9.993 9.994 9.993 5.519 0 9.992-4.474 9.992-9.993C19.986 4.474 15.514 0 9.994 0Zm0 1.366a8.627 8.627 0 0 1 8.627 8.628 8.628 8.628 0 1 1-8.627-8.628ZM7.579 8.269H5.51V6.2h2.069v2.068Zm8.07 3.931-.966-.966-2.559 2.559H7.862l-2.558-2.559-.966.966 2.958 2.96h5.394l2.959-2.96ZM12.407 8.27h2.069V6.2h-2.069v2.068Z"
    />
  </symbol>
  <symbol id="settings_cookies" viewBox="0 0 20 20" fill-rule="evenodd">
    <path
      d="M16.65 0H2.97L.5 2.47V12.7L7.8 20h4.02l7.3-7.3V2.47L16.65 0Zm1.1 12.13-6.5 6.5H8.37l-6.5-6.5v-9.1l1.67-1.66h12.54l1.67 1.67v9.1ZM4.7 8.04l3.55 3.55 6.7-6.7.96.97-7.66 7.66-4.52-4.51.97-.97Z"
    />
  </symbol>
  <symbol id="settings_info-rounded" viewBox="0 0 20 20" fill-rule="evenodd">
    <path
      d="M10 0C4.486 0 0 4.486 0 10c0 5.513 4.486 10 10 10s10-4.487 10-10c0-5.515-4.486-10-10-10Zm0 18.626c-4.756 0-8.626-3.87-8.626-8.627 0-4.757 3.87-8.625 8.626-8.625 4.756 0 8.626 3.87 8.626 8.625s-3.87 8.627-8.626 8.627Zm1.036-9.661v-2.07h-4.14v2.07h2.07v4.139H6.894v2.07h6.21v-2.07h-2.07v-4.14Zm-2.07-5.52h2.07v2.07h-2.07v-2.07Z"
    />
  </symbol>
  <symbol id="settings_info" viewBox="0 0 20 20" fill-rule="evenodd">
    <path d="M8.97 2h2.07v2.07H8.97V2Zm2.07 3.9V16.1h4.07v2.07H4.89V16.1h4.08V7.96H5.9V5.9h5.14Z" />
  </symbol>
  <symbol id="settings_impressum" viewBox="0 0 20 20" fill-rule="evenodd">
    <path
      d="M5.87 7.14H3.1v1.39h1.39v2.78h-1.4v1.38h4.17v-1.38H5.87V7.14ZM5.87 4.83H4.5v1.39h1.38v-1.4Z M17.53 0H2.47L0 2.47v15.06L2.47 20h15.06L20 17.53V2.47L17.53 0Zm1.1 16.96-1.67 1.67H3.04l-1.67-1.67V3.04l1.67-1.67h13.92l1.67 1.67v13.92Z M16.9 4.85H8.63v1.37h8.27V4.85ZM16.9 7.61H8.63v1.37h8.27V7.6ZM16.9 10.37H8.63v1.37h8.27v-1.37ZM16.9 13.13H8.63v1.36h8.27v-1.36Z"
    />
  </symbol>
  <symbol id="settings_tickets" viewBox="0 0 20 20" fill-rule="evenodd">
    <path
      d="M11.73 0h-.28l-.2.2-8.77 8.77-.2.2L.2 11.26l-.2.2v6.16l.2.2 2.08 2 .2.19H17.53l.2-.2 2.07-2.06.2-.2v-6.09l-.2-.2-2-2L19.05 8l.2-.2V4.3l-.2-.2-3.9-3.9-.2-.2h-3.22Zm4.51 8.87 1.64-1.64V4.87l-3.5-3.5H12l-1.63 1.64.98.97-.96.97-.99-.97-5 5h10l-.11-.12.97-.97.97.98ZM1.37 12.01l1.67-1.67h10.25v1.39h1.37v-1.39h2.3l1.67 1.67v4.96l-1.67 1.66h-2.3v-1.38h-1.37v1.38H3.03l-1.66-1.6V12Zm11.92 4.32v-1.38h1.37v1.38h-1.37Zm0-3.68v1.38h1.37v-1.38h-1.37Zm.36-4.44-.98-.98.97-.97.98.98-.97.97Zm-2.6-2.61.96.98.98-.96-.97-.98-.98.96Z"
    />
  </symbol>
  <symbol id="settings_shop" viewBox="0 0 20 20" fill-rule="evenodd">
    <path
      d="M16.4 16.04v-1.37H8.05l-1.38-1.38-.31-1.57H16.4l.67-.53 1.62-7.31-.67-.83H4.62L4.01 0H0v1.37h2.89l2.52 12.6 2.07 2.07h8.92ZM4.89 4.41h12.28l-1.32 5.95H6.08L4.89 4.41ZM7.77 16.4c-.99 0-1.8.81-1.8 1.8s.81 1.8 1.8 1.8 1.8-.81 1.8-1.8-.81-1.8-1.8-1.8Zm0 2.24a.44.44 0 0 1-.44-.44c0-.24.2-.44.44-.44s.44.2.44.44-.2.44-.44.44Zm5.97-.44c0-.99.81-1.8 1.8-1.8s1.8.81 1.8 1.8-.81 1.8-1.8 1.8a1.8 1.8 0 0 1-1.8-1.8Zm1.36 0c0 .24.2.44.44.44s.44-.2.44-.44-.2-.44-.44-.44-.44.2-.44.44Z"
    />
  </symbol>
  <symbol id="settings_redeem-code" viewBox="0 0 20 20" fill-rule="evenodd">
    <path
      d="M7.65 9.34 8.7 8.28a.64.64 0 0 0 .16-.4V5.2a.63.63 0 0 0-.16-.4L7.65 3.76a.63.63 0 0 0-.4-.16H4.58a.63.63 0 0 0-.4.16L3.13 4.8a.63.63 0 0 0-.16.39v2.68c0 .13.07.3.16.4l1.06 1.06c.09.09.26.16.39.16h2.69c.12 0 .3-.07.39-.16ZM4.69 8.12a.35.35 0 0 1-.35-.34V5.32c0-.2.16-.35.35-.35h2.46c.18 0 .34.16.34.35v2.46c0 .18-.16.34-.36.34H4.7Zm11.13 2.54a.59.59 0 0 0-.37-.16h-2.7a.59.59 0 0 0-.38.16l-1.08 1.06a.64.64 0 0 0-.16.4v2.68c0 .13.07.3.16.4l1.08 1.05c.09.1.25.16.37.16h2.71a.6.6 0 0 0 .37-.16l1.06-1.06a.64.64 0 0 0 .16-.39v-2.68c0-.13-.07-.3-.16-.4l-1.06-1.06Zm-.16 4.02c0 .2-.16.35-.35.35h-2.44c-.2 0-.34-.15-.34-.35v-2.46c0-.18.14-.34.34-.34h2.46c.2 0 .33.16.33.36v2.44Zm-.62-11.09h-1.5c-.05 0-.09.03-.12.07l-8.5 12.67c-.03.05-.02.08.04.08h1.5c.05 0 .1-.03.12-.07L15.1 3.67c.01-.05 0-.08-.06-.08ZM17.53 0H2.47L0 2.47v15.06L2.47 20h15.06L20 17.53V2.47L17.53 0Zm1.1 16.96-1.67 1.67H3.04l-1.67-1.67V3.04l1.67-1.67h13.92l1.67 1.67v13.92Z"
    />
  </symbol>
  <symbol id="settings_ads-off" viewBox="0 0 20 20" fill-rule="evenodd">
    <path
      d="M8 2 6.62 3.37h10.33l1.67 1.67V11.23L20 9.86v-5.4L17.53 2H8ZM3.85 6.13l1.37-1.36h9.53l2.47 2.47v5.4L15.87 14V7.8L14.2 6.13H3.86ZM0 10l2.47-2.47H12L14.47 10v5.4L12 17.85H2.47L0 15.39V10Zm1.37.56v4.26l1.67 1.68h8.4l1.67-1.68v-4.26L11.44 8.9h-8.4l-1.67 1.67Zm5.87 1.17L9.1 9.85l.97.97L8.2 12.7l1.88 1.88-.97.96-1.87-1.87-1.88 1.87-.96-.96 1.87-1.88-1.87-1.87.96-.97 1.88 1.88Z"
    />
  </symbol>
  <symbol id="settings_email" viewBox="0 0 20 20" fill-rule="evenodd">
    <path
      d="M2.47 3.4 0 5.87v8.15l2.47 2.47h15.05l2.47-2.47V5.87L17.52 3.4H2.47Zm.18 1.75.39-.39h13.91l.29.29-7.25 5.1-7.34-5Zm10.66 4.33 4.9-3.45.41.4v7.02l-.36.36-4.95-4.33ZM1.37 13.45V6.43l.3-.3 4.97 3.39-4.9 4.3-.37-.37Zm10.8-3.16 5.12 4.5-.34.33H3.04l-.34-.33 5.1-4.48 2.2 1.5 2.16-1.52Z"
    />
  </symbol>
  <symbol id="settings_invoice-history" viewBox="0 0 20 20" fill-rule="evenodd">
    <path
      d="M13.8 0v6.93c-.48.03-.93.1-1.38.2v-5l-.9.9h-.96l-1.6-1.58-1.58 1.59h-.96l-1.6-1.59-1.58 1.59h-.96l-.9-.9v16.49h7.11c.42.52.9.97 1.44 1.36H.7L0 20V0h1.17L2.76 1.6 4.35 0h.96L6.9 1.6 8.48 0h.97l1.59 1.59L12.63 0h1.16Zm.34 18.63a4.5 4.5 0 1 1 .01-9 4.5 4.5 0 0 1 0 9Zm0-10.35a5.86 5.86 0 1 0 .01 11.73 5.86 5.86 0 0 0 0-11.73Zm.69 2.37h-1.37v4.17h3.1v-1.36h-1.73v-2.8ZM3.45 6.21h1.38V4.83H3.45V6.2Zm1.38 2.76H3.45V7.59h1.38v1.38Zm-1.38 2.75h1.38v-1.38H3.45v1.38Zm1.38 2.76H3.45V13.1h1.38v1.38Z"
    />
  </symbol>
  <symbol id="settings_restore" viewBox="0 0 20 20" fill-rule="evenodd">
    <path
      d="m17.43 7.87 1.3-3.16 1.27.53-2.22 5.36-5.36-2.22.52-1.27 3.24 1.35a6.47 6.47 0 0 0-12.28-.3l-1.28-.47a7.84 7.84 0 0 1 14.81.18ZM3.82 12.22a6.47 6.47 0 0 0 12.28.3l1.28.46a7.84 7.84 0 0 1-14.81-.17l-1.3 3.15L0 15.44l1.7-4.1.2-.5.32-.76L7.6 12.3l-.53 1.26-3.24-1.34Z"
    />
  </symbol>
  <symbol id="settings_document" viewBox="0 0 20 20" fill-rule="evenodd">
    <path
      d="M4.87 0 2.4 2.47v17.52h15.17V0H4.87Zm-1.1 3.03 1.66-1.66h10.78v17.25H3.77V3.03ZM5.5 12.4h8.97v-1.37H5.5v1.37Zm8.97-3.45H5.5V7.6h8.97v1.36Zm-8.97 6.9h8.97v-1.37H5.5v1.37ZM10 5.5H5.5V4.14h4.48V5.5Z"
    />
  </symbol>
  <symbol id="settings_stats" viewBox="0 0 20 20" fill-rule="evenodd">
    <path
      d="M20 3.61h-5.51v13.63h5.5V3.6Zm-1.37 12.26h-2.78V4.97h2.78v10.9ZM12.75 0h-5.5v17.24h5.5V0ZM11.4 15.87H8.6V1.37h2.78v14.5ZM5.51 8.28H.01v8.96h5.5V8.28Zm-1.36 7.6H1.37V9.64h2.78v6.22ZM20 18.63H0V20h20v-1.37Z"
    />
  </symbol>
  <symbol id="settings_page-error" viewBox="0 0 20 20" fill-rule="evenodd">
    <path
      d="M18.62 2.76H1.38L0 4.14v11.72l1.38 1.38H18.6l1.4-1.38V4.14l-1.38-1.38Zm-16.94.72h16.64l.95.96v1.08H.73V4.44l.95-.96Zm16.63 13.04H1.68l-.95-.96V6.25h18.54v9.3l-.96.97Z M2.76 4.14h-.69v.72h.69v-.72ZM4.14 4.14h-.7v.72h.7v-.72ZM5.52 4.14h-.7v.72h.7v-.72ZM10 12.05c-1.49 0-2.82.83-3.49 2.16l.65.32A3.16 3.16 0 0 1 10 12.78c1.2 0 2.3.67 2.84 1.75l.65-.32A3.88 3.88 0 0 0 10 12.05ZM7.52 8.28H5.39v2.12h2.13V8.28ZM14.61 8.28h-2.13v2.12h2.13V8.28Z"
    />
  </symbol>
  <symbol id="settings_thumbs-rating" viewBox="0 0 20 20" fill-rule="evenodd">
    <path
      d="M8.96 4.37h-3.2V1.5l-1-1.5h-1.8v2.92L1.1 4.79H0v.72h1.4l2.29-2.3V.74h.69l.66 1V5.1h3.64l.58.52-.1.47H7.73v.72h1.3l-.2.98H7.37v.73h1.3l-.2.98H7.04v.72h1.3l-.07.36-.82.71-4.84-.05-1.24-.83H0v.72h1.14l1.24.83 5.33.06 1.21-1.06 1.13-5.6-1.09-.99ZM12.31 8.38l5 .05 1.3.86H20v-.73h-1.18l-1.28-.85-5.5-.06-1.24 1.08-1.16 5.78 1.12 1h3.3v2.98l1.03 1.54h1.84v-3l1.93-1.94H20v-.73h-1.44l-2.35 2.36v2.58h-.73l-.7-1.03v-3.48h-3.75l-.6-.54.1-.5h1.5v-.73h-1.35l.2-1.03h1.5v-.73h-1.35l.21-1.03h1.5V9.5H11.4l.07-.38.85-.74Z"
    />
  </symbol>
  <symbol id="settings_attachment" viewBox="0 0 20 20" fill-rule="evenodd">
    <path
      d="m12.3 6.34-.5-.5-5.13 5.12v1.13L8 13.44h1.14l6.48-6.49V4.98L14.17 3.5h-1.98l-8.57 8.58v2.8l1.59 1.6H8l7.23-7.22-.52-.5-7 7H5.5L4.34 14.6v-2.21l8.15-8.16h1.38l1.04 1.05v1.37l-6.06 6.06H8.3l-.92-.92v-.53l4.92-4.92Z"
    />
  </symbol>
  <symbol id="settings_user" viewBox="0 0 20 20" fill-rule="evenodd">
    <path
      d="M10 0a10 10 0 1 0 .01 20.01A10 10 0 0 0 10 0Zm0 .73a9.29 9.29 0 0 1 7.15 15.2v-1.1l-1.11-1.13-3.59-1.12-.26-.97a5.56 5.56 0 0 0 1.57-3.82 7.97 7.97 0 0 0-.7-3.46l.18-1.48H9.98c-1.14 0-2.03.33-2.66.98-.8.82-1.17 2.12-1.12 3.97a5.74 5.74 0 0 0 1.63 3.84l-.26.94-3.43 1.03-1.26 1.21v1.13A9.29 9.29 0 0 1 10 .73Zm2.37 3.84c0 .01.33.63.52 1.68l-2.2-.74v.78l-1.3-.64-2.36.58c.13-.82.39-1.46.81-1.89.5-.51 1.2-.76 2.14-.76h2.44l-.11.89.06.1ZM6.95 7.01l2.35-.6 2.13 1.05v-.94l1.57.54c.02.23.03.47.03.73-.02 2.4-1.86 4.2-3.05 4.2-1.19 0-2.99-1.76-3.05-4.2 0-.29 0-.53.02-.78Zm1.21 6.15.28-1c.51.35 1.04.57 1.54.57s1.07-.23 1.6-.6l.28 1.03.67.2-1.64 1.65H9.1l-1.63-1.63.7-.22ZM3.6 16.72v-1.6l.84-.84 2.23-.67 2.12 2.13h2.4l2.13-2.14 2.27.68.83.84v1.58a9.23 9.23 0 0 1-12.82.02Z"
    />
  </symbol>
  <symbol id="settings_data-error" viewBox="0 0 20 20" fill-rule="evenodd">
    <path
      d="M10.96 8.13H3.02v.72h7.94v-.72ZM6.47 10.46H3.02v.72h3.45v-.72ZM10.96 10.46H7.51v.72h3.45v-.72ZM14.49 9.45h-1.17l-5.52 9.5 1.06 1.06h10.08L20 18.96l-5.51-9.51Zm4.15 9.84H9.16l-.45-.45 5.03-8.67h.33l5.02 8.67-.45.45Z M13.44 17.3c-.03 0-.04.02-.04.04v.93c0 .02.01.04.04.04h.93c.02 0 .04-.02.04-.04v-.93c0-.02-.02-.04-.04-.04h-.93ZM13.44 12.48c-.03 0-.04.01-.04.04v4.34c0 .02.01.04.04.04h.93c.02 0 .04-.02.04-.04v-4.34c0-.03-.02-.04-.04-.04h-.93ZM4.53 6.37c.05 0 .12-.03.15-.07l.6-.59c.03-.03.06-.1.06-.15V3.02a.25.25 0 0 0-.07-.15l-.59-.6a.25.25 0 0 0-.15-.06h-1.4a.25.25 0 0 0-.16.06l-.59.6a.25.25 0 0 0-.06.15v2.54c0 .05.03.12.06.15l.6.6c.03.03.1.06.15.06h1.4Zm-1.5-.86V3.07c0-.08.07-.14.15-.14h1.3c.08 0 .14.06.14.14v2.44c0 .08-.06.14-.15.14H3.18a.14.14 0 0 1-.14-.14ZM8.16 4.62v-.66a.03.03 0 0 0-.03-.03H5.86a.03.03 0 0 0-.03.03v.66c0 .02 0 .03.03.03h2.27c.01 0 .03-.01.03-.03ZM11.35 3.85h.57c.02 0 .03-.02.03-.03v-.6c0-.02-.01-.03-.03-.03h-.57c-.02 0-.03-.02-.03-.03v-.58c0-.01-.01-.02-.03-.02h-.6c-.02 0-.03 0-.03.02v.58c0 .01-.01.03-.03.03h-.66c-.02 0-.03-.02-.03-.03v-.58c0-.01-.01-.02-.03-.02h-.6c-.02 0-.03 0-.03.02v.58c0 .01-.01.03-.03.03h-.57a.03.03 0 0 0-.03.02v.6c0 .02 0 .04.03.04h.57c.02 0 .03 0 .03.02v.84c0 .01-.01.02-.03.02h-.57c-.02 0-.03.02-.03.03v.6c0 .02 0 .03.03.03h.57c.02 0 .03.02.03.03V6c0 .01.01.02.03.02h.6c.02 0 .03 0 .03-.02v-.58c0-.01.01-.03.03-.03h.66c.02 0 .03.02.03.03V6c0 .01.01.02.03.02h.6c.02 0 .03 0 .03-.02v-.58c0-.01.01-.03.03-.03h.57c.02 0 .03 0 .03-.03v-.6c0-.01-.01-.03-.03-.03h-.57a.03.03 0 0 1-.03-.02v-.84c0-.01.01-.02.03-.02Zm-.7.86c0 .01 0 .02-.02.02h-.66a.03.03 0 0 1-.03-.02v-.84c0-.01.01-.02.03-.02h.66c.02 0 .03 0 .03.02v.84Z M8.77 15.82H1.68l-.95-.95V1.69l.95-.96h10.9l.96.96v7.03h.73V1.4L12.9 0H1.39L0 1.39v13.78l1.38 1.38h6.97l.42-.73Z"
    />
  </symbol>
  <symbol id="settings_advertise" viewBox="0 0 20 20" fill-rule="evenodd">
    <path
      d="M7.56 10.84a.25.25 0 0 0-.16-.06H5.45a.25.25 0 0 0-.16.06l-.58.58a.24.24 0 0 0-.06.16v3.28c0 .02.01.03.03.03h.65c.02 0 .03-.01.03-.03v-1.25c0-.08.06-.14.14-.14h1.85c.08 0 .14.06.14.14v1.25c0 .02.01.03.03.03h.65c.02 0 .03-.01.03-.03v-3.29a.25.25 0 0 0-.06-.15l-.58-.58Zm-.07 1.78c0 .08-.06.14-.14.14H5.5a.14.14 0 0 1-.14-.14v-1c0-.07.06-.14.14-.14h1.85c.08 0 .14.07.14.15v.99ZM11.67 10.84a.25.25 0 0 0-.15-.06H8.8c-.02 0-.03 0-.03.02v4.06c0 .02.01.03.03.03h2.72c.05 0 .12-.03.15-.06l.59-.59c.03-.03.06-.1.06-.15v-2.51a.24.24 0 0 0-.06-.16l-.59-.58Zm-.06 3.2c0 .08-.06.14-.14.14H9.62a.14.14 0 0 1-.14-.14v-2.41c0-.08.06-.15.14-.15h1.85c.08 0 .14.07.14.15v2.4Z M19.46 3.26 17.6 1.42H5.34L3.5 3.26v1.52L1.99 6.3v1.5L.54 9.24v7.5l1.85 1.84h12.27l1.83-1.86v-1.41L18 13.77V12.2l1.45-1.46V3.26Zm-3.7 13.16-1.41 1.43H2.69l-1.41-1.41v-6.9l1.41-1.41h11.66l1.42 1.41-.01 6.88Zm1.52-2.95-.79.8.01-5.03-1.84-1.85H2.7V6.6l1.56-1.56h11.46L17.3 6.6l-.01 6.87Zm1.43-3.03-.7.72V6.3l-1.98-1.98H4.23v-.76l1.42-1.41H17.3l1.41 1.42v6.87Z"
    />
  </symbol>
  <symbol id="settings_major-error" viewBox="0 0 20 20" fill-rule="evenodd">
    <path
      d="M7.5 6.07H5.36v2.15H7.5V6.07Zm7.14 0H12.5v2.15h2.14V6.07ZM10 0C4.48 0 0 4.48 0 10s4.48 10 10 10 10-4.48 10-10S15.52 0 10 0Zm0 19.27c-5.12 0-9.27-4.15-9.27-9.27S4.88.73 10 .73s9.27 4.15 9.27 9.27-4.15 9.27-9.27 9.27ZM10 12.76a3.9 3.9 0 0 0-3.5 2.17l.65.33A3.17 3.17 0 0 1 10 13.49c1.22 0 2.31.68 2.85 1.77l.66-.33A3.9 3.9 0 0 0 10 12.76Z"
    />
  </symbol>
</svg>
