<svg xmlns="http://www.w3.org/2000/svg" xmlns:xlink="http://www.w3.org/1999/xlink" style="display: none">
  <symbol id="sport_american-football" viewBox="0 0 20 20" fill-rule="evenodd">
    <path
      d="M10.05 0A9.97 9.97 0 0 0 .08 9.98V11h9.61v2.06H.08v1.37h9.39c-.14.48-.35.95-.61 1.38H.08v1.37h7.6a5.7 5.7 0 0 1-3.7 1.37H.08v1.38h3.9a7.09 7.09 0 0 0 5.71-2.9v2.9h5.04S20 16.4 20 9.96A10 10 0 0 0 10.05 0Zm4.21 18.55h-3.2V9.62h-9.6a8.62 8.62 0 0 1 8.59-8.25 8.61 8.61 0 0 1 8.58 8.6c0 5.48-4.37 8.58-4.37 8.58Zm-.45-8.93h-1.37V11h1.37V9.62Z"
    />
  </symbol>
  <symbol id="sport_aussie-rules" viewBox="0 0 20 20" fill-rule="evenodd">
    <path
      d="m14.82.36-.35-.13C9.6-1.13 4.72 3.73 6.1 8.61l.13.35.34.12c4.96 1.37 9.74-3.54 8.38-8.38l-.12-.34ZM12.35 1.4a5.3 5.3 0 0 1 1.36.06c.16.91.07 1.85-.24 2.73l-2.5-2.5c.45-.15.9-.25 1.38-.3ZM7.33 7.85a5.36 5.36 0 0 0 2.73-.24l-2.5-2.49c-.3.87-.39 1.81-.23 2.73Zm4-.91-3.1-3.1c.41-.56.9-1.06 1.47-1.46l3.1 3.1c-.4.56-.9 1.05-1.47 1.46ZM3.45 6.2h1.38V20H3.45V6.2ZM0 11.72h1.38V20H0v-8.28Zm20 0h-1.38V20H20v-8.28Zm-4.83-5.51h1.38V20h-1.38V6.2Z"
    />
  </symbol>
  <symbol id="sport_badminton" viewBox="0 0 20 20" fill-rule="evenodd">
    <path
      d="m15.9 5.91-1.73-1.74-3.86.6V.08H6.66L4.17 1.74 2.54 13.1.92 14.7a3.09 3.09 0 0 0 0 4.37 3.05 3.05 0 0 0 4.38 0l1.52-1.52 11.54-1.66 1.59-2.46V9.69H15.3l.6-3.78ZM5.54 2.55 7.15 1.4h1.83v4.01L4.5 12.9l-.4-.4 1.42-9.94ZM4.47 18.1a1.68 1.68 0 0 1-2.4 0 1.73 1.73 0 0 1 0-2.43l1.69-1.7 2.4 2.43-1.69 1.7Zm1.87-3.46-.77-.78 4.57-7.67 3.61-.57.75.75-.57 3.65-7.59 4.62Zm12.21-3.56v1.89l-1.02 1.63L7.7 16l-.4-.4 7.41-4.54h3.84Z"
    />
  </symbol>
  <symbol id="sport_bandy" viewBox="0 0 20 20" fill-rule="evenodd">
    <path
      d="M9.96 6.2a3.1 3.1 0 1 0 0-6.2 3.1 3.1 0 0 0 0 6.2Zm0-4.82a1.72 1.72 0 1 1 0 3.45 1.72 1.72 0 0 1 0-3.45ZM20 2.48v1.94l-1.91 1.92-.98-.98L20 2.47ZM15.26 7.2l.93-.92.97.97-.92.92-.98-.97ZM0 2.47l2.89 2.9-.98.97L0 4.42V2.47Zm2.84 4.79.97-.97.93.92-.98.97-.92-.92Zm8.14 6.19 1.72 1.72h6.2l1.1 1.1v2.64L18.9 20h-3.32L10 14.42 4.42 20H1.1L0 18.9v-2.63l1.1-1.1h6.2l1.72-1.72L4.68 9.1l.98-.98L10 12.47l4.34-4.34.97.98-4.33 4.34Zm-9.6 5.17h2.47l2.07-2.07H1.38v2.07Zm17.24 0h-2.47l-2.07-2.07h4.54v2.07Z"
    />
  </symbol>
  <symbol id="sport_baseball" viewBox="0 0 20 20" fill-rule="evenodd">
    <path
      d="M16.9 6.25a3.09 3.09 0 1 0 0-6.17 3.09 3.09 0 0 0 0 6.17Zm0-4.8a1.71 1.71 0 1 1 0 3.43 1.71 1.71 0 0 1 0-3.43Zm2.13 15.52-.53.52-3.43-3.39-3.15-5.23-8.8-8.8H1.15L.08 1.17v1.97l8.77 8.8 5.24 3.15 3.44 3.39-.56.56.97.97L20 17.94l-.97-.97ZM1.43 2.57l.02-.84.28-.28h.83l8.27 8.27 1.68 2.8-2.8-1.68-8.27-8.27Z"
    />
  </symbol>
  <symbol id="sport_basketball" viewBox="0 0 20 20" fill-rule="evenodd">
    <path
      d="M15.782 16.392A27.055 27.055 0 0 0 8.438 6.027c.488-.37.998-.71 1.537-1.008 1.184 1.16 2.743 1.715 3.843 2.1.189.064.365.126.523.185 2.666 1 3.361 1.443 4.264 2.147.011.182.028.364.028.548a8.607 8.607 0 0 1-2.851 6.393ZM9.735 18.62c-.64-1.44-1.117-2.933-1.552-4.905-.347-1.575-.932-3.528-2.332-5.06a12.89 12.89 0 0 1 1.535-1.739 25.73 25.73 0 0 1 7.271 10.342A8.587 8.587 0 0 1 10 18.633c-.09 0-.176-.01-.265-.013Zm-6.323-3.053c.096-2.08.689-4.03 1.668-5.735.801.971 1.347 2.266 1.768 4.178.377 1.708.797 3.118 1.318 4.422a8.64 8.64 0 0 1-4.754-2.865ZM1.469 8.738a3.636 3.636 0 0 1 2.544.221 14.02 14.02 0 0 0-1.773 4.8A8.578 8.578 0 0 1 1.367 10c0-.429.042-.848.102-1.26Zm2.135-4.517a25.941 25.941 0 0 1 2.707 1.831 14.128 14.128 0 0 0-1.538 1.765c-.65-.339-1.697-.714-2.953-.557a8.62 8.62 0 0 1 1.784-3.039Zm5.524-.297c-.623.356-1.209.766-1.768 1.208A27.728 27.728 0 0 0 4.631 3.25a8.592 8.592 0 0 1 3.971-1.76 5.353 5.353 0 0 0 .526 2.434Zm.843-2.557H10c1.376 0 2.673.331 3.828.906a13.98 13.98 0 0 0-3.484 1.03 3.946 3.946 0 0 1-.373-1.936Zm8.306 6.198c-.741-.444-1.695-.88-3.456-1.54a20.046 20.046 0 0 0-.554-.198c-.902-.315-2.047-.718-2.958-1.437a12.663 12.663 0 0 1 4.305-.936 8.646 8.646 0 0 1 2.663 4.111ZM10 0C4.486 0 0 4.485 0 10s4.486 10 10 10 10-4.486 10-10S15.514 0 10 0Z"
    />
  </symbol>
  <symbol id="sport_beach-soccer" viewBox="0 0 20 20" fill-rule="evenodd">
    <path
      d="M10 0a7.586 7.586 0 1 0 0 15.172A7.586 7.586 0 0 0 10 0Zm5.632 4.975c.232.5.396 1.027.487 1.57l-.83-.467.343-1.103Zm-1.692.88.733-2.352a6.227 6.227 0 0 0-1.902-1.47l-2.094 1.462v.873l2.403 1.746.86-.259ZM10 1.38c.396 0 .792.039 1.18.114L10 2.317l-1.18-.824c.388-.075.784-.113 1.18-.114Zm-.677 2.116L7.23 2.032a6.233 6.233 0 0 0-1.902 1.47l.733 2.354.859.259 2.404-1.747v-.873Zm-4.955 1.48.343 1.103-.829.467c.09-.543.254-1.07.486-1.57Zm2.268 7.215h-.798c.324.292.677.549 1.055.766l-.257-.766Zm.205-1.353H4.713a6.162 6.162 0 0 1-.895-2.705L5.601 7.13l.936.283.914 2.815-.61.609Zm1.7 2.782c.958.232 1.958.232 2.917 0l.645-1.923-.722-.722H8.618l-.722.722.644 1.923Zm2.808-3.964H8.65L7.816 7.09 10 5.506l2.184 1.584-.835 2.565Zm1.763 3.301v.002h-.005l.005-.002Zm0 0 .257-.764h.797c-.324.29-.677.547-1.054.764Zm2.18-2.12h-.004c.505-.82.81-1.745.894-2.704L14.399 7.13l-.935.28-.92 2.817.614.609h2.133ZM1.378 18.621H0V20h1.38v-1.38Zm17.242 0H20V20h-1.38v-1.38Zm-11.035 0h-1.38V20h1.38v-1.38Zm4.828 0h1.38V20h-1.38v-1.38Zm-1.686-2.07h-1.38v1.38h1.38v-1.38Zm4.75 0h1.38v1.38h-1.38v-1.38Zm-10.957 0h-1.38v1.38h1.38v-1.38Z"
    />
  </symbol>
  <symbol id="sport_beach-volleyball" viewBox="0 0 20 20" fill-rule="evenodd">
    <path
      d="M2.41 7.59a7.59 7.59 0 1 1 15.18 0 7.59 7.59 0 0 1-15.18 0Zm6.15 2.5a9.14 9.14 0 0 0 4.29 3.01 6.23 6.23 0 0 0 2.1-1.76 8.05 8.05 0 0 1-5.07-2.78c-.51.44-.96.96-1.32 1.53ZM3.8 7.6A6.2 6.2 0 0 1 7.7 1.82c.42.46.77.97 1.04 1.52a11.64 11.64 0 0 0-4.87 5.23 6.24 6.24 0 0 1-.08-.98Zm7.5-6.08a6.24 6.24 0 0 0-2.1-.08 7.97 7.97 0 0 1 1.55 5.97 6.61 6.61 0 0 0 2.12 1.82c.25-1.35.23-2.73-.06-4.07-.3-1.29-.8-2.52-1.5-3.64ZM4.57 10.6c.8-2.55 2.44-4.64 4.66-5.94.2.83.25 1.68.14 2.53a7.99 7.99 0 0 0-3.13 5.34 6.23 6.23 0 0 1-1.67-1.93Zm3 2.7a6.2 6.2 0 0 0 3.24.44 10.5 10.5 0 0 1-2.9-2.27c-.2.6-.31 1.2-.34 1.83Zm6.6-3.54c.35-1.62.34-3.29-.02-4.9-.19-.87-.47-1.71-.84-2.52a6.2 6.2 0 0 1 2.4 7.68 6.63 6.63 0 0 1-1.55-.26Zm-4.82 6.8h1.38v1.37H9.35v-1.38Zm-7.97 2.06H0V20h1.38v-1.38Zm18.62 0h-1.38V20H20v-1.38Zm-13.8 0H7.6V20H6.2v-1.38Zm7.6 0H12.4V20h1.38v-1.38Zm3.06-2.07h-1.38v1.38h1.38v-1.38Zm-13.72 0h1.38v1.38H3.14v-1.38Z"
    />
  </symbol>
  <symbol id="sport_boxing" viewBox="0 0 20 20" fill-rule="evenodd">
    <path
      d="M2.72 20h5.32l.86-1.33H4.05v-1.65l-2.72-4.11V7.22l.96-1.04h3.89v4.4l2.72 4.11v3.98h7.46l.84-1.33v-2.65l2.73-4.12V1.85L18.16.08H7.96L6.17 1.79v3.07H1.76L0 6.64v6.69l2.72 4.13V20Zm13.15-2.66h-5.64v-2.19h5.65v2.2ZM7.5 2.41l.97-1h9.15l.98 1.03v3.81h-5.96l-1.85 2.76 1.85 2.69h2.93l.93-1.33h-3.07l-.92-1.36.92-1.43h5.17v2.6l-2.44 3.64H9.94L7.5 10.2V2.4Z"
    />
  </symbol>
  <symbol id="sport_cricket" viewBox="0 0 20 20" fill-rule="evenodd">
    <path
      d="M13.8 5.25 19.02 0H20v1l-5.22 5.23.4.38v2.13L3.9 20H0v-3.9L11.26 4.83h2.13l.4.42ZM3.33 18.62 13.78 8.17v-1l-.96-.95h-1L1.39 16.67v1.95h1.95ZM6.9 0H4.82v1.38H3.46V0H1.37v1.38H0v12.4l1.38-1.37V1.38h2.07v8.97l1.38-1.38V1.38H6.9V6.9l1.38-1.38V1.38H6.9V0Zm7.24 13.8a3.1 3.1 0 1 0 0 6.2 3.1 3.1 0 0 0 0-6.2Zm0 4.82a1.72 1.72 0 1 1 0-3.45 1.72 1.72 0 0 1 0 3.45Z"
    />
  </symbol>
  <symbol id="sport_cycling" viewBox="0 0 20 20" fill-rule="evenodd">
    <path
      d="M20 4.14V2.76h-9.67l.8-2.76H6.2L4.82 1.38v2.76H6.2V2.07l.7-.69h2.47L7.72 7a6.55 6.55 0 1 0 1.26.36l.28-.97L20 11.76v-1.54L9.66 5.05l.26-.91H20Zm-8.28 9.31a5.17 5.17 0 1 1-4.39-5.11l-1.7 5.78 1.26.37 1.7-5.8a5.18 5.18 0 0 1 3.13 4.76Z"
    />
  </symbol>
  <symbol id="sport_darts" viewBox="0 0 20 20" fill-rule="evenodd">
    <path
      d="M18.55 9.14a8.64 8.64 0 1 1-7.69-7.69L12.04.3a9.96 9.96 0 1 0 7.67 7.67l-1.16 1.18Zm-4.97 1.93a3.76 3.76 0 0 1-7.4-1.03c0-1.7 1.12-3.13 2.75-3.62V5.05a5.1 5.1 0 1 0 6.02 6.02h-1.37Zm6.34-7.56H16.5L16.48.08h-1.37L11 4.2v3.43L8.93 9.7v1.38h1.38L12.37 9h3.43l4.12-4.12V3.5Zm-7.55 4.12V4.9l2.74-2.75v2.75h2.75l-2.75 2.74h-2.74Z"
    />
  </symbol>
  <symbol id="sport_esports" viewBox="0 0 20 20" fill-rule="evenodd">
    <path
      d="M12.18 5.52h5.16l2.66.9V18.4L16 20h-1.15l-3.45-4.14H8.6L5.15 20H4.01L0 18.4V6.48l2.65-.96h5.24L9.35 6.9V0h1.38v6.9l1.45-1.38Zm3.56 13.1 2.88-1.12V7.38l-1.5-.48h-4.49l-2.6 2.53L7.38 6.9h-4.5l-1.5.52V17.5l2.9 1.12h.26l3.44-4.14h4.06l3.44 4.14h.27ZM4.14 9.66h1.38v1.37H6.9v1.38H5.52v1.38H4.14v-1.38H2.76v-1.38h1.38V9.66Zm8.16 1.67 2.07-2.07.94.95-2.07 2.06-.94-.94Zm4.07-.07-2.07 2.07.94.94 2.07-2.06-.94-.95Z"
    />
  </symbol>
  <symbol id="sport_field-hockey" viewBox="0 0 20 20" fill-rule="evenodd">
    <path
      d="M10 6.18A3.1 3.1 0 1 0 10 0a3.1 3.1 0 0 0 0 6.18Zm0-4.8a1.72 1.72 0 1 1 0 3.43 1.72 1.72 0 0 1 0-3.44ZM2.32 18.43c.53.22 1.13.1 1.54-.3l5.2-5.2L4.75 8.6l.97-.97 4.33 4.33 4.32-4.32.97.97-4.32 4.32 5.2 5.2a1.42 1.42 0 0 0 2.01-2l-.41-.4.97-.98.41.41a2.8 2.8 0 0 1-3.9 3.99l-5.25-5.25-5.25 5.25a2.8 2.8 0 0 1-3.9-3.99l.4-.41.98.97-.41.41a1.42 1.42 0 0 0 .47 2.3Zm14.8-13.56.97.97L20 3.95V2l-2.88 2.88Zm-.92.92-.92.92.97.97.92-.92-.97-.97ZM2.95 4.88.08 2v1.95l1.9 1.9.97-.97Zm.92.92-.97.97.92.92.97-.97-.92-.92Z"
    />
  </symbol>
  <symbol id="sport_floorball" viewBox="0 0 20 20" fill-rule="evenodd">
    <path
      d="m14.07 8.97 1.1-1.1V5.24l-1.07-1.1H2.98L0 0v2.33l4.81 6.64h9.26Zm-2.35-3.45h2.07v2.07h-2.07V5.52Zm-1.38 0H8.28v2.07h2.06V5.52Zm-3.44 0v2.07H5.5L4 5.52h2.9Zm-5.8 9.65h11.08L20 4.58v2.33L10.34 20H1.1L0 18.9v-2.62l1.1-1.1Zm.28 3.45h2.07v-2.07H1.38v2.07Zm5.52 0H4.83v-2.07H6.9v2.07Zm1.38 0h1.38l1.5-2.07H8.28v2.07Zm6.88-1.05a2.41 2.41 0 1 1 4.83 0 2.41 2.41 0 0 1-4.83 0Zm1.38 0a1.03 1.03 0 1 0 2.07 0 1.03 1.03 0 0 0-2.07 0Z"
    />
  </symbol>
  <symbol id="sport_futsal" viewBox="0 0 20 20" fill-rule="evenodd">
    <path
      d="M1.38 2.759H0V0h2.759v1.38h-1.38v1.379ZM15.171 0h-2.069v1.38h2.07V0Zm2.07 0v1.38h1.379v1.379H20V0h-2.759ZM6.896 0h-2.07v1.38h2.07V0ZM0 4.828h1.38v2.069H0v-2.07Zm1.38 4.138H0v2.069h1.38v-2.07ZM0 13.103h1.38v2.07H0v-2.07Zm20-8.275h-1.38v2.069H20v-2.07Zm-1.38 4.138H20v2.069h-1.38v-2.07ZM20 13.103h-1.38v2.07H20v-2.07ZM8.966 0h2.069v1.38h-2.07V0ZM10 4.828A7.586 7.586 0 1 0 10 20a7.586 7.586 0 0 0 0-15.172Zm5.632 4.975a6.21 6.21 0 0 1 .487 1.569l-.83-.466.343-1.103Zm-1.691.88.733-2.352h-.001A6.226 6.226 0 0 0 12.77 6.86l-2.094 1.463v.872l2.404 1.747.86-.26ZM10 6.207c.396 0 .792.038 1.18.113L10 7.145 8.82 6.32c.388-.075.784-.113 1.18-.113Zm-.677 2.116L7.23 6.86a6.224 6.224 0 0 0-1.902 1.47l.733 2.354.859.259 2.404-1.748v-.872Zm-4.955 1.48.343 1.103-.83.466c.091-.542.255-1.07.487-1.569Zm2.268 7.215h-.798c.324.292.677.548 1.055.766l-.257-.766Zm.205-1.354H4.713a6.162 6.162 0 0 1-.895-2.705l1.783-1.001.936.283.914 2.814-.61.61Zm1.7 2.783c.958.232 1.958.232 2.917 0l.645-1.924-.722-.721H8.618l-.722.721.644 1.924Zm2.808-3.964H8.65l-.835-2.565 2.182-1.585 2.186 1.585-.835 2.565Zm2.012 2.537-.258.766a6.223 6.223 0 0 0 1.056-.766h-.798Zm1.923-1.356h-2.126l-.613-.609.915-2.817.935-.28 1.783 1.001a6.167 6.167 0 0 1-.89 2.705h-.004Z"
    />
  </symbol>
  <symbol id="sport_golf" viewBox="0 0 20 20" fill-rule="evenodd">
    <path
      d="M6.2 11.03v6.21H4.84V0l11.72 5.52-10.34 5.51Zm7.6-5.51L6.2 2.07v7.6l7.6-4.15Zm0 7.93a3.1 3.1 0 1 0 6.2 0 3.1 3.1 0 0 0-6.2 0Zm1.37 0a1.72 1.72 0 1 1 3.45 0 1.72 1.72 0 0 1-3.45 0Zm-7.6 1.32v-1.42c2.03.51 3.46 1.75 3.46 3.2 0 1.9-2.47 3.45-5.51 3.45C2.47 20 0 18.46 0 16.55c0-1.45 1.43-2.69 3.46-3.2v1.42c-1.29.4-2.13 1.13-2.13 1.78 0 .42.36.89.98 1.27.82.52 2 .81 3.2.81 2.37 0 4.2-1.12 4.2-2.08 0-.42-.36-.88-.98-1.27a4.9 4.9 0 0 0-1.15-.51Z"
    />
  </symbol>
  <symbol id="sport_handball" viewBox="0 0 20 20" fill-rule="evenodd">
    <path
      d="M3.45 4.14a2.07 2.07 0 1 0 0-4.14 2.07 2.07 0 0 0 0 4.14Zm0-2.76a.69.69 0 1 1 0 1.38.69.69 0 0 1 0-1.38Zm10 4.83a3.1 3.1 0 1 0 0-6.21 3.1 3.1 0 0 0 0 6.2Zm0-4.83a1.72 1.72 0 1 1 0 3.45 1.72 1.72 0 0 1 0-3.45ZM8.28 11.72 0 20h1.96l7-7.08 6.23 4.32-.02 2.76h1.38v-3.45l-6.9-4.83H8.29ZM3.14 5.76 6.9 8.28H20v1.38H6.47L2.34 6.9l.8-1.14Z"
    />
  </symbol>
  <symbol id="sport_horse-racing" viewBox="0 0 20 20" fill-rule="evenodd">
    <path
      d="M11.06 11.73H7.13l-4.51 3.05L0 12.76V10.8l5.47-6.61V0h1.52l2.1 2.07c3.45.05 6.16 1.04 8.08 2.94A10.1 10.1 0 0 1 20 11.73V20h-1.4v-8.26c0-.03-.02-3.35-2.4-5.74-1.67-1.68-4.12-2.53-7.26-2.53h-.29L6.87 1.69v2.97L1.4 11.27v.8l1.29.98 4.03-2.72h2.95v-1.4h1.4v2.8Zm-3.11 1.59.1-.25H9.5A10 10 0 0 1 0 19.95v-1.38a8.56 8.56 0 0 0 7.95-5.26Z"
    />
  </symbol>
  <symbol id="sport_hockey" viewBox="0 0 20 20" fill-rule="evenodd">
    <path
      d="M7.73 6.92a9.67 9.67 0 0 1-3.98-.75v1.3c0 .3 1.37 1.1 3.98 1.1 2.62 0 4-.8 4-1.1v-1.3c-1.05.51-2.55.75-4 .75Zm4-2.46c0-.28-1.38-1.1-4-1.1-2.61 0-3.98.82-3.98 1.1 0 .28 1.37 1.1 3.98 1.1 2.62 0 4-.82 4-1.1Zm1.36 3.02c0 1.69-2.78 2.46-5.36 2.46-2.57 0-5.35-.77-5.35-2.46V4.46C2.38 2.77 5.16 2 7.73 2c2.58 0 5.36.77 5.36 2.46v3.02Zm-1.31 10h1.1l1.63-3.03H1.87l-.5.5v2.03l.5.5h9.91ZM1.3 13.08h13.94L20 4.25v2.88l-6.3 11.72H1.3L0 17.55v-3.17l1.3-1.3Z"
    />
  </symbol>
  <symbol id="sport_kabaddi" viewBox="0 0 20 20" fill-rule="evenodd">
    <path
      d="M15.52 0a3.1 3.1 0 1 0 0 6.2 3.1 3.1 0 0 0 0-6.2Zm0 4.83a1.72 1.72 0 1 1 0-3.45 1.72 1.72 0 0 1 0 3.45Zm.05 4.04H20V7.53h-4.42a6.99 6.99 0 0 1-4.96-2.01A6.78 6.78 0 0 1 8.6.67H7.27c0 2.21.82 4.24 2.4 5.8a8.3 8.3 0 0 0 5.9 2.4ZM0 5.87a3.1 3.1 0 1 0 6.2 0 3.1 3.1 0 0 0-6.2 0Zm1.38 0a1.72 1.72 0 1 1 3.45 0 1.72 1.72 0 0 1-3.45 0Zm13.37 4.29L20 18.68V20h-.8l-4.99-8.09-4.95 2.2L12.71 20h-1.6l-3.82-6.52 7.46-3.32ZM0 20h1.4v-6.08l1.19-.54L6.87 20h1.65l-4.65-7.2 5.5-2.52-.58-1.25-8.79 4V20Z"
    />
  </symbol>
  <symbol id="sport_mma" viewBox="0 0 20 20" fill-rule="evenodd">
    <path
      d="M17.24 5.52V0H3.44v3.45H0v9.94l3.45 3.45V20h12.41v-3.13L20 13.43V5.52h-2.76Zm-1.38 0H13.1V1.38h2.76v4.14Zm-4.14 3.45H8.97v-7.6h2.75v7.6ZM7.6 1.37v7.6H4.83v-7.6h2.76ZM3.45 4.84v4.14H1.38V4.83h2.07Zm15.17 7.95-4.14 3.44v2.4H4.83v-2.36l-3.45-3.45v-2.47H12.4l2.08.84v1.92h1.38v-2.86l-2.76-1.1V6.9h5.51v5.88Z"
    />
  </symbol>
  <symbol id="sport_motorsport" viewBox="0 0 20 20" fill-rule="evenodd">
    <path
      d="M20 13.1 17.38 4.8l-.04-.07a9.27 9.27 0 0 0-2.42-2.75A9.3 9.3 0 0 0 9.29 0a9.3 9.3 0 0 0-6.57 2.8 9.29 9.29 0 0 0 1.34 14.24l-1.3 1.58V20h15.86v-1.38l-1.1-1.68L20 13.1ZM8.37 8.28h8.68l1.1 3.44h-7.32L7.87 8.8l.5-.51ZM3.7 3.77a7.9 7.9 0 0 0 1.07 12.09h11.8l1.75-2.76h-8.06L5.9 8.77 7.76 6.9h8.85l-.5-1.55a7.92 7.92 0 0 0-2.03-2.29A7.92 7.92 0 0 0 9.3 1.38c-2.1 0-4.1.9-5.6 2.39Zm.78 14.85 1.25-1.38h10.34l.87 1.38H4.48Zm2.42-6.9H5.5v1.38h1.4v-1.38Z"
    />
  </symbol>
  <symbol id="sport_motorsport-auto-racing" viewBox="0 0 20 20" fill-rule="evenodd">
    <path
      d="M20 13.1 17.38 4.8l-.04-.07a9.27 9.27 0 0 0-2.42-2.75A9.3 9.3 0 0 0 9.29 0a9.3 9.3 0 0 0-6.57 2.8 9.29 9.29 0 0 0 1.34 14.24l-1.3 1.58V20h15.86v-1.38l-1.1-1.68L20 13.1ZM8.37 8.28h8.68l1.1 3.44h-7.32L7.87 8.8l.5-.51ZM3.7 3.77a7.9 7.9 0 0 0 1.07 12.09h11.8l1.75-2.76h-8.06L5.9 8.77 7.76 6.9h8.85l-.5-1.55a7.92 7.92 0 0 0-2.03-2.29A7.92 7.92 0 0 0 9.3 1.38c-2.1 0-4.1.9-5.6 2.39Zm.78 14.85 1.25-1.38h10.34l.87 1.38H4.48Zm2.42-6.9H5.5v1.38h1.4v-1.38Z"
    />
  </symbol>
  <symbol id="sport_motorsport-moto-racing" viewBox="0 0 20 20" fill-rule="evenodd">
    <path
      d="M20 13.1 17.38 4.8l-.04-.07a9.27 9.27 0 0 0-2.42-2.75A9.3 9.3 0 0 0 9.29 0a9.3 9.3 0 0 0-6.57 2.8 9.29 9.29 0 0 0 1.34 14.24l-1.3 1.58V20h15.86v-1.38l-1.1-1.68L20 13.1ZM8.37 8.28h8.68l1.1 3.44h-7.32L7.87 8.8l.5-.51ZM3.7 3.77a7.9 7.9 0 0 0 1.07 12.09h11.8l1.75-2.76h-8.06L5.9 8.77 7.76 6.9h8.85l-.5-1.55a7.92 7.92 0 0 0-2.03-2.29A7.92 7.92 0 0 0 9.3 1.38c-2.1 0-4.1.9-5.6 2.39Zm.78 14.85 1.25-1.38h10.34l.87 1.38H4.48Zm2.42-6.9H5.5v1.38h1.4v-1.38Z"
    />
  </symbol>
  <symbol id="sport_netball" viewBox="0 0 20 20" fill-rule="evenodd">
    <path
      d="M16.55 0a3.45 3.45 0 1 0 0 6.9 3.45 3.45 0 0 0 0-6.9Zm0 5.52a2.07 2.07 0 1 1 0-4.14 2.07 2.07 0 0 1 0 4.14ZM0 8.28V20h1.38V9.66h1.38l1.38 8.28h8.07l1.58-9.66H0Zm12.16 1.38-1.13 6.9H5.3l-1.16-6.9h8.02Z"
    />
  </symbol>
  <symbol id="sport_pesapallo" viewBox="0 0 20 20" fill-rule="evenodd">
    <path
      d="M.077 6.946 6.95.076l.971.97-6.875 6.87-.97-.97ZM20 2.137a2.061 2.061 0 1 1-4.122 0 2.061 2.061 0 0 1 4.122 0Zm-1.374 0a.687.687 0 1 0-1.374 0 .687.687 0 0 0 1.374 0Zm-4.81 3.779a3.092 3.092 0 1 1-6.182 0 3.092 3.092 0 0 1 6.183 0Zm-1.505-.643A1.716 1.716 0 1 0 9.14 6.587a1.716 1.716 0 0 0 3.17-1.314Zm-4.677 10.95 3.224-2.403h5.306L20 19.004V20h-.971l-3.556-4.81h-4.157l-2.308 1.72V20H7.634v-3.778Zm-2.181-5.84H13.8l.917 1.374H4.885L2.277 9.152l.97-.971 2.206 2.201Z"
    />
  </symbol>
  <symbol id="sport_rugby-league" viewBox="0 0 20 20" fill-rule="evenodd">
    <path
      d="M18.62 13.1V0H20v20h-1.38v-5.52H1.38V20H0V0h1.38v13.1h17.24ZM5.7 8.96l.35.12C11 10.45 15.78 5.54 14.43.7L14.3.36l-.34-.13c-4.9-1.36-9.75 3.5-8.38 8.38l.12.35ZM8.17 7.9a5.3 5.3 0 0 1-1.36-.06 5.32 5.32 0 0 1 .24-2.73l2.49 2.5c-.44.15-.9.25-1.37.29Zm5.02-6.44a5.3 5.3 0 0 0-2.73.24l2.49 2.49a5.27 5.27 0 0 0 .24-2.73Zm-4 .9 3.09 3.1c-.4.57-.9 1.06-1.46 1.47l-3.1-3.1c.4-.56.9-1.06 1.46-1.46Z"
    />
  </symbol>
  <symbol id="sport_rugby-union" viewBox="0 0 20 20" fill-rule="evenodd">
    <path
      d="M18.97 1.03S17.1 0 14.54.08c-1.54.05-3.05.4-4.46 1.03-1.81.8-3.58 2.06-5.28 3.75v.01a17.68 17.68 0 0 0-3.76 5.28c-.65 1.48-1 2.97-1.03 4.46-.07 2.56.95 4.43.95 4.43s1.76.96 4.16.96c1.66 0 3.25-.39 4.73-1.04 1.81-.8 3.58-2.06 5.28-3.75v-.01a17.63 17.63 0 0 0 3.76-5.28c.63-1.4.98-2.92 1.03-4.46.07-2.56-.95-4.43-.95-4.43Zm-1.02 1.02c.27.6.65 1.88.6 3.46a10.11 10.11 0 0 1-.58 2.99L11.5 2.03c.96-.34 1.97-.54 3-.58a8.28 8.28 0 0 1 3.45.6ZM1.38 14.65c-.04 1.72.4 2.94.6 3.37.6.27 1.88.65 3.46.6 1.05-.04 2.08-.25 3.07-.6l-6.52-6.53a10.1 10.1 0 0 0-.61 3.15Zm12.79-.43-.02.02a16.85 16.85 0 0 1-4.28 3.19l-7.3-7.3c.74-1.46 1.8-2.9 3.2-4.28v-.02c1.42-1.4 2.88-2.49 4.37-3.23l7.26 7.26a16.85 16.85 0 0 1-3.23 4.36Zm-3.06-6.3.86-.86.97.97-.86.86.66.65-.98.97-.65-.65-1.27 1.27.65.65-.97.97-.65-.65-.86.86-.97-.97.86-.86-.63-.63.97-.97.63.63 1.27-1.27-.63-.63.97-.97.63.63Z"
    />
  </symbol>
  <symbol id="sport_snooker" viewBox="0 0 20 20" fill-rule="evenodd">
    <path
      d="M10 6.2A3.1 3.1 0 1 0 10 0a3.1 3.1 0 0 0 0 6.2Zm0-4.82a1.72 1.72 0 1 1 0 3.45 1.72 1.72 0 0 1 0-3.45ZM9.66 10a3.1 3.1 0 1 0-6.21 0 3.1 3.1 0 0 0 6.2 0Zm-3.1 1.72a1.72 1.72 0 1 1 0-3.44 1.72 1.72 0 0 1 0 3.44Zm6.89-4.82a3.1 3.1 0 1 1 0 6.2 3.1 3.1 0 0 1 0-6.2ZM11.72 10a1.72 1.72 0 1 0 3.45 0 1.72 1.72 0 0 0-3.45 0ZM10 13.8a3.1 3.1 0 1 0 0 6.2 3.1 3.1 0 0 0 0-6.2Zm0 4.82a1.72 1.72 0 1 1 0-3.45 1.72 1.72 0 0 1 0 3.45ZM.24 15.71a3.1 3.1 0 1 1 5.73 2.37 3.1 3.1 0 0 1-5.73-2.37Zm1.14 1.19a1.72 1.72 0 1 0 3.45 0 1.72 1.72 0 0 0-3.45 0Zm15.52-3.1a3.1 3.1 0 1 0 0 6.2 3.1 3.1 0 0 0 0-6.2Zm0 4.82a1.72 1.72 0 1 1 0-3.45 1.72 1.72 0 0 1 0 3.45Z"
    />
  </symbol>
  <symbol id="sport_soccer" viewBox="0 0 20 20" fill-rule="evenodd">
    <path
      d="M17 2.93a9.96 9.96 0 1 0-14.08 14.1A9.96 9.96 0 0 0 17 2.92Zm.41 2.77a8.5 8.5 0 0 1 1.1 3.43L16.66 8.1l.75-2.4Zm-1.37-1.8.37.4-1.11 3.57-1.33.4-3.32-2.41V4.5l3.16-2.2a8.6 8.6 0 0 1 2.22 1.6ZM9.96 1.4c.78-.01 1.55.1 2.3.3l-2.3 1.6-2.3-1.6c.75-.2 1.52-.31 2.3-.3ZM3.9 3.9a8.6 8.6 0 0 1 2.22-1.6l3.16 2.2v1.36l-3.32 2.4-1.32-.4L3.52 4.3l.37-.4ZM2.52 5.7l.75 2.4-1.85 1.03a8.5 8.5 0 0 1 1.1-3.43Zm1.37 10.35-.22-.23H5.7l.65 1.95a8.6 8.6 0 0 1-2.45-1.72Zm2.01-1.6H2.63A8.5 8.5 0 0 1 1.4 10.7l2.75-1.55 1.41.43 1.28 3.91-.95.95Zm6.05 3.89c-1.3.3-2.66.3-3.97 0l-1.01-3.02 1.1-1.1h3.79l1.1 1.1-1.01 3.02Zm-.07-5.44H8.05L6.86 9.25 9.96 7l3.1 2.25-1.18 3.65Zm4.15 3.15a8.6 8.6 0 0 1-2.45 1.72l.66-1.94h2.01l-.22.22Zm-2-1.6-.95-.95 1.27-3.91 1.41-.43 2.76 1.55a8.5 8.5 0 0 1-1.22 3.74h-3.27Z"
    />
  </symbol>
  <symbol id="sport_table-tennis" viewBox="0 0 20 20" fill-rule="evenodd">
    <path
      d="M2.01 4.56a7.59 7.59 0 1 1 2.55 9.2l-3.48 3.49H0v-1.08l3.4-3.42a7.59 7.59 0 0 1-1.39-8.2ZM2.96 6a6.2 6.2 0 0 0 7.57 7.6L2.96 6Zm8.97 7.04L3.53 4.6a6.2 6.2 0 1 1 8.4 8.44Zm5.31 1.44a2.76 2.76 0 1 0 0 5.52 2.76 2.76 0 0 0 0-5.52Zm0 4.14a1.38 1.38 0 1 1 0-2.76 1.38 1.38 0 0 1 0 2.76Z"
    />
  </symbol>
  <symbol id="sport_tennis" viewBox="0 0 20 20" fill-rule="evenodd">
    <path
      d="M13.16.14A5.96 5.96 0 0 1 18.3 1.7a5.98 5.98 0 0 1 1.56 5.14 9.67 9.67 0 0 1-2.83 5.49c-.76.76-1.64 1.4-2.6 1.9a8.9 8.9 0 0 1-2.58.88l-7.58 1.6L.99 20H0v-.96l3.3-3.3 1.6-7.58a9.77 9.77 0 0 1 2.78-5.18A9.67 9.67 0 0 1 13.16.14ZM7.74 14.58a5.36 5.36 0 0 1-2.3-2.3l-.62 2.92 2.92-.62ZM18.5 6.66c-.12.86-.4 1.7-.8 2.47a9.14 9.14 0 0 1-5.72 4.56l-.4.08-.22.03c-1.6.21-3.02-.2-3.98-1.17a4.64 4.64 0 0 1-1.14-4.21l.09-.4a8.53 8.53 0 0 1 2.32-4.07 8.3 8.3 0 0 1 4.7-2.44c.26-.04.53-.06.8-.06a4.4 4.4 0 0 1 3.18 1.22 4.64 4.64 0 0 1 1.17 4ZM2.75.08a2.75 2.75 0 1 0 0 5.5 2.75 2.75 0 0 0 0-5.5Zm0 4.12a1.37 1.37 0 1 1 0-2.75 1.37 1.37 0 0 1 0 2.75Z"
    />
  </symbol>
  <symbol id="sport_volleyball" viewBox="0 0 20 20" fill-rule="evenodd">
    <path
      d="M17.006 2.918A9.963 9.963 0 1 0 5.593 18.917a9.963 9.963 0 0 0 14.33-8.955 9.896 9.896 0 0 0-2.917-7.044Zm1.544 7.044a8.575 8.575 0 0 1-.712 3.435 8.936 8.936 0 0 1-2.617-.42 14.67 14.67 0 0 0 .034-6.525 16.533 16.533 0 0 0-1.57-4.235 8.61 8.61 0 0 1 4.865 7.745Zm-6.865-8.416a15.38 15.38 0 0 1 2.227 5.2 13.32 13.32 0 0 1 .018 5.708 8.88 8.88 0 0 1-3.157-2.659c.25-1.655.09-3.347-.464-4.927a10.327 10.327 0 0 0-1.95-3.341 8.717 8.717 0 0 1 3.326.023v-.004ZM3.893 3.893A8.573 8.573 0 0 1 6.87 1.944a8.977 8.977 0 0 1 1.81 2.564 14.788 14.788 0 0 0-4.743 4.037 15.592 15.592 0 0 0-2.193 3.915 8.598 8.598 0 0 1 2.15-8.567ZM2.713 14.57a5.272 5.272 0 0 1-.143-.234 14.377 14.377 0 0 1 2.456-4.954 13.435 13.435 0 0 1 4.142-3.575 8.909 8.909 0 0 1 .248 3.769 10.235 10.235 0 0 0-4.149 7.579 8.621 8.621 0 0 1-2.553-2.585Zm3.908 3.306a8.907 8.907 0 0 1 .572-3.186 14.38 14.38 0 0 0 4.851 3.607 8.668 8.668 0 0 1-5.423-.421Zm9.413-1.842a8.613 8.613 0 0 1-2.08 1.536 13.009 13.009 0 0 1-6.11-4.242A8.88 8.88 0 0 1 9.91 10.93a10.239 10.239 0 0 0 7.188 3.808c-.312.466-.669.9-1.065 1.297Z"
    />
  </symbol>
  <symbol id="sport_water-polo" viewBox="0 0 20 20" fill-rule="evenodd">
    <path
      d="M2.48 7.56a7.56 7.56 0 1 1 15.12 0 7.56 7.56 0 0 1-15.12 0Zm8.77-6.07a6.2 6.2 0 0 0-2.07-.06 7.96 7.96 0 0 1 1.58 5.95 6.51 6.51 0 0 0 2.08 1.8 9.9 9.9 0 0 0-.06-4.02c-.29-1.3-.8-2.54-1.53-3.67Zm-7.3 7.12A6.18 6.18 0 0 1 7.7 1.83c.43.46.8.98 1.07 1.54a11.5 11.5 0 0 0-4.83 5.24Zm.7 1.98a6.2 6.2 0 0 0 1.66 1.9 7.88 7.88 0 0 1 3.1-5.32c.1-.83.06-1.68-.14-2.5a10.28 10.28 0 0 0-4.62 5.92Zm6.26 3.1a6.18 6.18 0 0 1-3.28-.44c.02-.63.13-1.25.33-1.85.84.93 1.84 1.7 2.95 2.28Zm2-.66a6.23 6.23 0 0 0 2.06-1.75 7.94 7.94 0 0 1-5.06-2.76c-.51.44-.95.95-1.3 1.52a9.02 9.02 0 0 0 4.3 3Zm1.22-3.32c.35-1.6.35-3.25 0-4.84-.2-.9-.5-1.77-.89-2.6a6.18 6.18 0 0 1 2.49 7.7 6.56 6.56 0 0 1-1.6-.26Zm1.14 6.1c1.6 0 2.45.85 3.12 1.56l.1.12c.46.49.87.93 1.51 1.06v1.37c-1.25-.16-1.98-.93-2.57-1.56l-.04-.05c-.62-.65-1.1-1.13-2.12-1.13-1.01 0-1.5.48-2.11 1.13-.68.72-1.52 1.61-3.12 1.61s-2.45-.89-3.12-1.6c-.62-.66-1.1-1.14-2.12-1.14-1 0-1.5.48-2.11 1.13l-.04.05c-.6.63-1.32 1.4-2.57 1.56v-1.37c.63-.13 1.04-.57 1.5-1.06l.1-.12c.68-.71 1.52-1.57 3.12-1.57 1.61 0 2.45.86 3.12 1.57.62.66 1.1 1.18 2.12 1.18 1 0 1.5-.52 2.11-1.18.68-.71 1.52-1.57 3.12-1.57Z"
    />
  </symbol>
  <symbol id="sport_winter-sports" viewBox="0 0 20 20" fill-rule="evenodd">
    <path
      d="m19.16 12.41-.38-1.32-3.47 1L11.5 10l3.8-2.09 3.47 1 .38-1.32-2.15-.62 2.17-1.2-.67-1.2-2.16 1.2.62-2.16-1.33-.38-1 3.47-3.86 2.13v-4.4l2.56-2.56-.98-.98-1.58 1.58V0H9.4v2.47L7.82.9l-.98.98L9.4 4.42v4.41L5.54 6.7l-1-3.47-1.33.38.62 2.15-2.16-1.2L1 5.78l2.17 1.2-2.15.62.38 1.32 3.47-1L8.67 10l-3.8 2.09-3.47-1-.38 1.32 2.15.62L1 14.23l.67 1.2 2.16-1.2-.62 2.16 1.33.38 1-3.47 3.86-2.13v4.4l-2.56 2.56.98.98 1.58-1.58V20h1.38v-2.47l1.58 1.58.98-.98-2.56-2.55v-4.41l3.86 2.13 1 3.47 1.33-.38-.62-2.15 2.16 1.2.67-1.21-2.17-1.2 2.15-.62Z"
    />
  </symbol>
  <symbol id="sport_winter-sports-alpine-skiing" viewBox="0 0 20 20" fill-rule="evenodd">
    <path
      d="m19.16 12.41-.38-1.32-3.47 1L11.5 10l3.8-2.09 3.47 1 .38-1.32-2.15-.62 2.17-1.2-.67-1.2-2.16 1.2.62-2.16-1.33-.38-1 3.47-3.86 2.13v-4.4l2.56-2.56-.98-.98-1.58 1.58V0H9.4v2.47L7.82.9l-.98.98L9.4 4.42v4.41L5.54 6.7l-1-3.47-1.33.38.62 2.15-2.16-1.2L1 5.78l2.17 1.2-2.15.62.38 1.32 3.47-1L8.67 10l-3.8 2.09-3.47-1-.38 1.32 2.15.62L1 14.23l.67 1.2 2.16-1.2-.62 2.16 1.33.38 1-3.47 3.86-2.13v4.4l-2.56 2.56.98.98 1.58-1.58V20h1.38v-2.47l1.58 1.58.98-.98-2.56-2.55v-4.41l3.86 2.13 1 3.47 1.33-.38-.62-2.15 2.16 1.2.67-1.21-2.17-1.2 2.15-.62Z"
    />
  </symbol>
  <symbol id="sport_winter-sports-biathlon" viewBox="0 0 20 20" fill-rule="evenodd">
    <path
      d="m19.16 12.41-.38-1.32-3.47 1L11.5 10l3.8-2.09 3.47 1 .38-1.32-2.15-.62 2.17-1.2-.67-1.2-2.16 1.2.62-2.16-1.33-.38-1 3.47-3.86 2.13v-4.4l2.56-2.56-.98-.98-1.58 1.58V0H9.4v2.47L7.82.9l-.98.98L9.4 4.42v4.41L5.54 6.7l-1-3.47-1.33.38.62 2.15-2.16-1.2L1 5.78l2.17 1.2-2.15.62.38 1.32 3.47-1L8.67 10l-3.8 2.09-3.47-1-.38 1.32 2.15.62L1 14.23l.67 1.2 2.16-1.2-.62 2.16 1.33.38 1-3.47 3.86-2.13v4.4l-2.56 2.56.98.98 1.58-1.58V20h1.38v-2.47l1.58 1.58.98-.98-2.56-2.55v-4.41l3.86 2.13 1 3.47 1.33-.38-.62-2.15 2.16 1.2.67-1.21-2.17-1.2 2.15-.62Z"
    />
  </symbol>
  <symbol id="sport_winter-sports-cross-country" viewBox="0 0 20 20" fill-rule="evenodd">
    <path
      d="m19.16 12.41-.38-1.32-3.47 1L11.5 10l3.8-2.09 3.47 1 .38-1.32-2.15-.62 2.17-1.2-.67-1.2-2.16 1.2.62-2.16-1.33-.38-1 3.47-3.86 2.13v-4.4l2.56-2.56-.98-.98-1.58 1.58V0H9.4v2.47L7.82.9l-.98.98L9.4 4.42v4.41L5.54 6.7l-1-3.47-1.33.38.62 2.15-2.16-1.2L1 5.78l2.17 1.2-2.15.62.38 1.32 3.47-1L8.67 10l-3.8 2.09-3.47-1-.38 1.32 2.15.62L1 14.23l.67 1.2 2.16-1.2-.62 2.16 1.33.38 1-3.47 3.86-2.13v4.4l-2.56 2.56.98.98 1.58-1.58V20h1.38v-2.47l1.58 1.58.98-.98-2.56-2.55v-4.41l3.86 2.13 1 3.47 1.33-.38-.62-2.15 2.16 1.2.67-1.21-2.17-1.2 2.15-.62Z"
    />
  </symbol>
  <symbol id="sport_winter-sports-ski-jumping" viewBox="0 0 20 20" fill-rule="evenodd">
    <path
      d="m19.16 12.41-.38-1.32-3.47 1L11.5 10l3.8-2.09 3.47 1 .38-1.32-2.15-.62 2.17-1.2-.67-1.2-2.16 1.2.62-2.16-1.33-.38-1 3.47-3.86 2.13v-4.4l2.56-2.56-.98-.98-1.58 1.58V0H9.4v2.47L7.82.9l-.98.98L9.4 4.42v4.41L5.54 6.7l-1-3.47-1.33.38.62 2.15-2.16-1.2L1 5.78l2.17 1.2-2.15.62.38 1.32 3.47-1L8.67 10l-3.8 2.09-3.47-1-.38 1.32 2.15.62L1 14.23l.67 1.2 2.16-1.2-.62 2.16 1.33.38 1-3.47 3.86-2.13v4.4l-2.56 2.56.98.98 1.58-1.58V20h1.38v-2.47l1.58 1.58.98-.98-2.56-2.55v-4.41l3.86 2.13 1 3.47 1.33-.38-.62-2.15 2.16 1.2.67-1.21-2.17-1.2 2.15-.62Z"
    />
  </symbol>
</svg>
